%TF.GenerationSoftware,KiCad,Pcbnew,5.1.9*%
%TF.CreationDate,2021-04-29T21:46:09+02:00*%
%TF.ProjectId,project,70726f6a-6563-4742-9e6b-696361645f70,rev?*%
%TF.SameCoordinates,Original*%
%TF.FileFunction,Copper,L1,Top*%
%TF.FilePolarity,Positive*%
%FSLAX46Y46*%
G04 Gerber Fmt 4.6, Leading zero omitted, Abs format (unit mm)*
G04 Created by KiCad (PCBNEW 5.1.9) date 2021-04-29 21:46:09*
%MOMM*%
%LPD*%
G01*
G04 APERTURE LIST*
%TA.AperFunction,ComponentPad*%
%ADD10C,1.600000*%
%TD*%
%TA.AperFunction,ComponentPad*%
%ADD11O,1.070000X1.800000*%
%TD*%
%TA.AperFunction,ComponentPad*%
%ADD12R,1.070000X1.800000*%
%TD*%
%TA.AperFunction,ComponentPad*%
%ADD13C,1.800000*%
%TD*%
%TA.AperFunction,ComponentPad*%
%ADD14C,2.000000*%
%TD*%
%TA.AperFunction,ComponentPad*%
%ADD15O,1.600000X1.600000*%
%TD*%
%TA.AperFunction,ComponentPad*%
%ADD16R,2.000000X2.000000*%
%TD*%
%TA.AperFunction,ViaPad*%
%ADD17C,0.800000*%
%TD*%
%TA.AperFunction,Conductor*%
%ADD18C,0.250000*%
%TD*%
G04 APERTURE END LIST*
D10*
%TO.P,U1,17*%
%TO.N,GND*%
X257810000Y-71120000D03*
%TO.P,U1,18*%
%TO.N,Net-(U1-Pad18)*%
X255270000Y-71120000D03*
%TO.P,U1,19*%
%TO.N,Net-(U1-Pad19)*%
X252730000Y-71120000D03*
%TO.P,U1,20*%
%TO.N,/SCK*%
X250190000Y-71120000D03*
%TO.P,U1,16*%
%TO.N,Net-(U1-Pad16)*%
X260350000Y-71120000D03*
%TO.P,U1,15*%
%TO.N,Net-(U1-Pad15)*%
X262890000Y-71120000D03*
%TO.P,U1,14*%
%TO.N,/MISO*%
X265430000Y-71120000D03*
%TO.P,U1,21*%
%TO.N,Net-(U1-Pad21)*%
X250190000Y-73660000D03*
%TO.P,U1,22*%
%TO.N,/bat_read*%
X250190000Y-76200000D03*
%TO.P,U1,23*%
%TO.N,Net-(U1-Pad23)*%
X250190000Y-78740000D03*
%TO.P,U1,24*%
%TO.N,Net-(U1-Pad24)*%
X250190000Y-81280000D03*
%TO.P,U1,25*%
%TO.N,/SDA*%
X250190000Y-83820000D03*
%TO.P,U1,26*%
%TO.N,/SCL*%
X250190000Y-86360000D03*
%TO.P,U1,27*%
%TO.N,/RF-CS*%
X250190000Y-88900000D03*
%TO.P,U1,28*%
%TO.N,/RF-G0*%
X250190000Y-91440000D03*
%TO.P,U1,29*%
%TO.N,/RF-RST*%
X250190000Y-93980000D03*
%TO.P,U1,30*%
%TO.N,/BUZZ*%
X250190000Y-96520000D03*
%TO.P,U1,31*%
%TO.N,3V3*%
X250190000Y-99060000D03*
%TO.P,U1,32*%
%TO.N,GND*%
X250190000Y-101600000D03*
%TO.P,U1,33*%
%TO.N,VIN*%
X250190000Y-104140000D03*
%TO.P,U1,34*%
%TO.N,Net-(U1-Pad34)*%
X252730000Y-101600000D03*
%TO.P,U1,13*%
%TO.N,/MOSI*%
X265430000Y-73660000D03*
%TO.P,U1,12*%
%TO.N,/FLASH-CS*%
X265430000Y-76200000D03*
%TO.P,U1,11*%
%TO.N,/FLASH-WP*%
X265430000Y-78740000D03*
%TO.P,U1,10*%
%TO.N,/FLASH-HOLD*%
X265430000Y-81280000D03*
%TO.P,U1,9*%
%TO.N,/EXT-CS*%
X265430000Y-83820000D03*
%TO.P,U1,8*%
%TO.N,Net-(U1-Pad8)*%
X265430000Y-86360000D03*
%TO.P,U1,7*%
%TO.N,Net-(U1-Pad7)*%
X265430000Y-88900000D03*
%TO.P,U1,6*%
%TO.N,/LED-B*%
X265430000Y-91440000D03*
%TO.P,U1,5*%
%TO.N,/LED-G*%
X265430000Y-93980000D03*
%TO.P,U1,4*%
%TO.N,/LED-R*%
X265430000Y-96520000D03*
%TO.P,U1,3*%
%TO.N,/TX1*%
X265430000Y-99060000D03*
%TO.P,U1,2*%
%TO.N,/RX1*%
X265430000Y-101600000D03*
%TO.P,U1,1*%
%TO.N,GND*%
X265430000Y-104140000D03*
%TD*%
D11*
%TO.P,D1,3*%
%TO.N,Net-(D1-Pad3)*%
X241300000Y-48260000D03*
%TO.P,D1,2*%
%TO.N,Net-(D1-Pad2)*%
X240030000Y-48260000D03*
%TO.P,D1,4*%
%TO.N,GND*%
X238760000Y-48260000D03*
D12*
%TO.P,D1,1*%
%TO.N,Net-(D1-Pad1)*%
X237490000Y-48260000D03*
%TD*%
%TO.P,U4,8*%
%TO.N,3V3*%
%TA.AperFunction,SMDPad,CuDef*%
G36*
G01*
X259340000Y-49045000D02*
X259340000Y-48745000D01*
G75*
G02*
X259490000Y-48595000I150000J0D01*
G01*
X260790000Y-48595000D01*
G75*
G02*
X260940000Y-48745000I0J-150000D01*
G01*
X260940000Y-49045000D01*
G75*
G02*
X260790000Y-49195000I-150000J0D01*
G01*
X259490000Y-49195000D01*
G75*
G02*
X259340000Y-49045000I0J150000D01*
G01*
G37*
%TD.AperFunction*%
%TO.P,U4,7*%
%TO.N,/FLASH-HOLD*%
%TA.AperFunction,SMDPad,CuDef*%
G36*
G01*
X259340000Y-50315000D02*
X259340000Y-50015000D01*
G75*
G02*
X259490000Y-49865000I150000J0D01*
G01*
X260790000Y-49865000D01*
G75*
G02*
X260940000Y-50015000I0J-150000D01*
G01*
X260940000Y-50315000D01*
G75*
G02*
X260790000Y-50465000I-150000J0D01*
G01*
X259490000Y-50465000D01*
G75*
G02*
X259340000Y-50315000I0J150000D01*
G01*
G37*
%TD.AperFunction*%
%TO.P,U4,6*%
%TO.N,/SCK*%
%TA.AperFunction,SMDPad,CuDef*%
G36*
G01*
X259340000Y-51585000D02*
X259340000Y-51285000D01*
G75*
G02*
X259490000Y-51135000I150000J0D01*
G01*
X260790000Y-51135000D01*
G75*
G02*
X260940000Y-51285000I0J-150000D01*
G01*
X260940000Y-51585000D01*
G75*
G02*
X260790000Y-51735000I-150000J0D01*
G01*
X259490000Y-51735000D01*
G75*
G02*
X259340000Y-51585000I0J150000D01*
G01*
G37*
%TD.AperFunction*%
%TO.P,U4,5*%
%TO.N,/MOSI*%
%TA.AperFunction,SMDPad,CuDef*%
G36*
G01*
X259340000Y-52855000D02*
X259340000Y-52555000D01*
G75*
G02*
X259490000Y-52405000I150000J0D01*
G01*
X260790000Y-52405000D01*
G75*
G02*
X260940000Y-52555000I0J-150000D01*
G01*
X260940000Y-52855000D01*
G75*
G02*
X260790000Y-53005000I-150000J0D01*
G01*
X259490000Y-53005000D01*
G75*
G02*
X259340000Y-52855000I0J150000D01*
G01*
G37*
%TD.AperFunction*%
%TO.P,U4,4*%
%TO.N,GND*%
%TA.AperFunction,SMDPad,CuDef*%
G36*
G01*
X252140000Y-52855000D02*
X252140000Y-52555000D01*
G75*
G02*
X252290000Y-52405000I150000J0D01*
G01*
X253590000Y-52405000D01*
G75*
G02*
X253740000Y-52555000I0J-150000D01*
G01*
X253740000Y-52855000D01*
G75*
G02*
X253590000Y-53005000I-150000J0D01*
G01*
X252290000Y-53005000D01*
G75*
G02*
X252140000Y-52855000I0J150000D01*
G01*
G37*
%TD.AperFunction*%
%TO.P,U4,3*%
%TO.N,/FLASH-WP*%
%TA.AperFunction,SMDPad,CuDef*%
G36*
G01*
X252140000Y-51585000D02*
X252140000Y-51285000D01*
G75*
G02*
X252290000Y-51135000I150000J0D01*
G01*
X253590000Y-51135000D01*
G75*
G02*
X253740000Y-51285000I0J-150000D01*
G01*
X253740000Y-51585000D01*
G75*
G02*
X253590000Y-51735000I-150000J0D01*
G01*
X252290000Y-51735000D01*
G75*
G02*
X252140000Y-51585000I0J150000D01*
G01*
G37*
%TD.AperFunction*%
%TO.P,U4,2*%
%TO.N,/MISO*%
%TA.AperFunction,SMDPad,CuDef*%
G36*
G01*
X252140000Y-50315000D02*
X252140000Y-50015000D01*
G75*
G02*
X252290000Y-49865000I150000J0D01*
G01*
X253590000Y-49865000D01*
G75*
G02*
X253740000Y-50015000I0J-150000D01*
G01*
X253740000Y-50315000D01*
G75*
G02*
X253590000Y-50465000I-150000J0D01*
G01*
X252290000Y-50465000D01*
G75*
G02*
X252140000Y-50315000I0J150000D01*
G01*
G37*
%TD.AperFunction*%
%TO.P,U4,1*%
%TO.N,/FLASH-CS*%
%TA.AperFunction,SMDPad,CuDef*%
G36*
G01*
X252140000Y-49045000D02*
X252140000Y-48745000D01*
G75*
G02*
X252290000Y-48595000I150000J0D01*
G01*
X253590000Y-48595000D01*
G75*
G02*
X253740000Y-48745000I0J-150000D01*
G01*
X253740000Y-49045000D01*
G75*
G02*
X253590000Y-49195000I-150000J0D01*
G01*
X252290000Y-49195000D01*
G75*
G02*
X252140000Y-49045000I0J150000D01*
G01*
G37*
%TD.AperFunction*%
%TD*%
D13*
%TO.P,U3,8*%
%TO.N,Net-(U3-Pad8)*%
X246380000Y-71120000D03*
%TO.P,U3,7*%
%TO.N,Net-(U3-Pad7)*%
X246380000Y-73660000D03*
%TO.P,U3,6*%
%TO.N,Net-(U3-Pad6)*%
X246380000Y-76200000D03*
%TO.P,U3,5*%
%TO.N,/SDA*%
X246380000Y-78740000D03*
%TO.P,U3,4*%
%TO.N,/SCL*%
X246380000Y-81280000D03*
%TO.P,U3,3*%
%TO.N,GND*%
X246380000Y-83820000D03*
%TO.P,U3,2*%
%TO.N,Net-(U3-Pad2)*%
X246380000Y-86360000D03*
%TO.P,U3,1*%
%TO.N,3V3*%
X246380000Y-88900000D03*
%TD*%
D14*
%TO.P,U2,9*%
%TO.N,/RF-RST*%
X257810000Y-40640000D03*
%TO.P,U2,8*%
%TO.N,/RF-CS*%
X255270000Y-40640000D03*
%TO.P,U2,7*%
%TO.N,/MOSI*%
X252730000Y-40640000D03*
%TO.P,U2,6*%
%TO.N,/MISO*%
X250190000Y-40640000D03*
%TO.P,U2,5*%
%TO.N,/SCK*%
X247650000Y-40640000D03*
%TO.P,U2,4*%
%TO.N,/RF-G0*%
X245110000Y-40640000D03*
%TO.P,U2,3*%
%TO.N,Net-(U2-Pad3)*%
X242570000Y-40640000D03*
%TO.P,U2,2*%
%TO.N,GND*%
X240030000Y-40640000D03*
%TO.P,U2,1*%
%TO.N,3V3*%
X237490000Y-40640000D03*
%TD*%
D15*
%TO.P,R5,2*%
%TO.N,Net-(D1-Pad2)*%
X241300000Y-53340000D03*
D10*
%TO.P,R5,1*%
%TO.N,/LED-G*%
X241300000Y-58420000D03*
%TD*%
D15*
%TO.P,R4,2*%
%TO.N,Net-(D1-Pad3)*%
X246380000Y-53340000D03*
D10*
%TO.P,R4,1*%
%TO.N,/LED-B*%
X246380000Y-58420000D03*
%TD*%
D15*
%TO.P,R3,2*%
%TO.N,Net-(D1-Pad1)*%
X236220000Y-53340000D03*
D10*
%TO.P,R3,1*%
%TO.N,/LED-R*%
X236220000Y-58420000D03*
%TD*%
D15*
%TO.P,R2,2*%
%TO.N,/bat_read*%
X255270000Y-62230000D03*
D10*
%TO.P,R2,1*%
%TO.N,GND*%
X255270000Y-67310000D03*
%TD*%
D15*
%TO.P,R1,2*%
%TO.N,VIN*%
X250190000Y-62230000D03*
D10*
%TO.P,R1,1*%
%TO.N,/bat_read*%
X250190000Y-67310000D03*
%TD*%
D13*
%TO.P,J1,10*%
%TO.N,/RX1*%
X265430000Y-66040000D03*
%TO.P,J1,9*%
%TO.N,/TX1*%
X265430000Y-63500000D03*
%TO.P,J1,8*%
%TO.N,/SCK*%
X265430000Y-60960000D03*
%TO.P,J1,7*%
%TO.N,/MISO*%
X265430000Y-58420000D03*
%TO.P,J1,6*%
%TO.N,/MOSI*%
X265430000Y-55880000D03*
%TO.P,J1,5*%
%TO.N,/EXT-CS*%
X265430000Y-53340000D03*
%TO.P,J1,4*%
%TO.N,/SDA*%
X265430000Y-50800000D03*
%TO.P,J1,3*%
%TO.N,/SCL*%
X265430000Y-48260000D03*
%TO.P,J1,2*%
%TO.N,3V3*%
X265430000Y-45720000D03*
%TO.P,J1,1*%
%TO.N,GND*%
X265430000Y-43180000D03*
%TD*%
D15*
%TO.P,C2,2*%
%TO.N,3V3*%
X260350000Y-62230000D03*
D10*
%TO.P,C2,1*%
%TO.N,GND*%
X260350000Y-67310000D03*
%TD*%
D15*
%TO.P,C1,2*%
%TO.N,VIN*%
X245110000Y-62230000D03*
D10*
%TO.P,C1,1*%
%TO.N,GND*%
X245110000Y-67310000D03*
%TD*%
D16*
%TO.P,BZ1,1*%
%TO.N,/BUZZ*%
X243840000Y-98425000D03*
D14*
%TO.P,BZ1,2*%
%TO.N,GND*%
X236220000Y-98425000D03*
%TD*%
D13*
%TO.P,BAT1,2*%
%TO.N,VIN*%
X237490000Y-63500000D03*
%TO.P,BAT1,1*%
%TO.N,GND*%
X237490000Y-66040000D03*
%TD*%
D17*
%TO.N,VIN*%
X238760000Y-85725000D03*
%TO.N,GND*%
X241935000Y-85725000D03*
X260350000Y-44450000D03*
X251460000Y-52705000D03*
%TO.N,3V3*%
X259080000Y-45720000D03*
X258535001Y-48985001D03*
%TO.N,/SCK*%
X261620000Y-51435000D03*
%TO.N,/EXT-CS*%
X256395001Y-69359999D03*
X262255000Y-53340000D03*
%TO.N,/FLASH-CS*%
X249064999Y-52560001D03*
%TO.N,/FLASH-WP*%
X250190000Y-51435000D03*
%TO.N,/FLASH-HOLD*%
X257175000Y-55245000D03*
X257810000Y-50165000D03*
%TD*%
D18*
%TO.N,VIN*%
X243840000Y-63500000D02*
X245110000Y-62230000D01*
X237490000Y-63500000D02*
X243840000Y-63500000D01*
X250190000Y-62230000D02*
X245110000Y-62230000D01*
X235585000Y-82550000D02*
X238760000Y-85725000D01*
X235585000Y-64135000D02*
X235585000Y-82550000D01*
X236220000Y-63500000D02*
X235585000Y-64135000D01*
X237490000Y-63500000D02*
X236220000Y-63500000D01*
%TO.N,GND*%
X255270000Y-67310000D02*
X256540000Y-67310000D01*
X257810000Y-68580000D02*
X257810000Y-71120000D01*
X260350000Y-67310000D02*
X259080000Y-67310000D01*
X257810000Y-68580000D02*
X259080000Y-67310000D01*
X243840000Y-66040000D02*
X245110000Y-67310000D01*
X237490000Y-66040000D02*
X243840000Y-66040000D01*
X236220000Y-99060000D02*
X238760000Y-101600000D01*
X238760000Y-101600000D02*
X250190000Y-101600000D01*
X238760000Y-41910000D02*
X240030000Y-40640000D01*
X238760000Y-48260000D02*
X238760000Y-41910000D01*
X245110000Y-82550000D02*
X246380000Y-83820000D01*
X245110000Y-67310000D02*
X245110000Y-82550000D01*
X245110000Y-82550000D02*
X242570000Y-85090000D01*
X242570000Y-85090000D02*
X241935000Y-85725000D01*
X241935000Y-85725000D02*
X241935000Y-85725000D01*
X261620000Y-43180000D02*
X260350000Y-44450000D01*
X265430000Y-43180000D02*
X261620000Y-43180000D01*
X256540000Y-67310000D02*
X257810000Y-68580000D01*
X256395001Y-66184999D02*
X255270000Y-67310000D01*
X256395001Y-60180001D02*
X256395001Y-66184999D01*
X252940000Y-56725000D02*
X256395001Y-60180001D01*
X252940000Y-52705000D02*
X252940000Y-56725000D01*
X252940000Y-52705000D02*
X251460000Y-52705000D01*
X251460000Y-52705000D02*
X251460000Y-52705000D01*
%TO.N,/BUZZ*%
X246380000Y-96520000D02*
X243840000Y-99060000D01*
X250190000Y-96520000D02*
X246380000Y-96520000D01*
%TO.N,3V3*%
X263315000Y-45720000D02*
X260140000Y-48895000D01*
X265430000Y-45720000D02*
X263315000Y-45720000D01*
X234894999Y-43235001D02*
X234894999Y-86304999D01*
X237490000Y-40640000D02*
X234894999Y-43235001D01*
X237490000Y-88900000D02*
X246380000Y-88900000D01*
X234894999Y-86304999D02*
X237490000Y-88900000D01*
X248285000Y-100965000D02*
X250190000Y-99060000D01*
X242570000Y-100965000D02*
X248285000Y-100965000D01*
X241935000Y-97790000D02*
X241935000Y-100330000D01*
X241935000Y-100330000D02*
X242570000Y-100965000D01*
X246380000Y-93345000D02*
X241935000Y-97790000D01*
X246380000Y-88900000D02*
X246380000Y-93345000D01*
X260140000Y-48895000D02*
X260140000Y-46780000D01*
X260140000Y-46780000D02*
X259080000Y-45720000D01*
X259080000Y-45720000D02*
X259080000Y-45720000D01*
X258625002Y-48895000D02*
X258535001Y-48985001D01*
X260140000Y-48895000D02*
X258625002Y-48895000D01*
%TO.N,Net-(D1-Pad2)*%
X240030000Y-52070000D02*
X240030000Y-48260000D01*
X241300000Y-53340000D02*
X240030000Y-52070000D01*
%TO.N,Net-(D1-Pad1)*%
X236220000Y-49530000D02*
X237490000Y-48260000D01*
X236220000Y-53340000D02*
X236220000Y-49530000D01*
%TO.N,/RX1*%
X264304999Y-67165001D02*
X265430000Y-66040000D01*
X264304999Y-74200001D02*
X264304999Y-67165001D01*
X264889999Y-74785001D02*
X264304999Y-74200001D01*
X265970001Y-74785001D02*
X264889999Y-74785001D01*
X267005011Y-75820011D02*
X265970001Y-74785001D01*
X267005011Y-100024989D02*
X267005011Y-75820011D01*
X265430000Y-101600000D02*
X267005011Y-100024989D01*
%TO.N,/TX1*%
X265179997Y-80154999D02*
X261620000Y-76595002D01*
X265970001Y-80154999D02*
X265179997Y-80154999D01*
X266555001Y-80739999D02*
X265970001Y-80154999D01*
X266555001Y-97934999D02*
X266555001Y-80739999D01*
X265430000Y-99060000D02*
X266555001Y-97934999D01*
X264204999Y-64725001D02*
X265430000Y-63500000D01*
X264204999Y-65756413D02*
X264204999Y-64725001D01*
X261620000Y-68341412D02*
X264204999Y-65756413D01*
X261620000Y-76595002D02*
X261620000Y-68341412D01*
%TO.N,/SCK*%
X260140000Y-51435000D02*
X261620000Y-51435000D01*
X261620000Y-51435000D02*
X261620000Y-51435000D01*
%TO.N,/MOSI*%
X267105010Y-57555010D02*
X265430000Y-55880000D01*
X267105010Y-71984990D02*
X267105010Y-57555010D01*
X265430000Y-73660000D02*
X267105010Y-71984990D01*
X267105010Y-43042008D02*
X267105010Y-57555010D01*
X264841999Y-41954999D02*
X266018001Y-41954999D01*
X264831997Y-41965001D02*
X264841999Y-41954999D01*
X254055001Y-41965001D02*
X264831997Y-41965001D01*
X266018001Y-41954999D02*
X267105010Y-43042008D01*
X252730000Y-40640000D02*
X254055001Y-41965001D01*
X263315000Y-55880000D02*
X260140000Y-52705000D01*
X265430000Y-55880000D02*
X263315000Y-55880000D01*
%TO.N,/MISO*%
X266655001Y-59645001D02*
X265430000Y-58420000D01*
X266655001Y-69894999D02*
X266655001Y-59645001D01*
X265430000Y-71120000D02*
X266655001Y-69894999D01*
X261396768Y-58420000D02*
X257810000Y-54833232D01*
X265430000Y-58420000D02*
X261396768Y-58420000D01*
X257810000Y-54833232D02*
X257810000Y-52070000D01*
X255905000Y-50165000D02*
X252940000Y-50165000D01*
X257810000Y-52070000D02*
X255905000Y-50165000D01*
X250190000Y-40640000D02*
X252730000Y-43180000D01*
X252730000Y-43180000D02*
X254635000Y-43180000D01*
X255905000Y-44450000D02*
X255905000Y-50165000D01*
X254635000Y-43180000D02*
X255905000Y-44450000D01*
%TO.N,/EXT-CS*%
X256395001Y-74785001D02*
X256395001Y-70579999D01*
X265430000Y-83820000D02*
X256395001Y-74785001D01*
X256395001Y-70579999D02*
X256395001Y-69359999D01*
X256395001Y-69359999D02*
X256395001Y-69359999D01*
X265430000Y-53340000D02*
X262255000Y-53340000D01*
%TO.N,/SCL*%
X248285000Y-83185000D02*
X246380000Y-81280000D01*
X248285000Y-84455000D02*
X248285000Y-83185000D01*
X250190000Y-86360000D02*
X248285000Y-84455000D01*
%TO.N,/SDA*%
X246380000Y-78740000D02*
X247650000Y-78740000D01*
X247650000Y-78740000D02*
X248285000Y-79375000D01*
X248285000Y-81915000D02*
X250190000Y-83820000D01*
X248285000Y-79375000D02*
X248285000Y-81915000D01*
%TO.N,/bat_read*%
X250190000Y-67310000D02*
X251460000Y-67310000D01*
X251460000Y-67310000D02*
X252730000Y-66040000D01*
X252730000Y-66040000D02*
X252730000Y-63500000D01*
X252730000Y-63500000D02*
X254000000Y-62230000D01*
X254000000Y-62230000D02*
X255270000Y-62230000D01*
X254000000Y-72390000D02*
X250045001Y-76344999D01*
X254000000Y-63500000D02*
X254000000Y-72390000D01*
X255125001Y-62374999D02*
X254000000Y-63500000D01*
%TO.N,Net-(D1-Pad3)*%
X246380000Y-53340000D02*
X241300000Y-48260000D01*
%TO.N,/RF-G0*%
X251315001Y-90314999D02*
X250190000Y-91440000D01*
X250730001Y-77614999D02*
X251315001Y-78199999D01*
X249939997Y-77614999D02*
X250730001Y-77614999D01*
X249064999Y-76740001D02*
X249939997Y-77614999D01*
X249064999Y-66769999D02*
X249064999Y-76740001D01*
X251315001Y-78199999D02*
X251315001Y-90314999D01*
X251315001Y-64519997D02*
X249064999Y-66769999D01*
X251315001Y-61689999D02*
X251315001Y-64519997D01*
X247505001Y-57879999D02*
X251315001Y-61689999D01*
X247505001Y-43035001D02*
X247505001Y-57879999D01*
X245110000Y-40640000D02*
X247505001Y-43035001D01*
%TO.N,/RF-RST*%
X258935001Y-102725001D02*
X250190000Y-93980000D01*
X266209999Y-102725001D02*
X258935001Y-102725001D01*
X267555019Y-101379981D02*
X266209999Y-102725001D01*
X267555019Y-42855607D02*
X267555019Y-101379981D01*
X265339412Y-40640000D02*
X267555019Y-42855607D01*
X257810000Y-40640000D02*
X265339412Y-40640000D01*
%TO.N,/FLASH-CS*%
X249064999Y-52560001D02*
X249064999Y-50020001D01*
X250190000Y-48895000D02*
X252940000Y-48895000D01*
X249064999Y-50020001D02*
X250190000Y-48895000D01*
%TO.N,/FLASH-WP*%
X252940000Y-51435000D02*
X250190000Y-51435000D01*
%TO.N,/FLASH-HOLD*%
X257175000Y-55245000D02*
X257175000Y-55245000D01*
X257810000Y-50165000D02*
X260140000Y-50165000D01*
X261475001Y-59545001D02*
X257175000Y-55245000D01*
X261475001Y-67850001D02*
X261475001Y-59545001D01*
X259080000Y-70245002D02*
X261475001Y-67850001D01*
X259080000Y-74930000D02*
X259080000Y-70245002D01*
X265430000Y-81280000D02*
X259080000Y-74930000D01*
%TD*%
M02*
