%TF.GenerationSoftware,KiCad,Pcbnew,5.1.9*%
%TF.CreationDate,2021-04-29T21:46:09+02:00*%
%TF.ProjectId,project,70726f6a-6563-4742-9e6b-696361645f70,rev?*%
%TF.SameCoordinates,Original*%
%TF.FileFunction,Soldermask,Top*%
%TF.FilePolarity,Negative*%
%FSLAX46Y46*%
G04 Gerber Fmt 4.6, Leading zero omitted, Abs format (unit mm)*
G04 Created by KiCad (PCBNEW 5.1.9) date 2021-04-29 21:46:09*
%MOMM*%
%LPD*%
G01*
G04 APERTURE LIST*
%ADD10C,1.600000*%
%ADD11O,1.070000X1.800000*%
%ADD12R,1.070000X1.800000*%
%ADD13C,1.800000*%
%ADD14C,2.000000*%
%ADD15O,1.600000X1.600000*%
%ADD16R,2.000000X2.000000*%
G04 APERTURE END LIST*
D10*
%TO.C,U1*%
X257810000Y-71120000D03*
X255270000Y-71120000D03*
X252730000Y-71120000D03*
X250190000Y-71120000D03*
X260350000Y-71120000D03*
X262890000Y-71120000D03*
X265430000Y-71120000D03*
X250190000Y-73660000D03*
X250190000Y-76200000D03*
X250190000Y-78740000D03*
X250190000Y-81280000D03*
X250190000Y-83820000D03*
X250190000Y-86360000D03*
X250190000Y-88900000D03*
X250190000Y-91440000D03*
X250190000Y-93980000D03*
X250190000Y-96520000D03*
X250190000Y-99060000D03*
X250190000Y-101600000D03*
X250190000Y-104140000D03*
X252730000Y-101600000D03*
X265430000Y-73660000D03*
X265430000Y-76200000D03*
X265430000Y-78740000D03*
X265430000Y-81280000D03*
X265430000Y-83820000D03*
X265430000Y-86360000D03*
X265430000Y-88900000D03*
X265430000Y-91440000D03*
X265430000Y-93980000D03*
X265430000Y-96520000D03*
X265430000Y-99060000D03*
X265430000Y-101600000D03*
X265430000Y-104140000D03*
%TD*%
D11*
%TO.C,D1*%
X241300000Y-48260000D03*
X240030000Y-48260000D03*
X238760000Y-48260000D03*
D12*
X237490000Y-48260000D03*
%TD*%
%TO.C,U4*%
G36*
G01*
X259340000Y-49045000D02*
X259340000Y-48745000D01*
G75*
G02*
X259490000Y-48595000I150000J0D01*
G01*
X260790000Y-48595000D01*
G75*
G02*
X260940000Y-48745000I0J-150000D01*
G01*
X260940000Y-49045000D01*
G75*
G02*
X260790000Y-49195000I-150000J0D01*
G01*
X259490000Y-49195000D01*
G75*
G02*
X259340000Y-49045000I0J150000D01*
G01*
G37*
G36*
G01*
X259340000Y-50315000D02*
X259340000Y-50015000D01*
G75*
G02*
X259490000Y-49865000I150000J0D01*
G01*
X260790000Y-49865000D01*
G75*
G02*
X260940000Y-50015000I0J-150000D01*
G01*
X260940000Y-50315000D01*
G75*
G02*
X260790000Y-50465000I-150000J0D01*
G01*
X259490000Y-50465000D01*
G75*
G02*
X259340000Y-50315000I0J150000D01*
G01*
G37*
G36*
G01*
X259340000Y-51585000D02*
X259340000Y-51285000D01*
G75*
G02*
X259490000Y-51135000I150000J0D01*
G01*
X260790000Y-51135000D01*
G75*
G02*
X260940000Y-51285000I0J-150000D01*
G01*
X260940000Y-51585000D01*
G75*
G02*
X260790000Y-51735000I-150000J0D01*
G01*
X259490000Y-51735000D01*
G75*
G02*
X259340000Y-51585000I0J150000D01*
G01*
G37*
G36*
G01*
X259340000Y-52855000D02*
X259340000Y-52555000D01*
G75*
G02*
X259490000Y-52405000I150000J0D01*
G01*
X260790000Y-52405000D01*
G75*
G02*
X260940000Y-52555000I0J-150000D01*
G01*
X260940000Y-52855000D01*
G75*
G02*
X260790000Y-53005000I-150000J0D01*
G01*
X259490000Y-53005000D01*
G75*
G02*
X259340000Y-52855000I0J150000D01*
G01*
G37*
G36*
G01*
X252140000Y-52855000D02*
X252140000Y-52555000D01*
G75*
G02*
X252290000Y-52405000I150000J0D01*
G01*
X253590000Y-52405000D01*
G75*
G02*
X253740000Y-52555000I0J-150000D01*
G01*
X253740000Y-52855000D01*
G75*
G02*
X253590000Y-53005000I-150000J0D01*
G01*
X252290000Y-53005000D01*
G75*
G02*
X252140000Y-52855000I0J150000D01*
G01*
G37*
G36*
G01*
X252140000Y-51585000D02*
X252140000Y-51285000D01*
G75*
G02*
X252290000Y-51135000I150000J0D01*
G01*
X253590000Y-51135000D01*
G75*
G02*
X253740000Y-51285000I0J-150000D01*
G01*
X253740000Y-51585000D01*
G75*
G02*
X253590000Y-51735000I-150000J0D01*
G01*
X252290000Y-51735000D01*
G75*
G02*
X252140000Y-51585000I0J150000D01*
G01*
G37*
G36*
G01*
X252140000Y-50315000D02*
X252140000Y-50015000D01*
G75*
G02*
X252290000Y-49865000I150000J0D01*
G01*
X253590000Y-49865000D01*
G75*
G02*
X253740000Y-50015000I0J-150000D01*
G01*
X253740000Y-50315000D01*
G75*
G02*
X253590000Y-50465000I-150000J0D01*
G01*
X252290000Y-50465000D01*
G75*
G02*
X252140000Y-50315000I0J150000D01*
G01*
G37*
G36*
G01*
X252140000Y-49045000D02*
X252140000Y-48745000D01*
G75*
G02*
X252290000Y-48595000I150000J0D01*
G01*
X253590000Y-48595000D01*
G75*
G02*
X253740000Y-48745000I0J-150000D01*
G01*
X253740000Y-49045000D01*
G75*
G02*
X253590000Y-49195000I-150000J0D01*
G01*
X252290000Y-49195000D01*
G75*
G02*
X252140000Y-49045000I0J150000D01*
G01*
G37*
%TD*%
D13*
%TO.C,U3*%
X246380000Y-71120000D03*
X246380000Y-73660000D03*
X246380000Y-76200000D03*
X246380000Y-78740000D03*
X246380000Y-81280000D03*
X246380000Y-83820000D03*
X246380000Y-86360000D03*
X246380000Y-88900000D03*
%TD*%
D14*
%TO.C,U2*%
X257810000Y-40640000D03*
X255270000Y-40640000D03*
X252730000Y-40640000D03*
X250190000Y-40640000D03*
X247650000Y-40640000D03*
X245110000Y-40640000D03*
X242570000Y-40640000D03*
X240030000Y-40640000D03*
X237490000Y-40640000D03*
%TD*%
D15*
%TO.C,R5*%
X241300000Y-53340000D03*
D10*
X241300000Y-58420000D03*
%TD*%
D15*
%TO.C,R4*%
X246380000Y-53340000D03*
D10*
X246380000Y-58420000D03*
%TD*%
D15*
%TO.C,R3*%
X236220000Y-53340000D03*
D10*
X236220000Y-58420000D03*
%TD*%
D15*
%TO.C,R2*%
X255270000Y-62230000D03*
D10*
X255270000Y-67310000D03*
%TD*%
D15*
%TO.C,R1*%
X250190000Y-62230000D03*
D10*
X250190000Y-67310000D03*
%TD*%
D13*
%TO.C,J1*%
X265430000Y-66040000D03*
X265430000Y-63500000D03*
X265430000Y-60960000D03*
X265430000Y-58420000D03*
X265430000Y-55880000D03*
X265430000Y-53340000D03*
X265430000Y-50800000D03*
X265430000Y-48260000D03*
X265430000Y-45720000D03*
X265430000Y-43180000D03*
%TD*%
D15*
%TO.C,C2*%
X260350000Y-62230000D03*
D10*
X260350000Y-67310000D03*
%TD*%
D15*
%TO.C,C1*%
X245110000Y-62230000D03*
D10*
X245110000Y-67310000D03*
%TD*%
D16*
%TO.C,BZ1*%
X243840000Y-98425000D03*
D14*
X236220000Y-98425000D03*
%TD*%
D13*
%TO.C,BAT1*%
X237490000Y-63500000D03*
X237490000Y-66040000D03*
%TD*%
M02*
