%TF.GenerationSoftware,KiCad,Pcbnew,5.1.9*%
%TF.CreationDate,2021-04-29T21:46:09+02:00*%
%TF.ProjectId,project,70726f6a-6563-4742-9e6b-696361645f70,rev?*%
%TF.SameCoordinates,Original*%
%TF.FileFunction,Legend,Top*%
%TF.FilePolarity,Positive*%
%FSLAX46Y46*%
G04 Gerber Fmt 4.6, Leading zero omitted, Abs format (unit mm)*
G04 Created by KiCad (PCBNEW 5.1.9) date 2021-04-29 21:46:09*
%MOMM*%
%LPD*%
G01*
G04 APERTURE LIST*
%ADD10C,0.100000*%
%ADD11C,0.150000*%
%ADD12C,0.120000*%
G04 APERTURE END LIST*
D10*
%TO.C,U1*%
G36*
X257937000Y-91567000D02*
G01*
X257683000Y-91313000D01*
X258064000Y-91059000D01*
X258318000Y-91313000D01*
X257937000Y-91567000D01*
G37*
X257937000Y-91567000D02*
X257683000Y-91313000D01*
X258064000Y-91059000D01*
X258318000Y-91313000D01*
X257937000Y-91567000D01*
G36*
X257556000Y-91186000D02*
G01*
X257302000Y-90932000D01*
X257683000Y-90678000D01*
X257937000Y-90932000D01*
X257556000Y-91186000D01*
G37*
X257556000Y-91186000D02*
X257302000Y-90932000D01*
X257683000Y-90678000D01*
X257937000Y-90932000D01*
X257556000Y-91186000D01*
G36*
X258318000Y-89281000D02*
G01*
X258064000Y-89027000D01*
X258445000Y-88773000D01*
X258699000Y-89027000D01*
X258318000Y-89281000D01*
G37*
X258318000Y-89281000D02*
X258064000Y-89027000D01*
X258445000Y-88773000D01*
X258699000Y-89027000D01*
X258318000Y-89281000D01*
G36*
X257810000Y-89662000D02*
G01*
X257556000Y-89408000D01*
X257937000Y-89154000D01*
X258191000Y-89408000D01*
X257810000Y-89662000D01*
G37*
X257810000Y-89662000D02*
X257556000Y-89408000D01*
X257937000Y-89154000D01*
X258191000Y-89408000D01*
X257810000Y-89662000D01*
G36*
X257302000Y-90043000D02*
G01*
X257048000Y-89789000D01*
X257429000Y-89535000D01*
X257683000Y-89789000D01*
X257302000Y-90043000D01*
G37*
X257302000Y-90043000D02*
X257048000Y-89789000D01*
X257429000Y-89535000D01*
X257683000Y-89789000D01*
X257302000Y-90043000D01*
G36*
X258191000Y-90043000D02*
G01*
X257937000Y-89789000D01*
X258318000Y-89535000D01*
X258572000Y-89789000D01*
X258191000Y-90043000D01*
G37*
X258191000Y-90043000D02*
X257937000Y-89789000D01*
X258318000Y-89535000D01*
X258572000Y-89789000D01*
X258191000Y-90043000D01*
G36*
X257683000Y-90424000D02*
G01*
X257429000Y-90170000D01*
X257810000Y-89916000D01*
X258064000Y-90170000D01*
X257683000Y-90424000D01*
G37*
X257683000Y-90424000D02*
X257429000Y-90170000D01*
X257810000Y-89916000D01*
X258064000Y-90170000D01*
X257683000Y-90424000D01*
G36*
X257175000Y-90805000D02*
G01*
X256921000Y-90551000D01*
X257302000Y-90297000D01*
X257556000Y-90551000D01*
X257175000Y-90805000D01*
G37*
X257175000Y-90805000D02*
X256921000Y-90551000D01*
X257302000Y-90297000D01*
X257556000Y-90551000D01*
X257175000Y-90805000D01*
D11*
X255905000Y-82550000D02*
X252730000Y-82550000D01*
X255905000Y-80010000D02*
X255905000Y-82550000D01*
X252730000Y-80010000D02*
X255905000Y-80010000D01*
X252730000Y-82550000D02*
X252730000Y-80010000D01*
X266700000Y-105410000D02*
X248920000Y-105410000D01*
X266700000Y-69850000D02*
X266700000Y-105410000D01*
X248920000Y-69850000D02*
X266700000Y-69850000D01*
X248920000Y-105410000D02*
X248920000Y-69850000D01*
X262890000Y-83185000D02*
X262890000Y-93345000D01*
X252730000Y-83185000D02*
X252730000Y-93345000D01*
X252730000Y-93345000D02*
X262890000Y-93345000D01*
X262890000Y-83185000D02*
X252730000Y-83185000D01*
X256540000Y-72898000D02*
X259080000Y-72898000D01*
X261620000Y-100330000D02*
X261620000Y-105410000D01*
X254000000Y-100330000D02*
X254000000Y-105410000D01*
X261620000Y-100330000D02*
X254000000Y-100330000D01*
X254000000Y-106680000D02*
X254000000Y-105410000D01*
X261620000Y-106680000D02*
X254000000Y-106680000D01*
X261620000Y-105410000D02*
X261620000Y-106680000D01*
D12*
%TO.C,D1*%
X241649479Y-49340429D02*
G75*
G02*
X237140316Y-49340000I-2254479J1080429D01*
G01*
X241649479Y-47179571D02*
G75*
G03*
X237140316Y-47180000I-2254479J-1080429D01*
G01*
X242182815Y-49340827D02*
G75*
G02*
X236835000Y-49804830I-2787815J1080827D01*
G01*
X242182815Y-47179173D02*
G75*
G03*
X236835000Y-46715170I-2787815J-1080827D01*
G01*
X236835000Y-49340000D02*
X236835000Y-49805000D01*
X236835000Y-46715000D02*
X236835000Y-47180000D01*
%TO.C,U4*%
X256540000Y-53547500D02*
X259287500Y-53547500D01*
X259287500Y-53547500D02*
X259287500Y-53265000D01*
X256540000Y-53547500D02*
X253792500Y-53547500D01*
X253792500Y-53547500D02*
X253792500Y-53265000D01*
X256540000Y-48052500D02*
X259287500Y-48052500D01*
X259287500Y-48052500D02*
X259287500Y-48335000D01*
X256540000Y-48052500D02*
X253792500Y-48052500D01*
X253792500Y-48052500D02*
X253792500Y-48335000D01*
X253792500Y-48335000D02*
X252140000Y-48335000D01*
%TO.C,U3*%
X233110000Y-90170000D02*
X236220000Y-90170000D01*
X233110000Y-69850000D02*
X233110000Y-90170000D01*
X247650000Y-69850000D02*
X233110000Y-69850000D01*
X247650000Y-90170000D02*
X236220000Y-90170000D01*
X247650000Y-69850000D02*
X247650000Y-90170000D01*
%TO.C,R5*%
X242670000Y-58420000D02*
G75*
G03*
X242670000Y-58420000I-1370000J0D01*
G01*
X241300000Y-57050000D02*
X241300000Y-54440000D01*
%TO.C,R4*%
X247750000Y-58420000D02*
G75*
G03*
X247750000Y-58420000I-1370000J0D01*
G01*
X246380000Y-57050000D02*
X246380000Y-54440000D01*
%TO.C,R3*%
X237590000Y-58420000D02*
G75*
G03*
X237590000Y-58420000I-1370000J0D01*
G01*
X236220000Y-57050000D02*
X236220000Y-54440000D01*
%TO.C,R2*%
X256640000Y-67310000D02*
G75*
G03*
X256640000Y-67310000I-1370000J0D01*
G01*
X255270000Y-65940000D02*
X255270000Y-63330000D01*
%TO.C,R1*%
X251560000Y-67310000D02*
G75*
G03*
X251560000Y-67310000I-1370000J0D01*
G01*
X250190000Y-65940000D02*
X250190000Y-63330000D01*
%TO.C,C2*%
X261720000Y-67310000D02*
G75*
G03*
X261720000Y-67310000I-1370000J0D01*
G01*
X260350000Y-65940000D02*
X260350000Y-63330000D01*
%TO.C,C1*%
X246480000Y-67310000D02*
G75*
G03*
X246480000Y-67310000I-1370000J0D01*
G01*
X245110000Y-65940000D02*
X245110000Y-63330000D01*
%TO.C,BZ1*%
X247210000Y-98425000D02*
G75*
G03*
X247210000Y-98425000I-7100000J0D01*
G01*
%TO.C,U1*%
D11*
X247102380Y-88391904D02*
X247911904Y-88391904D01*
X248007142Y-88344285D01*
X248054761Y-88296666D01*
X248102380Y-88201428D01*
X248102380Y-88010952D01*
X248054761Y-87915714D01*
X248007142Y-87868095D01*
X247911904Y-87820476D01*
X247102380Y-87820476D01*
X248102380Y-86820476D02*
X248102380Y-87391904D01*
X248102380Y-87106190D02*
X247102380Y-87106190D01*
X247245238Y-87201428D01*
X247340476Y-87296666D01*
X247388095Y-87391904D01*
X254726666Y-87692666D02*
X254726666Y-86992666D01*
X254960000Y-87492666D01*
X255193333Y-86992666D01*
X255193333Y-87692666D01*
X255526666Y-87692666D02*
X255526666Y-86992666D01*
X255860000Y-87692666D02*
X255860000Y-86992666D01*
X256093333Y-87492666D01*
X256326666Y-86992666D01*
X256326666Y-87692666D01*
X256593333Y-86992666D02*
X257060000Y-87692666D01*
X257060000Y-86992666D02*
X256593333Y-87692666D01*
X257726666Y-87692666D02*
X257493333Y-87359333D01*
X257326666Y-87692666D02*
X257326666Y-86992666D01*
X257593333Y-86992666D01*
X257660000Y-87026000D01*
X257693333Y-87059333D01*
X257726666Y-87126000D01*
X257726666Y-87226000D01*
X257693333Y-87292666D01*
X257660000Y-87326000D01*
X257593333Y-87359333D01*
X257326666Y-87359333D01*
X257926666Y-86992666D02*
X258326666Y-86992666D01*
X258126666Y-87692666D02*
X258126666Y-86992666D01*
X258926666Y-87692666D02*
X258526666Y-87692666D01*
X258726666Y-87692666D02*
X258726666Y-86992666D01*
X258660000Y-87092666D01*
X258593333Y-87159333D01*
X258526666Y-87192666D01*
X259360000Y-86992666D02*
X259426666Y-86992666D01*
X259493333Y-87026000D01*
X259526666Y-87059333D01*
X259560000Y-87126000D01*
X259593333Y-87259333D01*
X259593333Y-87426000D01*
X259560000Y-87559333D01*
X259526666Y-87626000D01*
X259493333Y-87659333D01*
X259426666Y-87692666D01*
X259360000Y-87692666D01*
X259293333Y-87659333D01*
X259260000Y-87626000D01*
X259226666Y-87559333D01*
X259193333Y-87426000D01*
X259193333Y-87259333D01*
X259226666Y-87126000D01*
X259260000Y-87059333D01*
X259293333Y-87026000D01*
X259360000Y-86992666D01*
X260193333Y-86992666D02*
X260060000Y-86992666D01*
X259993333Y-87026000D01*
X259960000Y-87059333D01*
X259893333Y-87159333D01*
X259860000Y-87292666D01*
X259860000Y-87559333D01*
X259893333Y-87626000D01*
X259926666Y-87659333D01*
X259993333Y-87692666D01*
X260126666Y-87692666D01*
X260193333Y-87659333D01*
X260226666Y-87626000D01*
X260260000Y-87559333D01*
X260260000Y-87392666D01*
X260226666Y-87326000D01*
X260193333Y-87292666D01*
X260126666Y-87259333D01*
X259993333Y-87259333D01*
X259926666Y-87292666D01*
X259893333Y-87326000D01*
X259860000Y-87392666D01*
X260526666Y-87059333D02*
X260560000Y-87026000D01*
X260626666Y-86992666D01*
X260793333Y-86992666D01*
X260860000Y-87026000D01*
X260893333Y-87059333D01*
X260926666Y-87126000D01*
X260926666Y-87192666D01*
X260893333Y-87292666D01*
X260493333Y-87692666D01*
X260926666Y-87692666D01*
X256410000Y-86168666D02*
X256410000Y-85468666D01*
X256576666Y-85468666D01*
X256676666Y-85502000D01*
X256743333Y-85568666D01*
X256776666Y-85635333D01*
X256810000Y-85768666D01*
X256810000Y-85868666D01*
X256776666Y-86002000D01*
X256743333Y-86068666D01*
X256676666Y-86135333D01*
X256576666Y-86168666D01*
X256410000Y-86168666D01*
X257010000Y-85468666D02*
X257243333Y-86168666D01*
X257476666Y-85468666D01*
X258043333Y-86168666D02*
X257710000Y-86168666D01*
X257710000Y-85468666D01*
X258576666Y-85468666D02*
X258443333Y-85468666D01*
X258376666Y-85502000D01*
X258343333Y-85535333D01*
X258276666Y-85635333D01*
X258243333Y-85768666D01*
X258243333Y-86035333D01*
X258276666Y-86102000D01*
X258310000Y-86135333D01*
X258376666Y-86168666D01*
X258510000Y-86168666D01*
X258576666Y-86135333D01*
X258610000Y-86102000D01*
X258643333Y-86035333D01*
X258643333Y-85868666D01*
X258610000Y-85802000D01*
X258576666Y-85768666D01*
X258510000Y-85735333D01*
X258376666Y-85735333D01*
X258310000Y-85768666D01*
X258276666Y-85802000D01*
X258243333Y-85868666D01*
X258910000Y-85968666D02*
X259243333Y-85968666D01*
X258843333Y-86168666D02*
X259076666Y-85468666D01*
X259310000Y-86168666D01*
%TO.C,D1*%
X238656904Y-44752380D02*
X238656904Y-43752380D01*
X238895000Y-43752380D01*
X239037857Y-43800000D01*
X239133095Y-43895238D01*
X239180714Y-43990476D01*
X239228333Y-44180952D01*
X239228333Y-44323809D01*
X239180714Y-44514285D01*
X239133095Y-44609523D01*
X239037857Y-44704761D01*
X238895000Y-44752380D01*
X238656904Y-44752380D01*
X240180714Y-44752380D02*
X239609285Y-44752380D01*
X239895000Y-44752380D02*
X239895000Y-43752380D01*
X239799761Y-43895238D01*
X239704523Y-43990476D01*
X239609285Y-44038095D01*
%TO.C,U4*%
X255778095Y-46662380D02*
X255778095Y-47471904D01*
X255825714Y-47567142D01*
X255873333Y-47614761D01*
X255968571Y-47662380D01*
X256159047Y-47662380D01*
X256254285Y-47614761D01*
X256301904Y-47567142D01*
X256349523Y-47471904D01*
X256349523Y-46662380D01*
X257254285Y-46995714D02*
X257254285Y-47662380D01*
X257016190Y-46614761D02*
X256778095Y-47329047D01*
X257397142Y-47329047D01*
%TO.C,U3*%
X238212380Y-80771904D02*
X239021904Y-80771904D01*
X239117142Y-80724285D01*
X239164761Y-80676666D01*
X239212380Y-80581428D01*
X239212380Y-80390952D01*
X239164761Y-80295714D01*
X239117142Y-80248095D01*
X239021904Y-80200476D01*
X238212380Y-80200476D01*
X238212380Y-79819523D02*
X238212380Y-79200476D01*
X238593333Y-79533809D01*
X238593333Y-79390952D01*
X238640952Y-79295714D01*
X238688571Y-79248095D01*
X238783809Y-79200476D01*
X239021904Y-79200476D01*
X239117142Y-79248095D01*
X239164761Y-79295714D01*
X239212380Y-79390952D01*
X239212380Y-79676666D01*
X239164761Y-79771904D01*
X239117142Y-79819523D01*
X235720000Y-81129047D02*
X235672380Y-81224285D01*
X235672380Y-81367142D01*
X235720000Y-81510000D01*
X235815238Y-81605238D01*
X235910476Y-81652857D01*
X236100952Y-81700476D01*
X236243809Y-81700476D01*
X236434285Y-81652857D01*
X236529523Y-81605238D01*
X236624761Y-81510000D01*
X236672380Y-81367142D01*
X236672380Y-81271904D01*
X236624761Y-81129047D01*
X236577142Y-81081428D01*
X236243809Y-81081428D01*
X236243809Y-81271904D01*
X236196190Y-80462380D02*
X236672380Y-80462380D01*
X235672380Y-80795714D02*
X236196190Y-80462380D01*
X235672380Y-80129047D01*
X236672380Y-79748095D02*
X236672380Y-79557619D01*
X236624761Y-79462380D01*
X236577142Y-79414761D01*
X236434285Y-79319523D01*
X236243809Y-79271904D01*
X235862857Y-79271904D01*
X235767619Y-79319523D01*
X235720000Y-79367142D01*
X235672380Y-79462380D01*
X235672380Y-79652857D01*
X235720000Y-79748095D01*
X235767619Y-79795714D01*
X235862857Y-79843333D01*
X236100952Y-79843333D01*
X236196190Y-79795714D01*
X236243809Y-79748095D01*
X236291428Y-79652857D01*
X236291428Y-79462380D01*
X236243809Y-79367142D01*
X236196190Y-79319523D01*
X236100952Y-79271904D01*
X236672380Y-78319523D02*
X236672380Y-78890952D01*
X236672380Y-78605238D02*
X235672380Y-78605238D01*
X235815238Y-78700476D01*
X235910476Y-78795714D01*
X235958095Y-78890952D01*
X241903333Y-71477142D02*
X241855714Y-71524761D01*
X241712857Y-71572380D01*
X241617619Y-71572380D01*
X241474761Y-71524761D01*
X241379523Y-71429523D01*
X241331904Y-71334285D01*
X241284285Y-71143809D01*
X241284285Y-71000952D01*
X241331904Y-70810476D01*
X241379523Y-70715238D01*
X241474761Y-70620000D01*
X241617619Y-70572380D01*
X241712857Y-70572380D01*
X241855714Y-70620000D01*
X241903333Y-70667619D01*
X242284285Y-71524761D02*
X242427142Y-71572380D01*
X242665238Y-71572380D01*
X242760476Y-71524761D01*
X242808095Y-71477142D01*
X242855714Y-71381904D01*
X242855714Y-71286666D01*
X242808095Y-71191428D01*
X242760476Y-71143809D01*
X242665238Y-71096190D01*
X242474761Y-71048571D01*
X242379523Y-71000952D01*
X242331904Y-70953333D01*
X242284285Y-70858095D01*
X242284285Y-70762857D01*
X242331904Y-70667619D01*
X242379523Y-70620000D01*
X242474761Y-70572380D01*
X242712857Y-70572380D01*
X242855714Y-70620000D01*
X243617619Y-71048571D02*
X243760476Y-71096190D01*
X243808095Y-71143809D01*
X243855714Y-71239047D01*
X243855714Y-71381904D01*
X243808095Y-71477142D01*
X243760476Y-71524761D01*
X243665238Y-71572380D01*
X243284285Y-71572380D01*
X243284285Y-70572380D01*
X243617619Y-70572380D01*
X243712857Y-70620000D01*
X243760476Y-70667619D01*
X243808095Y-70762857D01*
X243808095Y-70858095D01*
X243760476Y-70953333D01*
X243712857Y-71000952D01*
X243617619Y-71048571D01*
X243284285Y-71048571D01*
X241308095Y-74112380D02*
X241308095Y-73112380D01*
X241879523Y-74112380D01*
X241879523Y-73112380D01*
X242927142Y-74017142D02*
X242879523Y-74064761D01*
X242736666Y-74112380D01*
X242641428Y-74112380D01*
X242498571Y-74064761D01*
X242403333Y-73969523D01*
X242355714Y-73874285D01*
X242308095Y-73683809D01*
X242308095Y-73540952D01*
X242355714Y-73350476D01*
X242403333Y-73255238D01*
X242498571Y-73160000D01*
X242641428Y-73112380D01*
X242736666Y-73112380D01*
X242879523Y-73160000D01*
X242927142Y-73207619D01*
X243308095Y-74064761D02*
X243450952Y-74112380D01*
X243689047Y-74112380D01*
X243784285Y-74064761D01*
X243831904Y-74017142D01*
X243879523Y-73921904D01*
X243879523Y-73826666D01*
X243831904Y-73731428D01*
X243784285Y-73683809D01*
X243689047Y-73636190D01*
X243498571Y-73588571D01*
X243403333Y-73540952D01*
X243355714Y-73493333D01*
X243308095Y-73398095D01*
X243308095Y-73302857D01*
X243355714Y-73207619D01*
X243403333Y-73160000D01*
X243498571Y-73112380D01*
X243736666Y-73112380D01*
X243879523Y-73160000D01*
X241331904Y-76604761D02*
X241474761Y-76652380D01*
X241712857Y-76652380D01*
X241808095Y-76604761D01*
X241855714Y-76557142D01*
X241903333Y-76461904D01*
X241903333Y-76366666D01*
X241855714Y-76271428D01*
X241808095Y-76223809D01*
X241712857Y-76176190D01*
X241522380Y-76128571D01*
X241427142Y-76080952D01*
X241379523Y-76033333D01*
X241331904Y-75938095D01*
X241331904Y-75842857D01*
X241379523Y-75747619D01*
X241427142Y-75700000D01*
X241522380Y-75652380D01*
X241760476Y-75652380D01*
X241903333Y-75700000D01*
X242284285Y-76366666D02*
X242760476Y-76366666D01*
X242189047Y-76652380D02*
X242522380Y-75652380D01*
X242855714Y-76652380D01*
X243379523Y-75652380D02*
X243570000Y-75652380D01*
X243665238Y-75700000D01*
X243760476Y-75795238D01*
X243808095Y-75985714D01*
X243808095Y-76319047D01*
X243760476Y-76509523D01*
X243665238Y-76604761D01*
X243570000Y-76652380D01*
X243379523Y-76652380D01*
X243284285Y-76604761D01*
X243189047Y-76509523D01*
X243141428Y-76319047D01*
X243141428Y-75985714D01*
X243189047Y-75795238D01*
X243284285Y-75700000D01*
X243379523Y-75652380D01*
X241355714Y-79144761D02*
X241498571Y-79192380D01*
X241736666Y-79192380D01*
X241831904Y-79144761D01*
X241879523Y-79097142D01*
X241927142Y-79001904D01*
X241927142Y-78906666D01*
X241879523Y-78811428D01*
X241831904Y-78763809D01*
X241736666Y-78716190D01*
X241546190Y-78668571D01*
X241450952Y-78620952D01*
X241403333Y-78573333D01*
X241355714Y-78478095D01*
X241355714Y-78382857D01*
X241403333Y-78287619D01*
X241450952Y-78240000D01*
X241546190Y-78192380D01*
X241784285Y-78192380D01*
X241927142Y-78240000D01*
X242355714Y-79192380D02*
X242355714Y-78192380D01*
X242593809Y-78192380D01*
X242736666Y-78240000D01*
X242831904Y-78335238D01*
X242879523Y-78430476D01*
X242927142Y-78620952D01*
X242927142Y-78763809D01*
X242879523Y-78954285D01*
X242831904Y-79049523D01*
X242736666Y-79144761D01*
X242593809Y-79192380D01*
X242355714Y-79192380D01*
X243308095Y-78906666D02*
X243784285Y-78906666D01*
X243212857Y-79192380D02*
X243546190Y-78192380D01*
X243879523Y-79192380D01*
X241379523Y-81684761D02*
X241522380Y-81732380D01*
X241760476Y-81732380D01*
X241855714Y-81684761D01*
X241903333Y-81637142D01*
X241950952Y-81541904D01*
X241950952Y-81446666D01*
X241903333Y-81351428D01*
X241855714Y-81303809D01*
X241760476Y-81256190D01*
X241570000Y-81208571D01*
X241474761Y-81160952D01*
X241427142Y-81113333D01*
X241379523Y-81018095D01*
X241379523Y-80922857D01*
X241427142Y-80827619D01*
X241474761Y-80780000D01*
X241570000Y-80732380D01*
X241808095Y-80732380D01*
X241950952Y-80780000D01*
X242950952Y-81637142D02*
X242903333Y-81684761D01*
X242760476Y-81732380D01*
X242665238Y-81732380D01*
X242522380Y-81684761D01*
X242427142Y-81589523D01*
X242379523Y-81494285D01*
X242331904Y-81303809D01*
X242331904Y-81160952D01*
X242379523Y-80970476D01*
X242427142Y-80875238D01*
X242522380Y-80780000D01*
X242665238Y-80732380D01*
X242760476Y-80732380D01*
X242903333Y-80780000D01*
X242950952Y-80827619D01*
X243855714Y-81732380D02*
X243379523Y-81732380D01*
X243379523Y-80732380D01*
X241808095Y-83320000D02*
X241712857Y-83272380D01*
X241570000Y-83272380D01*
X241427142Y-83320000D01*
X241331904Y-83415238D01*
X241284285Y-83510476D01*
X241236666Y-83700952D01*
X241236666Y-83843809D01*
X241284285Y-84034285D01*
X241331904Y-84129523D01*
X241427142Y-84224761D01*
X241570000Y-84272380D01*
X241665238Y-84272380D01*
X241808095Y-84224761D01*
X241855714Y-84177142D01*
X241855714Y-83843809D01*
X241665238Y-83843809D01*
X242284285Y-84272380D02*
X242284285Y-83272380D01*
X242855714Y-84272380D01*
X242855714Y-83272380D01*
X243331904Y-84272380D02*
X243331904Y-83272380D01*
X243570000Y-83272380D01*
X243712857Y-83320000D01*
X243808095Y-83415238D01*
X243855714Y-83510476D01*
X243903333Y-83700952D01*
X243903333Y-83843809D01*
X243855714Y-84034285D01*
X243808095Y-84129523D01*
X243712857Y-84224761D01*
X243570000Y-84272380D01*
X243331904Y-84272380D01*
X241331904Y-85812380D02*
X241950952Y-85812380D01*
X241617619Y-86193333D01*
X241760476Y-86193333D01*
X241855714Y-86240952D01*
X241903333Y-86288571D01*
X241950952Y-86383809D01*
X241950952Y-86621904D01*
X241903333Y-86717142D01*
X241855714Y-86764761D01*
X241760476Y-86812380D01*
X241474761Y-86812380D01*
X241379523Y-86764761D01*
X241331904Y-86717142D01*
X242236666Y-85812380D02*
X242570000Y-86812380D01*
X242903333Y-85812380D01*
X243141428Y-85812380D02*
X243760476Y-85812380D01*
X243427142Y-86193333D01*
X243570000Y-86193333D01*
X243665238Y-86240952D01*
X243712857Y-86288571D01*
X243760476Y-86383809D01*
X243760476Y-86621904D01*
X243712857Y-86717142D01*
X243665238Y-86764761D01*
X243570000Y-86812380D01*
X243284285Y-86812380D01*
X243189047Y-86764761D01*
X243141428Y-86717142D01*
X241474761Y-88352380D02*
X241808095Y-89352380D01*
X242141428Y-88352380D01*
X242474761Y-89352380D02*
X242474761Y-88352380D01*
X242950952Y-89352380D02*
X242950952Y-88352380D01*
X243522380Y-89352380D01*
X243522380Y-88352380D01*
%TO.C,U2*%
X258262380Y-37377619D02*
X257786190Y-37710952D01*
X258262380Y-37949047D02*
X257262380Y-37949047D01*
X257262380Y-37568095D01*
X257310000Y-37472857D01*
X257357619Y-37425238D01*
X257452857Y-37377619D01*
X257595714Y-37377619D01*
X257690952Y-37425238D01*
X257738571Y-37472857D01*
X257786190Y-37568095D01*
X257786190Y-37949047D01*
X258214761Y-36996666D02*
X258262380Y-36853809D01*
X258262380Y-36615714D01*
X258214761Y-36520476D01*
X258167142Y-36472857D01*
X258071904Y-36425238D01*
X257976666Y-36425238D01*
X257881428Y-36472857D01*
X257833809Y-36520476D01*
X257786190Y-36615714D01*
X257738571Y-36806190D01*
X257690952Y-36901428D01*
X257643333Y-36949047D01*
X257548095Y-36996666D01*
X257452857Y-36996666D01*
X257357619Y-36949047D01*
X257310000Y-36901428D01*
X257262380Y-36806190D01*
X257262380Y-36568095D01*
X257310000Y-36425238D01*
X257262380Y-36139523D02*
X257262380Y-35568095D01*
X258262380Y-35853809D02*
X257262380Y-35853809D01*
X255627142Y-36996666D02*
X255674761Y-37044285D01*
X255722380Y-37187142D01*
X255722380Y-37282380D01*
X255674761Y-37425238D01*
X255579523Y-37520476D01*
X255484285Y-37568095D01*
X255293809Y-37615714D01*
X255150952Y-37615714D01*
X254960476Y-37568095D01*
X254865238Y-37520476D01*
X254770000Y-37425238D01*
X254722380Y-37282380D01*
X254722380Y-37187142D01*
X254770000Y-37044285D01*
X254817619Y-36996666D01*
X255674761Y-36615714D02*
X255722380Y-36472857D01*
X255722380Y-36234761D01*
X255674761Y-36139523D01*
X255627142Y-36091904D01*
X255531904Y-36044285D01*
X255436666Y-36044285D01*
X255341428Y-36091904D01*
X255293809Y-36139523D01*
X255246190Y-36234761D01*
X255198571Y-36425238D01*
X255150952Y-36520476D01*
X255103333Y-36568095D01*
X255008095Y-36615714D01*
X254912857Y-36615714D01*
X254817619Y-36568095D01*
X254770000Y-36520476D01*
X254722380Y-36425238D01*
X254722380Y-36187142D01*
X254770000Y-36044285D01*
X253182380Y-38401428D02*
X252182380Y-38401428D01*
X252896666Y-38068095D01*
X252182380Y-37734761D01*
X253182380Y-37734761D01*
X252182380Y-37068095D02*
X252182380Y-36877619D01*
X252230000Y-36782380D01*
X252325238Y-36687142D01*
X252515714Y-36639523D01*
X252849047Y-36639523D01*
X253039523Y-36687142D01*
X253134761Y-36782380D01*
X253182380Y-36877619D01*
X253182380Y-37068095D01*
X253134761Y-37163333D01*
X253039523Y-37258571D01*
X252849047Y-37306190D01*
X252515714Y-37306190D01*
X252325238Y-37258571D01*
X252230000Y-37163333D01*
X252182380Y-37068095D01*
X253134761Y-36258571D02*
X253182380Y-36115714D01*
X253182380Y-35877619D01*
X253134761Y-35782380D01*
X253087142Y-35734761D01*
X252991904Y-35687142D01*
X252896666Y-35687142D01*
X252801428Y-35734761D01*
X252753809Y-35782380D01*
X252706190Y-35877619D01*
X252658571Y-36068095D01*
X252610952Y-36163333D01*
X252563333Y-36210952D01*
X252468095Y-36258571D01*
X252372857Y-36258571D01*
X252277619Y-36210952D01*
X252230000Y-36163333D01*
X252182380Y-36068095D01*
X252182380Y-35830000D01*
X252230000Y-35687142D01*
X253182380Y-35258571D02*
X252182380Y-35258571D01*
X250642380Y-38401428D02*
X249642380Y-38401428D01*
X250356666Y-38068095D01*
X249642380Y-37734761D01*
X250642380Y-37734761D01*
X250642380Y-37258571D02*
X249642380Y-37258571D01*
X250594761Y-36830000D02*
X250642380Y-36687142D01*
X250642380Y-36449047D01*
X250594761Y-36353809D01*
X250547142Y-36306190D01*
X250451904Y-36258571D01*
X250356666Y-36258571D01*
X250261428Y-36306190D01*
X250213809Y-36353809D01*
X250166190Y-36449047D01*
X250118571Y-36639523D01*
X250070952Y-36734761D01*
X250023333Y-36782380D01*
X249928095Y-36830000D01*
X249832857Y-36830000D01*
X249737619Y-36782380D01*
X249690000Y-36734761D01*
X249642380Y-36639523D01*
X249642380Y-36401428D01*
X249690000Y-36258571D01*
X249642380Y-35639523D02*
X249642380Y-35449047D01*
X249690000Y-35353809D01*
X249785238Y-35258571D01*
X249975714Y-35210952D01*
X250309047Y-35210952D01*
X250499523Y-35258571D01*
X250594761Y-35353809D01*
X250642380Y-35449047D01*
X250642380Y-35639523D01*
X250594761Y-35734761D01*
X250499523Y-35830000D01*
X250309047Y-35877619D01*
X249975714Y-35877619D01*
X249785238Y-35830000D01*
X249690000Y-35734761D01*
X249642380Y-35639523D01*
X248054761Y-38115714D02*
X248102380Y-37972857D01*
X248102380Y-37734761D01*
X248054761Y-37639523D01*
X248007142Y-37591904D01*
X247911904Y-37544285D01*
X247816666Y-37544285D01*
X247721428Y-37591904D01*
X247673809Y-37639523D01*
X247626190Y-37734761D01*
X247578571Y-37925238D01*
X247530952Y-38020476D01*
X247483333Y-38068095D01*
X247388095Y-38115714D01*
X247292857Y-38115714D01*
X247197619Y-38068095D01*
X247150000Y-38020476D01*
X247102380Y-37925238D01*
X247102380Y-37687142D01*
X247150000Y-37544285D01*
X248007142Y-36544285D02*
X248054761Y-36591904D01*
X248102380Y-36734761D01*
X248102380Y-36830000D01*
X248054761Y-36972857D01*
X247959523Y-37068095D01*
X247864285Y-37115714D01*
X247673809Y-37163333D01*
X247530952Y-37163333D01*
X247340476Y-37115714D01*
X247245238Y-37068095D01*
X247150000Y-36972857D01*
X247102380Y-36830000D01*
X247102380Y-36734761D01*
X247150000Y-36591904D01*
X247197619Y-36544285D01*
X248102380Y-36115714D02*
X247102380Y-36115714D01*
X248102380Y-35544285D02*
X247530952Y-35972857D01*
X247102380Y-35544285D02*
X247673809Y-36115714D01*
X244610000Y-37044285D02*
X244562380Y-37139523D01*
X244562380Y-37282380D01*
X244610000Y-37425238D01*
X244705238Y-37520476D01*
X244800476Y-37568095D01*
X244990952Y-37615714D01*
X245133809Y-37615714D01*
X245324285Y-37568095D01*
X245419523Y-37520476D01*
X245514761Y-37425238D01*
X245562380Y-37282380D01*
X245562380Y-37187142D01*
X245514761Y-37044285D01*
X245467142Y-36996666D01*
X245133809Y-36996666D01*
X245133809Y-37187142D01*
X244562380Y-36377619D02*
X244562380Y-36282380D01*
X244610000Y-36187142D01*
X244657619Y-36139523D01*
X244752857Y-36091904D01*
X244943333Y-36044285D01*
X245181428Y-36044285D01*
X245371904Y-36091904D01*
X245467142Y-36139523D01*
X245514761Y-36187142D01*
X245562380Y-36282380D01*
X245562380Y-36377619D01*
X245514761Y-36472857D01*
X245467142Y-36520476D01*
X245371904Y-36568095D01*
X245181428Y-36615714D01*
X244943333Y-36615714D01*
X244752857Y-36568095D01*
X244657619Y-36520476D01*
X244610000Y-36472857D01*
X244562380Y-36377619D01*
X242498571Y-37568095D02*
X242498571Y-37234761D01*
X243022380Y-37091904D02*
X243022380Y-37568095D01*
X242022380Y-37568095D01*
X242022380Y-37091904D01*
X243022380Y-36663333D02*
X242022380Y-36663333D01*
X243022380Y-36091904D01*
X242022380Y-36091904D01*
X239530000Y-37591904D02*
X239482380Y-37687142D01*
X239482380Y-37830000D01*
X239530000Y-37972857D01*
X239625238Y-38068095D01*
X239720476Y-38115714D01*
X239910952Y-38163333D01*
X240053809Y-38163333D01*
X240244285Y-38115714D01*
X240339523Y-38068095D01*
X240434761Y-37972857D01*
X240482380Y-37830000D01*
X240482380Y-37734761D01*
X240434761Y-37591904D01*
X240387142Y-37544285D01*
X240053809Y-37544285D01*
X240053809Y-37734761D01*
X240482380Y-37115714D02*
X239482380Y-37115714D01*
X240482380Y-36544285D01*
X239482380Y-36544285D01*
X240482380Y-36068095D02*
X239482380Y-36068095D01*
X239482380Y-35830000D01*
X239530000Y-35687142D01*
X239625238Y-35591904D01*
X239720476Y-35544285D01*
X239910952Y-35496666D01*
X240053809Y-35496666D01*
X240244285Y-35544285D01*
X240339523Y-35591904D01*
X240434761Y-35687142D01*
X240482380Y-35830000D01*
X240482380Y-36068095D01*
X236942380Y-37925238D02*
X237942380Y-37591904D01*
X236942380Y-37258571D01*
X237942380Y-36925238D02*
X236942380Y-36925238D01*
X237942380Y-36449047D02*
X236942380Y-36449047D01*
X237942380Y-35877619D01*
X236942380Y-35877619D01*
%TO.C,R5*%
X239382380Y-56046666D02*
X238906190Y-56380000D01*
X239382380Y-56618095D02*
X238382380Y-56618095D01*
X238382380Y-56237142D01*
X238430000Y-56141904D01*
X238477619Y-56094285D01*
X238572857Y-56046666D01*
X238715714Y-56046666D01*
X238810952Y-56094285D01*
X238858571Y-56141904D01*
X238906190Y-56237142D01*
X238906190Y-56618095D01*
X238382380Y-55141904D02*
X238382380Y-55618095D01*
X238858571Y-55665714D01*
X238810952Y-55618095D01*
X238763333Y-55522857D01*
X238763333Y-55284761D01*
X238810952Y-55189523D01*
X238858571Y-55141904D01*
X238953809Y-55094285D01*
X239191904Y-55094285D01*
X239287142Y-55141904D01*
X239334761Y-55189523D01*
X239382380Y-55284761D01*
X239382380Y-55522857D01*
X239334761Y-55618095D01*
X239287142Y-55665714D01*
%TO.C,R4*%
X244462380Y-56046666D02*
X243986190Y-56380000D01*
X244462380Y-56618095D02*
X243462380Y-56618095D01*
X243462380Y-56237142D01*
X243510000Y-56141904D01*
X243557619Y-56094285D01*
X243652857Y-56046666D01*
X243795714Y-56046666D01*
X243890952Y-56094285D01*
X243938571Y-56141904D01*
X243986190Y-56237142D01*
X243986190Y-56618095D01*
X243795714Y-55189523D02*
X244462380Y-55189523D01*
X243414761Y-55427619D02*
X244129047Y-55665714D01*
X244129047Y-55046666D01*
%TO.C,R3*%
X234302380Y-56046666D02*
X233826190Y-56380000D01*
X234302380Y-56618095D02*
X233302380Y-56618095D01*
X233302380Y-56237142D01*
X233350000Y-56141904D01*
X233397619Y-56094285D01*
X233492857Y-56046666D01*
X233635714Y-56046666D01*
X233730952Y-56094285D01*
X233778571Y-56141904D01*
X233826190Y-56237142D01*
X233826190Y-56618095D01*
X233302380Y-55713333D02*
X233302380Y-55094285D01*
X233683333Y-55427619D01*
X233683333Y-55284761D01*
X233730952Y-55189523D01*
X233778571Y-55141904D01*
X233873809Y-55094285D01*
X234111904Y-55094285D01*
X234207142Y-55141904D01*
X234254761Y-55189523D01*
X234302380Y-55284761D01*
X234302380Y-55570476D01*
X234254761Y-55665714D01*
X234207142Y-55713333D01*
%TO.C,R2*%
X253352380Y-64936666D02*
X252876190Y-65270000D01*
X253352380Y-65508095D02*
X252352380Y-65508095D01*
X252352380Y-65127142D01*
X252400000Y-65031904D01*
X252447619Y-64984285D01*
X252542857Y-64936666D01*
X252685714Y-64936666D01*
X252780952Y-64984285D01*
X252828571Y-65031904D01*
X252876190Y-65127142D01*
X252876190Y-65508095D01*
X252447619Y-64555714D02*
X252400000Y-64508095D01*
X252352380Y-64412857D01*
X252352380Y-64174761D01*
X252400000Y-64079523D01*
X252447619Y-64031904D01*
X252542857Y-63984285D01*
X252638095Y-63984285D01*
X252780952Y-64031904D01*
X253352380Y-64603333D01*
X253352380Y-63984285D01*
%TO.C,R1*%
X248272380Y-64936666D02*
X247796190Y-65270000D01*
X248272380Y-65508095D02*
X247272380Y-65508095D01*
X247272380Y-65127142D01*
X247320000Y-65031904D01*
X247367619Y-64984285D01*
X247462857Y-64936666D01*
X247605714Y-64936666D01*
X247700952Y-64984285D01*
X247748571Y-65031904D01*
X247796190Y-65127142D01*
X247796190Y-65508095D01*
X248272380Y-63984285D02*
X248272380Y-64555714D01*
X248272380Y-64270000D02*
X247272380Y-64270000D01*
X247415238Y-64365238D01*
X247510476Y-64460476D01*
X247558095Y-64555714D01*
%TO.C,C2*%
X258337142Y-64936666D02*
X258384761Y-64984285D01*
X258432380Y-65127142D01*
X258432380Y-65222380D01*
X258384761Y-65365238D01*
X258289523Y-65460476D01*
X258194285Y-65508095D01*
X258003809Y-65555714D01*
X257860952Y-65555714D01*
X257670476Y-65508095D01*
X257575238Y-65460476D01*
X257480000Y-65365238D01*
X257432380Y-65222380D01*
X257432380Y-65127142D01*
X257480000Y-64984285D01*
X257527619Y-64936666D01*
X257527619Y-64555714D02*
X257480000Y-64508095D01*
X257432380Y-64412857D01*
X257432380Y-64174761D01*
X257480000Y-64079523D01*
X257527619Y-64031904D01*
X257622857Y-63984285D01*
X257718095Y-63984285D01*
X257860952Y-64031904D01*
X258432380Y-64603333D01*
X258432380Y-63984285D01*
%TO.C,C1*%
X243097142Y-64936666D02*
X243144761Y-64984285D01*
X243192380Y-65127142D01*
X243192380Y-65222380D01*
X243144761Y-65365238D01*
X243049523Y-65460476D01*
X242954285Y-65508095D01*
X242763809Y-65555714D01*
X242620952Y-65555714D01*
X242430476Y-65508095D01*
X242335238Y-65460476D01*
X242240000Y-65365238D01*
X242192380Y-65222380D01*
X242192380Y-65127142D01*
X242240000Y-64984285D01*
X242287619Y-64936666D01*
X243192380Y-63984285D02*
X243192380Y-64555714D01*
X243192380Y-64270000D02*
X242192380Y-64270000D01*
X242335238Y-64365238D01*
X242430476Y-64460476D01*
X242478095Y-64555714D01*
%TO.C,BZ1*%
X239069047Y-106583571D02*
X239211904Y-106631190D01*
X239259523Y-106678809D01*
X239307142Y-106774047D01*
X239307142Y-106916904D01*
X239259523Y-107012142D01*
X239211904Y-107059761D01*
X239116666Y-107107380D01*
X238735714Y-107107380D01*
X238735714Y-106107380D01*
X239069047Y-106107380D01*
X239164285Y-106155000D01*
X239211904Y-106202619D01*
X239259523Y-106297857D01*
X239259523Y-106393095D01*
X239211904Y-106488333D01*
X239164285Y-106535952D01*
X239069047Y-106583571D01*
X238735714Y-106583571D01*
X239640476Y-106107380D02*
X240307142Y-106107380D01*
X239640476Y-107107380D01*
X240307142Y-107107380D01*
X241211904Y-107107380D02*
X240640476Y-107107380D01*
X240926190Y-107107380D02*
X240926190Y-106107380D01*
X240830952Y-106250238D01*
X240735714Y-106345476D01*
X240640476Y-106393095D01*
X244739047Y-101036428D02*
X245500952Y-101036428D01*
X245120000Y-101417380D02*
X245120000Y-100655476D01*
%TO.C,BAT1*%
X237704285Y-70992857D02*
X237704285Y-68707142D01*
X237704285Y-60832856D02*
X237704285Y-58547143D01*
X238847142Y-59690000D02*
X236561428Y-59690000D01*
%TD*%
M02*
