G04 This is an RS-274x file exported by *
G04 gerbv version 2.7.0 *
G04 More information is available about gerbv at *
G04 http://gerbv.geda-project.org/ *
G04 --End of header info--*
%MOIN*%
%FSLAX36Y36*%
%IPPOS*%
G04 --Define apertures--*
%ADD10C,0.0059*%
%ADD11C,0.0004*%
%ADD12C,0.0047*%
%ADD13C,0.0709*%
%ADD14O,0.0421X0.0709*%
%ADD15R,0.0421X0.0709*%
%ADD16C,0.0787*%
%ADD17O,0.0630X0.0630*%
%ADD18C,0.0630*%
%ADD19R,0.0787X0.0787*%
G04 --Start main section--*
G54D10*
G01X9870641Y-2257190D02*
G01X9872516Y-2255315D01*
G01X9872516Y-2255315D02*
G01X9876265Y-2253440D01*
G01X9876265Y-2253440D02*
G01X9885639Y-2253440D01*
G01X9885639Y-2253440D02*
G01X9889389Y-2255315D01*
G01X9889389Y-2255315D02*
G01X9891264Y-2257190D01*
G01X9891264Y-2257190D02*
G01X9893138Y-2260939D01*
G01X9893138Y-2260939D02*
G01X9893138Y-2264689D01*
G01X9893138Y-2264689D02*
G01X9891264Y-2270313D01*
G01X9891264Y-2270313D02*
G01X9868766Y-2292810D01*
G01X9868766Y-2292810D02*
G01X9893138Y-2292810D01*
G01X9917510Y-2253440D02*
G01X9921260Y-2253440D01*
G01X9921260Y-2253440D02*
G01X9925009Y-2255315D01*
G01X9925009Y-2255315D02*
G01X9926884Y-2257190D01*
G01X9926884Y-2257190D02*
G01X9928759Y-2260939D01*
G01X9928759Y-2260939D02*
G01X9930634Y-2268438D01*
G01X9930634Y-2268438D02*
G01X9930634Y-2277812D01*
G01X9930634Y-2277812D02*
G01X9928759Y-2285311D01*
G01X9928759Y-2285311D02*
G01X9926884Y-2289061D01*
G01X9926884Y-2289061D02*
G01X9925009Y-2290935D01*
G01X9925009Y-2290935D02*
G01X9921260Y-2292810D01*
G01X9921260Y-2292810D02*
G01X9917510Y-2292810D01*
G01X9917510Y-2292810D02*
G01X9913761Y-2290935D01*
G01X9913761Y-2290935D02*
G01X9911886Y-2289061D01*
G01X9911886Y-2289061D02*
G01X9910011Y-2285311D01*
G01X9910011Y-2285311D02*
G01X9908136Y-2277812D01*
G01X9908136Y-2277812D02*
G01X9908136Y-2268438D01*
G01X9908136Y-2268438D02*
G01X9910011Y-2260939D01*
G01X9910011Y-2260939D02*
G01X9911886Y-2257190D01*
G01X9911886Y-2257190D02*
G01X9913761Y-2255315D01*
G01X9913761Y-2255315D02*
G01X9917510Y-2253440D01*
G01X9945632Y-2257190D02*
G01X9947507Y-2255315D01*
G01X9947507Y-2255315D02*
G01X9951256Y-2253440D01*
G01X9951256Y-2253440D02*
G01X9960630Y-2253440D01*
G01X9960630Y-2253440D02*
G01X9964379Y-2255315D01*
G01X9964379Y-2255315D02*
G01X9966254Y-2257190D01*
G01X9966254Y-2257190D02*
G01X9968129Y-2260939D01*
G01X9968129Y-2260939D02*
G01X9968129Y-2264689D01*
G01X9968129Y-2264689D02*
G01X9966254Y-2270313D01*
G01X9966254Y-2270313D02*
G01X9943757Y-2292810D01*
G01X9943757Y-2292810D02*
G01X9968129Y-2292810D01*
G01X10005624Y-2292810D02*
G01X9983127Y-2292810D01*
G01X9994376Y-2292810D02*
G01X9994376Y-2253440D01*
G01X9994376Y-2253440D02*
G01X9990626Y-2259064D01*
G01X9990626Y-2259064D02*
G01X9986877Y-2262814D01*
G01X9986877Y-2262814D02*
G01X9983127Y-2264689D01*
G01X10022497Y-2277812D02*
G01X10052493Y-2277812D01*
G01X10078740Y-2253440D02*
G01X10082490Y-2253440D01*
G01X10082490Y-2253440D02*
G01X10086239Y-2255315D01*
G01X10086239Y-2255315D02*
G01X10088114Y-2257190D01*
G01X10088114Y-2257190D02*
G01X10089989Y-2260939D01*
G01X10089989Y-2260939D02*
G01X10091864Y-2268438D01*
G01X10091864Y-2268438D02*
G01X10091864Y-2277812D01*
G01X10091864Y-2277812D02*
G01X10089989Y-2285311D01*
G01X10089989Y-2285311D02*
G01X10088114Y-2289061D01*
G01X10088114Y-2289061D02*
G01X10086239Y-2290935D01*
G01X10086239Y-2290935D02*
G01X10082490Y-2292810D01*
G01X10082490Y-2292810D02*
G01X10078740Y-2292810D01*
G01X10078740Y-2292810D02*
G01X10074991Y-2290935D01*
G01X10074991Y-2290935D02*
G01X10073116Y-2289061D01*
G01X10073116Y-2289061D02*
G01X10071241Y-2285311D01*
G01X10071241Y-2285311D02*
G01X10069366Y-2277812D01*
G01X10069366Y-2277812D02*
G01X10069366Y-2268438D01*
G01X10069366Y-2268438D02*
G01X10071241Y-2260939D01*
G01X10071241Y-2260939D02*
G01X10073116Y-2257190D01*
G01X10073116Y-2257190D02*
G01X10074991Y-2255315D01*
G01X10074991Y-2255315D02*
G01X10078740Y-2253440D01*
G01X10125609Y-2266564D02*
G01X10125609Y-2292810D01*
G01X10116235Y-2251565D02*
G01X10106862Y-2279687D01*
G01X10106862Y-2279687D02*
G01X10131234Y-2279687D01*
G01X10306173Y-1680315D02*
G01X10302423Y-1678440D01*
G01X10302423Y-1678440D02*
G01X10296799Y-1678440D01*
G01X10296799Y-1678440D02*
G01X10291175Y-1680315D01*
G01X10291175Y-1680315D02*
G01X10287425Y-1684064D01*
G01X10287425Y-1684064D02*
G01X10285550Y-1687814D01*
G01X10285550Y-1687814D02*
G01X10283675Y-1695313D01*
G01X10283675Y-1695313D02*
G01X10283675Y-1700937D01*
G01X10283675Y-1700937D02*
G01X10285550Y-1708436D01*
G01X10285550Y-1708436D02*
G01X10287425Y-1712186D01*
G01X10287425Y-1712186D02*
G01X10291175Y-1715935D01*
G01X10291175Y-1715935D02*
G01X10296799Y-1717810D01*
G01X10296799Y-1717810D02*
G01X10300548Y-1717810D01*
G01X10300548Y-1717810D02*
G01X10306173Y-1715935D01*
G01X10306173Y-1715935D02*
G01X10308047Y-1714061D01*
G01X10308047Y-1714061D02*
G01X10308047Y-1700937D01*
G01X10308047Y-1700937D02*
G01X10300548Y-1700937D01*
G01X10324920Y-1717810D02*
G01X10324920Y-1678440D01*
G01X10324920Y-1678440D02*
G01X10347417Y-1717810D01*
G01X10347417Y-1717810D02*
G01X10347417Y-1678440D01*
G01X10366165Y-1717810D02*
G01X10366165Y-1678440D01*
G01X10366165Y-1678440D02*
G01X10375539Y-1678440D01*
G01X10375539Y-1678440D02*
G01X10381163Y-1680315D01*
G01X10381163Y-1680315D02*
G01X10384913Y-1684064D01*
G01X10384913Y-1684064D02*
G01X10386788Y-1687814D01*
G01X10386788Y-1687814D02*
G01X10388662Y-1695313D01*
G01X10388662Y-1695313D02*
G01X10388662Y-1700937D01*
G01X10388662Y-1700937D02*
G01X10386788Y-1708436D01*
G01X10386788Y-1708436D02*
G01X10384913Y-1712186D01*
G01X10384913Y-1712186D02*
G01X10381163Y-1715935D01*
G01X10381163Y-1715935D02*
G01X10375539Y-1717810D01*
G01X10375539Y-1717810D02*
G01X10366165Y-1717810D01*
G01X10274302Y-1778440D02*
G01X10298674Y-1778440D01*
G01X10298674Y-1778440D02*
G01X10285550Y-1793438D01*
G01X10285550Y-1793438D02*
G01X10291175Y-1793438D01*
G01X10291175Y-1793438D02*
G01X10294924Y-1795313D01*
G01X10294924Y-1795313D02*
G01X10296799Y-1797188D01*
G01X10296799Y-1797188D02*
G01X10298674Y-1800937D01*
G01X10298674Y-1800937D02*
G01X10298674Y-1810311D01*
G01X10298674Y-1810311D02*
G01X10296799Y-1814061D01*
G01X10296799Y-1814061D02*
G01X10294924Y-1815935D01*
G01X10294924Y-1815935D02*
G01X10291175Y-1817810D01*
G01X10291175Y-1817810D02*
G01X10279926Y-1817810D01*
G01X10279926Y-1817810D02*
G01X10276176Y-1815935D01*
G01X10276176Y-1815935D02*
G01X10274302Y-1814061D01*
G01X10315546Y-1814061D02*
G01X10317421Y-1815935D01*
G01X10317421Y-1815935D02*
G01X10315546Y-1817810D01*
G01X10315546Y-1817810D02*
G01X10313672Y-1815935D01*
G01X10313672Y-1815935D02*
G01X10315546Y-1814061D01*
G01X10315546Y-1814061D02*
G01X10315546Y-1817810D01*
G01X10330545Y-1778440D02*
G01X10354917Y-1778440D01*
G01X10354917Y-1778440D02*
G01X10341793Y-1793438D01*
G01X10341793Y-1793438D02*
G01X10347417Y-1793438D01*
G01X10347417Y-1793438D02*
G01X10351167Y-1795313D01*
G01X10351167Y-1795313D02*
G01X10353042Y-1797188D01*
G01X10353042Y-1797188D02*
G01X10354917Y-1800937D01*
G01X10354917Y-1800937D02*
G01X10354917Y-1810311D01*
G01X10354917Y-1810311D02*
G01X10353042Y-1814061D01*
G01X10353042Y-1814061D02*
G01X10351167Y-1815935D01*
G01X10351167Y-1815935D02*
G01X10347417Y-1817810D01*
G01X10347417Y-1817810D02*
G01X10336169Y-1817810D01*
G01X10336169Y-1817810D02*
G01X10332419Y-1815935D01*
G01X10332419Y-1815935D02*
G01X10330545Y-1814061D01*
G01X10366165Y-1778440D02*
G01X10379289Y-1817810D01*
G01X10379289Y-1817810D02*
G01X10392412Y-1778440D01*
G01X10294924Y-1915935D02*
G01X10300548Y-1917810D01*
G01X10300548Y-1917810D02*
G01X10309922Y-1917810D01*
G01X10309922Y-1917810D02*
G01X10313672Y-1915935D01*
G01X10313672Y-1915935D02*
G01X10315546Y-1914061D01*
G01X10315546Y-1914061D02*
G01X10317421Y-1910311D01*
G01X10317421Y-1910311D02*
G01X10317421Y-1906562D01*
G01X10317421Y-1906562D02*
G01X10315546Y-1902812D01*
G01X10315546Y-1902812D02*
G01X10313672Y-1900937D01*
G01X10313672Y-1900937D02*
G01X10309922Y-1899063D01*
G01X10309922Y-1899063D02*
G01X10302423Y-1897188D01*
G01X10302423Y-1897188D02*
G01X10298674Y-1895313D01*
G01X10298674Y-1895313D02*
G01X10296799Y-1893438D01*
G01X10296799Y-1893438D02*
G01X10294924Y-1889689D01*
G01X10294924Y-1889689D02*
G01X10294924Y-1885939D01*
G01X10294924Y-1885939D02*
G01X10296799Y-1882190D01*
G01X10296799Y-1882190D02*
G01X10298674Y-1880315D01*
G01X10298674Y-1880315D02*
G01X10302423Y-1878440D01*
G01X10302423Y-1878440D02*
G01X10311797Y-1878440D01*
G01X10311797Y-1878440D02*
G01X10317421Y-1880315D01*
G01X10356791Y-1914061D02*
G01X10354917Y-1915935D01*
G01X10354917Y-1915935D02*
G01X10349292Y-1917810D01*
G01X10349292Y-1917810D02*
G01X10345543Y-1917810D01*
G01X10345543Y-1917810D02*
G01X10339918Y-1915935D01*
G01X10339918Y-1915935D02*
G01X10336169Y-1912186D01*
G01X10336169Y-1912186D02*
G01X10334294Y-1908436D01*
G01X10334294Y-1908436D02*
G01X10332419Y-1900937D01*
G01X10332419Y-1900937D02*
G01X10332419Y-1895313D01*
G01X10332419Y-1895313D02*
G01X10334294Y-1887814D01*
G01X10334294Y-1887814D02*
G01X10336169Y-1884064D01*
G01X10336169Y-1884064D02*
G01X10339918Y-1880315D01*
G01X10339918Y-1880315D02*
G01X10345543Y-1878440D01*
G01X10345543Y-1878440D02*
G01X10349292Y-1878440D01*
G01X10349292Y-1878440D02*
G01X10354917Y-1880315D01*
G01X10354917Y-1880315D02*
G01X10356791Y-1882190D01*
G01X10392412Y-1917810D02*
G01X10373664Y-1917810D01*
G01X10373664Y-1917810D02*
G01X10373664Y-1878440D01*
G01X10293049Y-2015935D02*
G01X10298674Y-2017810D01*
G01X10298674Y-2017810D02*
G01X10308047Y-2017810D01*
G01X10308047Y-2017810D02*
G01X10311797Y-2015935D01*
G01X10311797Y-2015935D02*
G01X10313672Y-2014061D01*
G01X10313672Y-2014061D02*
G01X10315546Y-2010311D01*
G01X10315546Y-2010311D02*
G01X10315546Y-2006562D01*
G01X10315546Y-2006562D02*
G01X10313672Y-2002812D01*
G01X10313672Y-2002812D02*
G01X10311797Y-2000937D01*
G01X10311797Y-2000937D02*
G01X10308047Y-1999063D01*
G01X10308047Y-1999063D02*
G01X10300548Y-1997188D01*
G01X10300548Y-1997188D02*
G01X10296799Y-1995313D01*
G01X10296799Y-1995313D02*
G01X10294924Y-1993438D01*
G01X10294924Y-1993438D02*
G01X10293049Y-1989689D01*
G01X10293049Y-1989689D02*
G01X10293049Y-1985939D01*
G01X10293049Y-1985939D02*
G01X10294924Y-1982190D01*
G01X10294924Y-1982190D02*
G01X10296799Y-1980315D01*
G01X10296799Y-1980315D02*
G01X10300548Y-1978440D01*
G01X10300548Y-1978440D02*
G01X10309922Y-1978440D01*
G01X10309922Y-1978440D02*
G01X10315546Y-1980315D01*
G01X10332419Y-2017810D02*
G01X10332419Y-1978440D01*
G01X10332419Y-1978440D02*
G01X10341793Y-1978440D01*
G01X10341793Y-1978440D02*
G01X10347417Y-1980315D01*
G01X10347417Y-1980315D02*
G01X10351167Y-1984064D01*
G01X10351167Y-1984064D02*
G01X10353042Y-1987814D01*
G01X10353042Y-1987814D02*
G01X10354917Y-1995313D01*
G01X10354917Y-1995313D02*
G01X10354917Y-2000937D01*
G01X10354917Y-2000937D02*
G01X10353042Y-2008436D01*
G01X10353042Y-2008436D02*
G01X10351167Y-2012186D01*
G01X10351167Y-2012186D02*
G01X10347417Y-2015935D01*
G01X10347417Y-2015935D02*
G01X10341793Y-2017810D01*
G01X10341793Y-2017810D02*
G01X10332419Y-2017810D01*
G01X10369915Y-2006562D02*
G01X10388662Y-2006562D01*
G01X10366165Y-2017810D02*
G01X10379289Y-1978440D01*
G01X10379289Y-1978440D02*
G01X10392412Y-2017810D01*
G01X10351167Y-2114061D02*
G01X10349292Y-2115935D01*
G01X10349292Y-2115935D02*
G01X10343668Y-2117810D01*
G01X10343668Y-2117810D02*
G01X10339918Y-2117810D01*
G01X10339918Y-2117810D02*
G01X10334294Y-2115935D01*
G01X10334294Y-2115935D02*
G01X10330545Y-2112186D01*
G01X10330545Y-2112186D02*
G01X10328670Y-2108436D01*
G01X10328670Y-2108436D02*
G01X10326795Y-2100937D01*
G01X10326795Y-2100937D02*
G01X10326795Y-2095313D01*
G01X10326795Y-2095313D02*
G01X10328670Y-2087814D01*
G01X10328670Y-2087814D02*
G01X10330545Y-2084064D01*
G01X10330545Y-2084064D02*
G01X10334294Y-2080315D01*
G01X10334294Y-2080315D02*
G01X10339918Y-2078440D01*
G01X10339918Y-2078440D02*
G01X10343668Y-2078440D01*
G01X10343668Y-2078440D02*
G01X10349292Y-2080315D01*
G01X10349292Y-2080315D02*
G01X10351167Y-2082190D01*
G01X10366165Y-2115935D02*
G01X10371789Y-2117810D01*
G01X10371789Y-2117810D02*
G01X10381163Y-2117810D01*
G01X10381163Y-2117810D02*
G01X10384913Y-2115935D01*
G01X10384913Y-2115935D02*
G01X10386788Y-2114061D01*
G01X10386788Y-2114061D02*
G01X10388662Y-2110311D01*
G01X10388662Y-2110311D02*
G01X10388662Y-2106562D01*
G01X10388662Y-2106562D02*
G01X10386788Y-2102812D01*
G01X10386788Y-2102812D02*
G01X10384913Y-2100937D01*
G01X10384913Y-2100937D02*
G01X10381163Y-2099063D01*
G01X10381163Y-2099063D02*
G01X10373664Y-2097188D01*
G01X10373664Y-2097188D02*
G01X10369915Y-2095313D01*
G01X10369915Y-2095313D02*
G01X10368040Y-2093438D01*
G01X10368040Y-2093438D02*
G01X10366165Y-2089689D01*
G01X10366165Y-2089689D02*
G01X10366165Y-2085939D01*
G01X10366165Y-2085939D02*
G01X10368040Y-2082190D01*
G01X10368040Y-2082190D02*
G01X10369915Y-2080315D01*
G01X10369915Y-2080315D02*
G01X10373664Y-2078440D01*
G01X10373664Y-2078440D02*
G01X10383038Y-2078440D01*
G01X10383038Y-2078440D02*
G01X10388662Y-2080315D01*
G01X10263053Y-2217810D02*
G01X10263053Y-2178440D01*
G01X10263053Y-2178440D02*
G01X10276176Y-2206562D01*
G01X10276176Y-2206562D02*
G01X10289300Y-2178440D01*
G01X10289300Y-2178440D02*
G01X10289300Y-2217810D01*
G01X10315546Y-2178440D02*
G01X10323046Y-2178440D01*
G01X10323046Y-2178440D02*
G01X10326795Y-2180315D01*
G01X10326795Y-2180315D02*
G01X10330545Y-2184064D01*
G01X10330545Y-2184064D02*
G01X10332419Y-2191564D01*
G01X10332419Y-2191564D02*
G01X10332419Y-2204687D01*
G01X10332419Y-2204687D02*
G01X10330545Y-2212186D01*
G01X10330545Y-2212186D02*
G01X10326795Y-2215935D01*
G01X10326795Y-2215935D02*
G01X10323046Y-2217810D01*
G01X10323046Y-2217810D02*
G01X10315546Y-2217810D01*
G01X10315546Y-2217810D02*
G01X10311797Y-2215935D01*
G01X10311797Y-2215935D02*
G01X10308047Y-2212186D01*
G01X10308047Y-2212186D02*
G01X10306173Y-2204687D01*
G01X10306173Y-2204687D02*
G01X10306173Y-2191564D01*
G01X10306173Y-2191564D02*
G01X10308047Y-2184064D01*
G01X10308047Y-2184064D02*
G01X10311797Y-2180315D01*
G01X10311797Y-2180315D02*
G01X10315546Y-2178440D01*
G01X10347417Y-2215935D02*
G01X10353042Y-2217810D01*
G01X10353042Y-2217810D02*
G01X10362416Y-2217810D01*
G01X10362416Y-2217810D02*
G01X10366165Y-2215935D01*
G01X10366165Y-2215935D02*
G01X10368040Y-2214061D01*
G01X10368040Y-2214061D02*
G01X10369915Y-2210311D01*
G01X10369915Y-2210311D02*
G01X10369915Y-2206562D01*
G01X10369915Y-2206562D02*
G01X10368040Y-2202812D01*
G01X10368040Y-2202812D02*
G01X10366165Y-2200937D01*
G01X10366165Y-2200937D02*
G01X10362416Y-2199063D01*
G01X10362416Y-2199063D02*
G01X10354917Y-2197188D01*
G01X10354917Y-2197188D02*
G01X10351167Y-2195313D01*
G01X10351167Y-2195313D02*
G01X10349292Y-2193438D01*
G01X10349292Y-2193438D02*
G01X10347417Y-2189689D01*
G01X10347417Y-2189689D02*
G01X10347417Y-2185939D01*
G01X10347417Y-2185939D02*
G01X10349292Y-2182190D01*
G01X10349292Y-2182190D02*
G01X10351167Y-2180315D01*
G01X10351167Y-2180315D02*
G01X10354917Y-2178440D01*
G01X10354917Y-2178440D02*
G01X10364290Y-2178440D01*
G01X10364290Y-2178440D02*
G01X10369915Y-2180315D01*
G01X10386788Y-2217810D02*
G01X10386788Y-2178440D01*
G01X10263053Y-2317810D02*
G01X10263053Y-2278440D01*
G01X10263053Y-2278440D02*
G01X10276176Y-2306562D01*
G01X10276176Y-2306562D02*
G01X10289300Y-2278440D01*
G01X10289300Y-2278440D02*
G01X10289300Y-2317810D01*
G01X10308047Y-2317810D02*
G01X10308047Y-2278440D01*
G01X10324920Y-2315935D02*
G01X10330545Y-2317810D01*
G01X10330545Y-2317810D02*
G01X10339918Y-2317810D01*
G01X10339918Y-2317810D02*
G01X10343668Y-2315935D01*
G01X10343668Y-2315935D02*
G01X10345543Y-2314061D01*
G01X10345543Y-2314061D02*
G01X10347417Y-2310311D01*
G01X10347417Y-2310311D02*
G01X10347417Y-2306562D01*
G01X10347417Y-2306562D02*
G01X10345543Y-2302812D01*
G01X10345543Y-2302812D02*
G01X10343668Y-2300937D01*
G01X10343668Y-2300937D02*
G01X10339918Y-2299063D01*
G01X10339918Y-2299063D02*
G01X10332419Y-2297188D01*
G01X10332419Y-2297188D02*
G01X10328670Y-2295313D01*
G01X10328670Y-2295313D02*
G01X10326795Y-2293438D01*
G01X10326795Y-2293438D02*
G01X10324920Y-2289689D01*
G01X10324920Y-2289689D02*
G01X10324920Y-2285939D01*
G01X10324920Y-2285939D02*
G01X10326795Y-2282190D01*
G01X10326795Y-2282190D02*
G01X10328670Y-2280315D01*
G01X10328670Y-2280315D02*
G01X10332419Y-2278440D01*
G01X10332419Y-2278440D02*
G01X10341793Y-2278440D01*
G01X10341793Y-2278440D02*
G01X10347417Y-2280315D01*
G01X10371789Y-2278440D02*
G01X10379289Y-2278440D01*
G01X10379289Y-2278440D02*
G01X10383038Y-2280315D01*
G01X10383038Y-2280315D02*
G01X10386788Y-2284064D01*
G01X10386788Y-2284064D02*
G01X10388662Y-2291564D01*
G01X10388662Y-2291564D02*
G01X10388662Y-2304687D01*
G01X10388662Y-2304687D02*
G01X10386788Y-2312186D01*
G01X10386788Y-2312186D02*
G01X10383038Y-2315935D01*
G01X10383038Y-2315935D02*
G01X10379289Y-2317810D01*
G01X10379289Y-2317810D02*
G01X10371789Y-2317810D01*
G01X10371789Y-2317810D02*
G01X10368040Y-2315935D01*
G01X10368040Y-2315935D02*
G01X10364290Y-2312186D01*
G01X10364290Y-2312186D02*
G01X10362416Y-2304687D01*
G01X10362416Y-2304687D02*
G01X10362416Y-2291564D01*
G01X10362416Y-2291564D02*
G01X10364290Y-2284064D01*
G01X10364290Y-2284064D02*
G01X10368040Y-2280315D01*
G01X10368040Y-2280315D02*
G01X10371789Y-2278440D01*
G01X10287425Y-2415935D02*
G01X10293049Y-2417810D01*
G01X10293049Y-2417810D02*
G01X10302423Y-2417810D01*
G01X10302423Y-2417810D02*
G01X10306173Y-2415935D01*
G01X10306173Y-2415935D02*
G01X10308047Y-2414061D01*
G01X10308047Y-2414061D02*
G01X10309922Y-2410311D01*
G01X10309922Y-2410311D02*
G01X10309922Y-2406562D01*
G01X10309922Y-2406562D02*
G01X10308047Y-2402812D01*
G01X10308047Y-2402812D02*
G01X10306173Y-2400937D01*
G01X10306173Y-2400937D02*
G01X10302423Y-2399063D01*
G01X10302423Y-2399063D02*
G01X10294924Y-2397188D01*
G01X10294924Y-2397188D02*
G01X10291175Y-2395313D01*
G01X10291175Y-2395313D02*
G01X10289300Y-2393438D01*
G01X10289300Y-2393438D02*
G01X10287425Y-2389689D01*
G01X10287425Y-2389689D02*
G01X10287425Y-2385939D01*
G01X10287425Y-2385939D02*
G01X10289300Y-2382190D01*
G01X10289300Y-2382190D02*
G01X10291175Y-2380315D01*
G01X10291175Y-2380315D02*
G01X10294924Y-2378440D01*
G01X10294924Y-2378440D02*
G01X10304298Y-2378440D01*
G01X10304298Y-2378440D02*
G01X10309922Y-2380315D01*
G01X10349292Y-2414061D02*
G01X10347417Y-2415935D01*
G01X10347417Y-2415935D02*
G01X10341793Y-2417810D01*
G01X10341793Y-2417810D02*
G01X10338044Y-2417810D01*
G01X10338044Y-2417810D02*
G01X10332419Y-2415935D01*
G01X10332419Y-2415935D02*
G01X10328670Y-2412186D01*
G01X10328670Y-2412186D02*
G01X10326795Y-2408436D01*
G01X10326795Y-2408436D02*
G01X10324920Y-2400937D01*
G01X10324920Y-2400937D02*
G01X10324920Y-2395313D01*
G01X10324920Y-2395313D02*
G01X10326795Y-2387814D01*
G01X10326795Y-2387814D02*
G01X10328670Y-2384064D01*
G01X10328670Y-2384064D02*
G01X10332419Y-2380315D01*
G01X10332419Y-2380315D02*
G01X10338044Y-2378440D01*
G01X10338044Y-2378440D02*
G01X10341793Y-2378440D01*
G01X10341793Y-2378440D02*
G01X10347417Y-2380315D01*
G01X10347417Y-2380315D02*
G01X10349292Y-2382190D01*
G01X10366165Y-2417810D02*
G01X10366165Y-2378440D01*
G01X10388662Y-2417810D02*
G01X10371789Y-2395313D01*
G01X10388662Y-2378440D02*
G01X10366165Y-2400937D01*
G01X10332419Y-2478440D02*
G01X10354917Y-2478440D01*
G01X10343668Y-2517810D02*
G01X10343668Y-2478440D01*
G01X10364290Y-2478440D02*
G01X10390537Y-2517810D01*
G01X10390537Y-2478440D02*
G01X10364290Y-2517810D01*
G01X10360710Y-2617810D02*
G01X10347586Y-2599063D01*
G01X10338212Y-2617810D02*
G01X10338212Y-2578440D01*
G01X10338212Y-2578440D02*
G01X10353211Y-2578440D01*
G01X10353211Y-2578440D02*
G01X10356960Y-2580315D01*
G01X10356960Y-2580315D02*
G01X10358835Y-2582190D01*
G01X10358835Y-2582190D02*
G01X10360710Y-2585939D01*
G01X10360710Y-2585939D02*
G01X10360710Y-2591564D01*
G01X10360710Y-2591564D02*
G01X10358835Y-2595313D01*
G01X10358835Y-2595313D02*
G01X10356960Y-2597188D01*
G01X10356960Y-2597188D02*
G01X10353211Y-2599063D01*
G01X10353211Y-2599063D02*
G01X10338212Y-2599063D01*
G01X10373833Y-2578440D02*
G01X10400080Y-2617810D01*
G01X10400080Y-2578440D02*
G01X10373833Y-2617810D01*
G01X9958127Y-2392810D02*
G01X9935630Y-2392810D01*
G01X9946879Y-2392810D02*
G01X9946879Y-2353440D01*
G01X9946879Y-2353440D02*
G01X9943129Y-2359064D01*
G01X9943129Y-2359064D02*
G01X9939379Y-2362814D01*
G01X9939379Y-2362814D02*
G01X9935630Y-2364689D01*
G01X9975000Y-2389061D02*
G01X9976875Y-2390935D01*
G01X9976875Y-2390935D02*
G01X9975000Y-2392810D01*
G01X9975000Y-2392810D02*
G01X9973125Y-2390935D01*
G01X9973125Y-2390935D02*
G01X9975000Y-2389061D01*
G01X9975000Y-2389061D02*
G01X9975000Y-2392810D01*
G01X10001247Y-2353440D02*
G01X10004996Y-2353440D01*
G01X10004996Y-2353440D02*
G01X10008746Y-2355315D01*
G01X10008746Y-2355315D02*
G01X10010621Y-2357190D01*
G01X10010621Y-2357190D02*
G01X10012495Y-2360939D01*
G01X10012495Y-2360939D02*
G01X10014370Y-2368438D01*
G01X10014370Y-2368438D02*
G01X10014370Y-2377812D01*
G01X10014370Y-2377812D02*
G01X10012495Y-2385311D01*
G01X10012495Y-2385311D02*
G01X10010621Y-2389061D01*
G01X10010621Y-2389061D02*
G01X10008746Y-2390935D01*
G01X10008746Y-2390935D02*
G01X10004996Y-2392810D01*
G01X10004996Y-2392810D02*
G01X10001247Y-2392810D01*
G01X10001247Y-2392810D02*
G01X9997497Y-2390935D01*
G01X9997497Y-2390935D02*
G01X9995622Y-2389061D01*
G01X9995622Y-2389061D02*
G01X9993748Y-2385311D01*
G01X9993748Y-2385311D02*
G01X9991873Y-2377812D01*
G01X9991873Y-2377812D02*
G01X9991873Y-2368438D01*
G01X9991873Y-2368438D02*
G01X9993748Y-2360939D01*
G01X9993748Y-2360939D02*
G01X9995622Y-2357190D01*
G01X9995622Y-2357190D02*
G01X9997497Y-2355315D01*
G01X9997497Y-2355315D02*
G01X10001247Y-2353440D01*
G01X10500000Y-4150000D02*
G01X9800000Y-4150000D01*
G01X10500000Y-2750000D02*
G01X10500000Y-4150000D01*
G01X9800000Y-2750000D02*
G01X10500000Y-2750000D01*
G01X9800000Y-4150000D02*
G01X9800000Y-2750000D01*
G01X10300000Y-3950000D02*
G01X10300000Y-4150000D01*
G01X10000000Y-3950000D02*
G01X10000000Y-4150000D01*
G01X10300000Y-3950000D02*
G01X10000000Y-3950000D01*
G54D11*
G36*
G01X9667438Y-1774602D02*
G01X9685731Y-1776091D01*
G01X9704572Y-1778796D01*
G01X9722013Y-1782487D01*
G01X9736108Y-1786936D01*
G01X9737797Y-1787648D01*
G01X9754363Y-1797822D01*
G01X9771062Y-1813307D01*
G01X9786797Y-1832861D01*
G01X9800473Y-1855242D01*
G01X9804365Y-1863075D01*
G01X9810540Y-1876547D01*
G01X9814309Y-1886411D01*
G01X9816152Y-1895070D01*
G01X9816547Y-1904927D01*
G01X9815972Y-1918384D01*
G01X9815840Y-1920716D01*
G01X9814706Y-1935931D01*
G01X9812964Y-1946764D01*
G01X9810000Y-1955497D01*
G01X9805199Y-1964416D01*
G01X9803199Y-1967641D01*
G01X9795537Y-1980027D01*
G01X9787870Y-1992806D01*
G01X9784122Y-1999254D01*
G01X9778840Y-2007703D01*
G01X9773251Y-2014088D01*
G01X9766351Y-2018711D01*
G01X9757137Y-2021879D01*
G01X9744607Y-2023895D01*
G01X9727757Y-2025066D01*
G01X9705586Y-2025694D01*
G01X9696667Y-2025839D01*
G01X9673101Y-2026024D01*
G01X9655308Y-2025774D01*
G01X9642406Y-2025039D01*
G01X9633513Y-2023772D01*
G01X9628121Y-2022098D01*
G01X9616619Y-2014292D01*
G01X9604819Y-2001826D01*
G01X9594159Y-1986477D01*
G01X9586171Y-1970264D01*
G01X9580714Y-1950245D01*
G01X9577716Y-1926103D01*
G01X9577218Y-1904083D01*
G01X9583333Y-1904083D01*
G01X9583333Y-1918357D01*
G01X9585178Y-1934851D01*
G01X9590154Y-1954086D01*
G01X9597424Y-1973447D01*
G01X9606151Y-1990317D01*
G01X9606589Y-1991015D01*
G01X9613644Y-2000924D01*
G01X9621208Y-2008309D01*
G01X9630364Y-2013522D01*
G01X9642194Y-2016914D01*
G01X9657784Y-2018838D01*
G01X9678215Y-2019646D01*
G01X9695000Y-2019739D01*
G01X9716093Y-2019407D01*
G01X9734143Y-2018569D01*
G01X9747953Y-2017303D01*
G01X9756329Y-2015690D01*
G01X9756459Y-2015645D01*
G01X9765198Y-2010801D01*
G01X9773340Y-2001920D01*
G01X9778981Y-1993333D01*
G01X9786509Y-1980883D01*
G01X9794129Y-1968319D01*
G01X9798349Y-1961385D01*
G01X9803594Y-1949770D01*
G01X9807396Y-1935617D01*
G01X9809419Y-1921169D01*
G01X9809326Y-1908667D01*
G01X9807353Y-1901283D01*
G01X9802941Y-1897315D01*
G01X9793581Y-1891577D01*
G01X9780518Y-1884771D01*
G01X9766937Y-1878453D01*
G01X9750739Y-1870901D01*
G01X9738714Y-1864480D01*
G01X9731624Y-1859623D01*
G01X9730000Y-1857312D01*
G01X9732269Y-1854207D01*
G01X9739258Y-1854454D01*
G01X9751240Y-1858120D01*
G01X9768491Y-1865270D01*
G01X9775114Y-1868280D01*
G01X9786878Y-1873565D01*
G01X9796068Y-1877413D01*
G01X9801238Y-1879229D01*
G01X9801850Y-1879261D01*
G01X9801058Y-1876010D01*
G01X9798034Y-1868592D01*
G01X9794758Y-1861432D01*
G01X9787060Y-1848292D01*
G01X9776279Y-1833816D01*
G01X9763894Y-1819650D01*
G01X9751378Y-1807440D01*
G01X9740208Y-1798835D01*
G01X9737094Y-1797079D01*
G01X9726651Y-1793185D01*
G01X9711993Y-1789325D01*
G01X9695052Y-1785833D01*
G01X9677760Y-1783042D01*
G01X9662049Y-1781286D01*
G01X9649852Y-1780897D01*
G01X9645712Y-1781313D01*
G01X9636392Y-1785447D01*
G01X9625287Y-1793897D01*
G01X9613919Y-1805189D01*
G01X9603812Y-1817850D01*
G01X9597862Y-1827579D01*
G01X9594869Y-1835326D01*
G01X9591331Y-1847213D01*
G01X9587855Y-1860814D01*
G01X9585047Y-1873703D01*
G01X9583513Y-1883453D01*
G01X9583391Y-1885450D01*
G01X9586298Y-1886342D01*
G01X9594617Y-1884728D01*
G01X9607644Y-1880754D01*
G01X9610833Y-1879661D01*
G01X9629026Y-1873778D01*
G01X9641771Y-1870772D01*
G01X9649602Y-1870584D01*
G01X9653057Y-1873153D01*
G01X9653333Y-1874871D01*
G01X9650239Y-1878901D01*
G01X9641878Y-1882567D01*
G01X9639167Y-1883320D01*
G01X9628321Y-1886580D01*
G01X9614732Y-1891363D01*
G01X9604167Y-1895491D01*
G01X9583333Y-1904083D01*
G01X9577218Y-1904083D01*
G01X9577123Y-1899891D01*
G01X9578885Y-1873664D01*
G01X9582951Y-1849476D01*
G01X9589268Y-1829380D01*
G01X9589725Y-1828333D01*
G01X9597570Y-1814647D01*
G01X9608379Y-1800908D01*
G01X9620576Y-1788741D01*
G01X9632586Y-1779770D01*
G01X9640285Y-1776187D01*
G01X9651641Y-1774558D01*
G01X9667438Y-1774602D01*
G37*
G01X9667438Y-1774602D02*
G01X9685731Y-1776091D01*
G01X9685731Y-1776091D02*
G01X9704572Y-1778796D01*
G01X9704572Y-1778796D02*
G01X9722013Y-1782487D01*
G01X9722013Y-1782487D02*
G01X9736108Y-1786936D01*
G01X9736108Y-1786936D02*
G01X9737797Y-1787648D01*
G01X9737797Y-1787648D02*
G01X9754363Y-1797822D01*
G01X9754363Y-1797822D02*
G01X9771062Y-1813307D01*
G01X9771062Y-1813307D02*
G01X9786797Y-1832861D01*
G01X9786797Y-1832861D02*
G01X9800473Y-1855242D01*
G01X9800473Y-1855242D02*
G01X9804365Y-1863075D01*
G01X9804365Y-1863075D02*
G01X9810540Y-1876547D01*
G01X9810540Y-1876547D02*
G01X9814309Y-1886411D01*
G01X9814309Y-1886411D02*
G01X9816152Y-1895070D01*
G01X9816152Y-1895070D02*
G01X9816547Y-1904927D01*
G01X9816547Y-1904927D02*
G01X9815972Y-1918384D01*
G01X9815972Y-1918384D02*
G01X9815840Y-1920716D01*
G01X9815840Y-1920716D02*
G01X9814706Y-1935931D01*
G01X9814706Y-1935931D02*
G01X9812964Y-1946764D01*
G01X9812964Y-1946764D02*
G01X9810000Y-1955497D01*
G01X9810000Y-1955497D02*
G01X9805199Y-1964416D01*
G01X9805199Y-1964416D02*
G01X9803199Y-1967641D01*
G01X9803199Y-1967641D02*
G01X9795537Y-1980027D01*
G01X9795537Y-1980027D02*
G01X9787870Y-1992806D01*
G01X9787870Y-1992806D02*
G01X9784122Y-1999254D01*
G01X9784122Y-1999254D02*
G01X9778840Y-2007703D01*
G01X9778840Y-2007703D02*
G01X9773251Y-2014088D01*
G01X9773251Y-2014088D02*
G01X9766351Y-2018711D01*
G01X9766351Y-2018711D02*
G01X9757137Y-2021879D01*
G01X9757137Y-2021879D02*
G01X9744607Y-2023895D01*
G01X9744607Y-2023895D02*
G01X9727757Y-2025066D01*
G01X9727757Y-2025066D02*
G01X9705586Y-2025694D01*
G01X9705586Y-2025694D02*
G01X9696667Y-2025839D01*
G01X9696667Y-2025839D02*
G01X9673101Y-2026024D01*
G01X9673101Y-2026024D02*
G01X9655308Y-2025774D01*
G01X9655308Y-2025774D02*
G01X9642406Y-2025039D01*
G01X9642406Y-2025039D02*
G01X9633513Y-2023772D01*
G01X9633513Y-2023772D02*
G01X9628121Y-2022098D01*
G01X9628121Y-2022098D02*
G01X9616619Y-2014292D01*
G01X9616619Y-2014292D02*
G01X9604819Y-2001826D01*
G01X9604819Y-2001826D02*
G01X9594159Y-1986477D01*
G01X9594159Y-1986477D02*
G01X9586171Y-1970264D01*
G01X9586171Y-1970264D02*
G01X9580714Y-1950245D01*
G01X9580714Y-1950245D02*
G01X9577716Y-1926103D01*
G01X9577716Y-1926103D02*
G01X9577218Y-1904083D01*
G01X9577218Y-1904083D02*
G01X9583333Y-1904083D01*
G01X9583333Y-1904083D02*
G01X9583333Y-1918357D01*
G01X9583333Y-1918357D02*
G01X9585178Y-1934851D01*
G01X9585178Y-1934851D02*
G01X9590154Y-1954086D01*
G01X9590154Y-1954086D02*
G01X9597424Y-1973447D01*
G01X9597424Y-1973447D02*
G01X9606151Y-1990317D01*
G01X9606151Y-1990317D02*
G01X9606589Y-1991015D01*
G01X9606589Y-1991015D02*
G01X9613644Y-2000924D01*
G01X9613644Y-2000924D02*
G01X9621208Y-2008309D01*
G01X9621208Y-2008309D02*
G01X9630364Y-2013522D01*
G01X9630364Y-2013522D02*
G01X9642194Y-2016914D01*
G01X9642194Y-2016914D02*
G01X9657784Y-2018838D01*
G01X9657784Y-2018838D02*
G01X9678215Y-2019646D01*
G01X9678215Y-2019646D02*
G01X9695000Y-2019739D01*
G01X9695000Y-2019739D02*
G01X9716093Y-2019407D01*
G01X9716093Y-2019407D02*
G01X9734143Y-2018569D01*
G01X9734143Y-2018569D02*
G01X9747953Y-2017303D01*
G01X9747953Y-2017303D02*
G01X9756329Y-2015690D01*
G01X9756329Y-2015690D02*
G01X9756459Y-2015645D01*
G01X9756459Y-2015645D02*
G01X9765198Y-2010801D01*
G01X9765198Y-2010801D02*
G01X9773340Y-2001920D01*
G01X9773340Y-2001920D02*
G01X9778981Y-1993333D01*
G01X9778981Y-1993333D02*
G01X9786509Y-1980883D01*
G01X9786509Y-1980883D02*
G01X9794129Y-1968319D01*
G01X9794129Y-1968319D02*
G01X9798349Y-1961385D01*
G01X9798349Y-1961385D02*
G01X9803594Y-1949770D01*
G01X9803594Y-1949770D02*
G01X9807396Y-1935617D01*
G01X9807396Y-1935617D02*
G01X9809419Y-1921169D01*
G01X9809419Y-1921169D02*
G01X9809326Y-1908667D01*
G01X9809326Y-1908667D02*
G01X9807353Y-1901283D01*
G01X9807353Y-1901283D02*
G01X9802941Y-1897315D01*
G01X9802941Y-1897315D02*
G01X9793581Y-1891577D01*
G01X9793581Y-1891577D02*
G01X9780518Y-1884771D01*
G01X9780518Y-1884771D02*
G01X9766937Y-1878453D01*
G01X9766937Y-1878453D02*
G01X9750739Y-1870901D01*
G01X9750739Y-1870901D02*
G01X9738714Y-1864480D01*
G01X9738714Y-1864480D02*
G01X9731624Y-1859623D01*
G01X9731624Y-1859623D02*
G01X9730000Y-1857312D01*
G01X9730000Y-1857312D02*
G01X9732269Y-1854207D01*
G01X9732269Y-1854207D02*
G01X9739258Y-1854454D01*
G01X9739258Y-1854454D02*
G01X9751240Y-1858120D01*
G01X9751240Y-1858120D02*
G01X9768491Y-1865270D01*
G01X9768491Y-1865270D02*
G01X9775114Y-1868280D01*
G01X9775114Y-1868280D02*
G01X9786878Y-1873565D01*
G01X9786878Y-1873565D02*
G01X9796068Y-1877413D01*
G01X9796068Y-1877413D02*
G01X9801238Y-1879229D01*
G01X9801238Y-1879229D02*
G01X9801850Y-1879261D01*
G01X9801850Y-1879261D02*
G01X9801058Y-1876010D01*
G01X9801058Y-1876010D02*
G01X9798034Y-1868592D01*
G01X9798034Y-1868592D02*
G01X9794758Y-1861432D01*
G01X9794758Y-1861432D02*
G01X9787060Y-1848292D01*
G01X9787060Y-1848292D02*
G01X9776279Y-1833816D01*
G01X9776279Y-1833816D02*
G01X9763894Y-1819650D01*
G01X9763894Y-1819650D02*
G01X9751378Y-1807440D01*
G01X9751378Y-1807440D02*
G01X9740208Y-1798835D01*
G01X9740208Y-1798835D02*
G01X9737094Y-1797079D01*
G01X9737094Y-1797079D02*
G01X9726651Y-1793185D01*
G01X9726651Y-1793185D02*
G01X9711993Y-1789325D01*
G01X9711993Y-1789325D02*
G01X9695052Y-1785833D01*
G01X9695052Y-1785833D02*
G01X9677760Y-1783042D01*
G01X9677760Y-1783042D02*
G01X9662049Y-1781286D01*
G01X9662049Y-1781286D02*
G01X9649852Y-1780897D01*
G01X9649852Y-1780897D02*
G01X9645712Y-1781313D01*
G01X9645712Y-1781313D02*
G01X9636392Y-1785447D01*
G01X9636392Y-1785447D02*
G01X9625287Y-1793897D01*
G01X9625287Y-1793897D02*
G01X9613919Y-1805189D01*
G01X9613919Y-1805189D02*
G01X9603812Y-1817850D01*
G01X9603812Y-1817850D02*
G01X9597862Y-1827579D01*
G01X9597862Y-1827579D02*
G01X9594869Y-1835326D01*
G01X9594869Y-1835326D02*
G01X9591331Y-1847213D01*
G01X9591331Y-1847213D02*
G01X9587855Y-1860814D01*
G01X9587855Y-1860814D02*
G01X9585047Y-1873703D01*
G01X9585047Y-1873703D02*
G01X9583513Y-1883453D01*
G01X9583513Y-1883453D02*
G01X9583391Y-1885450D01*
G01X9583391Y-1885450D02*
G01X9586298Y-1886342D01*
G01X9586298Y-1886342D02*
G01X9594617Y-1884728D01*
G01X9594617Y-1884728D02*
G01X9607644Y-1880754D01*
G01X9607644Y-1880754D02*
G01X9610833Y-1879661D01*
G01X9610833Y-1879661D02*
G01X9629026Y-1873778D01*
G01X9629026Y-1873778D02*
G01X9641771Y-1870772D01*
G01X9641771Y-1870772D02*
G01X9649602Y-1870584D01*
G01X9649602Y-1870584D02*
G01X9653057Y-1873153D01*
G01X9653057Y-1873153D02*
G01X9653333Y-1874871D01*
G01X9653333Y-1874871D02*
G01X9650239Y-1878901D01*
G01X9650239Y-1878901D02*
G01X9641878Y-1882567D01*
G01X9641878Y-1882567D02*
G01X9639167Y-1883320D01*
G01X9639167Y-1883320D02*
G01X9628321Y-1886580D01*
G01X9628321Y-1886580D02*
G01X9614732Y-1891363D01*
G01X9614732Y-1891363D02*
G01X9604167Y-1895491D01*
G01X9604167Y-1895491D02*
G01X9583333Y-1904083D01*
G01X9583333Y-1904083D02*
G01X9577218Y-1904083D01*
G01X9577218Y-1904083D02*
G01X9577123Y-1899891D01*
G01X9577123Y-1899891D02*
G01X9578885Y-1873664D01*
G01X9578885Y-1873664D02*
G01X9582951Y-1849476D01*
G01X9582951Y-1849476D02*
G01X9589268Y-1829380D01*
G01X9589268Y-1829380D02*
G01X9589725Y-1828333D01*
G01X9589725Y-1828333D02*
G01X9597570Y-1814647D01*
G01X9597570Y-1814647D02*
G01X9608379Y-1800908D01*
G01X9608379Y-1800908D02*
G01X9620576Y-1788741D01*
G01X9620576Y-1788741D02*
G01X9632586Y-1779770D01*
G01X9632586Y-1779770D02*
G01X9640285Y-1776187D01*
G01X9640285Y-1776187D02*
G01X9651641Y-1774558D01*
G01X9651641Y-1774558D02*
G01X9667438Y-1774602D01*
G36*
G01X9632399Y-1936137D02*
G01X9633333Y-1940256D01*
G01X9636448Y-1949546D01*
G01X9644953Y-1958357D01*
G01X9657592Y-1965703D01*
G01X9671530Y-1970261D01*
G01X9683781Y-1972526D01*
G01X9693780Y-1972761D01*
G01X9704952Y-1970871D01*
G01X9711866Y-1969147D01*
G01X9730535Y-1963886D01*
G01X9743486Y-1959237D01*
G01X9751581Y-1954740D01*
G01X9755680Y-1949933D01*
G01X9756667Y-1945170D01*
G01X9758425Y-1938273D01*
G01X9761858Y-1936667D01*
G01X9765139Y-1938196D01*
G01X9766275Y-1943758D01*
G01X9766025Y-1950833D01*
G01X9765000Y-1965000D01*
G01X9738333Y-1974068D01*
G01X9708533Y-1981452D01*
G01X9680238Y-1982658D01*
G01X9655114Y-1978441D01*
G01X9639173Y-1971728D01*
G01X9628528Y-1961798D01*
G01X9623620Y-1949121D01*
G01X9623333Y-1944814D01*
G01X9624454Y-1936259D01*
G01X9628012Y-1933344D01*
G01X9628333Y-1933333D01*
G01X9632399Y-1936137D01*
G37*
G01X9632399Y-1936137D02*
G01X9633333Y-1940256D01*
G01X9633333Y-1940256D02*
G01X9636448Y-1949546D01*
G01X9636448Y-1949546D02*
G01X9644953Y-1958357D01*
G01X9644953Y-1958357D02*
G01X9657592Y-1965703D01*
G01X9657592Y-1965703D02*
G01X9671530Y-1970261D01*
G01X9671530Y-1970261D02*
G01X9683781Y-1972526D01*
G01X9683781Y-1972526D02*
G01X9693780Y-1972761D01*
G01X9693780Y-1972761D02*
G01X9704952Y-1970871D01*
G01X9704952Y-1970871D02*
G01X9711866Y-1969147D01*
G01X9711866Y-1969147D02*
G01X9730535Y-1963886D01*
G01X9730535Y-1963886D02*
G01X9743486Y-1959237D01*
G01X9743486Y-1959237D02*
G01X9751581Y-1954740D01*
G01X9751581Y-1954740D02*
G01X9755680Y-1949933D01*
G01X9755680Y-1949933D02*
G01X9756667Y-1945170D01*
G01X9756667Y-1945170D02*
G01X9758425Y-1938273D01*
G01X9758425Y-1938273D02*
G01X9761858Y-1936667D01*
G01X9761858Y-1936667D02*
G01X9765139Y-1938196D01*
G01X9765139Y-1938196D02*
G01X9766275Y-1943758D01*
G01X9766275Y-1943758D02*
G01X9766025Y-1950833D01*
G01X9766025Y-1950833D02*
G01X9765000Y-1965000D01*
G01X9765000Y-1965000D02*
G01X9738333Y-1974068D01*
G01X9738333Y-1974068D02*
G01X9708533Y-1981452D01*
G01X9708533Y-1981452D02*
G01X9680238Y-1982658D01*
G01X9680238Y-1982658D02*
G01X9655114Y-1978441D01*
G01X9655114Y-1978441D02*
G01X9639173Y-1971728D01*
G01X9639173Y-1971728D02*
G01X9628528Y-1961798D01*
G01X9628528Y-1961798D02*
G01X9623620Y-1949121D01*
G01X9623620Y-1949121D02*
G01X9623333Y-1944814D01*
G01X9623333Y-1944814D02*
G01X9624454Y-1936259D01*
G01X9624454Y-1936259D02*
G01X9628012Y-1933344D01*
G01X9628012Y-1933344D02*
G01X9628333Y-1933333D01*
G01X9628333Y-1933333D02*
G01X9632399Y-1936137D01*
G36*
G01X9708309Y-1899406D02*
G01X9710093Y-1905790D01*
G01X9709310Y-1913366D01*
G01X9706000Y-1919333D01*
G01X9699580Y-1922516D01*
G01X9691294Y-1923141D01*
G01X9684110Y-1921315D01*
G01X9681248Y-1918444D01*
G01X9682350Y-1913216D01*
G01X9687427Y-1906708D01*
G01X9694552Y-1900743D01*
G01X9701800Y-1897141D01*
G01X9704167Y-1896772D01*
G01X9708309Y-1899406D01*
G37*
G01X9708309Y-1899406D02*
G01X9710093Y-1905790D01*
G01X9710093Y-1905790D02*
G01X9709310Y-1913366D01*
G01X9709310Y-1913366D02*
G01X9706000Y-1919333D01*
G01X9706000Y-1919333D02*
G01X9699580Y-1922516D01*
G01X9699580Y-1922516D02*
G01X9691294Y-1923141D01*
G01X9691294Y-1923141D02*
G01X9684110Y-1921315D01*
G01X9684110Y-1921315D02*
G01X9681248Y-1918444D01*
G01X9681248Y-1918444D02*
G01X9682350Y-1913216D01*
G01X9682350Y-1913216D02*
G01X9687427Y-1906708D01*
G01X9687427Y-1906708D02*
G01X9694552Y-1900743D01*
G01X9694552Y-1900743D02*
G01X9701800Y-1897141D01*
G01X9701800Y-1897141D02*
G01X9704167Y-1896772D01*
G01X9704167Y-1896772D02*
G01X9708309Y-1899406D01*
G54D12*
G01X9513759Y-1942537D02*
G75*
G02X9336233Y-1942520I-088759J0042537D01*
G01X9513759Y-1857463D02*
G75*
G03X9336233Y-1857480I-088759J-042537D01*
G01X9534756Y-1942552D02*
G75*
G02X9324213Y-1960820I-109756J0042552D01*
G01X9534756Y-1857448D02*
G75*
G03X9324213Y-1839180I-109756J-042552D01*
G01X9324213Y-1942520D02*
G01X9324213Y-1960827D01*
G01X9324213Y-1839173D02*
G01X9324213Y-1857480D01*
G01X10100000Y-2108169D02*
G01X10208169Y-2108169D01*
G01X10208169Y-2108169D02*
G01X10208169Y-2097047D01*
G01X10100000Y-2108169D02*
G01X9991831Y-2108169D01*
G01X9991831Y-2108169D02*
G01X9991831Y-2097047D01*
G01X10100000Y-1891831D02*
G01X10208169Y-1891831D01*
G01X10208169Y-1891831D02*
G01X10208169Y-1902953D01*
G01X10100000Y-1891831D02*
G01X9991831Y-1891831D01*
G01X9991831Y-1891831D02*
G01X9991831Y-1902953D01*
G01X9991831Y-1902953D02*
G01X9926772Y-1902953D01*
G01X9177559Y-3550000D02*
G01X9300000Y-3550000D01*
G01X9177559Y-2750000D02*
G01X9177559Y-3550000D01*
G01X9750000Y-2750000D02*
G01X9177559Y-2750000D01*
G01X9750000Y-3550000D02*
G01X9300000Y-3550000D01*
G01X9750000Y-2750000D02*
G01X9750000Y-3550000D01*
G01X9553937Y-2300000D02*
G75*
G03X9553937Y-2300000I-053937J0000000D01*
G01X9500000Y-2246063D02*
G01X9500000Y-2143307D01*
G01X9753937Y-2300000D02*
G75*
G03X9753937Y-2300000I-053937J0000000D01*
G01X9700000Y-2246063D02*
G01X9700000Y-2143307D01*
G01X9353937Y-2300000D02*
G75*
G03X9353937Y-2300000I-053937J0000000D01*
G01X9300000Y-2246063D02*
G01X9300000Y-2143307D01*
G01X10103937Y-2650000D02*
G75*
G03X10103937Y-2650000I-053937J0000000D01*
G01X10050000Y-2596063D02*
G01X10050000Y-2493307D01*
G01X9903937Y-2650000D02*
G75*
G03X9903937Y-2650000I-053937J0000000D01*
G01X9850000Y-2596063D02*
G01X9850000Y-2493307D01*
G01X10303937Y-2650000D02*
G75*
G03X10303937Y-2650000I-053937J0000000D01*
G01X10250000Y-2596063D02*
G01X10250000Y-2493307D01*
G01X9703937Y-2650000D02*
G75*
G03X9703937Y-2650000I-053937J0000000D01*
G01X9650000Y-2596063D02*
G01X9650000Y-2493307D01*
G01X9732677Y-3875000D02*
G75*
G03X9732677Y-3875000I-279528J0000000D01*
G54D10*
G01X9245941Y-1917810D02*
G01X9245941Y-1878440D01*
G01X9245941Y-1878440D02*
G01X9255315Y-1878440D01*
G01X9255315Y-1878440D02*
G01X9260939Y-1880315D01*
G01X9260939Y-1880315D02*
G01X9264689Y-1884064D01*
G01X9264689Y-1884064D02*
G01X9266564Y-1887814D01*
G01X9266564Y-1887814D02*
G01X9268438Y-1895313D01*
G01X9268438Y-1895313D02*
G01X9268438Y-1900937D01*
G01X9268438Y-1900937D02*
G01X9266564Y-1908436D01*
G01X9266564Y-1908436D02*
G01X9264689Y-1912186D01*
G01X9264689Y-1912186D02*
G01X9260939Y-1915935D01*
G01X9260939Y-1915935D02*
G01X9255315Y-1917810D01*
G01X9255315Y-1917810D02*
G01X9245941Y-1917810D01*
G01X9305934Y-1917810D02*
G01X9283436Y-1917810D01*
G01X9294685Y-1917810D02*
G01X9294685Y-1878440D01*
G01X9294685Y-1878440D02*
G01X9290935Y-1884064D01*
G01X9290935Y-1884064D02*
G01X9287186Y-1887814D01*
G01X9287186Y-1887814D02*
G01X9283436Y-1889689D01*
G01X10070004Y-1837102D02*
G01X10070004Y-1868973D01*
G01X10070004Y-1868973D02*
G01X10071879Y-1872722D01*
G01X10071879Y-1872722D02*
G01X10073753Y-1874597D01*
G01X10073753Y-1874597D02*
G01X10077503Y-1876472D01*
G01X10077503Y-1876472D02*
G01X10085002Y-1876472D01*
G01X10085002Y-1876472D02*
G01X10088751Y-1874597D01*
G01X10088751Y-1874597D02*
G01X10090626Y-1872722D01*
G01X10090626Y-1872722D02*
G01X10092501Y-1868973D01*
G01X10092501Y-1868973D02*
G01X10092501Y-1837102D01*
G01X10128121Y-1850225D02*
G01X10128121Y-1876472D01*
G01X10118748Y-1835227D02*
G01X10109374Y-1863348D01*
G01X10109374Y-1863348D02*
G01X10133746Y-1863348D01*
G01X9378440Y-3179996D02*
G01X9410311Y-3179996D01*
G01X9410311Y-3179996D02*
G01X9414061Y-3178121D01*
G01X9414061Y-3178121D02*
G01X9415935Y-3176247D01*
G01X9415935Y-3176247D02*
G01X9417810Y-3172497D01*
G01X9417810Y-3172497D02*
G01X9417810Y-3164998D01*
G01X9417810Y-3164998D02*
G01X9415935Y-3161249D01*
G01X9415935Y-3161249D02*
G01X9414061Y-3159374D01*
G01X9414061Y-3159374D02*
G01X9410311Y-3157499D01*
G01X9410311Y-3157499D02*
G01X9378440Y-3157499D01*
G01X9378440Y-3142501D02*
G01X9378440Y-3118129D01*
G01X9378440Y-3118129D02*
G01X9393438Y-3131252D01*
G01X9393438Y-3131252D02*
G01X9393438Y-3125628D01*
G01X9393438Y-3125628D02*
G01X9395313Y-3121879D01*
G01X9395313Y-3121879D02*
G01X9397188Y-3120004D01*
G01X9397188Y-3120004D02*
G01X9400937Y-3118129D01*
G01X9400937Y-3118129D02*
G01X9410311Y-3118129D01*
G01X9410311Y-3118129D02*
G01X9414061Y-3120004D01*
G01X9414061Y-3120004D02*
G01X9415935Y-3121879D01*
G01X9415935Y-3121879D02*
G01X9417810Y-3125628D01*
G01X9417810Y-3125628D02*
G01X9417810Y-3136877D01*
G01X9417810Y-3136877D02*
G01X9415935Y-3140626D01*
G01X9415935Y-3140626D02*
G01X9414061Y-3142501D01*
G01X9280315Y-3194057D02*
G01X9278440Y-3197806D01*
G01X9278440Y-3197806D02*
G01X9278440Y-3203431D01*
G01X9278440Y-3203431D02*
G01X9280315Y-3209055D01*
G01X9280315Y-3209055D02*
G01X9284064Y-3212805D01*
G01X9284064Y-3212805D02*
G01X9287814Y-3214679D01*
G01X9287814Y-3214679D02*
G01X9295313Y-3216554D01*
G01X9295313Y-3216554D02*
G01X9300937Y-3216554D01*
G01X9300937Y-3216554D02*
G01X9308436Y-3214679D01*
G01X9308436Y-3214679D02*
G01X9312186Y-3212805D01*
G01X9312186Y-3212805D02*
G01X9315935Y-3209055D01*
G01X9315935Y-3209055D02*
G01X9317810Y-3203431D01*
G01X9317810Y-3203431D02*
G01X9317810Y-3199681D01*
G01X9317810Y-3199681D02*
G01X9315935Y-3194057D01*
G01X9315935Y-3194057D02*
G01X9314061Y-3192182D01*
G01X9314061Y-3192182D02*
G01X9300937Y-3192182D01*
G01X9300937Y-3192182D02*
G01X9300937Y-3199681D01*
G01X9299063Y-3167810D02*
G01X9317810Y-3167810D01*
G01X9278440Y-3180934D02*
G01X9299063Y-3167810D01*
G01X9299063Y-3167810D02*
G01X9278440Y-3154687D01*
G01X9317810Y-3139689D02*
G01X9317810Y-3132190D01*
G01X9317810Y-3132190D02*
G01X9315935Y-3128440D01*
G01X9315935Y-3128440D02*
G01X9314061Y-3126565D01*
G01X9314061Y-3126565D02*
G01X9308436Y-3122816D01*
G01X9308436Y-3122816D02*
G01X9300937Y-3120941D01*
G01X9300937Y-3120941D02*
G01X9285939Y-3120941D01*
G01X9285939Y-3120941D02*
G01X9282190Y-3122816D01*
G01X9282190Y-3122816D02*
G01X9280315Y-3124691D01*
G01X9280315Y-3124691D02*
G01X9278440Y-3128440D01*
G01X9278440Y-3128440D02*
G01X9278440Y-3135939D01*
G01X9278440Y-3135939D02*
G01X9280315Y-3139689D01*
G01X9280315Y-3139689D02*
G01X9282190Y-3141564D01*
G01X9282190Y-3141564D02*
G01X9285939Y-3143438D01*
G01X9285939Y-3143438D02*
G01X9295313Y-3143438D01*
G01X9295313Y-3143438D02*
G01X9299063Y-3141564D01*
G01X9299063Y-3141564D02*
G01X9300937Y-3139689D01*
G01X9300937Y-3139689D02*
G01X9302812Y-3135939D01*
G01X9302812Y-3135939D02*
G01X9302812Y-3128440D01*
G01X9302812Y-3128440D02*
G01X9300937Y-3124691D01*
G01X9300937Y-3124691D02*
G01X9299063Y-3122816D01*
G01X9299063Y-3122816D02*
G01X9295313Y-3120941D01*
G01X9317810Y-3083446D02*
G01X9317810Y-3105943D01*
G01X9317810Y-3094694D02*
G01X9278440Y-3094694D01*
G01X9278440Y-3094694D02*
G01X9284064Y-3098444D01*
G01X9284064Y-3098444D02*
G01X9287814Y-3102193D01*
G01X9287814Y-3102193D02*
G01X9289689Y-3105943D01*
G01X9523753Y-2814061D02*
G01X9521879Y-2815935D01*
G01X9521879Y-2815935D02*
G01X9516254Y-2817810D01*
G01X9516254Y-2817810D02*
G01X9512505Y-2817810D01*
G01X9512505Y-2817810D02*
G01X9506880Y-2815935D01*
G01X9506880Y-2815935D02*
G01X9503131Y-2812186D01*
G01X9503131Y-2812186D02*
G01X9501256Y-2808436D01*
G01X9501256Y-2808436D02*
G01X9499381Y-2800937D01*
G01X9499381Y-2800937D02*
G01X9499381Y-2795313D01*
G01X9499381Y-2795313D02*
G01X9501256Y-2787814D01*
G01X9501256Y-2787814D02*
G01X9503131Y-2784064D01*
G01X9503131Y-2784064D02*
G01X9506880Y-2780315D01*
G01X9506880Y-2780315D02*
G01X9512505Y-2778440D01*
G01X9512505Y-2778440D02*
G01X9516254Y-2778440D01*
G01X9516254Y-2778440D02*
G01X9521879Y-2780315D01*
G01X9521879Y-2780315D02*
G01X9523753Y-2782190D01*
G01X9538751Y-2815935D02*
G01X9544376Y-2817810D01*
G01X9544376Y-2817810D02*
G01X9553750Y-2817810D01*
G01X9553750Y-2817810D02*
G01X9557499Y-2815935D01*
G01X9557499Y-2815935D02*
G01X9559374Y-2814061D01*
G01X9559374Y-2814061D02*
G01X9561249Y-2810311D01*
G01X9561249Y-2810311D02*
G01X9561249Y-2806562D01*
G01X9561249Y-2806562D02*
G01X9559374Y-2802812D01*
G01X9559374Y-2802812D02*
G01X9557499Y-2800937D01*
G01X9557499Y-2800937D02*
G01X9553750Y-2799063D01*
G01X9553750Y-2799063D02*
G01X9546250Y-2797188D01*
G01X9546250Y-2797188D02*
G01X9542501Y-2795313D01*
G01X9542501Y-2795313D02*
G01X9540626Y-2793438D01*
G01X9540626Y-2793438D02*
G01X9538751Y-2789689D01*
G01X9538751Y-2789689D02*
G01X9538751Y-2785939D01*
G01X9538751Y-2785939D02*
G01X9540626Y-2782190D01*
G01X9540626Y-2782190D02*
G01X9542501Y-2780315D01*
G01X9542501Y-2780315D02*
G01X9546250Y-2778440D01*
G01X9546250Y-2778440D02*
G01X9555624Y-2778440D01*
G01X9555624Y-2778440D02*
G01X9561249Y-2780315D01*
G01X9591245Y-2797188D02*
G01X9596869Y-2799063D01*
G01X9596869Y-2799063D02*
G01X9598744Y-2800937D01*
G01X9598744Y-2800937D02*
G01X9600619Y-2804687D01*
G01X9600619Y-2804687D02*
G01X9600619Y-2810311D01*
G01X9600619Y-2810311D02*
G01X9598744Y-2814061D01*
G01X9598744Y-2814061D02*
G01X9596869Y-2815935D01*
G01X9596869Y-2815935D02*
G01X9593120Y-2817810D01*
G01X9593120Y-2817810D02*
G01X9578121Y-2817810D01*
G01X9578121Y-2817810D02*
G01X9578121Y-2778440D01*
G01X9578121Y-2778440D02*
G01X9591245Y-2778440D01*
G01X9591245Y-2778440D02*
G01X9594994Y-2780315D01*
G01X9594994Y-2780315D02*
G01X9596869Y-2782190D01*
G01X9596869Y-2782190D02*
G01X9598744Y-2785939D01*
G01X9598744Y-2785939D02*
G01X9598744Y-2789689D01*
G01X9598744Y-2789689D02*
G01X9596869Y-2793438D01*
G01X9596869Y-2793438D02*
G01X9594994Y-2795313D01*
G01X9594994Y-2795313D02*
G01X9591245Y-2797188D01*
G01X9591245Y-2797188D02*
G01X9578121Y-2797188D01*
G01X9500319Y-2917810D02*
G01X9500319Y-2878440D01*
G01X9500319Y-2878440D02*
G01X9522816Y-2917810D01*
G01X9522816Y-2917810D02*
G01X9522816Y-2878440D01*
G01X9564061Y-2914061D02*
G01X9562186Y-2915935D01*
G01X9562186Y-2915935D02*
G01X9556562Y-2917810D01*
G01X9556562Y-2917810D02*
G01X9552812Y-2917810D01*
G01X9552812Y-2917810D02*
G01X9547188Y-2915935D01*
G01X9547188Y-2915935D02*
G01X9543438Y-2912186D01*
G01X9543438Y-2912186D02*
G01X9541564Y-2908436D01*
G01X9541564Y-2908436D02*
G01X9539689Y-2900937D01*
G01X9539689Y-2900937D02*
G01X9539689Y-2895313D01*
G01X9539689Y-2895313D02*
G01X9541564Y-2887814D01*
G01X9541564Y-2887814D02*
G01X9543438Y-2884064D01*
G01X9543438Y-2884064D02*
G01X9547188Y-2880315D01*
G01X9547188Y-2880315D02*
G01X9552812Y-2878440D01*
G01X9552812Y-2878440D02*
G01X9556562Y-2878440D01*
G01X9556562Y-2878440D02*
G01X9562186Y-2880315D01*
G01X9562186Y-2880315D02*
G01X9564061Y-2882190D01*
G01X9579059Y-2915935D02*
G01X9584683Y-2917810D01*
G01X9584683Y-2917810D02*
G01X9594057Y-2917810D01*
G01X9594057Y-2917810D02*
G01X9597806Y-2915935D01*
G01X9597806Y-2915935D02*
G01X9599681Y-2914061D01*
G01X9599681Y-2914061D02*
G01X9601556Y-2910311D01*
G01X9601556Y-2910311D02*
G01X9601556Y-2906562D01*
G01X9601556Y-2906562D02*
G01X9599681Y-2902812D01*
G01X9599681Y-2902812D02*
G01X9597806Y-2900937D01*
G01X9597806Y-2900937D02*
G01X9594057Y-2899063D01*
G01X9594057Y-2899063D02*
G01X9586558Y-2897188D01*
G01X9586558Y-2897188D02*
G01X9582808Y-2895313D01*
G01X9582808Y-2895313D02*
G01X9580934Y-2893438D01*
G01X9580934Y-2893438D02*
G01X9579059Y-2889689D01*
G01X9579059Y-2889689D02*
G01X9579059Y-2885939D01*
G01X9579059Y-2885939D02*
G01X9580934Y-2882190D01*
G01X9580934Y-2882190D02*
G01X9582808Y-2880315D01*
G01X9582808Y-2880315D02*
G01X9586558Y-2878440D01*
G01X9586558Y-2878440D02*
G01X9595932Y-2878440D01*
G01X9595932Y-2878440D02*
G01X9601556Y-2880315D01*
G01X9501256Y-3015935D02*
G01X9506880Y-3017810D01*
G01X9506880Y-3017810D02*
G01X9516254Y-3017810D01*
G01X9516254Y-3017810D02*
G01X9520004Y-3015935D01*
G01X9520004Y-3015935D02*
G01X9521879Y-3014061D01*
G01X9521879Y-3014061D02*
G01X9523753Y-3010311D01*
G01X9523753Y-3010311D02*
G01X9523753Y-3006562D01*
G01X9523753Y-3006562D02*
G01X9521879Y-3002812D01*
G01X9521879Y-3002812D02*
G01X9520004Y-3000937D01*
G01X9520004Y-3000937D02*
G01X9516254Y-2999063D01*
G01X9516254Y-2999063D02*
G01X9508755Y-2997188D01*
G01X9508755Y-2997188D02*
G01X9505006Y-2995313D01*
G01X9505006Y-2995313D02*
G01X9503131Y-2993438D01*
G01X9503131Y-2993438D02*
G01X9501256Y-2989689D01*
G01X9501256Y-2989689D02*
G01X9501256Y-2985939D01*
G01X9501256Y-2985939D02*
G01X9503131Y-2982190D01*
G01X9503131Y-2982190D02*
G01X9505006Y-2980315D01*
G01X9505006Y-2980315D02*
G01X9508755Y-2978440D01*
G01X9508755Y-2978440D02*
G01X9518129Y-2978440D01*
G01X9518129Y-2978440D02*
G01X9523753Y-2980315D01*
G01X9538751Y-3006562D02*
G01X9557499Y-3006562D01*
G01X9535002Y-3017810D02*
G01X9548125Y-2978440D01*
G01X9548125Y-2978440D02*
G01X9561249Y-3017810D01*
G01X9581871Y-2978440D02*
G01X9589370Y-2978440D01*
G01X9589370Y-2978440D02*
G01X9593120Y-2980315D01*
G01X9593120Y-2980315D02*
G01X9596869Y-2984064D01*
G01X9596869Y-2984064D02*
G01X9598744Y-2991564D01*
G01X9598744Y-2991564D02*
G01X9598744Y-3004687D01*
G01X9598744Y-3004687D02*
G01X9596869Y-3012186D01*
G01X9596869Y-3012186D02*
G01X9593120Y-3015935D01*
G01X9593120Y-3015935D02*
G01X9589370Y-3017810D01*
G01X9589370Y-3017810D02*
G01X9581871Y-3017810D01*
G01X9581871Y-3017810D02*
G01X9578121Y-3015935D01*
G01X9578121Y-3015935D02*
G01X9574372Y-3012186D01*
G01X9574372Y-3012186D02*
G01X9572497Y-3004687D01*
G01X9572497Y-3004687D02*
G01X9572497Y-2991564D01*
G01X9572497Y-2991564D02*
G01X9574372Y-2984064D01*
G01X9574372Y-2984064D02*
G01X9578121Y-2980315D01*
G01X9578121Y-2980315D02*
G01X9581871Y-2978440D01*
G01X9502193Y-3115935D02*
G01X9507818Y-3117810D01*
G01X9507818Y-3117810D02*
G01X9517192Y-3117810D01*
G01X9517192Y-3117810D02*
G01X9520941Y-3115935D01*
G01X9520941Y-3115935D02*
G01X9522816Y-3114061D01*
G01X9522816Y-3114061D02*
G01X9524691Y-3110311D01*
G01X9524691Y-3110311D02*
G01X9524691Y-3106562D01*
G01X9524691Y-3106562D02*
G01X9522816Y-3102812D01*
G01X9522816Y-3102812D02*
G01X9520941Y-3100937D01*
G01X9520941Y-3100937D02*
G01X9517192Y-3099063D01*
G01X9517192Y-3099063D02*
G01X9509693Y-3097188D01*
G01X9509693Y-3097188D02*
G01X9505943Y-3095313D01*
G01X9505943Y-3095313D02*
G01X9504068Y-3093438D01*
G01X9504068Y-3093438D02*
G01X9502193Y-3089689D01*
G01X9502193Y-3089689D02*
G01X9502193Y-3085939D01*
G01X9502193Y-3085939D02*
G01X9504068Y-3082190D01*
G01X9504068Y-3082190D02*
G01X9505943Y-3080315D01*
G01X9505943Y-3080315D02*
G01X9509693Y-3078440D01*
G01X9509693Y-3078440D02*
G01X9519066Y-3078440D01*
G01X9519066Y-3078440D02*
G01X9524691Y-3080315D01*
G01X9541564Y-3117810D02*
G01X9541564Y-3078440D01*
G01X9541564Y-3078440D02*
G01X9550937Y-3078440D01*
G01X9550937Y-3078440D02*
G01X9556562Y-3080315D01*
G01X9556562Y-3080315D02*
G01X9560311Y-3084064D01*
G01X9560311Y-3084064D02*
G01X9562186Y-3087814D01*
G01X9562186Y-3087814D02*
G01X9564061Y-3095313D01*
G01X9564061Y-3095313D02*
G01X9564061Y-3100937D01*
G01X9564061Y-3100937D02*
G01X9562186Y-3108436D01*
G01X9562186Y-3108436D02*
G01X9560311Y-3112186D01*
G01X9560311Y-3112186D02*
G01X9556562Y-3115935D01*
G01X9556562Y-3115935D02*
G01X9550937Y-3117810D01*
G01X9550937Y-3117810D02*
G01X9541564Y-3117810D01*
G01X9579059Y-3106562D02*
G01X9597806Y-3106562D01*
G01X9575309Y-3117810D02*
G01X9588433Y-3078440D01*
G01X9588433Y-3078440D02*
G01X9601556Y-3117810D01*
G01X9503131Y-3215935D02*
G01X9508755Y-3217810D01*
G01X9508755Y-3217810D02*
G01X9518129Y-3217810D01*
G01X9518129Y-3217810D02*
G01X9521879Y-3215935D01*
G01X9521879Y-3215935D02*
G01X9523753Y-3214061D01*
G01X9523753Y-3214061D02*
G01X9525628Y-3210311D01*
G01X9525628Y-3210311D02*
G01X9525628Y-3206562D01*
G01X9525628Y-3206562D02*
G01X9523753Y-3202812D01*
G01X9523753Y-3202812D02*
G01X9521879Y-3200937D01*
G01X9521879Y-3200937D02*
G01X9518129Y-3199063D01*
G01X9518129Y-3199063D02*
G01X9510630Y-3197188D01*
G01X9510630Y-3197188D02*
G01X9506880Y-3195313D01*
G01X9506880Y-3195313D02*
G01X9505006Y-3193438D01*
G01X9505006Y-3193438D02*
G01X9503131Y-3189689D01*
G01X9503131Y-3189689D02*
G01X9503131Y-3185939D01*
G01X9503131Y-3185939D02*
G01X9505006Y-3182190D01*
G01X9505006Y-3182190D02*
G01X9506880Y-3180315D01*
G01X9506880Y-3180315D02*
G01X9510630Y-3178440D01*
G01X9510630Y-3178440D02*
G01X9520004Y-3178440D01*
G01X9520004Y-3178440D02*
G01X9525628Y-3180315D01*
G01X9564998Y-3214061D02*
G01X9563123Y-3215935D01*
G01X9563123Y-3215935D02*
G01X9557499Y-3217810D01*
G01X9557499Y-3217810D02*
G01X9553750Y-3217810D01*
G01X9553750Y-3217810D02*
G01X9548125Y-3215935D01*
G01X9548125Y-3215935D02*
G01X9544376Y-3212186D01*
G01X9544376Y-3212186D02*
G01X9542501Y-3208436D01*
G01X9542501Y-3208436D02*
G01X9540626Y-3200937D01*
G01X9540626Y-3200937D02*
G01X9540626Y-3195313D01*
G01X9540626Y-3195313D02*
G01X9542501Y-3187814D01*
G01X9542501Y-3187814D02*
G01X9544376Y-3184064D01*
G01X9544376Y-3184064D02*
G01X9548125Y-3180315D01*
G01X9548125Y-3180315D02*
G01X9553750Y-3178440D01*
G01X9553750Y-3178440D02*
G01X9557499Y-3178440D01*
G01X9557499Y-3178440D02*
G01X9563123Y-3180315D01*
G01X9563123Y-3180315D02*
G01X9564998Y-3182190D01*
G01X9600619Y-3217810D02*
G01X9581871Y-3217810D01*
G01X9581871Y-3217810D02*
G01X9581871Y-3178440D01*
G01X9520004Y-3280315D02*
G01X9516254Y-3278440D01*
G01X9516254Y-3278440D02*
G01X9510630Y-3278440D01*
G01X9510630Y-3278440D02*
G01X9505006Y-3280315D01*
G01X9505006Y-3280315D02*
G01X9501256Y-3284064D01*
G01X9501256Y-3284064D02*
G01X9499381Y-3287814D01*
G01X9499381Y-3287814D02*
G01X9497507Y-3295313D01*
G01X9497507Y-3295313D02*
G01X9497507Y-3300937D01*
G01X9497507Y-3300937D02*
G01X9499381Y-3308436D01*
G01X9499381Y-3308436D02*
G01X9501256Y-3312186D01*
G01X9501256Y-3312186D02*
G01X9505006Y-3315935D01*
G01X9505006Y-3315935D02*
G01X9510630Y-3317810D01*
G01X9510630Y-3317810D02*
G01X9514379Y-3317810D01*
G01X9514379Y-3317810D02*
G01X9520004Y-3315935D01*
G01X9520004Y-3315935D02*
G01X9521879Y-3314061D01*
G01X9521879Y-3314061D02*
G01X9521879Y-3300937D01*
G01X9521879Y-3300937D02*
G01X9514379Y-3300937D01*
G01X9538751Y-3317810D02*
G01X9538751Y-3278440D01*
G01X9538751Y-3278440D02*
G01X9561249Y-3317810D01*
G01X9561249Y-3317810D02*
G01X9561249Y-3278440D01*
G01X9579996Y-3317810D02*
G01X9579996Y-3278440D01*
G01X9579996Y-3278440D02*
G01X9589370Y-3278440D01*
G01X9589370Y-3278440D02*
G01X9594994Y-3280315D01*
G01X9594994Y-3280315D02*
G01X9598744Y-3284064D01*
G01X9598744Y-3284064D02*
G01X9600619Y-3287814D01*
G01X9600619Y-3287814D02*
G01X9602493Y-3295313D01*
G01X9602493Y-3295313D02*
G01X9602493Y-3300937D01*
G01X9602493Y-3300937D02*
G01X9600619Y-3308436D01*
G01X9600619Y-3308436D02*
G01X9598744Y-3312186D01*
G01X9598744Y-3312186D02*
G01X9594994Y-3315935D01*
G01X9594994Y-3315935D02*
G01X9589370Y-3317810D01*
G01X9589370Y-3317810D02*
G01X9579996Y-3317810D01*
G01X9501256Y-3378440D02*
G01X9525628Y-3378440D01*
G01X9525628Y-3378440D02*
G01X9512505Y-3393438D01*
G01X9512505Y-3393438D02*
G01X9518129Y-3393438D01*
G01X9518129Y-3393438D02*
G01X9521879Y-3395313D01*
G01X9521879Y-3395313D02*
G01X9523753Y-3397188D01*
G01X9523753Y-3397188D02*
G01X9525628Y-3400937D01*
G01X9525628Y-3400937D02*
G01X9525628Y-3410311D01*
G01X9525628Y-3410311D02*
G01X9523753Y-3414061D01*
G01X9523753Y-3414061D02*
G01X9521879Y-3415935D01*
G01X9521879Y-3415935D02*
G01X9518129Y-3417810D01*
G01X9518129Y-3417810D02*
G01X9506880Y-3417810D01*
G01X9506880Y-3417810D02*
G01X9503131Y-3415935D01*
G01X9503131Y-3415935D02*
G01X9501256Y-3414061D01*
G01X9536877Y-3378440D02*
G01X9550000Y-3417810D01*
G01X9550000Y-3417810D02*
G01X9563123Y-3378440D01*
G01X9572497Y-3378440D02*
G01X9596869Y-3378440D01*
G01X9596869Y-3378440D02*
G01X9583746Y-3393438D01*
G01X9583746Y-3393438D02*
G01X9589370Y-3393438D01*
G01X9589370Y-3393438D02*
G01X9593120Y-3395313D01*
G01X9593120Y-3395313D02*
G01X9594994Y-3397188D01*
G01X9594994Y-3397188D02*
G01X9596869Y-3400937D01*
G01X9596869Y-3400937D02*
G01X9596869Y-3410311D01*
G01X9596869Y-3410311D02*
G01X9594994Y-3414061D01*
G01X9594994Y-3414061D02*
G01X9593120Y-3415935D01*
G01X9593120Y-3415935D02*
G01X9589370Y-3417810D01*
G01X9589370Y-3417810D02*
G01X9578121Y-3417810D01*
G01X9578121Y-3417810D02*
G01X9574372Y-3415935D01*
G01X9574372Y-3415935D02*
G01X9572497Y-3414061D01*
G01X9506880Y-3478440D02*
G01X9520004Y-3517810D01*
G01X9520004Y-3517810D02*
G01X9533127Y-3478440D01*
G01X9546250Y-3517810D02*
G01X9546250Y-3478440D01*
G01X9564998Y-3517810D02*
G01X9564998Y-3478440D01*
G01X9564998Y-3478440D02*
G01X9587495Y-3517810D01*
G01X9587495Y-3517810D02*
G01X9587495Y-3478440D01*
G01X10167810Y-1728829D02*
G01X10149063Y-1741953D01*
G01X10167810Y-1751326D02*
G01X10128440Y-1751326D01*
G01X10128440Y-1751326D02*
G01X10128440Y-1736328D01*
G01X10128440Y-1736328D02*
G01X10130315Y-1732579D01*
G01X10130315Y-1732579D02*
G01X10132190Y-1730704D01*
G01X10132190Y-1730704D02*
G01X10135939Y-1728829D01*
G01X10135939Y-1728829D02*
G01X10141564Y-1728829D01*
G01X10141564Y-1728829D02*
G01X10145313Y-1730704D01*
G01X10145313Y-1730704D02*
G01X10147188Y-1732579D01*
G01X10147188Y-1732579D02*
G01X10149063Y-1736328D01*
G01X10149063Y-1736328D02*
G01X10149063Y-1751326D01*
G01X10165935Y-1713831D02*
G01X10167810Y-1708207D01*
G01X10167810Y-1708207D02*
G01X10167810Y-1698833D01*
G01X10167810Y-1698833D02*
G01X10165935Y-1695083D01*
G01X10165935Y-1695083D02*
G01X10164061Y-1693209D01*
G01X10164061Y-1693209D02*
G01X10160311Y-1691334D01*
G01X10160311Y-1691334D02*
G01X10156562Y-1691334D01*
G01X10156562Y-1691334D02*
G01X10152812Y-1693209D01*
G01X10152812Y-1693209D02*
G01X10150937Y-1695083D01*
G01X10150937Y-1695083D02*
G01X10149063Y-1698833D01*
G01X10149063Y-1698833D02*
G01X10147188Y-1706332D01*
G01X10147188Y-1706332D02*
G01X10145313Y-1710082D01*
G01X10145313Y-1710082D02*
G01X10143438Y-1711956D01*
G01X10143438Y-1711956D02*
G01X10139689Y-1713831D01*
G01X10139689Y-1713831D02*
G01X10135939Y-1713831D01*
G01X10135939Y-1713831D02*
G01X10132190Y-1711956D01*
G01X10132190Y-1711956D02*
G01X10130315Y-1710082D01*
G01X10130315Y-1710082D02*
G01X10128440Y-1706332D01*
G01X10128440Y-1706332D02*
G01X10128440Y-1696958D01*
G01X10128440Y-1696958D02*
G01X10130315Y-1691334D01*
G01X10128440Y-1680085D02*
G01X10128440Y-1657588D01*
G01X10167810Y-1668837D02*
G01X10128440Y-1668837D01*
G01X10064061Y-1698833D02*
G01X10065935Y-1700708D01*
G01X10065935Y-1700708D02*
G01X10067810Y-1706332D01*
G01X10067810Y-1706332D02*
G01X10067810Y-1710082D01*
G01X10067810Y-1710082D02*
G01X10065935Y-1715706D01*
G01X10065935Y-1715706D02*
G01X10062186Y-1719455D01*
G01X10062186Y-1719455D02*
G01X10058436Y-1721330D01*
G01X10058436Y-1721330D02*
G01X10050937Y-1723205D01*
G01X10050937Y-1723205D02*
G01X10045313Y-1723205D01*
G01X10045313Y-1723205D02*
G01X10037814Y-1721330D01*
G01X10037814Y-1721330D02*
G01X10034064Y-1719455D01*
G01X10034064Y-1719455D02*
G01X10030315Y-1715706D01*
G01X10030315Y-1715706D02*
G01X10028440Y-1710082D01*
G01X10028440Y-1710082D02*
G01X10028440Y-1706332D01*
G01X10028440Y-1706332D02*
G01X10030315Y-1700708D01*
G01X10030315Y-1700708D02*
G01X10032190Y-1698833D01*
G01X10065935Y-1683835D02*
G01X10067810Y-1678211D01*
G01X10067810Y-1678211D02*
G01X10067810Y-1668837D01*
G01X10067810Y-1668837D02*
G01X10065935Y-1665087D01*
G01X10065935Y-1665087D02*
G01X10064061Y-1663212D01*
G01X10064061Y-1663212D02*
G01X10060311Y-1661338D01*
G01X10060311Y-1661338D02*
G01X10056562Y-1661338D01*
G01X10056562Y-1661338D02*
G01X10052812Y-1663212D01*
G01X10052812Y-1663212D02*
G01X10050937Y-1665087D01*
G01X10050937Y-1665087D02*
G01X10049063Y-1668837D01*
G01X10049063Y-1668837D02*
G01X10047188Y-1676336D01*
G01X10047188Y-1676336D02*
G01X10045313Y-1680085D01*
G01X10045313Y-1680085D02*
G01X10043438Y-1681960D01*
G01X10043438Y-1681960D02*
G01X10039689Y-1683835D01*
G01X10039689Y-1683835D02*
G01X10035939Y-1683835D01*
G01X10035939Y-1683835D02*
G01X10032190Y-1681960D01*
G01X10032190Y-1681960D02*
G01X10030315Y-1680085D01*
G01X10030315Y-1680085D02*
G01X10028440Y-1676336D01*
G01X10028440Y-1676336D02*
G01X10028440Y-1666962D01*
G01X10028440Y-1666962D02*
G01X10030315Y-1661338D01*
G01X9967810Y-1786947D02*
G01X9928440Y-1786947D01*
G01X9928440Y-1786947D02*
G01X9956562Y-1773824D01*
G01X9956562Y-1773824D02*
G01X9928440Y-1760700D01*
G01X9928440Y-1760700D02*
G01X9967810Y-1760700D01*
G01X9928440Y-1734454D02*
G01X9928440Y-1726954D01*
G01X9928440Y-1726954D02*
G01X9930315Y-1723205D01*
G01X9930315Y-1723205D02*
G01X9934064Y-1719455D01*
G01X9934064Y-1719455D02*
G01X9941564Y-1717581D01*
G01X9941564Y-1717581D02*
G01X9954687Y-1717581D01*
G01X9954687Y-1717581D02*
G01X9962186Y-1719455D01*
G01X9962186Y-1719455D02*
G01X9965935Y-1723205D01*
G01X9965935Y-1723205D02*
G01X9967810Y-1726954D01*
G01X9967810Y-1726954D02*
G01X9967810Y-1734454D01*
G01X9967810Y-1734454D02*
G01X9965935Y-1738203D01*
G01X9965935Y-1738203D02*
G01X9962186Y-1741953D01*
G01X9962186Y-1741953D02*
G01X9954687Y-1743827D01*
G01X9954687Y-1743827D02*
G01X9941564Y-1743827D01*
G01X9941564Y-1743827D02*
G01X9934064Y-1741953D01*
G01X9934064Y-1741953D02*
G01X9930315Y-1738203D01*
G01X9930315Y-1738203D02*
G01X9928440Y-1734454D01*
G01X9965935Y-1702582D02*
G01X9967810Y-1696958D01*
G01X9967810Y-1696958D02*
G01X9967810Y-1687584D01*
G01X9967810Y-1687584D02*
G01X9965935Y-1683835D01*
G01X9965935Y-1683835D02*
G01X9964061Y-1681960D01*
G01X9964061Y-1681960D02*
G01X9960311Y-1680085D01*
G01X9960311Y-1680085D02*
G01X9956562Y-1680085D01*
G01X9956562Y-1680085D02*
G01X9952812Y-1681960D01*
G01X9952812Y-1681960D02*
G01X9950937Y-1683835D01*
G01X9950937Y-1683835D02*
G01X9949063Y-1687584D01*
G01X9949063Y-1687584D02*
G01X9947188Y-1695083D01*
G01X9947188Y-1695083D02*
G01X9945313Y-1698833D01*
G01X9945313Y-1698833D02*
G01X9943438Y-1700708D01*
G01X9943438Y-1700708D02*
G01X9939689Y-1702582D01*
G01X9939689Y-1702582D02*
G01X9935939Y-1702582D01*
G01X9935939Y-1702582D02*
G01X9932190Y-1700708D01*
G01X9932190Y-1700708D02*
G01X9930315Y-1698833D01*
G01X9930315Y-1698833D02*
G01X9928440Y-1695083D01*
G01X9928440Y-1695083D02*
G01X9928440Y-1685710D01*
G01X9928440Y-1685710D02*
G01X9930315Y-1680085D01*
G01X9967810Y-1663212D02*
G01X9928440Y-1663212D01*
G01X9867810Y-1786947D02*
G01X9828440Y-1786947D01*
G01X9828440Y-1786947D02*
G01X9856562Y-1773824D01*
G01X9856562Y-1773824D02*
G01X9828440Y-1760700D01*
G01X9828440Y-1760700D02*
G01X9867810Y-1760700D01*
G01X9867810Y-1741953D02*
G01X9828440Y-1741953D01*
G01X9865935Y-1725080D02*
G01X9867810Y-1719455D01*
G01X9867810Y-1719455D02*
G01X9867810Y-1710082D01*
G01X9867810Y-1710082D02*
G01X9865935Y-1706332D01*
G01X9865935Y-1706332D02*
G01X9864061Y-1704457D01*
G01X9864061Y-1704457D02*
G01X9860311Y-1702582D01*
G01X9860311Y-1702582D02*
G01X9856562Y-1702582D01*
G01X9856562Y-1702582D02*
G01X9852812Y-1704457D01*
G01X9852812Y-1704457D02*
G01X9850937Y-1706332D01*
G01X9850937Y-1706332D02*
G01X9849063Y-1710082D01*
G01X9849063Y-1710082D02*
G01X9847188Y-1717581D01*
G01X9847188Y-1717581D02*
G01X9845313Y-1721330D01*
G01X9845313Y-1721330D02*
G01X9843438Y-1723205D01*
G01X9843438Y-1723205D02*
G01X9839689Y-1725080D01*
G01X9839689Y-1725080D02*
G01X9835939Y-1725080D01*
G01X9835939Y-1725080D02*
G01X9832190Y-1723205D01*
G01X9832190Y-1723205D02*
G01X9830315Y-1721330D01*
G01X9830315Y-1721330D02*
G01X9828440Y-1717581D01*
G01X9828440Y-1717581D02*
G01X9828440Y-1708207D01*
G01X9828440Y-1708207D02*
G01X9830315Y-1702582D01*
G01X9828440Y-1678211D02*
G01X9828440Y-1670711D01*
G01X9828440Y-1670711D02*
G01X9830315Y-1666962D01*
G01X9830315Y-1666962D02*
G01X9834064Y-1663212D01*
G01X9834064Y-1663212D02*
G01X9841564Y-1661338D01*
G01X9841564Y-1661338D02*
G01X9854687Y-1661338D01*
G01X9854687Y-1661338D02*
G01X9862186Y-1663212D01*
G01X9862186Y-1663212D02*
G01X9865935Y-1666962D01*
G01X9865935Y-1666962D02*
G01X9867810Y-1670711D01*
G01X9867810Y-1670711D02*
G01X9867810Y-1678211D01*
G01X9867810Y-1678211D02*
G01X9865935Y-1681960D01*
G01X9865935Y-1681960D02*
G01X9862186Y-1685710D01*
G01X9862186Y-1685710D02*
G01X9854687Y-1687584D01*
G01X9854687Y-1687584D02*
G01X9841564Y-1687584D01*
G01X9841564Y-1687584D02*
G01X9834064Y-1685710D01*
G01X9834064Y-1685710D02*
G01X9830315Y-1681960D01*
G01X9830315Y-1681960D02*
G01X9828440Y-1678211D01*
G01X9765935Y-1762575D02*
G01X9767810Y-1756951D01*
G01X9767810Y-1756951D02*
G01X9767810Y-1747577D01*
G01X9767810Y-1747577D02*
G01X9765935Y-1743827D01*
G01X9765935Y-1743827D02*
G01X9764061Y-1741953D01*
G01X9764061Y-1741953D02*
G01X9760311Y-1740078D01*
G01X9760311Y-1740078D02*
G01X9756562Y-1740078D01*
G01X9756562Y-1740078D02*
G01X9752812Y-1741953D01*
G01X9752812Y-1741953D02*
G01X9750937Y-1743827D01*
G01X9750937Y-1743827D02*
G01X9749063Y-1747577D01*
G01X9749063Y-1747577D02*
G01X9747188Y-1755076D01*
G01X9747188Y-1755076D02*
G01X9745313Y-1758825D01*
G01X9745313Y-1758825D02*
G01X9743438Y-1760700D01*
G01X9743438Y-1760700D02*
G01X9739689Y-1762575D01*
G01X9739689Y-1762575D02*
G01X9735939Y-1762575D01*
G01X9735939Y-1762575D02*
G01X9732190Y-1760700D01*
G01X9732190Y-1760700D02*
G01X9730315Y-1758825D01*
G01X9730315Y-1758825D02*
G01X9728440Y-1755076D01*
G01X9728440Y-1755076D02*
G01X9728440Y-1745702D01*
G01X9728440Y-1745702D02*
G01X9730315Y-1740078D01*
G01X9764061Y-1700708D02*
G01X9765935Y-1702582D01*
G01X9765935Y-1702582D02*
G01X9767810Y-1708207D01*
G01X9767810Y-1708207D02*
G01X9767810Y-1711956D01*
G01X9767810Y-1711956D02*
G01X9765935Y-1717581D01*
G01X9765935Y-1717581D02*
G01X9762186Y-1721330D01*
G01X9762186Y-1721330D02*
G01X9758436Y-1723205D01*
G01X9758436Y-1723205D02*
G01X9750937Y-1725080D01*
G01X9750937Y-1725080D02*
G01X9745313Y-1725080D01*
G01X9745313Y-1725080D02*
G01X9737814Y-1723205D01*
G01X9737814Y-1723205D02*
G01X9734064Y-1721330D01*
G01X9734064Y-1721330D02*
G01X9730315Y-1717581D01*
G01X9730315Y-1717581D02*
G01X9728440Y-1711956D01*
G01X9728440Y-1711956D02*
G01X9728440Y-1708207D01*
G01X9728440Y-1708207D02*
G01X9730315Y-1702582D01*
G01X9730315Y-1702582D02*
G01X9732190Y-1700708D01*
G01X9767810Y-1683835D02*
G01X9728440Y-1683835D01*
G01X9767810Y-1661338D02*
G01X9745313Y-1678211D01*
G01X9728440Y-1661338D02*
G01X9750937Y-1683835D01*
G01X9630315Y-1700708D02*
G01X9628440Y-1704457D01*
G01X9628440Y-1704457D02*
G01X9628440Y-1710082D01*
G01X9628440Y-1710082D02*
G01X9630315Y-1715706D01*
G01X9630315Y-1715706D02*
G01X9634064Y-1719455D01*
G01X9634064Y-1719455D02*
G01X9637814Y-1721330D01*
G01X9637814Y-1721330D02*
G01X9645313Y-1723205D01*
G01X9645313Y-1723205D02*
G01X9650937Y-1723205D01*
G01X9650937Y-1723205D02*
G01X9658436Y-1721330D01*
G01X9658436Y-1721330D02*
G01X9662186Y-1719455D01*
G01X9662186Y-1719455D02*
G01X9665935Y-1715706D01*
G01X9665935Y-1715706D02*
G01X9667810Y-1710082D01*
G01X9667810Y-1710082D02*
G01X9667810Y-1706332D01*
G01X9667810Y-1706332D02*
G01X9665935Y-1700708D01*
G01X9665935Y-1700708D02*
G01X9664061Y-1698833D01*
G01X9664061Y-1698833D02*
G01X9650937Y-1698833D01*
G01X9650937Y-1698833D02*
G01X9650937Y-1706332D01*
G01X9628440Y-1674461D02*
G01X9628440Y-1670711D01*
G01X9628440Y-1670711D02*
G01X9630315Y-1666962D01*
G01X9630315Y-1666962D02*
G01X9632190Y-1665087D01*
G01X9632190Y-1665087D02*
G01X9635939Y-1663212D01*
G01X9635939Y-1663212D02*
G01X9643438Y-1661338D01*
G01X9643438Y-1661338D02*
G01X9652812Y-1661338D01*
G01X9652812Y-1661338D02*
G01X9660311Y-1663212D01*
G01X9660311Y-1663212D02*
G01X9664061Y-1665087D01*
G01X9664061Y-1665087D02*
G01X9665935Y-1666962D01*
G01X9665935Y-1666962D02*
G01X9667810Y-1670711D01*
G01X9667810Y-1670711D02*
G01X9667810Y-1674461D01*
G01X9667810Y-1674461D02*
G01X9665935Y-1678211D01*
G01X9665935Y-1678211D02*
G01X9664061Y-1680085D01*
G01X9664061Y-1680085D02*
G01X9660311Y-1681960D01*
G01X9660311Y-1681960D02*
G01X9652812Y-1683835D01*
G01X9652812Y-1683835D02*
G01X9643438Y-1683835D01*
G01X9643438Y-1683835D02*
G01X9635939Y-1681960D01*
G01X9635939Y-1681960D02*
G01X9632190Y-1680085D01*
G01X9632190Y-1680085D02*
G01X9630315Y-1678211D01*
G01X9630315Y-1678211D02*
G01X9628440Y-1674461D01*
G01X9547188Y-1721330D02*
G01X9547188Y-1708207D01*
G01X9567810Y-1702582D02*
G01X9567810Y-1721330D01*
G01X9567810Y-1721330D02*
G01X9528440Y-1721330D01*
G01X9528440Y-1721330D02*
G01X9528440Y-1702582D01*
G01X9567810Y-1685710D02*
G01X9528440Y-1685710D01*
G01X9528440Y-1685710D02*
G01X9567810Y-1663212D01*
G01X9567810Y-1663212D02*
G01X9528440Y-1663212D01*
G01X9430315Y-1743827D02*
G01X9428440Y-1747577D01*
G01X9428440Y-1747577D02*
G01X9428440Y-1753201D01*
G01X9428440Y-1753201D02*
G01X9430315Y-1758825D01*
G01X9430315Y-1758825D02*
G01X9434064Y-1762575D01*
G01X9434064Y-1762575D02*
G01X9437814Y-1764450D01*
G01X9437814Y-1764450D02*
G01X9445313Y-1766324D01*
G01X9445313Y-1766324D02*
G01X9450937Y-1766324D01*
G01X9450937Y-1766324D02*
G01X9458436Y-1764450D01*
G01X9458436Y-1764450D02*
G01X9462186Y-1762575D01*
G01X9462186Y-1762575D02*
G01X9465935Y-1758825D01*
G01X9465935Y-1758825D02*
G01X9467810Y-1753201D01*
G01X9467810Y-1753201D02*
G01X9467810Y-1749452D01*
G01X9467810Y-1749452D02*
G01X9465935Y-1743827D01*
G01X9465935Y-1743827D02*
G01X9464061Y-1741953D01*
G01X9464061Y-1741953D02*
G01X9450937Y-1741953D01*
G01X9450937Y-1741953D02*
G01X9450937Y-1749452D01*
G01X9467810Y-1725080D02*
G01X9428440Y-1725080D01*
G01X9428440Y-1725080D02*
G01X9467810Y-1702582D01*
G01X9467810Y-1702582D02*
G01X9428440Y-1702582D01*
G01X9467810Y-1683835D02*
G01X9428440Y-1683835D01*
G01X9428440Y-1683835D02*
G01X9428440Y-1674461D01*
G01X9428440Y-1674461D02*
G01X9430315Y-1668837D01*
G01X9430315Y-1668837D02*
G01X9434064Y-1665087D01*
G01X9434064Y-1665087D02*
G01X9437814Y-1663212D01*
G01X9437814Y-1663212D02*
G01X9445313Y-1661338D01*
G01X9445313Y-1661338D02*
G01X9450937Y-1661338D01*
G01X9450937Y-1661338D02*
G01X9458436Y-1663212D01*
G01X9458436Y-1663212D02*
G01X9462186Y-1665087D01*
G01X9462186Y-1665087D02*
G01X9465935Y-1668837D01*
G01X9465935Y-1668837D02*
G01X9467810Y-1674461D01*
G01X9467810Y-1674461D02*
G01X9467810Y-1683835D01*
G01X9328440Y-1743120D02*
G01X9367810Y-1729996D01*
G01X9367810Y-1729996D02*
G01X9328440Y-1716873D01*
G01X9367810Y-1703750D02*
G01X9328440Y-1703750D01*
G01X9367810Y-1685002D02*
G01X9328440Y-1685002D01*
G01X9328440Y-1685002D02*
G01X9367810Y-1662505D01*
G01X9367810Y-1662505D02*
G01X9328440Y-1662505D01*
G01X9424503Y-2206562D02*
G01X9405756Y-2219685D01*
G01X9424503Y-2229059D02*
G01X9385133Y-2229059D01*
G01X9385133Y-2229059D02*
G01X9385133Y-2214061D01*
G01X9385133Y-2214061D02*
G01X9387008Y-2210311D01*
G01X9387008Y-2210311D02*
G01X9388883Y-2208436D01*
G01X9388883Y-2208436D02*
G01X9392632Y-2206562D01*
G01X9392632Y-2206562D02*
G01X9398256Y-2206562D01*
G01X9398256Y-2206562D02*
G01X9402006Y-2208436D01*
G01X9402006Y-2208436D02*
G01X9403881Y-2210311D01*
G01X9403881Y-2210311D02*
G01X9405756Y-2214061D01*
G01X9405756Y-2214061D02*
G01X9405756Y-2229059D01*
G01X9385133Y-2170941D02*
G01X9385133Y-2189689D01*
G01X9385133Y-2189689D02*
G01X9403881Y-2191564D01*
G01X9403881Y-2191564D02*
G01X9402006Y-2189689D01*
G01X9402006Y-2189689D02*
G01X9400131Y-2185939D01*
G01X9400131Y-2185939D02*
G01X9400131Y-2176565D01*
G01X9400131Y-2176565D02*
G01X9402006Y-2172816D01*
G01X9402006Y-2172816D02*
G01X9403881Y-2170941D01*
G01X9403881Y-2170941D02*
G01X9407630Y-2169066D01*
G01X9407630Y-2169066D02*
G01X9417004Y-2169066D01*
G01X9417004Y-2169066D02*
G01X9420754Y-2170941D01*
G01X9420754Y-2170941D02*
G01X9422628Y-2172816D01*
G01X9422628Y-2172816D02*
G01X9424503Y-2176565D01*
G01X9424503Y-2176565D02*
G01X9424503Y-2185939D01*
G01X9424503Y-2185939D02*
G01X9422628Y-2189689D01*
G01X9422628Y-2189689D02*
G01X9420754Y-2191564D01*
G01X9624503Y-2206562D02*
G01X9605756Y-2219685D01*
G01X9624503Y-2229059D02*
G01X9585133Y-2229059D01*
G01X9585133Y-2229059D02*
G01X9585133Y-2214061D01*
G01X9585133Y-2214061D02*
G01X9587008Y-2210311D01*
G01X9587008Y-2210311D02*
G01X9588883Y-2208436D01*
G01X9588883Y-2208436D02*
G01X9592632Y-2206562D01*
G01X9592632Y-2206562D02*
G01X9598256Y-2206562D01*
G01X9598256Y-2206562D02*
G01X9602006Y-2208436D01*
G01X9602006Y-2208436D02*
G01X9603881Y-2210311D01*
G01X9603881Y-2210311D02*
G01X9605756Y-2214061D01*
G01X9605756Y-2214061D02*
G01X9605756Y-2229059D01*
G01X9598256Y-2172816D02*
G01X9624503Y-2172816D01*
G01X9583258Y-2182190D02*
G01X9611380Y-2191564D01*
G01X9611380Y-2191564D02*
G01X9611380Y-2167192D01*
G01X9224503Y-2206562D02*
G01X9205756Y-2219685D01*
G01X9224503Y-2229059D02*
G01X9185133Y-2229059D01*
G01X9185133Y-2229059D02*
G01X9185133Y-2214061D01*
G01X9185133Y-2214061D02*
G01X9187008Y-2210311D01*
G01X9187008Y-2210311D02*
G01X9188883Y-2208436D01*
G01X9188883Y-2208436D02*
G01X9192632Y-2206562D01*
G01X9192632Y-2206562D02*
G01X9198256Y-2206562D01*
G01X9198256Y-2206562D02*
G01X9202006Y-2208436D01*
G01X9202006Y-2208436D02*
G01X9203881Y-2210311D01*
G01X9203881Y-2210311D02*
G01X9205756Y-2214061D01*
G01X9205756Y-2214061D02*
G01X9205756Y-2229059D01*
G01X9185133Y-2193438D02*
G01X9185133Y-2169066D01*
G01X9185133Y-2169066D02*
G01X9200131Y-2182190D01*
G01X9200131Y-2182190D02*
G01X9200131Y-2176565D01*
G01X9200131Y-2176565D02*
G01X9202006Y-2172816D01*
G01X9202006Y-2172816D02*
G01X9203881Y-2170941D01*
G01X9203881Y-2170941D02*
G01X9207630Y-2169066D01*
G01X9207630Y-2169066D02*
G01X9217004Y-2169066D01*
G01X9217004Y-2169066D02*
G01X9220754Y-2170941D01*
G01X9220754Y-2170941D02*
G01X9222628Y-2172816D01*
G01X9222628Y-2172816D02*
G01X9224503Y-2176565D01*
G01X9224503Y-2176565D02*
G01X9224503Y-2187814D01*
G01X9224503Y-2187814D02*
G01X9222628Y-2191564D01*
G01X9222628Y-2191564D02*
G01X9220754Y-2193438D01*
G01X9974503Y-2556562D02*
G01X9955756Y-2569685D01*
G01X9974503Y-2579059D02*
G01X9935133Y-2579059D01*
G01X9935133Y-2579059D02*
G01X9935133Y-2564061D01*
G01X9935133Y-2564061D02*
G01X9937008Y-2560311D01*
G01X9937008Y-2560311D02*
G01X9938883Y-2558436D01*
G01X9938883Y-2558436D02*
G01X9942632Y-2556562D01*
G01X9942632Y-2556562D02*
G01X9948256Y-2556562D01*
G01X9948256Y-2556562D02*
G01X9952006Y-2558436D01*
G01X9952006Y-2558436D02*
G01X9953881Y-2560311D01*
G01X9953881Y-2560311D02*
G01X9955756Y-2564061D01*
G01X9955756Y-2564061D02*
G01X9955756Y-2579059D01*
G01X9938883Y-2541564D02*
G01X9937008Y-2539689D01*
G01X9937008Y-2539689D02*
G01X9935133Y-2535939D01*
G01X9935133Y-2535939D02*
G01X9935133Y-2526565D01*
G01X9935133Y-2526565D02*
G01X9937008Y-2522816D01*
G01X9937008Y-2522816D02*
G01X9938883Y-2520941D01*
G01X9938883Y-2520941D02*
G01X9942632Y-2519066D01*
G01X9942632Y-2519066D02*
G01X9946382Y-2519066D01*
G01X9946382Y-2519066D02*
G01X9952006Y-2520941D01*
G01X9952006Y-2520941D02*
G01X9974503Y-2543438D01*
G01X9974503Y-2543438D02*
G01X9974503Y-2519066D01*
G01X9774503Y-2556562D02*
G01X9755756Y-2569685D01*
G01X9774503Y-2579059D02*
G01X9735133Y-2579059D01*
G01X9735133Y-2579059D02*
G01X9735133Y-2564061D01*
G01X9735133Y-2564061D02*
G01X9737008Y-2560311D01*
G01X9737008Y-2560311D02*
G01X9738883Y-2558436D01*
G01X9738883Y-2558436D02*
G01X9742632Y-2556562D01*
G01X9742632Y-2556562D02*
G01X9748256Y-2556562D01*
G01X9748256Y-2556562D02*
G01X9752006Y-2558436D01*
G01X9752006Y-2558436D02*
G01X9753881Y-2560311D01*
G01X9753881Y-2560311D02*
G01X9755756Y-2564061D01*
G01X9755756Y-2564061D02*
G01X9755756Y-2579059D01*
G01X9774503Y-2519066D02*
G01X9774503Y-2541564D01*
G01X9774503Y-2530315D02*
G01X9735133Y-2530315D01*
G01X9735133Y-2530315D02*
G01X9740757Y-2534064D01*
G01X9740757Y-2534064D02*
G01X9744507Y-2537814D01*
G01X9744507Y-2537814D02*
G01X9746382Y-2541564D01*
G01X10170754Y-2556562D02*
G01X10172628Y-2558436D01*
G01X10172628Y-2558436D02*
G01X10174503Y-2564061D01*
G01X10174503Y-2564061D02*
G01X10174503Y-2567810D01*
G01X10174503Y-2567810D02*
G01X10172628Y-2573435D01*
G01X10172628Y-2573435D02*
G01X10168879Y-2577184D01*
G01X10168879Y-2577184D02*
G01X10165129Y-2579059D01*
G01X10165129Y-2579059D02*
G01X10157630Y-2580934D01*
G01X10157630Y-2580934D02*
G01X10152006Y-2580934D01*
G01X10152006Y-2580934D02*
G01X10144507Y-2579059D01*
G01X10144507Y-2579059D02*
G01X10140757Y-2577184D01*
G01X10140757Y-2577184D02*
G01X10137008Y-2573435D01*
G01X10137008Y-2573435D02*
G01X10135133Y-2567810D01*
G01X10135133Y-2567810D02*
G01X10135133Y-2564061D01*
G01X10135133Y-2564061D02*
G01X10137008Y-2558436D01*
G01X10137008Y-2558436D02*
G01X10138883Y-2556562D01*
G01X10138883Y-2541564D02*
G01X10137008Y-2539689D01*
G01X10137008Y-2539689D02*
G01X10135133Y-2535939D01*
G01X10135133Y-2535939D02*
G01X10135133Y-2526565D01*
G01X10135133Y-2526565D02*
G01X10137008Y-2522816D01*
G01X10137008Y-2522816D02*
G01X10138883Y-2520941D01*
G01X10138883Y-2520941D02*
G01X10142632Y-2519066D01*
G01X10142632Y-2519066D02*
G01X10146382Y-2519066D01*
G01X10146382Y-2519066D02*
G01X10152006Y-2520941D01*
G01X10152006Y-2520941D02*
G01X10174503Y-2543438D01*
G01X10174503Y-2543438D02*
G01X10174503Y-2519066D01*
G01X9570754Y-2556562D02*
G01X9572628Y-2558436D01*
G01X9572628Y-2558436D02*
G01X9574503Y-2564061D01*
G01X9574503Y-2564061D02*
G01X9574503Y-2567810D01*
G01X9574503Y-2567810D02*
G01X9572628Y-2573435D01*
G01X9572628Y-2573435D02*
G01X9568879Y-2577184D01*
G01X9568879Y-2577184D02*
G01X9565129Y-2579059D01*
G01X9565129Y-2579059D02*
G01X9557630Y-2580934D01*
G01X9557630Y-2580934D02*
G01X9552006Y-2580934D01*
G01X9552006Y-2580934D02*
G01X9544507Y-2579059D01*
G01X9544507Y-2579059D02*
G01X9540757Y-2577184D01*
G01X9540757Y-2577184D02*
G01X9537008Y-2573435D01*
G01X9537008Y-2573435D02*
G01X9535133Y-2567810D01*
G01X9535133Y-2567810D02*
G01X9535133Y-2564061D01*
G01X9535133Y-2564061D02*
G01X9537008Y-2558436D01*
G01X9537008Y-2558436D02*
G01X9538883Y-2556562D01*
G01X9574503Y-2519066D02*
G01X9574503Y-2541564D01*
G01X9574503Y-2530315D02*
G01X9535133Y-2530315D01*
G01X9535133Y-2530315D02*
G01X9540757Y-2534064D01*
G01X9540757Y-2534064D02*
G01X9544507Y-2537814D01*
G01X9544507Y-2537814D02*
G01X9546382Y-2541564D01*
G01X9415317Y-4097188D02*
G01X9420941Y-4099063D01*
G01X9420941Y-4099063D02*
G01X9422816Y-4100937D01*
G01X9422816Y-4100937D02*
G01X9424691Y-4104687D01*
G01X9424691Y-4104687D02*
G01X9424691Y-4110311D01*
G01X9424691Y-4110311D02*
G01X9422816Y-4114061D01*
G01X9422816Y-4114061D02*
G01X9420941Y-4115935D01*
G01X9420941Y-4115935D02*
G01X9417192Y-4117810D01*
G01X9417192Y-4117810D02*
G01X9402193Y-4117810D01*
G01X9402193Y-4117810D02*
G01X9402193Y-4078440D01*
G01X9402193Y-4078440D02*
G01X9415317Y-4078440D01*
G01X9415317Y-4078440D02*
G01X9419066Y-4080315D01*
G01X9419066Y-4080315D02*
G01X9420941Y-4082190D01*
G01X9420941Y-4082190D02*
G01X9422816Y-4085939D01*
G01X9422816Y-4085939D02*
G01X9422816Y-4089689D01*
G01X9422816Y-4089689D02*
G01X9420941Y-4093438D01*
G01X9420941Y-4093438D02*
G01X9419066Y-4095313D01*
G01X9419066Y-4095313D02*
G01X9415317Y-4097188D01*
G01X9415317Y-4097188D02*
G01X9402193Y-4097188D01*
G01X9437814Y-4078440D02*
G01X9464061Y-4078440D01*
G01X9464061Y-4078440D02*
G01X9437814Y-4117810D01*
G01X9437814Y-4117810D02*
G01X9464061Y-4117810D01*
G01X9499681Y-4117810D02*
G01X9477184Y-4117810D01*
G01X9488433Y-4117810D02*
G01X9488433Y-4078440D01*
G01X9488433Y-4078440D02*
G01X9484683Y-4084064D01*
G01X9484683Y-4084064D02*
G01X9480934Y-4087814D01*
G01X9480934Y-4087814D02*
G01X9477184Y-4089689D01*
G01X9635396Y-3977812D02*
G01X9665392Y-3977812D01*
G01X9650394Y-3992810D02*
G01X9650394Y-3962814D01*
G01X9358436Y-2794994D02*
G01X9358436Y-2705006D01*
G01X9358436Y-2394994D02*
G01X9358436Y-2305006D01*
G01X9403431Y-2350000D02*
G01X9313442Y-2350000D01*
%LPC*%
G54D13*
G01X10150000Y-2800000D03*
G01X10050000Y-2800000D03*
G01X9950000Y-2800000D03*
G01X9850000Y-2800000D03*
G01X10250000Y-2800000D03*
G01X10350000Y-2800000D03*
G01X10450000Y-2800000D03*
G01X9850000Y-2900000D03*
G01X9850000Y-3000000D03*
G01X9850000Y-3100000D03*
G01X9850000Y-3200000D03*
G01X9850000Y-3300000D03*
G01X9850000Y-3400000D03*
G01X9850000Y-3500000D03*
G01X9850000Y-3600000D03*
G01X9850000Y-3700000D03*
G01X9850000Y-3800000D03*
G01X9850000Y-3900000D03*
G01X9850000Y-4000000D03*
G01X9850000Y-4100000D03*
G01X9950000Y-4000000D03*
G01X10450000Y-2900000D03*
G01X10450000Y-3000000D03*
G01X10450000Y-3100000D03*
G01X10450000Y-3200000D03*
G01X10450000Y-3300000D03*
G01X10450000Y-3400000D03*
G01X10450000Y-3500000D03*
G01X10450000Y-3600000D03*
G01X10450000Y-3700000D03*
G01X10450000Y-3800000D03*
G01X10450000Y-3900000D03*
G01X10450000Y-4000000D03*
G01X10450000Y-4100000D03*
G54D14*
G01X9500000Y-1900000D03*
G01X9450000Y-1900000D03*
G01X9400000Y-1900000D03*
G54D15*
G01X9350000Y-1900000D03*
G36*
G01X10210236Y-1930906D02*
G01X10210236Y-1919094D01*
G75*
G02X10216142Y-1913189I0005906J0000000D01*
G01X10267323Y-1913189D01*
G75*
G02X10273228Y-1919094I0000000J-005906D01*
G01X10273228Y-1930906D01*
G75*
G02X10267323Y-1936811I-005906J0000000D01*
G01X10216142Y-1936811D01*
G75*
G02X10210236Y-1930906I0000000J0005906D01*
G37*
G36*
G01X10210236Y-1980906D02*
G01X10210236Y-1969094D01*
G75*
G02X10216142Y-1963189I0005906J0000000D01*
G01X10267323Y-1963189D01*
G75*
G02X10273228Y-1969094I0000000J-005906D01*
G01X10273228Y-1980906D01*
G75*
G02X10267323Y-1986811I-005906J0000000D01*
G01X10216142Y-1986811D01*
G75*
G02X10210236Y-1980906I0000000J0005906D01*
G37*
G36*
G01X10210236Y-2030906D02*
G01X10210236Y-2019094D01*
G75*
G02X10216142Y-2013189I0005906J0000000D01*
G01X10267323Y-2013189D01*
G75*
G02X10273228Y-2019094I0000000J-005906D01*
G01X10273228Y-2030906D01*
G75*
G02X10267323Y-2036811I-005906J0000000D01*
G01X10216142Y-2036811D01*
G75*
G02X10210236Y-2030906I0000000J0005906D01*
G37*
G36*
G01X10210236Y-2080906D02*
G01X10210236Y-2069094D01*
G75*
G02X10216142Y-2063189I0005906J0000000D01*
G01X10267323Y-2063189D01*
G75*
G02X10273228Y-2069094I0000000J-005906D01*
G01X10273228Y-2080906D01*
G75*
G02X10267323Y-2086811I-005906J0000000D01*
G01X10216142Y-2086811D01*
G75*
G02X10210236Y-2080906I0000000J0005906D01*
G37*
G36*
G01X9926772Y-2080906D02*
G01X9926772Y-2069094D01*
G75*
G02X9932677Y-2063189I0005906J0000000D01*
G01X9983858Y-2063189D01*
G75*
G02X9989764Y-2069094I0000000J-005906D01*
G01X9989764Y-2080906D01*
G75*
G02X9983858Y-2086811I-005906J0000000D01*
G01X9932677Y-2086811D01*
G75*
G02X9926772Y-2080906I0000000J0005906D01*
G37*
G36*
G01X9926772Y-2030906D02*
G01X9926772Y-2019094D01*
G75*
G02X9932677Y-2013189I0005906J0000000D01*
G01X9983858Y-2013189D01*
G75*
G02X9989764Y-2019094I0000000J-005906D01*
G01X9989764Y-2030906D01*
G75*
G02X9983858Y-2036811I-005906J0000000D01*
G01X9932677Y-2036811D01*
G75*
G02X9926772Y-2030906I0000000J0005906D01*
G37*
G36*
G01X9926772Y-1980906D02*
G01X9926772Y-1969094D01*
G75*
G02X9932677Y-1963189I0005906J0000000D01*
G01X9983858Y-1963189D01*
G75*
G02X9989764Y-1969094I0000000J-005906D01*
G01X9989764Y-1980906D01*
G75*
G02X9983858Y-1986811I-005906J0000000D01*
G01X9932677Y-1986811D01*
G75*
G02X9926772Y-1980906I0000000J0005906D01*
G37*
G36*
G01X9926772Y-1930906D02*
G01X9926772Y-1919094D01*
G75*
G02X9932677Y-1913189I0005906J0000000D01*
G01X9983858Y-1913189D01*
G75*
G02X9989764Y-1919094I0000000J-005906D01*
G01X9989764Y-1930906D01*
G75*
G02X9983858Y-1936811I-005906J0000000D01*
G01X9932677Y-1936811D01*
G75*
G02X9926772Y-1930906I0000000J0005906D01*
G37*
G54D13*
G01X9700000Y-2800000D03*
G01X9700000Y-2900000D03*
G01X9700000Y-3000000D03*
G01X9700000Y-3100000D03*
G01X9700000Y-3200000D03*
G01X9700000Y-3300000D03*
G01X9700000Y-3400000D03*
G01X9700000Y-3500000D03*
G54D16*
G01X10150000Y-1600000D03*
G01X10050000Y-1600000D03*
G01X9950000Y-1600000D03*
G01X9850000Y-1600000D03*
G01X9750000Y-1600000D03*
G01X9650000Y-1600000D03*
G01X9550000Y-1600000D03*
G01X9450000Y-1600000D03*
G01X9350000Y-1600000D03*
G54D17*
G01X9500000Y-2100000D03*
G54D18*
G01X9500000Y-2300000D03*
G54D17*
G01X9700000Y-2100000D03*
G54D18*
G01X9700000Y-2300000D03*
G54D17*
G01X9300000Y-2100000D03*
G54D18*
G01X9300000Y-2300000D03*
G54D17*
G01X10050000Y-2450000D03*
G54D18*
G01X10050000Y-2650000D03*
G54D17*
G01X9850000Y-2450000D03*
G54D18*
G01X9850000Y-2650000D03*
G54D13*
G01X10450000Y-2600000D03*
G01X10450000Y-2500000D03*
G01X10450000Y-2400000D03*
G01X10450000Y-2300000D03*
G01X10450000Y-2200000D03*
G01X10450000Y-2100000D03*
G01X10450000Y-2000000D03*
G01X10450000Y-1900000D03*
G01X10450000Y-1800000D03*
G01X10450000Y-1700000D03*
G54D17*
G01X10250000Y-2450000D03*
G54D18*
G01X10250000Y-2650000D03*
G54D17*
G01X9650000Y-2450000D03*
G54D18*
G01X9650000Y-2650000D03*
G54D16*
G01X9300000Y-3875000D03*
G54D19*
G01X9600000Y-3875000D03*
G54D13*
G01X9350000Y-2500000D03*
G01X9350000Y-2600000D03*
M02*
