%TF.GenerationSoftware,KiCad,Pcbnew,5.1.9*%
%TF.CreationDate,2021-04-30T01:58:32+02:00*%
%TF.ProjectId,project,70726f6a-6563-4742-9e6b-696361645f70,rev?*%
%TF.SameCoordinates,Original*%
%TF.FileFunction,Copper,L2,Bot*%
%TF.FilePolarity,Positive*%
%FSLAX46Y46*%
G04 Gerber Fmt 4.6, Leading zero omitted, Abs format (unit mm)*
G04 Created by KiCad (PCBNEW 5.1.9) date 2021-04-30 01:58:32*
%MOMM*%
%LPD*%
G01*
G04 APERTURE LIST*
%TA.AperFunction,ComponentPad*%
%ADD10C,1.800000*%
%TD*%
%TA.AperFunction,ComponentPad*%
%ADD11O,1.070000X1.800000*%
%TD*%
%TA.AperFunction,ComponentPad*%
%ADD12R,1.070000X1.800000*%
%TD*%
%TA.AperFunction,ComponentPad*%
%ADD13C,2.000000*%
%TD*%
%TA.AperFunction,ComponentPad*%
%ADD14O,1.600000X1.600000*%
%TD*%
%TA.AperFunction,ComponentPad*%
%ADD15C,1.600000*%
%TD*%
%TA.AperFunction,ComponentPad*%
%ADD16R,2.000000X2.000000*%
%TD*%
%TA.AperFunction,ViaPad*%
%ADD17C,0.800000*%
%TD*%
%TA.AperFunction,Conductor*%
%ADD18C,0.250000*%
%TD*%
%TA.AperFunction,Conductor*%
%ADD19C,0.254000*%
%TD*%
%TA.AperFunction,Conductor*%
%ADD20C,0.100000*%
%TD*%
G04 APERTURE END LIST*
D10*
%TO.P,U1,17*%
%TO.N,GND*%
X257810000Y-71120000D03*
%TO.P,U1,18*%
%TO.N,Net-(U1-Pad18)*%
X255270000Y-71120000D03*
%TO.P,U1,19*%
%TO.N,Net-(U1-Pad19)*%
X252730000Y-71120000D03*
%TO.P,U1,20*%
%TO.N,/SCK*%
X250190000Y-71120000D03*
%TO.P,U1,16*%
%TO.N,Net-(U1-Pad16)*%
X260350000Y-71120000D03*
%TO.P,U1,15*%
%TO.N,Net-(U1-Pad15)*%
X262890000Y-71120000D03*
%TO.P,U1,14*%
%TO.N,/MISO*%
X265430000Y-71120000D03*
%TO.P,U1,21*%
%TO.N,Net-(U1-Pad21)*%
X250190000Y-73660000D03*
%TO.P,U1,22*%
%TO.N,/bat_read*%
X250190000Y-76200000D03*
%TO.P,U1,23*%
%TO.N,Net-(U1-Pad23)*%
X250190000Y-78740000D03*
%TO.P,U1,24*%
%TO.N,Net-(U1-Pad24)*%
X250190000Y-81280000D03*
%TO.P,U1,25*%
%TO.N,/SDA*%
X250190000Y-83820000D03*
%TO.P,U1,26*%
%TO.N,/SCL*%
X250190000Y-86360000D03*
%TO.P,U1,27*%
%TO.N,/RF-CS*%
X250190000Y-88900000D03*
%TO.P,U1,28*%
%TO.N,/RF-G0*%
X250190000Y-91440000D03*
%TO.P,U1,29*%
%TO.N,/RF-RST*%
X250190000Y-93980000D03*
%TO.P,U1,30*%
%TO.N,/BUZZ*%
X250190000Y-96520000D03*
%TO.P,U1,31*%
%TO.N,3V3*%
X250190000Y-99060000D03*
%TO.P,U1,32*%
%TO.N,GND*%
X250190000Y-101600000D03*
%TO.P,U1,33*%
%TO.N,VIN*%
X250190000Y-104140000D03*
%TO.P,U1,34*%
%TO.N,Net-(U1-Pad34)*%
X252730000Y-101600000D03*
%TO.P,U1,13*%
%TO.N,/MOSI*%
X265430000Y-73660000D03*
%TO.P,U1,12*%
%TO.N,/FLASH-CS*%
X265430000Y-76200000D03*
%TO.P,U1,11*%
%TO.N,/FLASH-WP*%
X265430000Y-78740000D03*
%TO.P,U1,10*%
%TO.N,/FLASH-HOLD*%
X265430000Y-81280000D03*
%TO.P,U1,9*%
%TO.N,/EXT-CS*%
X265430000Y-83820000D03*
%TO.P,U1,8*%
%TO.N,Net-(U1-Pad8)*%
X265430000Y-86360000D03*
%TO.P,U1,7*%
%TO.N,Net-(U1-Pad7)*%
X265430000Y-88900000D03*
%TO.P,U1,6*%
%TO.N,/LED-B*%
X265430000Y-91440000D03*
%TO.P,U1,5*%
%TO.N,/LED-G*%
X265430000Y-93980000D03*
%TO.P,U1,4*%
%TO.N,/LED-R*%
X265430000Y-96520000D03*
%TO.P,U1,3*%
%TO.N,/TX1*%
X265430000Y-99060000D03*
%TO.P,U1,2*%
%TO.N,/RX1*%
X265430000Y-101600000D03*
%TO.P,U1,1*%
%TO.N,GND*%
X265430000Y-104140000D03*
%TD*%
D11*
%TO.P,D1,3*%
%TO.N,Net-(D1-Pad3)*%
X241300000Y-48260000D03*
%TO.P,D1,2*%
%TO.N,Net-(D1-Pad2)*%
X240030000Y-48260000D03*
%TO.P,D1,4*%
%TO.N,GND*%
X238760000Y-48260000D03*
D12*
%TO.P,D1,1*%
%TO.N,Net-(D1-Pad1)*%
X237490000Y-48260000D03*
%TD*%
D10*
%TO.P,U3,8*%
%TO.N,Net-(U3-Pad8)*%
X246380000Y-71120000D03*
%TO.P,U3,7*%
%TO.N,Net-(U3-Pad7)*%
X246380000Y-73660000D03*
%TO.P,U3,6*%
%TO.N,Net-(U3-Pad6)*%
X246380000Y-76200000D03*
%TO.P,U3,5*%
%TO.N,/SDA*%
X246380000Y-78740000D03*
%TO.P,U3,4*%
%TO.N,/SCL*%
X246380000Y-81280000D03*
%TO.P,U3,3*%
%TO.N,GND*%
X246380000Y-83820000D03*
%TO.P,U3,2*%
%TO.N,Net-(U3-Pad2)*%
X246380000Y-86360000D03*
%TO.P,U3,1*%
%TO.N,3V3*%
X246380000Y-88900000D03*
%TD*%
D13*
%TO.P,U2,9*%
%TO.N,/RF-RST*%
X257810000Y-40640000D03*
%TO.P,U2,8*%
%TO.N,/RF-CS*%
X255270000Y-40640000D03*
%TO.P,U2,7*%
%TO.N,/MOSI*%
X252730000Y-40640000D03*
%TO.P,U2,6*%
%TO.N,/MISO*%
X250190000Y-40640000D03*
%TO.P,U2,5*%
%TO.N,/SCK*%
X247650000Y-40640000D03*
%TO.P,U2,4*%
%TO.N,/RF-G0*%
X245110000Y-40640000D03*
%TO.P,U2,3*%
%TO.N,Net-(U2-Pad3)*%
X242570000Y-40640000D03*
%TO.P,U2,2*%
%TO.N,GND*%
X240030000Y-40640000D03*
%TO.P,U2,1*%
%TO.N,3V3*%
X237490000Y-40640000D03*
%TD*%
D14*
%TO.P,R5,2*%
%TO.N,Net-(D1-Pad2)*%
X241300000Y-53340000D03*
D15*
%TO.P,R5,1*%
%TO.N,/LED-G*%
X241300000Y-58420000D03*
%TD*%
D14*
%TO.P,R4,2*%
%TO.N,Net-(D1-Pad3)*%
X246380000Y-53340000D03*
D15*
%TO.P,R4,1*%
%TO.N,/LED-B*%
X246380000Y-58420000D03*
%TD*%
D14*
%TO.P,R3,2*%
%TO.N,Net-(D1-Pad1)*%
X236220000Y-53340000D03*
D15*
%TO.P,R3,1*%
%TO.N,/LED-R*%
X236220000Y-58420000D03*
%TD*%
D14*
%TO.P,R2,2*%
%TO.N,/bat_read*%
X255270000Y-62230000D03*
D15*
%TO.P,R2,1*%
%TO.N,GND*%
X255270000Y-67310000D03*
%TD*%
D14*
%TO.P,R1,2*%
%TO.N,VIN*%
X250190000Y-62230000D03*
D15*
%TO.P,R1,1*%
%TO.N,/bat_read*%
X250190000Y-67310000D03*
%TD*%
D10*
%TO.P,J1,10*%
%TO.N,/RX1*%
X265430000Y-66040000D03*
%TO.P,J1,9*%
%TO.N,/TX1*%
X265430000Y-63500000D03*
%TO.P,J1,8*%
%TO.N,/SCK*%
X265430000Y-60960000D03*
%TO.P,J1,7*%
%TO.N,/MISO*%
X265430000Y-58420000D03*
%TO.P,J1,6*%
%TO.N,/MOSI*%
X265430000Y-55880000D03*
%TO.P,J1,5*%
%TO.N,/EXT-CS*%
X265430000Y-53340000D03*
%TO.P,J1,4*%
%TO.N,/SDA*%
X265430000Y-50800000D03*
%TO.P,J1,3*%
%TO.N,/SCL*%
X265430000Y-48260000D03*
%TO.P,J1,2*%
%TO.N,3V3*%
X265430000Y-45720000D03*
%TO.P,J1,1*%
%TO.N,GND*%
X265430000Y-43180000D03*
%TD*%
D14*
%TO.P,C2,2*%
%TO.N,3V3*%
X260350000Y-62230000D03*
D15*
%TO.P,C2,1*%
%TO.N,GND*%
X260350000Y-67310000D03*
%TD*%
D14*
%TO.P,C1,2*%
%TO.N,VIN*%
X245110000Y-62230000D03*
D15*
%TO.P,C1,1*%
%TO.N,GND*%
X245110000Y-67310000D03*
%TD*%
D13*
%TO.P,BZ1,2*%
%TO.N,GND*%
X236220000Y-98425000D03*
D16*
%TO.P,BZ1,1*%
%TO.N,/BUZZ*%
X243840000Y-98425000D03*
%TD*%
D10*
%TO.P,BAT1,2*%
%TO.N,VIN*%
X237490000Y-63500000D03*
%TO.P,BAT1,1*%
%TO.N,GND*%
X237490000Y-66040000D03*
%TD*%
D17*
%TO.N,GND*%
X259715000Y-85725000D03*
X252730000Y-44450000D03*
X238125000Y-92710000D03*
X262890000Y-40005000D03*
%TO.N,VIN*%
X238760000Y-85725000D03*
%TO.N,GND*%
X241935000Y-85725000D03*
X260350000Y-44450000D03*
X251460000Y-52705000D03*
X238125000Y-52070000D03*
%TO.N,3V3*%
X259080000Y-45720000D03*
X258535001Y-48985001D03*
%TO.N,/SCK*%
X261620000Y-51435000D03*
%TO.N,/EXT-CS*%
X256395001Y-69359999D03*
X262255000Y-53340000D03*
%TO.N,/FLASH-CS*%
X249064999Y-52560001D03*
%TO.N,/FLASH-WP*%
X250190000Y-51435000D03*
%TO.N,/FLASH-HOLD*%
X257175000Y-55245000D03*
X257810000Y-50165000D03*
%TD*%
D18*
%TO.N,VIN*%
X250190000Y-104140000D02*
X243205000Y-104140000D01*
X243205000Y-104140000D02*
X240030000Y-100965000D01*
X240030000Y-100965000D02*
X240030000Y-95250000D01*
X240030000Y-95250000D02*
X240030000Y-86995000D01*
X240030000Y-86995000D02*
X238760000Y-85725000D01*
X238760000Y-85725000D02*
X238760000Y-85725000D01*
%TO.N,GND*%
X241935000Y-93345000D02*
X250190000Y-101600000D01*
X241935000Y-85725000D02*
X241935000Y-93345000D01*
X238760000Y-47948763D02*
X238760000Y-48260000D01*
X239673773Y-47034990D02*
X238760000Y-47948763D01*
X250234990Y-47034990D02*
X239673773Y-47034990D01*
X251460000Y-48260000D02*
X250234990Y-47034990D01*
X251460000Y-48260000D02*
X252730000Y-46990000D01*
X252730000Y-46990000D02*
X258883002Y-46990000D01*
X258883002Y-46990000D02*
X259715000Y-46990000D01*
X259715000Y-46990000D02*
X260350000Y-46355000D01*
X260350000Y-46355000D02*
X260350000Y-44450000D01*
X260350000Y-44450000D02*
X260350000Y-44450000D01*
X251460000Y-52705000D02*
X251460000Y-48260000D01*
%TO.N,3V3*%
X259080000Y-45720000D02*
X250825000Y-45720000D01*
X238815001Y-41965001D02*
X237490000Y-40640000D01*
X247070001Y-41965001D02*
X238815001Y-41965001D01*
X250825000Y-45720000D02*
X247070001Y-41965001D01*
X260350000Y-62230000D02*
X260350000Y-60960000D01*
X260350000Y-60960000D02*
X258535001Y-59145001D01*
X258535001Y-59145001D02*
X258535001Y-49620001D01*
X258535001Y-49620001D02*
X258535001Y-48985001D01*
X258535001Y-48985001D02*
X258535001Y-48985001D01*
%TO.N,/SCK*%
X263525000Y-59055000D02*
X265430000Y-60960000D01*
X263525000Y-52705000D02*
X263525000Y-59055000D01*
X262255000Y-51435000D02*
X263525000Y-52705000D01*
X261620000Y-51435000D02*
X262255000Y-51435000D01*
X247650000Y-40640000D02*
X250190000Y-43180000D01*
X250190000Y-43180000D02*
X260350000Y-43180000D01*
X261620000Y-44450000D02*
X261620000Y-51435000D01*
X260350000Y-43180000D02*
X261620000Y-44450000D01*
X264160000Y-62230000D02*
X265430000Y-60960000D01*
X264160000Y-71663002D02*
X264160000Y-62230000D01*
X262798002Y-73025000D02*
X264160000Y-71663002D01*
X252095000Y-73025000D02*
X262798002Y-73025000D01*
X250190000Y-71120000D02*
X252095000Y-73025000D01*
%TO.N,/EXT-CS*%
X256395001Y-69359999D02*
X262255000Y-63500000D01*
X262255000Y-63500000D02*
X262255000Y-53975000D01*
X262255000Y-53975000D02*
X262255000Y-53340000D01*
X262255000Y-53340000D02*
X262255000Y-53340000D01*
%TO.N,/SCL*%
X267105010Y-49935010D02*
X265430000Y-48260000D01*
X267105010Y-81417992D02*
X267105010Y-49935010D01*
X253955001Y-82594999D02*
X265928003Y-82594999D01*
X265928003Y-82594999D02*
X267105010Y-81417992D01*
X250190000Y-86360000D02*
X253955001Y-82594999D01*
%TO.N,/SDA*%
X266655001Y-52025001D02*
X265430000Y-50800000D01*
X266655001Y-79419999D02*
X266655001Y-52025001D01*
X266109999Y-79965001D02*
X266655001Y-79419999D01*
X254044999Y-79965001D02*
X266109999Y-79965001D01*
X250190000Y-83820000D02*
X254044999Y-79965001D01*
%TO.N,/LED-R*%
X238078001Y-64725001D02*
X243205000Y-69852000D01*
X236901999Y-64725001D02*
X238078001Y-64725001D01*
X236220000Y-64043002D02*
X236901999Y-64725001D01*
X236220000Y-58420000D02*
X236220000Y-64043002D01*
X243205000Y-69852000D02*
X243205000Y-93978590D01*
X244521409Y-95294999D02*
X243205000Y-93978590D01*
X264204999Y-95294999D02*
X244521409Y-95294999D01*
X265430000Y-96520000D02*
X264204999Y-95294999D01*
%TO.N,/LED-B*%
X246380000Y-69306998D02*
X244105020Y-71581978D01*
X246380000Y-58420000D02*
X246380000Y-69306998D01*
X264115001Y-90125001D02*
X245700001Y-90125001D01*
X265430000Y-91440000D02*
X264115001Y-90125001D01*
X245700001Y-90125001D02*
X244105020Y-88530020D01*
X244105020Y-71581978D02*
X244105020Y-88530020D01*
%TO.N,/LED-G*%
X241300000Y-58420000D02*
X243655010Y-60775010D01*
X244785019Y-92754999D02*
X243655010Y-91624990D01*
X264204999Y-92754999D02*
X244785019Y-92754999D01*
X265430000Y-93980000D02*
X264204999Y-92754999D01*
X243655010Y-60775010D02*
X243655010Y-91624990D01*
%TO.N,/RF-CS*%
X253944999Y-39314999D02*
X255270000Y-40640000D01*
X236164999Y-40003999D02*
X236853999Y-39314999D01*
X236853999Y-39314999D02*
X253944999Y-39314999D01*
X236164999Y-48955001D02*
X236164999Y-40003999D01*
X236695008Y-49485010D02*
X236164999Y-48955001D01*
X247605001Y-57979999D02*
X239110012Y-49485010D01*
X239110012Y-49485010D02*
X236695008Y-49485010D01*
X247605001Y-86315001D02*
X247605001Y-57979999D01*
X250190000Y-88900000D02*
X247605001Y-86315001D01*
%TO.N,/FLASH-CS*%
X249064999Y-52560001D02*
X249064999Y-52560001D01*
X248964999Y-52660001D02*
X249064999Y-52560001D01*
X248964999Y-74248001D02*
X248964999Y-52660001D01*
X249601999Y-74885001D02*
X248964999Y-74248001D01*
X264115001Y-74885001D02*
X249601999Y-74885001D01*
X265430000Y-76200000D02*
X264115001Y-74885001D01*
%TO.N,/FLASH-WP*%
X250190000Y-51435000D02*
X250190000Y-51435000D01*
X248285000Y-76108002D02*
X248285000Y-52266998D01*
X248285000Y-52266998D02*
X249116998Y-51435000D01*
X251504999Y-77514999D02*
X249691997Y-77514999D01*
X249691997Y-77514999D02*
X248285000Y-76108002D01*
X252730000Y-78740000D02*
X251504999Y-77514999D01*
X249116998Y-51435000D02*
X250190000Y-51435000D01*
X265430000Y-78740000D02*
X252730000Y-78740000D01*
%TO.N,/FLASH-HOLD*%
X257175000Y-55245000D02*
X257175000Y-50800000D01*
X257175000Y-50800000D02*
X257810000Y-50165000D01*
X257810000Y-50165000D02*
X257810000Y-50165000D01*
%TD*%
D19*
%TO.N,GND*%
X235653997Y-39440200D02*
X235624999Y-39463998D01*
X235601201Y-39492996D01*
X235601200Y-39492997D01*
X235530025Y-39579723D01*
X235459453Y-39711753D01*
X235438765Y-39779956D01*
X235415997Y-39855013D01*
X235414933Y-39865816D01*
X235401323Y-40003999D01*
X235405000Y-40041331D01*
X235404999Y-48917679D01*
X235401323Y-48955001D01*
X235404999Y-48992323D01*
X235404999Y-48992333D01*
X235415996Y-49103986D01*
X235454059Y-49229464D01*
X235459453Y-49247247D01*
X235530025Y-49379277D01*
X235548118Y-49401323D01*
X235624998Y-49495002D01*
X235654001Y-49518804D01*
X236131208Y-49996012D01*
X236155007Y-50025011D01*
X236184005Y-50048809D01*
X236270731Y-50119984D01*
X236354998Y-50165026D01*
X236402761Y-50190556D01*
X236546022Y-50234013D01*
X236657675Y-50245010D01*
X236657685Y-50245010D01*
X236695008Y-50248686D01*
X236732331Y-50245010D01*
X238795211Y-50245010D01*
X240619223Y-52069022D01*
X240385241Y-52225363D01*
X240185363Y-52425241D01*
X240028320Y-52660273D01*
X239920147Y-52921426D01*
X239865000Y-53198665D01*
X239865000Y-53481335D01*
X239920147Y-53758574D01*
X240028320Y-54019727D01*
X240185363Y-54254759D01*
X240385241Y-54454637D01*
X240620273Y-54611680D01*
X240881426Y-54719853D01*
X241158665Y-54775000D01*
X241441335Y-54775000D01*
X241718574Y-54719853D01*
X241979727Y-54611680D01*
X242214759Y-54454637D01*
X242414637Y-54254759D01*
X242570978Y-54020778D01*
X245699222Y-57149022D01*
X245465241Y-57305363D01*
X245265363Y-57505241D01*
X245108320Y-57740273D01*
X245000147Y-58001426D01*
X244945000Y-58278665D01*
X244945000Y-58561335D01*
X245000147Y-58838574D01*
X245108320Y-59099727D01*
X245265363Y-59334759D01*
X245465241Y-59534637D01*
X245620000Y-59638043D01*
X245620000Y-60888017D01*
X245528574Y-60850147D01*
X245251335Y-60795000D01*
X244968665Y-60795000D01*
X244691426Y-60850147D01*
X244430273Y-60958320D01*
X244415010Y-60968518D01*
X244415010Y-60812332D01*
X244418686Y-60775009D01*
X244415010Y-60737686D01*
X244415010Y-60737677D01*
X244404013Y-60626024D01*
X244360556Y-60482763D01*
X244289984Y-60350733D01*
X244218809Y-60264007D01*
X244195011Y-60235009D01*
X244166014Y-60211212D01*
X242698688Y-58743886D01*
X242735000Y-58561335D01*
X242735000Y-58278665D01*
X242679853Y-58001426D01*
X242571680Y-57740273D01*
X242414637Y-57505241D01*
X242214759Y-57305363D01*
X241979727Y-57148320D01*
X241718574Y-57040147D01*
X241441335Y-56985000D01*
X241158665Y-56985000D01*
X240881426Y-57040147D01*
X240620273Y-57148320D01*
X240385241Y-57305363D01*
X240185363Y-57505241D01*
X240028320Y-57740273D01*
X239920147Y-58001426D01*
X239865000Y-58278665D01*
X239865000Y-58561335D01*
X239920147Y-58838574D01*
X240028320Y-59099727D01*
X240185363Y-59334759D01*
X240385241Y-59534637D01*
X240620273Y-59691680D01*
X240881426Y-59799853D01*
X241158665Y-59855000D01*
X241441335Y-59855000D01*
X241623886Y-59818688D01*
X242895010Y-61089812D01*
X242895010Y-68467208D01*
X238772031Y-64344230D01*
X238850299Y-64227095D01*
X238966011Y-63947743D01*
X239025000Y-63651184D01*
X239025000Y-63348816D01*
X238966011Y-63052257D01*
X238850299Y-62772905D01*
X238682312Y-62521495D01*
X238468505Y-62307688D01*
X238217095Y-62139701D01*
X237937743Y-62023989D01*
X237641184Y-61965000D01*
X237338816Y-61965000D01*
X237042257Y-62023989D01*
X236980000Y-62049777D01*
X236980000Y-59638043D01*
X237134759Y-59534637D01*
X237334637Y-59334759D01*
X237491680Y-59099727D01*
X237599853Y-58838574D01*
X237655000Y-58561335D01*
X237655000Y-58278665D01*
X237599853Y-58001426D01*
X237491680Y-57740273D01*
X237334637Y-57505241D01*
X237134759Y-57305363D01*
X236899727Y-57148320D01*
X236638574Y-57040147D01*
X236361335Y-56985000D01*
X236078665Y-56985000D01*
X235801426Y-57040147D01*
X235540273Y-57148320D01*
X235305241Y-57305363D01*
X235105363Y-57505241D01*
X234948320Y-57740273D01*
X234840147Y-58001426D01*
X234785000Y-58278665D01*
X234785000Y-58561335D01*
X234840147Y-58838574D01*
X234948320Y-59099727D01*
X235105363Y-59334759D01*
X235305241Y-59534637D01*
X235460000Y-59638044D01*
X235460001Y-64005670D01*
X235456324Y-64043002D01*
X235470998Y-64191987D01*
X235514454Y-64335248D01*
X235585026Y-64467278D01*
X235646024Y-64541603D01*
X235680000Y-64583003D01*
X235708998Y-64606801D01*
X236299381Y-65197185D01*
X236171739Y-65239208D01*
X236040842Y-65511775D01*
X235965635Y-65804642D01*
X235949009Y-66106553D01*
X235991603Y-66405907D01*
X236091778Y-66691199D01*
X236171739Y-66840792D01*
X236425920Y-66924475D01*
X237310395Y-66040000D01*
X237296253Y-66025858D01*
X237475858Y-65846253D01*
X237490000Y-65860395D01*
X237504143Y-65846253D01*
X237683748Y-66025858D01*
X237669605Y-66040000D01*
X238554080Y-66924475D01*
X238808261Y-66840792D01*
X238909072Y-66630873D01*
X242445000Y-70166802D01*
X242445001Y-93941257D01*
X242441324Y-93978590D01*
X242445001Y-94015923D01*
X242455998Y-94127576D01*
X242469180Y-94171032D01*
X242499454Y-94270836D01*
X242570026Y-94402866D01*
X242638518Y-94486323D01*
X242665000Y-94518591D01*
X242693998Y-94542389D01*
X243957614Y-95806007D01*
X243981408Y-95835000D01*
X244010401Y-95858794D01*
X244010405Y-95858798D01*
X244081094Y-95916810D01*
X244097133Y-95929973D01*
X244229162Y-96000545D01*
X244372423Y-96044002D01*
X244484076Y-96054999D01*
X244484085Y-96054999D01*
X244521408Y-96058675D01*
X244558731Y-96054999D01*
X248721138Y-96054999D01*
X248713989Y-96072257D01*
X248655000Y-96368816D01*
X248655000Y-96671184D01*
X248713989Y-96967743D01*
X248829701Y-97247095D01*
X248997688Y-97498505D01*
X249211495Y-97712312D01*
X249327763Y-97790000D01*
X249211495Y-97867688D01*
X248997688Y-98081495D01*
X248829701Y-98332905D01*
X248713989Y-98612257D01*
X248655000Y-98908816D01*
X248655000Y-99211184D01*
X248713989Y-99507743D01*
X248829701Y-99787095D01*
X248997688Y-100038505D01*
X249211495Y-100252312D01*
X249365105Y-100354951D01*
X249305525Y-100535920D01*
X250190000Y-101420395D01*
X251074475Y-100535920D01*
X251014895Y-100354951D01*
X251168505Y-100252312D01*
X251382312Y-100038505D01*
X251550299Y-99787095D01*
X251666011Y-99507743D01*
X251725000Y-99211184D01*
X251725000Y-98908816D01*
X251666011Y-98612257D01*
X251550299Y-98332905D01*
X251382312Y-98081495D01*
X251168505Y-97867688D01*
X251052237Y-97790000D01*
X251168505Y-97712312D01*
X251382312Y-97498505D01*
X251550299Y-97247095D01*
X251666011Y-96967743D01*
X251725000Y-96671184D01*
X251725000Y-96368816D01*
X251666011Y-96072257D01*
X251658862Y-96054999D01*
X263890198Y-96054999D01*
X263946269Y-96111070D01*
X263895000Y-96368816D01*
X263895000Y-96671184D01*
X263953989Y-96967743D01*
X264069701Y-97247095D01*
X264237688Y-97498505D01*
X264451495Y-97712312D01*
X264567763Y-97790000D01*
X264451495Y-97867688D01*
X264237688Y-98081495D01*
X264069701Y-98332905D01*
X263953989Y-98612257D01*
X263895000Y-98908816D01*
X263895000Y-99211184D01*
X263953989Y-99507743D01*
X264069701Y-99787095D01*
X264237688Y-100038505D01*
X264451495Y-100252312D01*
X264567763Y-100330000D01*
X264451495Y-100407688D01*
X264237688Y-100621495D01*
X264069701Y-100872905D01*
X263953989Y-101152257D01*
X263895000Y-101448816D01*
X263895000Y-101751184D01*
X263953989Y-102047743D01*
X264069701Y-102327095D01*
X264237688Y-102578505D01*
X264451495Y-102792312D01*
X264605105Y-102894951D01*
X264545525Y-103075920D01*
X265430000Y-103960395D01*
X266314475Y-103075920D01*
X266254895Y-102894951D01*
X266408505Y-102792312D01*
X266622312Y-102578505D01*
X266790299Y-102327095D01*
X266906011Y-102047743D01*
X266965000Y-101751184D01*
X266965000Y-101448816D01*
X266906011Y-101152257D01*
X266790299Y-100872905D01*
X266622312Y-100621495D01*
X266408505Y-100407688D01*
X266292237Y-100330000D01*
X266408505Y-100252312D01*
X266622312Y-100038505D01*
X266790299Y-99787095D01*
X266906011Y-99507743D01*
X266965000Y-99211184D01*
X266965000Y-98908816D01*
X266906011Y-98612257D01*
X266790299Y-98332905D01*
X266622312Y-98081495D01*
X266408505Y-97867688D01*
X266292237Y-97790000D01*
X266408505Y-97712312D01*
X266622312Y-97498505D01*
X266790299Y-97247095D01*
X266906011Y-96967743D01*
X266965000Y-96671184D01*
X266965000Y-96368816D01*
X266906011Y-96072257D01*
X266790299Y-95792905D01*
X266622312Y-95541495D01*
X266408505Y-95327688D01*
X266292237Y-95250000D01*
X266408505Y-95172312D01*
X266622312Y-94958505D01*
X266790299Y-94707095D01*
X266906011Y-94427743D01*
X266965000Y-94131184D01*
X266965000Y-93828816D01*
X266906011Y-93532257D01*
X266790299Y-93252905D01*
X266622312Y-93001495D01*
X266408505Y-92787688D01*
X266292237Y-92710000D01*
X266408505Y-92632312D01*
X266622312Y-92418505D01*
X266790299Y-92167095D01*
X266906011Y-91887743D01*
X266965000Y-91591184D01*
X266965000Y-91288816D01*
X266906011Y-90992257D01*
X266790299Y-90712905D01*
X266622312Y-90461495D01*
X266408505Y-90247688D01*
X266292237Y-90170000D01*
X266408505Y-90092312D01*
X266622312Y-89878505D01*
X266790299Y-89627095D01*
X266906011Y-89347743D01*
X266965000Y-89051184D01*
X266965000Y-88748816D01*
X266906011Y-88452257D01*
X266790299Y-88172905D01*
X266622312Y-87921495D01*
X266408505Y-87707688D01*
X266292237Y-87630000D01*
X266408505Y-87552312D01*
X266622312Y-87338505D01*
X266790299Y-87087095D01*
X266906011Y-86807743D01*
X266965000Y-86511184D01*
X266965000Y-86208816D01*
X266906011Y-85912257D01*
X266790299Y-85632905D01*
X266622312Y-85381495D01*
X266408505Y-85167688D01*
X266292237Y-85090000D01*
X266408505Y-85012312D01*
X266622312Y-84798505D01*
X266790299Y-84547095D01*
X266906011Y-84267743D01*
X266965000Y-83971184D01*
X266965000Y-83668816D01*
X266906011Y-83372257D01*
X266790299Y-83092905D01*
X266675983Y-82921820D01*
X267260001Y-82337803D01*
X267260001Y-104105261D01*
X267233901Y-104371449D01*
X267166684Y-104594084D01*
X267057506Y-104799417D01*
X266910522Y-104979637D01*
X266731333Y-105127876D01*
X266526761Y-105238488D01*
X266304606Y-105307257D01*
X266279643Y-105309881D01*
X266314475Y-105204080D01*
X265430000Y-104319605D01*
X264545525Y-105204080D01*
X264588627Y-105335000D01*
X251164482Y-105335000D01*
X251168505Y-105332312D01*
X251382312Y-105118505D01*
X251550299Y-104867095D01*
X251666011Y-104587743D01*
X251725000Y-104291184D01*
X251725000Y-104206553D01*
X263889009Y-104206553D01*
X263931603Y-104505907D01*
X264031778Y-104791199D01*
X264111739Y-104940792D01*
X264365920Y-105024475D01*
X265250395Y-104140000D01*
X265609605Y-104140000D01*
X266494080Y-105024475D01*
X266748261Y-104940792D01*
X266879158Y-104668225D01*
X266954365Y-104375358D01*
X266970991Y-104073447D01*
X266928397Y-103774093D01*
X266828222Y-103488801D01*
X266748261Y-103339208D01*
X266494080Y-103255525D01*
X265609605Y-104140000D01*
X265250395Y-104140000D01*
X264365920Y-103255525D01*
X264111739Y-103339208D01*
X263980842Y-103611775D01*
X263905635Y-103904642D01*
X263889009Y-104206553D01*
X251725000Y-104206553D01*
X251725000Y-103988816D01*
X251666011Y-103692257D01*
X251550299Y-103412905D01*
X251382312Y-103161495D01*
X251168505Y-102947688D01*
X251014895Y-102845049D01*
X251074475Y-102664080D01*
X250190000Y-101779605D01*
X249305525Y-102664080D01*
X249365105Y-102845049D01*
X249211495Y-102947688D01*
X248997688Y-103161495D01*
X248851687Y-103380000D01*
X243519802Y-103380000D01*
X241806355Y-101666553D01*
X248649009Y-101666553D01*
X248691603Y-101965907D01*
X248791778Y-102251199D01*
X248871739Y-102400792D01*
X249125920Y-102484475D01*
X250010395Y-101600000D01*
X250369605Y-101600000D01*
X251254080Y-102484475D01*
X251435049Y-102424895D01*
X251537688Y-102578505D01*
X251751495Y-102792312D01*
X252002905Y-102960299D01*
X252282257Y-103076011D01*
X252578816Y-103135000D01*
X252881184Y-103135000D01*
X253177743Y-103076011D01*
X253457095Y-102960299D01*
X253708505Y-102792312D01*
X253922312Y-102578505D01*
X254090299Y-102327095D01*
X254206011Y-102047743D01*
X254265000Y-101751184D01*
X254265000Y-101448816D01*
X254206011Y-101152257D01*
X254090299Y-100872905D01*
X253922312Y-100621495D01*
X253708505Y-100407688D01*
X253457095Y-100239701D01*
X253177743Y-100123989D01*
X252881184Y-100065000D01*
X252578816Y-100065000D01*
X252282257Y-100123989D01*
X252002905Y-100239701D01*
X251751495Y-100407688D01*
X251537688Y-100621495D01*
X251435049Y-100775105D01*
X251254080Y-100715525D01*
X250369605Y-101600000D01*
X250010395Y-101600000D01*
X249125920Y-100715525D01*
X248871739Y-100799208D01*
X248740842Y-101071775D01*
X248665635Y-101364642D01*
X248649009Y-101666553D01*
X241806355Y-101666553D01*
X240790000Y-100650199D01*
X240790000Y-97425000D01*
X242201928Y-97425000D01*
X242201928Y-99425000D01*
X242214188Y-99549482D01*
X242250498Y-99669180D01*
X242309463Y-99779494D01*
X242388815Y-99876185D01*
X242485506Y-99955537D01*
X242595820Y-100014502D01*
X242715518Y-100050812D01*
X242840000Y-100063072D01*
X244840000Y-100063072D01*
X244964482Y-100050812D01*
X245084180Y-100014502D01*
X245194494Y-99955537D01*
X245291185Y-99876185D01*
X245370537Y-99779494D01*
X245429502Y-99669180D01*
X245465812Y-99549482D01*
X245478072Y-99425000D01*
X245478072Y-97425000D01*
X245465812Y-97300518D01*
X245429502Y-97180820D01*
X245370537Y-97070506D01*
X245291185Y-96973815D01*
X245194494Y-96894463D01*
X245084180Y-96835498D01*
X244964482Y-96799188D01*
X244840000Y-96786928D01*
X242840000Y-96786928D01*
X242715518Y-96799188D01*
X242595820Y-96835498D01*
X242485506Y-96894463D01*
X242388815Y-96973815D01*
X242309463Y-97070506D01*
X242250498Y-97180820D01*
X242214188Y-97300518D01*
X242201928Y-97425000D01*
X240790000Y-97425000D01*
X240790000Y-87032322D01*
X240793676Y-86994999D01*
X240790000Y-86957676D01*
X240790000Y-86957667D01*
X240779003Y-86846014D01*
X240735546Y-86702753D01*
X240664974Y-86570724D01*
X240570001Y-86454999D01*
X240541003Y-86431201D01*
X239795000Y-85685199D01*
X239795000Y-85623061D01*
X239755226Y-85423102D01*
X239677205Y-85234744D01*
X239563937Y-85065226D01*
X239419774Y-84921063D01*
X239250256Y-84807795D01*
X239061898Y-84729774D01*
X238861939Y-84690000D01*
X238658061Y-84690000D01*
X238458102Y-84729774D01*
X238269744Y-84807795D01*
X238100226Y-84921063D01*
X237956063Y-85065226D01*
X237842795Y-85234744D01*
X237764774Y-85423102D01*
X237725000Y-85623061D01*
X237725000Y-85826939D01*
X237764774Y-86026898D01*
X237842795Y-86215256D01*
X237956063Y-86384774D01*
X238100226Y-86528937D01*
X238269744Y-86642205D01*
X238458102Y-86720226D01*
X238658061Y-86760000D01*
X238720199Y-86760000D01*
X239270001Y-87309803D01*
X239270000Y-95287332D01*
X239270001Y-95287342D01*
X239270000Y-100927677D01*
X239266324Y-100965000D01*
X239270000Y-101002322D01*
X239270000Y-101002332D01*
X239280997Y-101113985D01*
X239317431Y-101234093D01*
X239324454Y-101257246D01*
X239395026Y-101389276D01*
X239420565Y-101420395D01*
X239489999Y-101505001D01*
X239519003Y-101528804D01*
X242641201Y-104651003D01*
X242664999Y-104680001D01*
X242693997Y-104703799D01*
X242780723Y-104774974D01*
X242908628Y-104843341D01*
X242912753Y-104845546D01*
X243056014Y-104889003D01*
X243167667Y-104900000D01*
X243167676Y-104900000D01*
X243204999Y-104903676D01*
X243242322Y-104900000D01*
X248851687Y-104900000D01*
X248997688Y-105118505D01*
X249211495Y-105332312D01*
X249215518Y-105335000D01*
X234349729Y-105335000D01*
X234083551Y-105308901D01*
X233860916Y-105241684D01*
X233655583Y-105132506D01*
X233475363Y-104985522D01*
X233327124Y-104806333D01*
X233216512Y-104601761D01*
X233147743Y-104379606D01*
X233120000Y-104115655D01*
X233120000Y-99560413D01*
X235264192Y-99560413D01*
X235359956Y-99824814D01*
X235649571Y-99965704D01*
X235961108Y-100047384D01*
X236282595Y-100066718D01*
X236601675Y-100022961D01*
X236906088Y-99917795D01*
X237080044Y-99824814D01*
X237175808Y-99560413D01*
X236220000Y-98604605D01*
X235264192Y-99560413D01*
X233120000Y-99560413D01*
X233120000Y-98487595D01*
X234578282Y-98487595D01*
X234622039Y-98806675D01*
X234727205Y-99111088D01*
X234820186Y-99285044D01*
X235084587Y-99380808D01*
X236040395Y-98425000D01*
X236399605Y-98425000D01*
X237355413Y-99380808D01*
X237619814Y-99285044D01*
X237760704Y-98995429D01*
X237842384Y-98683892D01*
X237861718Y-98362405D01*
X237817961Y-98043325D01*
X237712795Y-97738912D01*
X237619814Y-97564956D01*
X237355413Y-97469192D01*
X236399605Y-98425000D01*
X236040395Y-98425000D01*
X235084587Y-97469192D01*
X234820186Y-97564956D01*
X234679296Y-97854571D01*
X234597616Y-98166108D01*
X234578282Y-98487595D01*
X233120000Y-98487595D01*
X233120000Y-97289587D01*
X235264192Y-97289587D01*
X236220000Y-98245395D01*
X237175808Y-97289587D01*
X237080044Y-97025186D01*
X236790429Y-96884296D01*
X236478892Y-96802616D01*
X236157405Y-96783282D01*
X235838325Y-96827039D01*
X235533912Y-96932205D01*
X235359956Y-97025186D01*
X235264192Y-97289587D01*
X233120000Y-97289587D01*
X233120000Y-67104080D01*
X236605525Y-67104080D01*
X236689208Y-67358261D01*
X236961775Y-67489158D01*
X237254642Y-67564365D01*
X237556553Y-67580991D01*
X237855907Y-67538397D01*
X238141199Y-67438222D01*
X238290792Y-67358261D01*
X238374475Y-67104080D01*
X237490000Y-66219605D01*
X236605525Y-67104080D01*
X233120000Y-67104080D01*
X233120000Y-53198665D01*
X234785000Y-53198665D01*
X234785000Y-53481335D01*
X234840147Y-53758574D01*
X234948320Y-54019727D01*
X235105363Y-54254759D01*
X235305241Y-54454637D01*
X235540273Y-54611680D01*
X235801426Y-54719853D01*
X236078665Y-54775000D01*
X236361335Y-54775000D01*
X236638574Y-54719853D01*
X236899727Y-54611680D01*
X237134759Y-54454637D01*
X237334637Y-54254759D01*
X237491680Y-54019727D01*
X237599853Y-53758574D01*
X237655000Y-53481335D01*
X237655000Y-53198665D01*
X237599853Y-52921426D01*
X237491680Y-52660273D01*
X237334637Y-52425241D01*
X237134759Y-52225363D01*
X236899727Y-52068320D01*
X236638574Y-51960147D01*
X236361335Y-51905000D01*
X236078665Y-51905000D01*
X235801426Y-51960147D01*
X235540273Y-52068320D01*
X235305241Y-52225363D01*
X235105363Y-52425241D01*
X234948320Y-52660273D01*
X234840147Y-52921426D01*
X234785000Y-53198665D01*
X233120000Y-53198665D01*
X233120000Y-40039728D01*
X233146098Y-39773554D01*
X233213315Y-39550919D01*
X233322495Y-39345581D01*
X233469479Y-39165361D01*
X233648668Y-39017123D01*
X233853240Y-38906511D01*
X234075397Y-38837742D01*
X234339344Y-38810000D01*
X236284196Y-38810000D01*
X235653997Y-39440200D01*
%TA.AperFunction,Conductor*%
D20*
G36*
X235653997Y-39440200D02*
G01*
X235624999Y-39463998D01*
X235601201Y-39492996D01*
X235601200Y-39492997D01*
X235530025Y-39579723D01*
X235459453Y-39711753D01*
X235438765Y-39779956D01*
X235415997Y-39855013D01*
X235414933Y-39865816D01*
X235401323Y-40003999D01*
X235405000Y-40041331D01*
X235404999Y-48917679D01*
X235401323Y-48955001D01*
X235404999Y-48992323D01*
X235404999Y-48992333D01*
X235415996Y-49103986D01*
X235454059Y-49229464D01*
X235459453Y-49247247D01*
X235530025Y-49379277D01*
X235548118Y-49401323D01*
X235624998Y-49495002D01*
X235654001Y-49518804D01*
X236131208Y-49996012D01*
X236155007Y-50025011D01*
X236184005Y-50048809D01*
X236270731Y-50119984D01*
X236354998Y-50165026D01*
X236402761Y-50190556D01*
X236546022Y-50234013D01*
X236657675Y-50245010D01*
X236657685Y-50245010D01*
X236695008Y-50248686D01*
X236732331Y-50245010D01*
X238795211Y-50245010D01*
X240619223Y-52069022D01*
X240385241Y-52225363D01*
X240185363Y-52425241D01*
X240028320Y-52660273D01*
X239920147Y-52921426D01*
X239865000Y-53198665D01*
X239865000Y-53481335D01*
X239920147Y-53758574D01*
X240028320Y-54019727D01*
X240185363Y-54254759D01*
X240385241Y-54454637D01*
X240620273Y-54611680D01*
X240881426Y-54719853D01*
X241158665Y-54775000D01*
X241441335Y-54775000D01*
X241718574Y-54719853D01*
X241979727Y-54611680D01*
X242214759Y-54454637D01*
X242414637Y-54254759D01*
X242570978Y-54020778D01*
X245699222Y-57149022D01*
X245465241Y-57305363D01*
X245265363Y-57505241D01*
X245108320Y-57740273D01*
X245000147Y-58001426D01*
X244945000Y-58278665D01*
X244945000Y-58561335D01*
X245000147Y-58838574D01*
X245108320Y-59099727D01*
X245265363Y-59334759D01*
X245465241Y-59534637D01*
X245620000Y-59638043D01*
X245620000Y-60888017D01*
X245528574Y-60850147D01*
X245251335Y-60795000D01*
X244968665Y-60795000D01*
X244691426Y-60850147D01*
X244430273Y-60958320D01*
X244415010Y-60968518D01*
X244415010Y-60812332D01*
X244418686Y-60775009D01*
X244415010Y-60737686D01*
X244415010Y-60737677D01*
X244404013Y-60626024D01*
X244360556Y-60482763D01*
X244289984Y-60350733D01*
X244218809Y-60264007D01*
X244195011Y-60235009D01*
X244166014Y-60211212D01*
X242698688Y-58743886D01*
X242735000Y-58561335D01*
X242735000Y-58278665D01*
X242679853Y-58001426D01*
X242571680Y-57740273D01*
X242414637Y-57505241D01*
X242214759Y-57305363D01*
X241979727Y-57148320D01*
X241718574Y-57040147D01*
X241441335Y-56985000D01*
X241158665Y-56985000D01*
X240881426Y-57040147D01*
X240620273Y-57148320D01*
X240385241Y-57305363D01*
X240185363Y-57505241D01*
X240028320Y-57740273D01*
X239920147Y-58001426D01*
X239865000Y-58278665D01*
X239865000Y-58561335D01*
X239920147Y-58838574D01*
X240028320Y-59099727D01*
X240185363Y-59334759D01*
X240385241Y-59534637D01*
X240620273Y-59691680D01*
X240881426Y-59799853D01*
X241158665Y-59855000D01*
X241441335Y-59855000D01*
X241623886Y-59818688D01*
X242895010Y-61089812D01*
X242895010Y-68467208D01*
X238772031Y-64344230D01*
X238850299Y-64227095D01*
X238966011Y-63947743D01*
X239025000Y-63651184D01*
X239025000Y-63348816D01*
X238966011Y-63052257D01*
X238850299Y-62772905D01*
X238682312Y-62521495D01*
X238468505Y-62307688D01*
X238217095Y-62139701D01*
X237937743Y-62023989D01*
X237641184Y-61965000D01*
X237338816Y-61965000D01*
X237042257Y-62023989D01*
X236980000Y-62049777D01*
X236980000Y-59638043D01*
X237134759Y-59534637D01*
X237334637Y-59334759D01*
X237491680Y-59099727D01*
X237599853Y-58838574D01*
X237655000Y-58561335D01*
X237655000Y-58278665D01*
X237599853Y-58001426D01*
X237491680Y-57740273D01*
X237334637Y-57505241D01*
X237134759Y-57305363D01*
X236899727Y-57148320D01*
X236638574Y-57040147D01*
X236361335Y-56985000D01*
X236078665Y-56985000D01*
X235801426Y-57040147D01*
X235540273Y-57148320D01*
X235305241Y-57305363D01*
X235105363Y-57505241D01*
X234948320Y-57740273D01*
X234840147Y-58001426D01*
X234785000Y-58278665D01*
X234785000Y-58561335D01*
X234840147Y-58838574D01*
X234948320Y-59099727D01*
X235105363Y-59334759D01*
X235305241Y-59534637D01*
X235460000Y-59638044D01*
X235460001Y-64005670D01*
X235456324Y-64043002D01*
X235470998Y-64191987D01*
X235514454Y-64335248D01*
X235585026Y-64467278D01*
X235646024Y-64541603D01*
X235680000Y-64583003D01*
X235708998Y-64606801D01*
X236299381Y-65197185D01*
X236171739Y-65239208D01*
X236040842Y-65511775D01*
X235965635Y-65804642D01*
X235949009Y-66106553D01*
X235991603Y-66405907D01*
X236091778Y-66691199D01*
X236171739Y-66840792D01*
X236425920Y-66924475D01*
X237310395Y-66040000D01*
X237296253Y-66025858D01*
X237475858Y-65846253D01*
X237490000Y-65860395D01*
X237504143Y-65846253D01*
X237683748Y-66025858D01*
X237669605Y-66040000D01*
X238554080Y-66924475D01*
X238808261Y-66840792D01*
X238909072Y-66630873D01*
X242445000Y-70166802D01*
X242445001Y-93941257D01*
X242441324Y-93978590D01*
X242445001Y-94015923D01*
X242455998Y-94127576D01*
X242469180Y-94171032D01*
X242499454Y-94270836D01*
X242570026Y-94402866D01*
X242638518Y-94486323D01*
X242665000Y-94518591D01*
X242693998Y-94542389D01*
X243957614Y-95806007D01*
X243981408Y-95835000D01*
X244010401Y-95858794D01*
X244010405Y-95858798D01*
X244081094Y-95916810D01*
X244097133Y-95929973D01*
X244229162Y-96000545D01*
X244372423Y-96044002D01*
X244484076Y-96054999D01*
X244484085Y-96054999D01*
X244521408Y-96058675D01*
X244558731Y-96054999D01*
X248721138Y-96054999D01*
X248713989Y-96072257D01*
X248655000Y-96368816D01*
X248655000Y-96671184D01*
X248713989Y-96967743D01*
X248829701Y-97247095D01*
X248997688Y-97498505D01*
X249211495Y-97712312D01*
X249327763Y-97790000D01*
X249211495Y-97867688D01*
X248997688Y-98081495D01*
X248829701Y-98332905D01*
X248713989Y-98612257D01*
X248655000Y-98908816D01*
X248655000Y-99211184D01*
X248713989Y-99507743D01*
X248829701Y-99787095D01*
X248997688Y-100038505D01*
X249211495Y-100252312D01*
X249365105Y-100354951D01*
X249305525Y-100535920D01*
X250190000Y-101420395D01*
X251074475Y-100535920D01*
X251014895Y-100354951D01*
X251168505Y-100252312D01*
X251382312Y-100038505D01*
X251550299Y-99787095D01*
X251666011Y-99507743D01*
X251725000Y-99211184D01*
X251725000Y-98908816D01*
X251666011Y-98612257D01*
X251550299Y-98332905D01*
X251382312Y-98081495D01*
X251168505Y-97867688D01*
X251052237Y-97790000D01*
X251168505Y-97712312D01*
X251382312Y-97498505D01*
X251550299Y-97247095D01*
X251666011Y-96967743D01*
X251725000Y-96671184D01*
X251725000Y-96368816D01*
X251666011Y-96072257D01*
X251658862Y-96054999D01*
X263890198Y-96054999D01*
X263946269Y-96111070D01*
X263895000Y-96368816D01*
X263895000Y-96671184D01*
X263953989Y-96967743D01*
X264069701Y-97247095D01*
X264237688Y-97498505D01*
X264451495Y-97712312D01*
X264567763Y-97790000D01*
X264451495Y-97867688D01*
X264237688Y-98081495D01*
X264069701Y-98332905D01*
X263953989Y-98612257D01*
X263895000Y-98908816D01*
X263895000Y-99211184D01*
X263953989Y-99507743D01*
X264069701Y-99787095D01*
X264237688Y-100038505D01*
X264451495Y-100252312D01*
X264567763Y-100330000D01*
X264451495Y-100407688D01*
X264237688Y-100621495D01*
X264069701Y-100872905D01*
X263953989Y-101152257D01*
X263895000Y-101448816D01*
X263895000Y-101751184D01*
X263953989Y-102047743D01*
X264069701Y-102327095D01*
X264237688Y-102578505D01*
X264451495Y-102792312D01*
X264605105Y-102894951D01*
X264545525Y-103075920D01*
X265430000Y-103960395D01*
X266314475Y-103075920D01*
X266254895Y-102894951D01*
X266408505Y-102792312D01*
X266622312Y-102578505D01*
X266790299Y-102327095D01*
X266906011Y-102047743D01*
X266965000Y-101751184D01*
X266965000Y-101448816D01*
X266906011Y-101152257D01*
X266790299Y-100872905D01*
X266622312Y-100621495D01*
X266408505Y-100407688D01*
X266292237Y-100330000D01*
X266408505Y-100252312D01*
X266622312Y-100038505D01*
X266790299Y-99787095D01*
X266906011Y-99507743D01*
X266965000Y-99211184D01*
X266965000Y-98908816D01*
X266906011Y-98612257D01*
X266790299Y-98332905D01*
X266622312Y-98081495D01*
X266408505Y-97867688D01*
X266292237Y-97790000D01*
X266408505Y-97712312D01*
X266622312Y-97498505D01*
X266790299Y-97247095D01*
X266906011Y-96967743D01*
X266965000Y-96671184D01*
X266965000Y-96368816D01*
X266906011Y-96072257D01*
X266790299Y-95792905D01*
X266622312Y-95541495D01*
X266408505Y-95327688D01*
X266292237Y-95250000D01*
X266408505Y-95172312D01*
X266622312Y-94958505D01*
X266790299Y-94707095D01*
X266906011Y-94427743D01*
X266965000Y-94131184D01*
X266965000Y-93828816D01*
X266906011Y-93532257D01*
X266790299Y-93252905D01*
X266622312Y-93001495D01*
X266408505Y-92787688D01*
X266292237Y-92710000D01*
X266408505Y-92632312D01*
X266622312Y-92418505D01*
X266790299Y-92167095D01*
X266906011Y-91887743D01*
X266965000Y-91591184D01*
X266965000Y-91288816D01*
X266906011Y-90992257D01*
X266790299Y-90712905D01*
X266622312Y-90461495D01*
X266408505Y-90247688D01*
X266292237Y-90170000D01*
X266408505Y-90092312D01*
X266622312Y-89878505D01*
X266790299Y-89627095D01*
X266906011Y-89347743D01*
X266965000Y-89051184D01*
X266965000Y-88748816D01*
X266906011Y-88452257D01*
X266790299Y-88172905D01*
X266622312Y-87921495D01*
X266408505Y-87707688D01*
X266292237Y-87630000D01*
X266408505Y-87552312D01*
X266622312Y-87338505D01*
X266790299Y-87087095D01*
X266906011Y-86807743D01*
X266965000Y-86511184D01*
X266965000Y-86208816D01*
X266906011Y-85912257D01*
X266790299Y-85632905D01*
X266622312Y-85381495D01*
X266408505Y-85167688D01*
X266292237Y-85090000D01*
X266408505Y-85012312D01*
X266622312Y-84798505D01*
X266790299Y-84547095D01*
X266906011Y-84267743D01*
X266965000Y-83971184D01*
X266965000Y-83668816D01*
X266906011Y-83372257D01*
X266790299Y-83092905D01*
X266675983Y-82921820D01*
X267260001Y-82337803D01*
X267260001Y-104105261D01*
X267233901Y-104371449D01*
X267166684Y-104594084D01*
X267057506Y-104799417D01*
X266910522Y-104979637D01*
X266731333Y-105127876D01*
X266526761Y-105238488D01*
X266304606Y-105307257D01*
X266279643Y-105309881D01*
X266314475Y-105204080D01*
X265430000Y-104319605D01*
X264545525Y-105204080D01*
X264588627Y-105335000D01*
X251164482Y-105335000D01*
X251168505Y-105332312D01*
X251382312Y-105118505D01*
X251550299Y-104867095D01*
X251666011Y-104587743D01*
X251725000Y-104291184D01*
X251725000Y-104206553D01*
X263889009Y-104206553D01*
X263931603Y-104505907D01*
X264031778Y-104791199D01*
X264111739Y-104940792D01*
X264365920Y-105024475D01*
X265250395Y-104140000D01*
X265609605Y-104140000D01*
X266494080Y-105024475D01*
X266748261Y-104940792D01*
X266879158Y-104668225D01*
X266954365Y-104375358D01*
X266970991Y-104073447D01*
X266928397Y-103774093D01*
X266828222Y-103488801D01*
X266748261Y-103339208D01*
X266494080Y-103255525D01*
X265609605Y-104140000D01*
X265250395Y-104140000D01*
X264365920Y-103255525D01*
X264111739Y-103339208D01*
X263980842Y-103611775D01*
X263905635Y-103904642D01*
X263889009Y-104206553D01*
X251725000Y-104206553D01*
X251725000Y-103988816D01*
X251666011Y-103692257D01*
X251550299Y-103412905D01*
X251382312Y-103161495D01*
X251168505Y-102947688D01*
X251014895Y-102845049D01*
X251074475Y-102664080D01*
X250190000Y-101779605D01*
X249305525Y-102664080D01*
X249365105Y-102845049D01*
X249211495Y-102947688D01*
X248997688Y-103161495D01*
X248851687Y-103380000D01*
X243519802Y-103380000D01*
X241806355Y-101666553D01*
X248649009Y-101666553D01*
X248691603Y-101965907D01*
X248791778Y-102251199D01*
X248871739Y-102400792D01*
X249125920Y-102484475D01*
X250010395Y-101600000D01*
X250369605Y-101600000D01*
X251254080Y-102484475D01*
X251435049Y-102424895D01*
X251537688Y-102578505D01*
X251751495Y-102792312D01*
X252002905Y-102960299D01*
X252282257Y-103076011D01*
X252578816Y-103135000D01*
X252881184Y-103135000D01*
X253177743Y-103076011D01*
X253457095Y-102960299D01*
X253708505Y-102792312D01*
X253922312Y-102578505D01*
X254090299Y-102327095D01*
X254206011Y-102047743D01*
X254265000Y-101751184D01*
X254265000Y-101448816D01*
X254206011Y-101152257D01*
X254090299Y-100872905D01*
X253922312Y-100621495D01*
X253708505Y-100407688D01*
X253457095Y-100239701D01*
X253177743Y-100123989D01*
X252881184Y-100065000D01*
X252578816Y-100065000D01*
X252282257Y-100123989D01*
X252002905Y-100239701D01*
X251751495Y-100407688D01*
X251537688Y-100621495D01*
X251435049Y-100775105D01*
X251254080Y-100715525D01*
X250369605Y-101600000D01*
X250010395Y-101600000D01*
X249125920Y-100715525D01*
X248871739Y-100799208D01*
X248740842Y-101071775D01*
X248665635Y-101364642D01*
X248649009Y-101666553D01*
X241806355Y-101666553D01*
X240790000Y-100650199D01*
X240790000Y-97425000D01*
X242201928Y-97425000D01*
X242201928Y-99425000D01*
X242214188Y-99549482D01*
X242250498Y-99669180D01*
X242309463Y-99779494D01*
X242388815Y-99876185D01*
X242485506Y-99955537D01*
X242595820Y-100014502D01*
X242715518Y-100050812D01*
X242840000Y-100063072D01*
X244840000Y-100063072D01*
X244964482Y-100050812D01*
X245084180Y-100014502D01*
X245194494Y-99955537D01*
X245291185Y-99876185D01*
X245370537Y-99779494D01*
X245429502Y-99669180D01*
X245465812Y-99549482D01*
X245478072Y-99425000D01*
X245478072Y-97425000D01*
X245465812Y-97300518D01*
X245429502Y-97180820D01*
X245370537Y-97070506D01*
X245291185Y-96973815D01*
X245194494Y-96894463D01*
X245084180Y-96835498D01*
X244964482Y-96799188D01*
X244840000Y-96786928D01*
X242840000Y-96786928D01*
X242715518Y-96799188D01*
X242595820Y-96835498D01*
X242485506Y-96894463D01*
X242388815Y-96973815D01*
X242309463Y-97070506D01*
X242250498Y-97180820D01*
X242214188Y-97300518D01*
X242201928Y-97425000D01*
X240790000Y-97425000D01*
X240790000Y-87032322D01*
X240793676Y-86994999D01*
X240790000Y-86957676D01*
X240790000Y-86957667D01*
X240779003Y-86846014D01*
X240735546Y-86702753D01*
X240664974Y-86570724D01*
X240570001Y-86454999D01*
X240541003Y-86431201D01*
X239795000Y-85685199D01*
X239795000Y-85623061D01*
X239755226Y-85423102D01*
X239677205Y-85234744D01*
X239563937Y-85065226D01*
X239419774Y-84921063D01*
X239250256Y-84807795D01*
X239061898Y-84729774D01*
X238861939Y-84690000D01*
X238658061Y-84690000D01*
X238458102Y-84729774D01*
X238269744Y-84807795D01*
X238100226Y-84921063D01*
X237956063Y-85065226D01*
X237842795Y-85234744D01*
X237764774Y-85423102D01*
X237725000Y-85623061D01*
X237725000Y-85826939D01*
X237764774Y-86026898D01*
X237842795Y-86215256D01*
X237956063Y-86384774D01*
X238100226Y-86528937D01*
X238269744Y-86642205D01*
X238458102Y-86720226D01*
X238658061Y-86760000D01*
X238720199Y-86760000D01*
X239270001Y-87309803D01*
X239270000Y-95287332D01*
X239270001Y-95287342D01*
X239270000Y-100927677D01*
X239266324Y-100965000D01*
X239270000Y-101002322D01*
X239270000Y-101002332D01*
X239280997Y-101113985D01*
X239317431Y-101234093D01*
X239324454Y-101257246D01*
X239395026Y-101389276D01*
X239420565Y-101420395D01*
X239489999Y-101505001D01*
X239519003Y-101528804D01*
X242641201Y-104651003D01*
X242664999Y-104680001D01*
X242693997Y-104703799D01*
X242780723Y-104774974D01*
X242908628Y-104843341D01*
X242912753Y-104845546D01*
X243056014Y-104889003D01*
X243167667Y-104900000D01*
X243167676Y-104900000D01*
X243204999Y-104903676D01*
X243242322Y-104900000D01*
X248851687Y-104900000D01*
X248997688Y-105118505D01*
X249211495Y-105332312D01*
X249215518Y-105335000D01*
X234349729Y-105335000D01*
X234083551Y-105308901D01*
X233860916Y-105241684D01*
X233655583Y-105132506D01*
X233475363Y-104985522D01*
X233327124Y-104806333D01*
X233216512Y-104601761D01*
X233147743Y-104379606D01*
X233120000Y-104115655D01*
X233120000Y-99560413D01*
X235264192Y-99560413D01*
X235359956Y-99824814D01*
X235649571Y-99965704D01*
X235961108Y-100047384D01*
X236282595Y-100066718D01*
X236601675Y-100022961D01*
X236906088Y-99917795D01*
X237080044Y-99824814D01*
X237175808Y-99560413D01*
X236220000Y-98604605D01*
X235264192Y-99560413D01*
X233120000Y-99560413D01*
X233120000Y-98487595D01*
X234578282Y-98487595D01*
X234622039Y-98806675D01*
X234727205Y-99111088D01*
X234820186Y-99285044D01*
X235084587Y-99380808D01*
X236040395Y-98425000D01*
X236399605Y-98425000D01*
X237355413Y-99380808D01*
X237619814Y-99285044D01*
X237760704Y-98995429D01*
X237842384Y-98683892D01*
X237861718Y-98362405D01*
X237817961Y-98043325D01*
X237712795Y-97738912D01*
X237619814Y-97564956D01*
X237355413Y-97469192D01*
X236399605Y-98425000D01*
X236040395Y-98425000D01*
X235084587Y-97469192D01*
X234820186Y-97564956D01*
X234679296Y-97854571D01*
X234597616Y-98166108D01*
X234578282Y-98487595D01*
X233120000Y-98487595D01*
X233120000Y-97289587D01*
X235264192Y-97289587D01*
X236220000Y-98245395D01*
X237175808Y-97289587D01*
X237080044Y-97025186D01*
X236790429Y-96884296D01*
X236478892Y-96802616D01*
X236157405Y-96783282D01*
X235838325Y-96827039D01*
X235533912Y-96932205D01*
X235359956Y-97025186D01*
X235264192Y-97289587D01*
X233120000Y-97289587D01*
X233120000Y-67104080D01*
X236605525Y-67104080D01*
X236689208Y-67358261D01*
X236961775Y-67489158D01*
X237254642Y-67564365D01*
X237556553Y-67580991D01*
X237855907Y-67538397D01*
X238141199Y-67438222D01*
X238290792Y-67358261D01*
X238374475Y-67104080D01*
X237490000Y-66219605D01*
X236605525Y-67104080D01*
X233120000Y-67104080D01*
X233120000Y-53198665D01*
X234785000Y-53198665D01*
X234785000Y-53481335D01*
X234840147Y-53758574D01*
X234948320Y-54019727D01*
X235105363Y-54254759D01*
X235305241Y-54454637D01*
X235540273Y-54611680D01*
X235801426Y-54719853D01*
X236078665Y-54775000D01*
X236361335Y-54775000D01*
X236638574Y-54719853D01*
X236899727Y-54611680D01*
X237134759Y-54454637D01*
X237334637Y-54254759D01*
X237491680Y-54019727D01*
X237599853Y-53758574D01*
X237655000Y-53481335D01*
X237655000Y-53198665D01*
X237599853Y-52921426D01*
X237491680Y-52660273D01*
X237334637Y-52425241D01*
X237134759Y-52225363D01*
X236899727Y-52068320D01*
X236638574Y-51960147D01*
X236361335Y-51905000D01*
X236078665Y-51905000D01*
X235801426Y-51960147D01*
X235540273Y-52068320D01*
X235305241Y-52225363D01*
X235105363Y-52425241D01*
X234948320Y-52660273D01*
X234840147Y-52921426D01*
X234785000Y-53198665D01*
X233120000Y-53198665D01*
X233120000Y-40039728D01*
X233146098Y-39773554D01*
X233213315Y-39550919D01*
X233322495Y-39345581D01*
X233469479Y-39165361D01*
X233648668Y-39017123D01*
X233853240Y-38906511D01*
X234075397Y-38837742D01*
X234339344Y-38810000D01*
X236284196Y-38810000D01*
X235653997Y-39440200D01*
G37*
%TD.AperFunction*%
D19*
X263953989Y-83372257D02*
X263895000Y-83668816D01*
X263895000Y-83971184D01*
X263953989Y-84267743D01*
X264069701Y-84547095D01*
X264237688Y-84798505D01*
X264451495Y-85012312D01*
X264567763Y-85090000D01*
X264451495Y-85167688D01*
X264237688Y-85381495D01*
X264069701Y-85632905D01*
X263953989Y-85912257D01*
X263895000Y-86208816D01*
X263895000Y-86511184D01*
X263953989Y-86807743D01*
X264069701Y-87087095D01*
X264237688Y-87338505D01*
X264451495Y-87552312D01*
X264567763Y-87630000D01*
X264451495Y-87707688D01*
X264237688Y-87921495D01*
X264069701Y-88172905D01*
X263953989Y-88452257D01*
X263895000Y-88748816D01*
X263895000Y-89051184D01*
X263953989Y-89347743D01*
X263961138Y-89365001D01*
X251658862Y-89365001D01*
X251666011Y-89347743D01*
X251725000Y-89051184D01*
X251725000Y-88748816D01*
X251666011Y-88452257D01*
X251550299Y-88172905D01*
X251382312Y-87921495D01*
X251168505Y-87707688D01*
X251052237Y-87630000D01*
X251168505Y-87552312D01*
X251382312Y-87338505D01*
X251550299Y-87087095D01*
X251666011Y-86807743D01*
X251725000Y-86511184D01*
X251725000Y-86208816D01*
X251673731Y-85951070D01*
X254269804Y-83354999D01*
X263961138Y-83354999D01*
X263953989Y-83372257D01*
%TA.AperFunction,Conductor*%
D20*
G36*
X263953989Y-83372257D02*
G01*
X263895000Y-83668816D01*
X263895000Y-83971184D01*
X263953989Y-84267743D01*
X264069701Y-84547095D01*
X264237688Y-84798505D01*
X264451495Y-85012312D01*
X264567763Y-85090000D01*
X264451495Y-85167688D01*
X264237688Y-85381495D01*
X264069701Y-85632905D01*
X263953989Y-85912257D01*
X263895000Y-86208816D01*
X263895000Y-86511184D01*
X263953989Y-86807743D01*
X264069701Y-87087095D01*
X264237688Y-87338505D01*
X264451495Y-87552312D01*
X264567763Y-87630000D01*
X264451495Y-87707688D01*
X264237688Y-87921495D01*
X264069701Y-88172905D01*
X263953989Y-88452257D01*
X263895000Y-88748816D01*
X263895000Y-89051184D01*
X263953989Y-89347743D01*
X263961138Y-89365001D01*
X251658862Y-89365001D01*
X251666011Y-89347743D01*
X251725000Y-89051184D01*
X251725000Y-88748816D01*
X251666011Y-88452257D01*
X251550299Y-88172905D01*
X251382312Y-87921495D01*
X251168505Y-87707688D01*
X251052237Y-87630000D01*
X251168505Y-87552312D01*
X251382312Y-87338505D01*
X251550299Y-87087095D01*
X251666011Y-86807743D01*
X251725000Y-86511184D01*
X251725000Y-86208816D01*
X251673731Y-85951070D01*
X254269804Y-83354999D01*
X263961138Y-83354999D01*
X263953989Y-83372257D01*
G37*
%TD.AperFunction*%
D19*
X244903989Y-81727743D02*
X245019701Y-82007095D01*
X245187688Y-82258505D01*
X245401495Y-82472312D01*
X245555105Y-82574951D01*
X245495525Y-82755920D01*
X246380000Y-83640395D01*
X246394143Y-83626253D01*
X246573748Y-83805858D01*
X246559605Y-83820000D01*
X246573748Y-83834143D01*
X246394143Y-84013748D01*
X246380000Y-83999605D01*
X245495525Y-84884080D01*
X245555105Y-85065049D01*
X245401495Y-85167688D01*
X245187688Y-85381495D01*
X245019701Y-85632905D01*
X244903989Y-85912257D01*
X244865020Y-86108168D01*
X244865020Y-84069360D01*
X244881603Y-84185907D01*
X244981778Y-84471199D01*
X245061739Y-84620792D01*
X245315920Y-84704475D01*
X246200395Y-83820000D01*
X245315920Y-82935525D01*
X245061739Y-83019208D01*
X244930842Y-83291775D01*
X244865020Y-83548095D01*
X244865020Y-81531832D01*
X244903989Y-81727743D01*
%TA.AperFunction,Conductor*%
D20*
G36*
X244903989Y-81727743D02*
G01*
X245019701Y-82007095D01*
X245187688Y-82258505D01*
X245401495Y-82472312D01*
X245555105Y-82574951D01*
X245495525Y-82755920D01*
X246380000Y-83640395D01*
X246394143Y-83626253D01*
X246573748Y-83805858D01*
X246559605Y-83820000D01*
X246573748Y-83834143D01*
X246394143Y-84013748D01*
X246380000Y-83999605D01*
X245495525Y-84884080D01*
X245555105Y-85065049D01*
X245401495Y-85167688D01*
X245187688Y-85381495D01*
X245019701Y-85632905D01*
X244903989Y-85912257D01*
X244865020Y-86108168D01*
X244865020Y-84069360D01*
X244881603Y-84185907D01*
X244981778Y-84471199D01*
X245061739Y-84620792D01*
X245315920Y-84704475D01*
X246200395Y-83820000D01*
X245315920Y-82935525D01*
X245061739Y-83019208D01*
X244930842Y-83291775D01*
X244865020Y-83548095D01*
X244865020Y-81531832D01*
X244903989Y-81727743D01*
G37*
%TD.AperFunction*%
D19*
X263946269Y-60551070D02*
X263895000Y-60808816D01*
X263895000Y-61111184D01*
X263946269Y-61368930D01*
X263648998Y-61666201D01*
X263620000Y-61689999D01*
X263596202Y-61718997D01*
X263596201Y-61718998D01*
X263525026Y-61805724D01*
X263454454Y-61937754D01*
X263428296Y-62023989D01*
X263410998Y-62081014D01*
X263405218Y-62139701D01*
X263396324Y-62230000D01*
X263400001Y-62267332D01*
X263400000Y-69669777D01*
X263337743Y-69643989D01*
X263041184Y-69585000D01*
X262738816Y-69585000D01*
X262442257Y-69643989D01*
X262162905Y-69759701D01*
X261911495Y-69927688D01*
X261697688Y-70141495D01*
X261620000Y-70257763D01*
X261542312Y-70141495D01*
X261328505Y-69927688D01*
X261077095Y-69759701D01*
X260797743Y-69643989D01*
X260501184Y-69585000D01*
X260198816Y-69585000D01*
X259902257Y-69643989D01*
X259622905Y-69759701D01*
X259371495Y-69927688D01*
X259157688Y-70141495D01*
X259055049Y-70295105D01*
X258874080Y-70235525D01*
X257989605Y-71120000D01*
X258874080Y-72004475D01*
X259055049Y-71944895D01*
X259157688Y-72098505D01*
X259324183Y-72265000D01*
X258667834Y-72265000D01*
X258694475Y-72184080D01*
X257810000Y-71299605D01*
X256925525Y-72184080D01*
X256952166Y-72265000D01*
X256295817Y-72265000D01*
X256462312Y-72098505D01*
X256564951Y-71944895D01*
X256745920Y-72004475D01*
X257630395Y-71120000D01*
X257616253Y-71105858D01*
X257795858Y-70926253D01*
X257810000Y-70940395D01*
X258694475Y-70055920D01*
X258610792Y-69801739D01*
X258338225Y-69670842D01*
X258045358Y-69595635D01*
X257743447Y-69579009D01*
X257444093Y-69621603D01*
X257394799Y-69638912D01*
X257430001Y-69461938D01*
X257430001Y-69399800D01*
X258527099Y-68302702D01*
X259536903Y-68302702D01*
X259608486Y-68546671D01*
X259863996Y-68667571D01*
X260138184Y-68736300D01*
X260420512Y-68750217D01*
X260700130Y-68708787D01*
X260966292Y-68613603D01*
X261091514Y-68546671D01*
X261163097Y-68302702D01*
X260350000Y-67489605D01*
X259536903Y-68302702D01*
X258527099Y-68302702D01*
X259008758Y-67821043D01*
X259046397Y-67926292D01*
X259113329Y-68051514D01*
X259357298Y-68123097D01*
X260170395Y-67310000D01*
X260529605Y-67310000D01*
X261342702Y-68123097D01*
X261586671Y-68051514D01*
X261707571Y-67796004D01*
X261776300Y-67521816D01*
X261790217Y-67239488D01*
X261748787Y-66959870D01*
X261653603Y-66693708D01*
X261586671Y-66568486D01*
X261342702Y-66496903D01*
X260529605Y-67310000D01*
X260170395Y-67310000D01*
X260156253Y-67295858D01*
X260335858Y-67116253D01*
X260350000Y-67130395D01*
X261163097Y-66317298D01*
X261091514Y-66073329D01*
X260864085Y-65965716D01*
X262766004Y-64063798D01*
X262795001Y-64040001D01*
X262859569Y-63961325D01*
X262889974Y-63924277D01*
X262960546Y-63792247D01*
X263003336Y-63651184D01*
X263004003Y-63648986D01*
X263015000Y-63537333D01*
X263015000Y-63537324D01*
X263018676Y-63500001D01*
X263015000Y-63462678D01*
X263015000Y-59619801D01*
X263946269Y-60551070D01*
%TA.AperFunction,Conductor*%
D20*
G36*
X263946269Y-60551070D02*
G01*
X263895000Y-60808816D01*
X263895000Y-61111184D01*
X263946269Y-61368930D01*
X263648998Y-61666201D01*
X263620000Y-61689999D01*
X263596202Y-61718997D01*
X263596201Y-61718998D01*
X263525026Y-61805724D01*
X263454454Y-61937754D01*
X263428296Y-62023989D01*
X263410998Y-62081014D01*
X263405218Y-62139701D01*
X263396324Y-62230000D01*
X263400001Y-62267332D01*
X263400000Y-69669777D01*
X263337743Y-69643989D01*
X263041184Y-69585000D01*
X262738816Y-69585000D01*
X262442257Y-69643989D01*
X262162905Y-69759701D01*
X261911495Y-69927688D01*
X261697688Y-70141495D01*
X261620000Y-70257763D01*
X261542312Y-70141495D01*
X261328505Y-69927688D01*
X261077095Y-69759701D01*
X260797743Y-69643989D01*
X260501184Y-69585000D01*
X260198816Y-69585000D01*
X259902257Y-69643989D01*
X259622905Y-69759701D01*
X259371495Y-69927688D01*
X259157688Y-70141495D01*
X259055049Y-70295105D01*
X258874080Y-70235525D01*
X257989605Y-71120000D01*
X258874080Y-72004475D01*
X259055049Y-71944895D01*
X259157688Y-72098505D01*
X259324183Y-72265000D01*
X258667834Y-72265000D01*
X258694475Y-72184080D01*
X257810000Y-71299605D01*
X256925525Y-72184080D01*
X256952166Y-72265000D01*
X256295817Y-72265000D01*
X256462312Y-72098505D01*
X256564951Y-71944895D01*
X256745920Y-72004475D01*
X257630395Y-71120000D01*
X257616253Y-71105858D01*
X257795858Y-70926253D01*
X257810000Y-70940395D01*
X258694475Y-70055920D01*
X258610792Y-69801739D01*
X258338225Y-69670842D01*
X258045358Y-69595635D01*
X257743447Y-69579009D01*
X257444093Y-69621603D01*
X257394799Y-69638912D01*
X257430001Y-69461938D01*
X257430001Y-69399800D01*
X258527099Y-68302702D01*
X259536903Y-68302702D01*
X259608486Y-68546671D01*
X259863996Y-68667571D01*
X260138184Y-68736300D01*
X260420512Y-68750217D01*
X260700130Y-68708787D01*
X260966292Y-68613603D01*
X261091514Y-68546671D01*
X261163097Y-68302702D01*
X260350000Y-67489605D01*
X259536903Y-68302702D01*
X258527099Y-68302702D01*
X259008758Y-67821043D01*
X259046397Y-67926292D01*
X259113329Y-68051514D01*
X259357298Y-68123097D01*
X260170395Y-67310000D01*
X260529605Y-67310000D01*
X261342702Y-68123097D01*
X261586671Y-68051514D01*
X261707571Y-67796004D01*
X261776300Y-67521816D01*
X261790217Y-67239488D01*
X261748787Y-66959870D01*
X261653603Y-66693708D01*
X261586671Y-66568486D01*
X261342702Y-66496903D01*
X260529605Y-67310000D01*
X260170395Y-67310000D01*
X260156253Y-67295858D01*
X260335858Y-67116253D01*
X260350000Y-67130395D01*
X261163097Y-66317298D01*
X261091514Y-66073329D01*
X260864085Y-65965716D01*
X262766004Y-64063798D01*
X262795001Y-64040001D01*
X262859569Y-63961325D01*
X262889974Y-63924277D01*
X262960546Y-63792247D01*
X263003336Y-63651184D01*
X263004003Y-63648986D01*
X263015000Y-63537333D01*
X263015000Y-63537324D01*
X263018676Y-63500001D01*
X263015000Y-63462678D01*
X263015000Y-59619801D01*
X263946269Y-60551070D01*
G37*
%TD.AperFunction*%
D19*
X237013088Y-42212168D02*
X237328967Y-42275000D01*
X237651033Y-42275000D01*
X237966912Y-42212168D01*
X237981375Y-42206177D01*
X238251206Y-42476009D01*
X238275000Y-42505002D01*
X238303993Y-42528796D01*
X238303997Y-42528800D01*
X238323769Y-42545026D01*
X238390725Y-42599975D01*
X238522754Y-42670547D01*
X238666015Y-42714004D01*
X238777668Y-42725001D01*
X238777677Y-42725001D01*
X238815000Y-42728677D01*
X238852323Y-42725001D01*
X246755200Y-42725001D01*
X250261201Y-46231003D01*
X250284999Y-46260001D01*
X250313997Y-46283799D01*
X250400724Y-46354974D01*
X250532753Y-46425546D01*
X250676014Y-46469003D01*
X250825000Y-46483677D01*
X250862333Y-46480000D01*
X258376289Y-46480000D01*
X258420226Y-46523937D01*
X258589744Y-46637205D01*
X258778102Y-46715226D01*
X258978061Y-46755000D01*
X259181939Y-46755000D01*
X259381898Y-46715226D01*
X259570256Y-46637205D01*
X259739774Y-46523937D01*
X259883937Y-46379774D01*
X259997205Y-46210256D01*
X260075226Y-46021898D01*
X260115000Y-45821939D01*
X260115000Y-45618061D01*
X260075226Y-45418102D01*
X259997205Y-45229744D01*
X259883937Y-45060226D01*
X259739774Y-44916063D01*
X259570256Y-44802795D01*
X259381898Y-44724774D01*
X259181939Y-44685000D01*
X258978061Y-44685000D01*
X258778102Y-44724774D01*
X258589744Y-44802795D01*
X258420226Y-44916063D01*
X258376289Y-44960000D01*
X251139802Y-44960000D01*
X250116211Y-43936409D01*
X250152667Y-43940000D01*
X250152676Y-43940000D01*
X250189999Y-43943676D01*
X250227322Y-43940000D01*
X260035199Y-43940000D01*
X260860000Y-44764802D01*
X260860001Y-50731288D01*
X260816063Y-50775226D01*
X260702795Y-50944744D01*
X260624774Y-51133102D01*
X260585000Y-51333061D01*
X260585000Y-51536939D01*
X260624774Y-51736898D01*
X260702795Y-51925256D01*
X260816063Y-52094774D01*
X260960226Y-52238937D01*
X261129744Y-52352205D01*
X261318102Y-52430226D01*
X261518061Y-52470000D01*
X261694097Y-52470000D01*
X261595226Y-52536063D01*
X261451063Y-52680226D01*
X261337795Y-52849744D01*
X261259774Y-53038102D01*
X261220000Y-53238061D01*
X261220000Y-53441939D01*
X261259774Y-53641898D01*
X261337795Y-53830256D01*
X261451063Y-53999774D01*
X261495001Y-54043712D01*
X261495000Y-61360683D01*
X261464637Y-61315241D01*
X261264759Y-61115363D01*
X261110000Y-61011957D01*
X261110000Y-60997322D01*
X261113676Y-60959999D01*
X261110000Y-60922676D01*
X261110000Y-60922667D01*
X261099003Y-60811014D01*
X261055546Y-60667753D01*
X260984974Y-60535724D01*
X260890001Y-60419999D01*
X260861003Y-60396201D01*
X259295001Y-58830200D01*
X259295001Y-49688712D01*
X259338938Y-49644775D01*
X259452206Y-49475257D01*
X259530227Y-49286899D01*
X259570001Y-49086940D01*
X259570001Y-48883062D01*
X259530227Y-48683103D01*
X259452206Y-48494745D01*
X259338938Y-48325227D01*
X259194775Y-48181064D01*
X259025257Y-48067796D01*
X258836899Y-47989775D01*
X258636940Y-47950001D01*
X258433062Y-47950001D01*
X258233103Y-47989775D01*
X258044745Y-48067796D01*
X257875227Y-48181064D01*
X257731064Y-48325227D01*
X257617796Y-48494745D01*
X257539775Y-48683103D01*
X257500001Y-48883062D01*
X257500001Y-49086940D01*
X257516159Y-49168171D01*
X257508102Y-49169774D01*
X257319744Y-49247795D01*
X257150226Y-49361063D01*
X257006063Y-49505226D01*
X256892795Y-49674744D01*
X256814774Y-49863102D01*
X256775000Y-50063061D01*
X256775000Y-50125199D01*
X256663998Y-50236201D01*
X256635000Y-50259999D01*
X256611202Y-50288997D01*
X256611201Y-50288998D01*
X256540026Y-50375724D01*
X256469454Y-50507754D01*
X256444726Y-50589276D01*
X256425998Y-50651014D01*
X256422552Y-50685998D01*
X256411324Y-50800000D01*
X256415001Y-50837332D01*
X256415000Y-54541289D01*
X256371063Y-54585226D01*
X256257795Y-54754744D01*
X256179774Y-54943102D01*
X256140000Y-55143061D01*
X256140000Y-55346939D01*
X256179774Y-55546898D01*
X256257795Y-55735256D01*
X256371063Y-55904774D01*
X256515226Y-56048937D01*
X256684744Y-56162205D01*
X256873102Y-56240226D01*
X257073061Y-56280000D01*
X257276939Y-56280000D01*
X257476898Y-56240226D01*
X257665256Y-56162205D01*
X257775001Y-56088876D01*
X257775001Y-59107679D01*
X257771325Y-59145001D01*
X257775001Y-59182323D01*
X257775001Y-59182333D01*
X257785998Y-59293986D01*
X257817703Y-59398505D01*
X257829455Y-59437247D01*
X257900027Y-59569277D01*
X257924996Y-59599701D01*
X257995000Y-59685002D01*
X258024004Y-59708805D01*
X259432901Y-61117703D01*
X259235363Y-61315241D01*
X259078320Y-61550273D01*
X258970147Y-61811426D01*
X258915000Y-62088665D01*
X258915000Y-62371335D01*
X258970147Y-62648574D01*
X259078320Y-62909727D01*
X259235363Y-63144759D01*
X259435241Y-63344637D01*
X259670273Y-63501680D01*
X259931426Y-63609853D01*
X260208665Y-63665000D01*
X260491335Y-63665000D01*
X260768574Y-63609853D01*
X261029727Y-63501680D01*
X261264759Y-63344637D01*
X261464637Y-63144759D01*
X261495000Y-63099317D01*
X261495000Y-63185198D01*
X256355200Y-68324999D01*
X256293348Y-68324999D01*
X256378977Y-68239370D01*
X256262704Y-68123097D01*
X256506671Y-68051514D01*
X256627571Y-67796004D01*
X256696300Y-67521816D01*
X256710217Y-67239488D01*
X256668787Y-66959870D01*
X256573603Y-66693708D01*
X256506671Y-66568486D01*
X256262702Y-66496903D01*
X255449605Y-67310000D01*
X255463748Y-67324143D01*
X255284143Y-67503748D01*
X255270000Y-67489605D01*
X254456903Y-68302702D01*
X254528486Y-68546671D01*
X254783996Y-68667571D01*
X255058184Y-68736300D01*
X255340512Y-68750217D01*
X255581521Y-68714508D01*
X255477796Y-68869743D01*
X255399775Y-69058101D01*
X255360001Y-69258060D01*
X255360001Y-69461938D01*
X255384479Y-69585000D01*
X255118816Y-69585000D01*
X254822257Y-69643989D01*
X254542905Y-69759701D01*
X254291495Y-69927688D01*
X254077688Y-70141495D01*
X254000000Y-70257763D01*
X253922312Y-70141495D01*
X253708505Y-69927688D01*
X253457095Y-69759701D01*
X253177743Y-69643989D01*
X252881184Y-69585000D01*
X252578816Y-69585000D01*
X252282257Y-69643989D01*
X252002905Y-69759701D01*
X251751495Y-69927688D01*
X251537688Y-70141495D01*
X251460000Y-70257763D01*
X251382312Y-70141495D01*
X251168505Y-69927688D01*
X250917095Y-69759701D01*
X250637743Y-69643989D01*
X250341184Y-69585000D01*
X250038816Y-69585000D01*
X249742257Y-69643989D01*
X249724999Y-69651138D01*
X249724999Y-68670622D01*
X249771426Y-68689853D01*
X250048665Y-68745000D01*
X250331335Y-68745000D01*
X250608574Y-68689853D01*
X250869727Y-68581680D01*
X251104759Y-68424637D01*
X251304637Y-68224759D01*
X251461680Y-67989727D01*
X251569853Y-67728574D01*
X251625000Y-67451335D01*
X251625000Y-67380512D01*
X253829783Y-67380512D01*
X253871213Y-67660130D01*
X253966397Y-67926292D01*
X254033329Y-68051514D01*
X254277298Y-68123097D01*
X255090395Y-67310000D01*
X254277298Y-66496903D01*
X254033329Y-66568486D01*
X253912429Y-66823996D01*
X253843700Y-67098184D01*
X253829783Y-67380512D01*
X251625000Y-67380512D01*
X251625000Y-67168665D01*
X251569853Y-66891426D01*
X251461680Y-66630273D01*
X251304637Y-66395241D01*
X251226694Y-66317298D01*
X254456903Y-66317298D01*
X255270000Y-67130395D01*
X256083097Y-66317298D01*
X256011514Y-66073329D01*
X255756004Y-65952429D01*
X255481816Y-65883700D01*
X255199488Y-65869783D01*
X254919870Y-65911213D01*
X254653708Y-66006397D01*
X254528486Y-66073329D01*
X254456903Y-66317298D01*
X251226694Y-66317298D01*
X251104759Y-66195363D01*
X250869727Y-66038320D01*
X250608574Y-65930147D01*
X250331335Y-65875000D01*
X250048665Y-65875000D01*
X249771426Y-65930147D01*
X249724999Y-65949378D01*
X249724999Y-63590622D01*
X249771426Y-63609853D01*
X250048665Y-63665000D01*
X250331335Y-63665000D01*
X250608574Y-63609853D01*
X250869727Y-63501680D01*
X251104759Y-63344637D01*
X251304637Y-63144759D01*
X251461680Y-62909727D01*
X251569853Y-62648574D01*
X251625000Y-62371335D01*
X251625000Y-62088665D01*
X253835000Y-62088665D01*
X253835000Y-62371335D01*
X253890147Y-62648574D01*
X253998320Y-62909727D01*
X254155363Y-63144759D01*
X254355241Y-63344637D01*
X254590273Y-63501680D01*
X254851426Y-63609853D01*
X255128665Y-63665000D01*
X255411335Y-63665000D01*
X255688574Y-63609853D01*
X255949727Y-63501680D01*
X256184759Y-63344637D01*
X256384637Y-63144759D01*
X256541680Y-62909727D01*
X256649853Y-62648574D01*
X256705000Y-62371335D01*
X256705000Y-62088665D01*
X256649853Y-61811426D01*
X256541680Y-61550273D01*
X256384637Y-61315241D01*
X256184759Y-61115363D01*
X255949727Y-60958320D01*
X255688574Y-60850147D01*
X255411335Y-60795000D01*
X255128665Y-60795000D01*
X254851426Y-60850147D01*
X254590273Y-60958320D01*
X254355241Y-61115363D01*
X254155363Y-61315241D01*
X253998320Y-61550273D01*
X253890147Y-61811426D01*
X253835000Y-62088665D01*
X251625000Y-62088665D01*
X251569853Y-61811426D01*
X251461680Y-61550273D01*
X251304637Y-61315241D01*
X251104759Y-61115363D01*
X250869727Y-60958320D01*
X250608574Y-60850147D01*
X250331335Y-60795000D01*
X250048665Y-60795000D01*
X249771426Y-60850147D01*
X249724999Y-60869378D01*
X249724999Y-53363712D01*
X249868936Y-53219775D01*
X249982204Y-53050257D01*
X250060225Y-52861899D01*
X250099999Y-52661940D01*
X250099999Y-52470000D01*
X250291939Y-52470000D01*
X250491898Y-52430226D01*
X250680256Y-52352205D01*
X250849774Y-52238937D01*
X250993937Y-52094774D01*
X251107205Y-51925256D01*
X251185226Y-51736898D01*
X251225000Y-51536939D01*
X251225000Y-51333061D01*
X251185226Y-51133102D01*
X251107205Y-50944744D01*
X250993937Y-50775226D01*
X250849774Y-50631063D01*
X250680256Y-50517795D01*
X250491898Y-50439774D01*
X250291939Y-50400000D01*
X250088061Y-50400000D01*
X249888102Y-50439774D01*
X249699744Y-50517795D01*
X249530226Y-50631063D01*
X249486289Y-50675000D01*
X249154321Y-50675000D01*
X249116998Y-50671324D01*
X249079675Y-50675000D01*
X249079665Y-50675000D01*
X248968012Y-50685997D01*
X248824751Y-50729454D01*
X248692722Y-50800026D01*
X248576997Y-50894999D01*
X248553199Y-50923998D01*
X247773998Y-51703199D01*
X247745000Y-51726997D01*
X247721202Y-51755995D01*
X247721201Y-51755996D01*
X247650026Y-51842722D01*
X247579454Y-51974752D01*
X247535998Y-52118013D01*
X247521324Y-52266998D01*
X247525001Y-52304331D01*
X247525001Y-52470684D01*
X247494637Y-52425241D01*
X247294759Y-52225363D01*
X247059727Y-52068320D01*
X246798574Y-51960147D01*
X246521335Y-51905000D01*
X246238665Y-51905000D01*
X245961426Y-51960147D01*
X245700273Y-52068320D01*
X245465241Y-52225363D01*
X245265363Y-52425241D01*
X245108320Y-52660273D01*
X245000147Y-52921426D01*
X244945000Y-53198665D01*
X244945000Y-53481335D01*
X245000147Y-53758574D01*
X245108320Y-54019727D01*
X245265363Y-54254759D01*
X245465241Y-54454637D01*
X245700273Y-54611680D01*
X245961426Y-54719853D01*
X246238665Y-54775000D01*
X246521335Y-54775000D01*
X246798574Y-54719853D01*
X247059727Y-54611680D01*
X247294759Y-54454637D01*
X247494637Y-54254759D01*
X247525001Y-54209316D01*
X247525001Y-56825197D01*
X240427016Y-49727213D01*
X240479906Y-49711169D01*
X240665001Y-49612234D01*
X240850095Y-49711169D01*
X241070641Y-49778071D01*
X241300000Y-49800661D01*
X241529360Y-49778071D01*
X241749906Y-49711169D01*
X241953162Y-49602526D01*
X242131318Y-49456318D01*
X242277526Y-49278162D01*
X242386169Y-49074906D01*
X242453071Y-48854359D01*
X242470000Y-48682476D01*
X242470000Y-47837523D01*
X242453071Y-47665640D01*
X242386169Y-47445094D01*
X242277526Y-47241838D01*
X242131318Y-47063682D01*
X241953161Y-46917474D01*
X241749905Y-46808831D01*
X241529359Y-46741929D01*
X241300000Y-46719339D01*
X241070640Y-46741929D01*
X240850094Y-46808831D01*
X240665000Y-46907766D01*
X240479905Y-46808831D01*
X240259359Y-46741929D01*
X240030000Y-46719339D01*
X239800640Y-46741929D01*
X239580094Y-46808831D01*
X239392404Y-46909154D01*
X239304421Y-46851623D01*
X239067383Y-46766100D01*
X238887000Y-46891756D01*
X238887000Y-47632441D01*
X238876929Y-47665641D01*
X238860000Y-47837524D01*
X238860000Y-48407000D01*
X238663072Y-48407000D01*
X238663072Y-47360000D01*
X238650812Y-47235518D01*
X238633000Y-47176800D01*
X238633000Y-46891756D01*
X238452617Y-46766100D01*
X238338190Y-46807385D01*
X238269180Y-46770498D01*
X238149482Y-46734188D01*
X238025000Y-46721928D01*
X236955000Y-46721928D01*
X236924999Y-46724883D01*
X236924999Y-42175680D01*
X237013088Y-42212168D01*
%TA.AperFunction,Conductor*%
D20*
G36*
X237013088Y-42212168D02*
G01*
X237328967Y-42275000D01*
X237651033Y-42275000D01*
X237966912Y-42212168D01*
X237981375Y-42206177D01*
X238251206Y-42476009D01*
X238275000Y-42505002D01*
X238303993Y-42528796D01*
X238303997Y-42528800D01*
X238323769Y-42545026D01*
X238390725Y-42599975D01*
X238522754Y-42670547D01*
X238666015Y-42714004D01*
X238777668Y-42725001D01*
X238777677Y-42725001D01*
X238815000Y-42728677D01*
X238852323Y-42725001D01*
X246755200Y-42725001D01*
X250261201Y-46231003D01*
X250284999Y-46260001D01*
X250313997Y-46283799D01*
X250400724Y-46354974D01*
X250532753Y-46425546D01*
X250676014Y-46469003D01*
X250825000Y-46483677D01*
X250862333Y-46480000D01*
X258376289Y-46480000D01*
X258420226Y-46523937D01*
X258589744Y-46637205D01*
X258778102Y-46715226D01*
X258978061Y-46755000D01*
X259181939Y-46755000D01*
X259381898Y-46715226D01*
X259570256Y-46637205D01*
X259739774Y-46523937D01*
X259883937Y-46379774D01*
X259997205Y-46210256D01*
X260075226Y-46021898D01*
X260115000Y-45821939D01*
X260115000Y-45618061D01*
X260075226Y-45418102D01*
X259997205Y-45229744D01*
X259883937Y-45060226D01*
X259739774Y-44916063D01*
X259570256Y-44802795D01*
X259381898Y-44724774D01*
X259181939Y-44685000D01*
X258978061Y-44685000D01*
X258778102Y-44724774D01*
X258589744Y-44802795D01*
X258420226Y-44916063D01*
X258376289Y-44960000D01*
X251139802Y-44960000D01*
X250116211Y-43936409D01*
X250152667Y-43940000D01*
X250152676Y-43940000D01*
X250189999Y-43943676D01*
X250227322Y-43940000D01*
X260035199Y-43940000D01*
X260860000Y-44764802D01*
X260860001Y-50731288D01*
X260816063Y-50775226D01*
X260702795Y-50944744D01*
X260624774Y-51133102D01*
X260585000Y-51333061D01*
X260585000Y-51536939D01*
X260624774Y-51736898D01*
X260702795Y-51925256D01*
X260816063Y-52094774D01*
X260960226Y-52238937D01*
X261129744Y-52352205D01*
X261318102Y-52430226D01*
X261518061Y-52470000D01*
X261694097Y-52470000D01*
X261595226Y-52536063D01*
X261451063Y-52680226D01*
X261337795Y-52849744D01*
X261259774Y-53038102D01*
X261220000Y-53238061D01*
X261220000Y-53441939D01*
X261259774Y-53641898D01*
X261337795Y-53830256D01*
X261451063Y-53999774D01*
X261495001Y-54043712D01*
X261495000Y-61360683D01*
X261464637Y-61315241D01*
X261264759Y-61115363D01*
X261110000Y-61011957D01*
X261110000Y-60997322D01*
X261113676Y-60959999D01*
X261110000Y-60922676D01*
X261110000Y-60922667D01*
X261099003Y-60811014D01*
X261055546Y-60667753D01*
X260984974Y-60535724D01*
X260890001Y-60419999D01*
X260861003Y-60396201D01*
X259295001Y-58830200D01*
X259295001Y-49688712D01*
X259338938Y-49644775D01*
X259452206Y-49475257D01*
X259530227Y-49286899D01*
X259570001Y-49086940D01*
X259570001Y-48883062D01*
X259530227Y-48683103D01*
X259452206Y-48494745D01*
X259338938Y-48325227D01*
X259194775Y-48181064D01*
X259025257Y-48067796D01*
X258836899Y-47989775D01*
X258636940Y-47950001D01*
X258433062Y-47950001D01*
X258233103Y-47989775D01*
X258044745Y-48067796D01*
X257875227Y-48181064D01*
X257731064Y-48325227D01*
X257617796Y-48494745D01*
X257539775Y-48683103D01*
X257500001Y-48883062D01*
X257500001Y-49086940D01*
X257516159Y-49168171D01*
X257508102Y-49169774D01*
X257319744Y-49247795D01*
X257150226Y-49361063D01*
X257006063Y-49505226D01*
X256892795Y-49674744D01*
X256814774Y-49863102D01*
X256775000Y-50063061D01*
X256775000Y-50125199D01*
X256663998Y-50236201D01*
X256635000Y-50259999D01*
X256611202Y-50288997D01*
X256611201Y-50288998D01*
X256540026Y-50375724D01*
X256469454Y-50507754D01*
X256444726Y-50589276D01*
X256425998Y-50651014D01*
X256422552Y-50685998D01*
X256411324Y-50800000D01*
X256415001Y-50837332D01*
X256415000Y-54541289D01*
X256371063Y-54585226D01*
X256257795Y-54754744D01*
X256179774Y-54943102D01*
X256140000Y-55143061D01*
X256140000Y-55346939D01*
X256179774Y-55546898D01*
X256257795Y-55735256D01*
X256371063Y-55904774D01*
X256515226Y-56048937D01*
X256684744Y-56162205D01*
X256873102Y-56240226D01*
X257073061Y-56280000D01*
X257276939Y-56280000D01*
X257476898Y-56240226D01*
X257665256Y-56162205D01*
X257775001Y-56088876D01*
X257775001Y-59107679D01*
X257771325Y-59145001D01*
X257775001Y-59182323D01*
X257775001Y-59182333D01*
X257785998Y-59293986D01*
X257817703Y-59398505D01*
X257829455Y-59437247D01*
X257900027Y-59569277D01*
X257924996Y-59599701D01*
X257995000Y-59685002D01*
X258024004Y-59708805D01*
X259432901Y-61117703D01*
X259235363Y-61315241D01*
X259078320Y-61550273D01*
X258970147Y-61811426D01*
X258915000Y-62088665D01*
X258915000Y-62371335D01*
X258970147Y-62648574D01*
X259078320Y-62909727D01*
X259235363Y-63144759D01*
X259435241Y-63344637D01*
X259670273Y-63501680D01*
X259931426Y-63609853D01*
X260208665Y-63665000D01*
X260491335Y-63665000D01*
X260768574Y-63609853D01*
X261029727Y-63501680D01*
X261264759Y-63344637D01*
X261464637Y-63144759D01*
X261495000Y-63099317D01*
X261495000Y-63185198D01*
X256355200Y-68324999D01*
X256293348Y-68324999D01*
X256378977Y-68239370D01*
X256262704Y-68123097D01*
X256506671Y-68051514D01*
X256627571Y-67796004D01*
X256696300Y-67521816D01*
X256710217Y-67239488D01*
X256668787Y-66959870D01*
X256573603Y-66693708D01*
X256506671Y-66568486D01*
X256262702Y-66496903D01*
X255449605Y-67310000D01*
X255463748Y-67324143D01*
X255284143Y-67503748D01*
X255270000Y-67489605D01*
X254456903Y-68302702D01*
X254528486Y-68546671D01*
X254783996Y-68667571D01*
X255058184Y-68736300D01*
X255340512Y-68750217D01*
X255581521Y-68714508D01*
X255477796Y-68869743D01*
X255399775Y-69058101D01*
X255360001Y-69258060D01*
X255360001Y-69461938D01*
X255384479Y-69585000D01*
X255118816Y-69585000D01*
X254822257Y-69643989D01*
X254542905Y-69759701D01*
X254291495Y-69927688D01*
X254077688Y-70141495D01*
X254000000Y-70257763D01*
X253922312Y-70141495D01*
X253708505Y-69927688D01*
X253457095Y-69759701D01*
X253177743Y-69643989D01*
X252881184Y-69585000D01*
X252578816Y-69585000D01*
X252282257Y-69643989D01*
X252002905Y-69759701D01*
X251751495Y-69927688D01*
X251537688Y-70141495D01*
X251460000Y-70257763D01*
X251382312Y-70141495D01*
X251168505Y-69927688D01*
X250917095Y-69759701D01*
X250637743Y-69643989D01*
X250341184Y-69585000D01*
X250038816Y-69585000D01*
X249742257Y-69643989D01*
X249724999Y-69651138D01*
X249724999Y-68670622D01*
X249771426Y-68689853D01*
X250048665Y-68745000D01*
X250331335Y-68745000D01*
X250608574Y-68689853D01*
X250869727Y-68581680D01*
X251104759Y-68424637D01*
X251304637Y-68224759D01*
X251461680Y-67989727D01*
X251569853Y-67728574D01*
X251625000Y-67451335D01*
X251625000Y-67380512D01*
X253829783Y-67380512D01*
X253871213Y-67660130D01*
X253966397Y-67926292D01*
X254033329Y-68051514D01*
X254277298Y-68123097D01*
X255090395Y-67310000D01*
X254277298Y-66496903D01*
X254033329Y-66568486D01*
X253912429Y-66823996D01*
X253843700Y-67098184D01*
X253829783Y-67380512D01*
X251625000Y-67380512D01*
X251625000Y-67168665D01*
X251569853Y-66891426D01*
X251461680Y-66630273D01*
X251304637Y-66395241D01*
X251226694Y-66317298D01*
X254456903Y-66317298D01*
X255270000Y-67130395D01*
X256083097Y-66317298D01*
X256011514Y-66073329D01*
X255756004Y-65952429D01*
X255481816Y-65883700D01*
X255199488Y-65869783D01*
X254919870Y-65911213D01*
X254653708Y-66006397D01*
X254528486Y-66073329D01*
X254456903Y-66317298D01*
X251226694Y-66317298D01*
X251104759Y-66195363D01*
X250869727Y-66038320D01*
X250608574Y-65930147D01*
X250331335Y-65875000D01*
X250048665Y-65875000D01*
X249771426Y-65930147D01*
X249724999Y-65949378D01*
X249724999Y-63590622D01*
X249771426Y-63609853D01*
X250048665Y-63665000D01*
X250331335Y-63665000D01*
X250608574Y-63609853D01*
X250869727Y-63501680D01*
X251104759Y-63344637D01*
X251304637Y-63144759D01*
X251461680Y-62909727D01*
X251569853Y-62648574D01*
X251625000Y-62371335D01*
X251625000Y-62088665D01*
X253835000Y-62088665D01*
X253835000Y-62371335D01*
X253890147Y-62648574D01*
X253998320Y-62909727D01*
X254155363Y-63144759D01*
X254355241Y-63344637D01*
X254590273Y-63501680D01*
X254851426Y-63609853D01*
X255128665Y-63665000D01*
X255411335Y-63665000D01*
X255688574Y-63609853D01*
X255949727Y-63501680D01*
X256184759Y-63344637D01*
X256384637Y-63144759D01*
X256541680Y-62909727D01*
X256649853Y-62648574D01*
X256705000Y-62371335D01*
X256705000Y-62088665D01*
X256649853Y-61811426D01*
X256541680Y-61550273D01*
X256384637Y-61315241D01*
X256184759Y-61115363D01*
X255949727Y-60958320D01*
X255688574Y-60850147D01*
X255411335Y-60795000D01*
X255128665Y-60795000D01*
X254851426Y-60850147D01*
X254590273Y-60958320D01*
X254355241Y-61115363D01*
X254155363Y-61315241D01*
X253998320Y-61550273D01*
X253890147Y-61811426D01*
X253835000Y-62088665D01*
X251625000Y-62088665D01*
X251569853Y-61811426D01*
X251461680Y-61550273D01*
X251304637Y-61315241D01*
X251104759Y-61115363D01*
X250869727Y-60958320D01*
X250608574Y-60850147D01*
X250331335Y-60795000D01*
X250048665Y-60795000D01*
X249771426Y-60850147D01*
X249724999Y-60869378D01*
X249724999Y-53363712D01*
X249868936Y-53219775D01*
X249982204Y-53050257D01*
X250060225Y-52861899D01*
X250099999Y-52661940D01*
X250099999Y-52470000D01*
X250291939Y-52470000D01*
X250491898Y-52430226D01*
X250680256Y-52352205D01*
X250849774Y-52238937D01*
X250993937Y-52094774D01*
X251107205Y-51925256D01*
X251185226Y-51736898D01*
X251225000Y-51536939D01*
X251225000Y-51333061D01*
X251185226Y-51133102D01*
X251107205Y-50944744D01*
X250993937Y-50775226D01*
X250849774Y-50631063D01*
X250680256Y-50517795D01*
X250491898Y-50439774D01*
X250291939Y-50400000D01*
X250088061Y-50400000D01*
X249888102Y-50439774D01*
X249699744Y-50517795D01*
X249530226Y-50631063D01*
X249486289Y-50675000D01*
X249154321Y-50675000D01*
X249116998Y-50671324D01*
X249079675Y-50675000D01*
X249079665Y-50675000D01*
X248968012Y-50685997D01*
X248824751Y-50729454D01*
X248692722Y-50800026D01*
X248576997Y-50894999D01*
X248553199Y-50923998D01*
X247773998Y-51703199D01*
X247745000Y-51726997D01*
X247721202Y-51755995D01*
X247721201Y-51755996D01*
X247650026Y-51842722D01*
X247579454Y-51974752D01*
X247535998Y-52118013D01*
X247521324Y-52266998D01*
X247525001Y-52304331D01*
X247525001Y-52470684D01*
X247494637Y-52425241D01*
X247294759Y-52225363D01*
X247059727Y-52068320D01*
X246798574Y-51960147D01*
X246521335Y-51905000D01*
X246238665Y-51905000D01*
X245961426Y-51960147D01*
X245700273Y-52068320D01*
X245465241Y-52225363D01*
X245265363Y-52425241D01*
X245108320Y-52660273D01*
X245000147Y-52921426D01*
X244945000Y-53198665D01*
X244945000Y-53481335D01*
X245000147Y-53758574D01*
X245108320Y-54019727D01*
X245265363Y-54254759D01*
X245465241Y-54454637D01*
X245700273Y-54611680D01*
X245961426Y-54719853D01*
X246238665Y-54775000D01*
X246521335Y-54775000D01*
X246798574Y-54719853D01*
X247059727Y-54611680D01*
X247294759Y-54454637D01*
X247494637Y-54254759D01*
X247525001Y-54209316D01*
X247525001Y-56825197D01*
X240427016Y-49727213D01*
X240479906Y-49711169D01*
X240665001Y-49612234D01*
X240850095Y-49711169D01*
X241070641Y-49778071D01*
X241300000Y-49800661D01*
X241529360Y-49778071D01*
X241749906Y-49711169D01*
X241953162Y-49602526D01*
X242131318Y-49456318D01*
X242277526Y-49278162D01*
X242386169Y-49074906D01*
X242453071Y-48854359D01*
X242470000Y-48682476D01*
X242470000Y-47837523D01*
X242453071Y-47665640D01*
X242386169Y-47445094D01*
X242277526Y-47241838D01*
X242131318Y-47063682D01*
X241953161Y-46917474D01*
X241749905Y-46808831D01*
X241529359Y-46741929D01*
X241300000Y-46719339D01*
X241070640Y-46741929D01*
X240850094Y-46808831D01*
X240665000Y-46907766D01*
X240479905Y-46808831D01*
X240259359Y-46741929D01*
X240030000Y-46719339D01*
X239800640Y-46741929D01*
X239580094Y-46808831D01*
X239392404Y-46909154D01*
X239304421Y-46851623D01*
X239067383Y-46766100D01*
X238887000Y-46891756D01*
X238887000Y-47632441D01*
X238876929Y-47665641D01*
X238860000Y-47837524D01*
X238860000Y-48407000D01*
X238663072Y-48407000D01*
X238663072Y-47360000D01*
X238650812Y-47235518D01*
X238633000Y-47176800D01*
X238633000Y-46891756D01*
X238452617Y-46766100D01*
X238338190Y-46807385D01*
X238269180Y-46770498D01*
X238149482Y-46734188D01*
X238025000Y-46721928D01*
X236955000Y-46721928D01*
X236924999Y-46724883D01*
X236924999Y-42175680D01*
X237013088Y-42212168D01*
G37*
%TD.AperFunction*%
D19*
X245303748Y-67295858D02*
X245289605Y-67310000D01*
X245303748Y-67324143D01*
X245124143Y-67503748D01*
X245110000Y-67489605D01*
X245095858Y-67503748D01*
X244916253Y-67324143D01*
X244930395Y-67310000D01*
X244916253Y-67295858D01*
X245095858Y-67116253D01*
X245110000Y-67130395D01*
X245124143Y-67116253D01*
X245303748Y-67295858D01*
%TA.AperFunction,Conductor*%
D20*
G36*
X245303748Y-67295858D02*
G01*
X245289605Y-67310000D01*
X245303748Y-67324143D01*
X245124143Y-67503748D01*
X245110000Y-67489605D01*
X245095858Y-67503748D01*
X244916253Y-67324143D01*
X244930395Y-67310000D01*
X244916253Y-67295858D01*
X245095858Y-67116253D01*
X245110000Y-67130395D01*
X245124143Y-67116253D01*
X245303748Y-67295858D01*
G37*
%TD.AperFunction*%
D19*
X266296446Y-38836098D02*
X266519081Y-38903315D01*
X266724419Y-39012495D01*
X266904639Y-39159479D01*
X267052877Y-39338668D01*
X267163489Y-39543240D01*
X267232258Y-39765397D01*
X267260000Y-40029344D01*
X267260000Y-49015198D01*
X266913731Y-48668930D01*
X266965000Y-48411184D01*
X266965000Y-48108816D01*
X266906011Y-47812257D01*
X266790299Y-47532905D01*
X266622312Y-47281495D01*
X266408505Y-47067688D01*
X266292237Y-46990000D01*
X266408505Y-46912312D01*
X266622312Y-46698505D01*
X266790299Y-46447095D01*
X266906011Y-46167743D01*
X266965000Y-45871184D01*
X266965000Y-45568816D01*
X266906011Y-45272257D01*
X266790299Y-44992905D01*
X266622312Y-44741495D01*
X266408505Y-44527688D01*
X266254895Y-44425049D01*
X266314475Y-44244080D01*
X265430000Y-43359605D01*
X264545525Y-44244080D01*
X264605105Y-44425049D01*
X264451495Y-44527688D01*
X264237688Y-44741495D01*
X264069701Y-44992905D01*
X263953989Y-45272257D01*
X263895000Y-45568816D01*
X263895000Y-45871184D01*
X263953989Y-46167743D01*
X264069701Y-46447095D01*
X264237688Y-46698505D01*
X264451495Y-46912312D01*
X264567763Y-46990000D01*
X264451495Y-47067688D01*
X264237688Y-47281495D01*
X264069701Y-47532905D01*
X263953989Y-47812257D01*
X263895000Y-48108816D01*
X263895000Y-48411184D01*
X263953989Y-48707743D01*
X264069701Y-48987095D01*
X264237688Y-49238505D01*
X264451495Y-49452312D01*
X264567763Y-49530000D01*
X264451495Y-49607688D01*
X264237688Y-49821495D01*
X264069701Y-50072905D01*
X263953989Y-50352257D01*
X263895000Y-50648816D01*
X263895000Y-50951184D01*
X263953989Y-51247743D01*
X264069701Y-51527095D01*
X264237688Y-51778505D01*
X264451495Y-51992312D01*
X264567763Y-52070000D01*
X264451495Y-52147688D01*
X264237688Y-52361495D01*
X264218499Y-52390214D01*
X264159974Y-52280724D01*
X264065001Y-52164999D01*
X264036004Y-52141202D01*
X262818804Y-50924003D01*
X262795001Y-50894999D01*
X262679276Y-50800026D01*
X262547247Y-50729454D01*
X262403986Y-50685997D01*
X262380000Y-50683635D01*
X262380000Y-44487322D01*
X262383676Y-44449999D01*
X262380000Y-44412676D01*
X262380000Y-44412667D01*
X262369003Y-44301014D01*
X262325546Y-44157753D01*
X262254974Y-44025724D01*
X262160001Y-43909999D01*
X262131004Y-43886202D01*
X261491355Y-43246553D01*
X263889009Y-43246553D01*
X263931603Y-43545907D01*
X264031778Y-43831199D01*
X264111739Y-43980792D01*
X264365920Y-44064475D01*
X265250395Y-43180000D01*
X265609605Y-43180000D01*
X266494080Y-44064475D01*
X266748261Y-43980792D01*
X266879158Y-43708225D01*
X266954365Y-43415358D01*
X266970991Y-43113447D01*
X266928397Y-42814093D01*
X266828222Y-42528801D01*
X266748261Y-42379208D01*
X266494080Y-42295525D01*
X265609605Y-43180000D01*
X265250395Y-43180000D01*
X264365920Y-42295525D01*
X264111739Y-42379208D01*
X263980842Y-42651775D01*
X263905635Y-42944642D01*
X263889009Y-43246553D01*
X261491355Y-43246553D01*
X260913804Y-42669003D01*
X260890001Y-42639999D01*
X260774276Y-42545026D01*
X260642247Y-42474454D01*
X260498986Y-42430997D01*
X260387333Y-42420000D01*
X260387322Y-42420000D01*
X260350000Y-42416324D01*
X260312678Y-42420000D01*
X250504803Y-42420000D01*
X250358348Y-42273545D01*
X250666912Y-42212168D01*
X250964463Y-42088918D01*
X251232252Y-41909987D01*
X251459987Y-41682252D01*
X251460000Y-41682233D01*
X251460013Y-41682252D01*
X251687748Y-41909987D01*
X251955537Y-42088918D01*
X252253088Y-42212168D01*
X252568967Y-42275000D01*
X252891033Y-42275000D01*
X253206912Y-42212168D01*
X253504463Y-42088918D01*
X253772252Y-41909987D01*
X253999987Y-41682252D01*
X254000000Y-41682233D01*
X254000013Y-41682252D01*
X254227748Y-41909987D01*
X254495537Y-42088918D01*
X254793088Y-42212168D01*
X255108967Y-42275000D01*
X255431033Y-42275000D01*
X255746912Y-42212168D01*
X256044463Y-42088918D01*
X256312252Y-41909987D01*
X256539987Y-41682252D01*
X256540000Y-41682233D01*
X256540013Y-41682252D01*
X256767748Y-41909987D01*
X257035537Y-42088918D01*
X257333088Y-42212168D01*
X257648967Y-42275000D01*
X257971033Y-42275000D01*
X258286912Y-42212168D01*
X258519274Y-42115920D01*
X264545525Y-42115920D01*
X265430000Y-43000395D01*
X266314475Y-42115920D01*
X266230792Y-41861739D01*
X265958225Y-41730842D01*
X265665358Y-41655635D01*
X265363447Y-41639009D01*
X265064093Y-41681603D01*
X264778801Y-41781778D01*
X264629208Y-41861739D01*
X264545525Y-42115920D01*
X258519274Y-42115920D01*
X258584463Y-42088918D01*
X258852252Y-41909987D01*
X259079987Y-41682252D01*
X259258918Y-41414463D01*
X259382168Y-41116912D01*
X259445000Y-40801033D01*
X259445000Y-40478967D01*
X259382168Y-40163088D01*
X259258918Y-39865537D01*
X259079987Y-39597748D01*
X258852252Y-39370013D01*
X258584463Y-39191082D01*
X258286912Y-39067832D01*
X257971033Y-39005000D01*
X257648967Y-39005000D01*
X257333088Y-39067832D01*
X257035537Y-39191082D01*
X256767748Y-39370013D01*
X256540013Y-39597748D01*
X256540000Y-39597767D01*
X256539987Y-39597748D01*
X256312252Y-39370013D01*
X256044463Y-39191082D01*
X255746912Y-39067832D01*
X255431033Y-39005000D01*
X255108967Y-39005000D01*
X254793088Y-39067832D01*
X254778624Y-39073823D01*
X254514801Y-38810000D01*
X266030272Y-38810000D01*
X266296446Y-38836098D01*
%TA.AperFunction,Conductor*%
D20*
G36*
X266296446Y-38836098D02*
G01*
X266519081Y-38903315D01*
X266724419Y-39012495D01*
X266904639Y-39159479D01*
X267052877Y-39338668D01*
X267163489Y-39543240D01*
X267232258Y-39765397D01*
X267260000Y-40029344D01*
X267260000Y-49015198D01*
X266913731Y-48668930D01*
X266965000Y-48411184D01*
X266965000Y-48108816D01*
X266906011Y-47812257D01*
X266790299Y-47532905D01*
X266622312Y-47281495D01*
X266408505Y-47067688D01*
X266292237Y-46990000D01*
X266408505Y-46912312D01*
X266622312Y-46698505D01*
X266790299Y-46447095D01*
X266906011Y-46167743D01*
X266965000Y-45871184D01*
X266965000Y-45568816D01*
X266906011Y-45272257D01*
X266790299Y-44992905D01*
X266622312Y-44741495D01*
X266408505Y-44527688D01*
X266254895Y-44425049D01*
X266314475Y-44244080D01*
X265430000Y-43359605D01*
X264545525Y-44244080D01*
X264605105Y-44425049D01*
X264451495Y-44527688D01*
X264237688Y-44741495D01*
X264069701Y-44992905D01*
X263953989Y-45272257D01*
X263895000Y-45568816D01*
X263895000Y-45871184D01*
X263953989Y-46167743D01*
X264069701Y-46447095D01*
X264237688Y-46698505D01*
X264451495Y-46912312D01*
X264567763Y-46990000D01*
X264451495Y-47067688D01*
X264237688Y-47281495D01*
X264069701Y-47532905D01*
X263953989Y-47812257D01*
X263895000Y-48108816D01*
X263895000Y-48411184D01*
X263953989Y-48707743D01*
X264069701Y-48987095D01*
X264237688Y-49238505D01*
X264451495Y-49452312D01*
X264567763Y-49530000D01*
X264451495Y-49607688D01*
X264237688Y-49821495D01*
X264069701Y-50072905D01*
X263953989Y-50352257D01*
X263895000Y-50648816D01*
X263895000Y-50951184D01*
X263953989Y-51247743D01*
X264069701Y-51527095D01*
X264237688Y-51778505D01*
X264451495Y-51992312D01*
X264567763Y-52070000D01*
X264451495Y-52147688D01*
X264237688Y-52361495D01*
X264218499Y-52390214D01*
X264159974Y-52280724D01*
X264065001Y-52164999D01*
X264036004Y-52141202D01*
X262818804Y-50924003D01*
X262795001Y-50894999D01*
X262679276Y-50800026D01*
X262547247Y-50729454D01*
X262403986Y-50685997D01*
X262380000Y-50683635D01*
X262380000Y-44487322D01*
X262383676Y-44449999D01*
X262380000Y-44412676D01*
X262380000Y-44412667D01*
X262369003Y-44301014D01*
X262325546Y-44157753D01*
X262254974Y-44025724D01*
X262160001Y-43909999D01*
X262131004Y-43886202D01*
X261491355Y-43246553D01*
X263889009Y-43246553D01*
X263931603Y-43545907D01*
X264031778Y-43831199D01*
X264111739Y-43980792D01*
X264365920Y-44064475D01*
X265250395Y-43180000D01*
X265609605Y-43180000D01*
X266494080Y-44064475D01*
X266748261Y-43980792D01*
X266879158Y-43708225D01*
X266954365Y-43415358D01*
X266970991Y-43113447D01*
X266928397Y-42814093D01*
X266828222Y-42528801D01*
X266748261Y-42379208D01*
X266494080Y-42295525D01*
X265609605Y-43180000D01*
X265250395Y-43180000D01*
X264365920Y-42295525D01*
X264111739Y-42379208D01*
X263980842Y-42651775D01*
X263905635Y-42944642D01*
X263889009Y-43246553D01*
X261491355Y-43246553D01*
X260913804Y-42669003D01*
X260890001Y-42639999D01*
X260774276Y-42545026D01*
X260642247Y-42474454D01*
X260498986Y-42430997D01*
X260387333Y-42420000D01*
X260387322Y-42420000D01*
X260350000Y-42416324D01*
X260312678Y-42420000D01*
X250504803Y-42420000D01*
X250358348Y-42273545D01*
X250666912Y-42212168D01*
X250964463Y-42088918D01*
X251232252Y-41909987D01*
X251459987Y-41682252D01*
X251460000Y-41682233D01*
X251460013Y-41682252D01*
X251687748Y-41909987D01*
X251955537Y-42088918D01*
X252253088Y-42212168D01*
X252568967Y-42275000D01*
X252891033Y-42275000D01*
X253206912Y-42212168D01*
X253504463Y-42088918D01*
X253772252Y-41909987D01*
X253999987Y-41682252D01*
X254000000Y-41682233D01*
X254000013Y-41682252D01*
X254227748Y-41909987D01*
X254495537Y-42088918D01*
X254793088Y-42212168D01*
X255108967Y-42275000D01*
X255431033Y-42275000D01*
X255746912Y-42212168D01*
X256044463Y-42088918D01*
X256312252Y-41909987D01*
X256539987Y-41682252D01*
X256540000Y-41682233D01*
X256540013Y-41682252D01*
X256767748Y-41909987D01*
X257035537Y-42088918D01*
X257333088Y-42212168D01*
X257648967Y-42275000D01*
X257971033Y-42275000D01*
X258286912Y-42212168D01*
X258519274Y-42115920D01*
X264545525Y-42115920D01*
X265430000Y-43000395D01*
X266314475Y-42115920D01*
X266230792Y-41861739D01*
X265958225Y-41730842D01*
X265665358Y-41655635D01*
X265363447Y-41639009D01*
X265064093Y-41681603D01*
X264778801Y-41781778D01*
X264629208Y-41861739D01*
X264545525Y-42115920D01*
X258519274Y-42115920D01*
X258584463Y-42088918D01*
X258852252Y-41909987D01*
X259079987Y-41682252D01*
X259258918Y-41414463D01*
X259382168Y-41116912D01*
X259445000Y-40801033D01*
X259445000Y-40478967D01*
X259382168Y-40163088D01*
X259258918Y-39865537D01*
X259079987Y-39597748D01*
X258852252Y-39370013D01*
X258584463Y-39191082D01*
X258286912Y-39067832D01*
X257971033Y-39005000D01*
X257648967Y-39005000D01*
X257333088Y-39067832D01*
X257035537Y-39191082D01*
X256767748Y-39370013D01*
X256540013Y-39597748D01*
X256540000Y-39597767D01*
X256539987Y-39597748D01*
X256312252Y-39370013D01*
X256044463Y-39191082D01*
X255746912Y-39067832D01*
X255431033Y-39005000D01*
X255108967Y-39005000D01*
X254793088Y-39067832D01*
X254778624Y-39073823D01*
X254514801Y-38810000D01*
X266030272Y-38810000D01*
X266296446Y-38836098D01*
G37*
%TD.AperFunction*%
D19*
X240223748Y-40625858D02*
X240209605Y-40640000D01*
X240223748Y-40654143D01*
X240044143Y-40833748D01*
X240030000Y-40819605D01*
X240015858Y-40833748D01*
X239836253Y-40654143D01*
X239850395Y-40640000D01*
X239836253Y-40625858D01*
X240015858Y-40446253D01*
X240030000Y-40460395D01*
X240044143Y-40446253D01*
X240223748Y-40625858D01*
%TA.AperFunction,Conductor*%
D20*
G36*
X240223748Y-40625858D02*
G01*
X240209605Y-40640000D01*
X240223748Y-40654143D01*
X240044143Y-40833748D01*
X240030000Y-40819605D01*
X240015858Y-40833748D01*
X239836253Y-40654143D01*
X239850395Y-40640000D01*
X239836253Y-40625858D01*
X240015858Y-40446253D01*
X240030000Y-40460395D01*
X240044143Y-40446253D01*
X240223748Y-40625858D01*
G37*
%TD.AperFunction*%
%TD*%
M02*
