M48
; DRILL file {KiCad 5.1.9} date Fri Apr 30 01:58:30 2021
; FORMAT={-:-/ absolute / metric / decimal}
; #@! TF.CreationDate,2021-04-30T01:58:30+02:00
; #@! TF.GenerationSoftware,Kicad,Pcbnew,5.1.9
; #@! TF.FileFunction,Plated,1,2,PTH
FMAT,2
METRIC
T1C0.400
T2C0.800
T3C0.900
T4C1.000
T5C1.100
%
G90
G05
T1
X238.125Y-52.07
X238.125Y-92.71
X238.76Y-85.725
X241.935Y-85.725
X249.065Y-52.56
X250.19Y-51.435
X251.46Y-52.705
X252.73Y-44.45
X256.395Y-69.36
X257.175Y-55.245
X257.81Y-50.165
X258.535Y-48.985
X259.08Y-45.72
X259.715Y-85.725
X260.35Y-44.45
X261.62Y-51.435
X262.255Y-53.34
X262.89Y-40.005
T2
X236.22Y-53.34
X236.22Y-58.42
X241.3Y-53.34
X241.3Y-58.42
X245.11Y-62.23
X245.11Y-67.31
X246.38Y-53.34
X246.38Y-58.42
X250.19Y-62.23
X250.19Y-67.31
X255.27Y-62.23
X255.27Y-67.31
X260.35Y-62.23
X260.35Y-67.31
T3
X237.49Y-48.26
X238.76Y-48.26
X240.03Y-48.26
X241.3Y-48.26
T4
X236.22Y-98.425
X237.49Y-63.5
X237.49Y-66.04
X243.84Y-98.425
X246.38Y-71.12
X246.38Y-73.66
X246.38Y-76.2
X246.38Y-78.74
X246.38Y-81.28
X246.38Y-83.82
X246.38Y-86.36
X246.38Y-88.9
X265.43Y-43.18
X265.43Y-45.72
X265.43Y-48.26
X265.43Y-50.8
X265.43Y-53.34
X265.43Y-55.88
X265.43Y-58.42
X265.43Y-60.96
X265.43Y-63.5
X265.43Y-66.04
T5
X237.49Y-40.64
X240.03Y-40.64
X242.57Y-40.64
X245.11Y-40.64
X247.65Y-40.64
X250.19Y-40.64
X250.19Y-71.12
X250.19Y-73.66
X250.19Y-76.2
X250.19Y-78.74
X250.19Y-81.28
X250.19Y-83.82
X250.19Y-86.36
X250.19Y-88.9
X250.19Y-91.44
X250.19Y-93.98
X250.19Y-96.52
X250.19Y-99.06
X250.19Y-101.6
X250.19Y-104.14
X252.73Y-40.64
X252.73Y-71.12
X252.73Y-101.6
X255.27Y-40.64
X255.27Y-71.12
X257.81Y-40.64
X257.81Y-71.12
X260.35Y-71.12
X262.89Y-71.12
X265.43Y-71.12
X265.43Y-73.66
X265.43Y-76.2
X265.43Y-78.74
X265.43Y-81.28
X265.43Y-83.82
X265.43Y-86.36
X265.43Y-88.9
X265.43Y-91.44
X265.43Y-93.98
X265.43Y-96.52
X265.43Y-99.06
X265.43Y-101.6
X265.43Y-104.14
T0
M30
