%FSLAX45Y45*%
G04 Gerber Fmt 4.5, Leading zero omitted, Abs format (unit mm)*
G04 Created by KiCad (PCBNEW 5.1.9) date 2021-04-30 01:58:29*
%MOMM*%
%LPD*%
G01*
G04 APERTURE LIST*
%TA.AperFunction,Profile*%
%ADD10C,0.150000*%
%TD*%
%ADD11C,0.200000*%
%ADD12C,0.300000*%
G04 APERTURE END LIST*
D10*
X26797000Y-10414000D02*
G75*
G02*
X26606500Y-10604500I-190500J0D01*
G01*
X23431500Y-10604500D02*
G75*
G02*
X23241000Y-10414000I0J190500D01*
G01*
X23241000Y-4000500D02*
G75*
G02*
X23431500Y-3810000I190500J0D01*
G01*
X26606500Y-3810000D02*
G75*
G02*
X26797000Y-4000500I0J-190500D01*
G01*
X26797000Y-4000500D02*
X26797000Y-10414000D01*
X23431500Y-3810000D02*
X26606500Y-3810000D01*
X23241000Y-5905500D02*
X23241000Y-4000500D01*
X23241000Y-10414000D02*
X23241000Y-5905500D01*
X26606500Y-10604500D02*
X23431500Y-10604500D01*
D11*
X23792500Y-5187000D02*
X23832500Y-5227000D01*
X23832500Y-5187000D02*
X23792500Y-5227000D01*
X23792500Y-9251000D02*
X23832500Y-9291000D01*
X23832500Y-9251000D02*
X23792500Y-9291000D01*
X23856000Y-8552500D02*
X23896000Y-8592500D01*
X23896000Y-8552500D02*
X23856000Y-8592500D01*
X24173500Y-8552500D02*
X24213500Y-8592500D01*
X24213500Y-8552500D02*
X24173500Y-8592500D01*
X24886500Y-5236000D02*
X24926500Y-5276000D01*
X24926500Y-5236000D02*
X24886500Y-5276000D01*
X24999000Y-5123500D02*
X25039000Y-5163500D01*
X25039000Y-5123500D02*
X24999000Y-5163500D01*
X25126000Y-5250500D02*
X25166000Y-5290500D01*
X25166000Y-5250500D02*
X25126000Y-5290500D01*
X25253000Y-4425000D02*
X25293000Y-4465000D01*
X25293000Y-4425000D02*
X25253000Y-4465000D01*
X25619500Y-6916000D02*
X25659500Y-6956000D01*
X25659500Y-6916000D02*
X25619500Y-6956000D01*
X25697500Y-5504500D02*
X25737500Y-5544500D01*
X25737500Y-5504500D02*
X25697500Y-5544500D01*
X25761000Y-4996500D02*
X25801000Y-5036500D01*
X25801000Y-4996500D02*
X25761000Y-5036500D01*
X25833500Y-4878500D02*
X25873500Y-4918500D01*
X25873500Y-4878500D02*
X25833500Y-4918500D01*
X25888000Y-4552000D02*
X25928000Y-4592000D01*
X25928000Y-4552000D02*
X25888000Y-4592000D01*
X25951500Y-8552500D02*
X25991500Y-8592500D01*
X25991500Y-8552500D02*
X25951500Y-8592500D01*
X26015000Y-4425000D02*
X26055000Y-4465000D01*
X26055000Y-4425000D02*
X26015000Y-4465000D01*
X26142000Y-5123500D02*
X26182000Y-5163500D01*
X26182000Y-5123500D02*
X26142000Y-5163500D01*
X26205500Y-5314000D02*
X26245500Y-5354000D01*
X26245500Y-5314000D02*
X26205500Y-5354000D01*
X26269000Y-3980500D02*
X26309000Y-4020500D01*
X26309000Y-3980500D02*
X26269000Y-4020500D01*
X23662000Y-5334000D02*
G75*
G03*
X23662000Y-5334000I-40000J0D01*
G01*
X23662000Y-5842000D02*
G75*
G03*
X23662000Y-5842000I-40000J0D01*
G01*
X24170000Y-5334000D02*
G75*
G03*
X24170000Y-5334000I-40000J0D01*
G01*
X24170000Y-5842000D02*
G75*
G03*
X24170000Y-5842000I-40000J0D01*
G01*
X24551000Y-6223000D02*
G75*
G03*
X24551000Y-6223000I-40000J0D01*
G01*
X24551000Y-6731000D02*
G75*
G03*
X24551000Y-6731000I-40000J0D01*
G01*
X24678000Y-5334000D02*
G75*
G03*
X24678000Y-5334000I-40000J0D01*
G01*
X24678000Y-5842000D02*
G75*
G03*
X24678000Y-5842000I-40000J0D01*
G01*
X25059000Y-6223000D02*
G75*
G03*
X25059000Y-6223000I-40000J0D01*
G01*
X25059000Y-6731000D02*
G75*
G03*
X25059000Y-6731000I-40000J0D01*
G01*
X25567000Y-6223000D02*
G75*
G03*
X25567000Y-6223000I-40000J0D01*
G01*
X25567000Y-6731000D02*
G75*
G03*
X25567000Y-6731000I-40000J0D01*
G01*
X26075000Y-6223000D02*
G75*
G03*
X26075000Y-6223000I-40000J0D01*
G01*
X26075000Y-6731000D02*
G75*
G03*
X26075000Y-6731000I-40000J0D01*
G01*
X23749000Y-4781000D02*
X23749000Y-4871000D01*
X23704000Y-4826000D02*
X23794000Y-4826000D01*
X23876000Y-4781000D02*
X23876000Y-4871000D01*
X23831000Y-4826000D02*
X23921000Y-4826000D01*
X24003000Y-4781000D02*
X24003000Y-4871000D01*
X23958000Y-4826000D02*
X24048000Y-4826000D01*
X24130000Y-4781000D02*
X24130000Y-4871000D01*
X24085000Y-4826000D02*
X24175000Y-4826000D01*
X23657356Y-9877856D02*
X23657356Y-9807144D01*
X23586644Y-9807144D01*
X23586644Y-9877856D01*
X23657356Y-9877856D01*
X23784356Y-6385356D02*
X23784356Y-6314644D01*
X23713644Y-6314644D01*
X23713644Y-6385356D01*
X23784356Y-6385356D01*
X23784356Y-6639356D02*
X23784356Y-6568644D01*
X23713644Y-6568644D01*
X23713644Y-6639356D01*
X23784356Y-6639356D01*
X24419356Y-9877856D02*
X24419356Y-9807144D01*
X24348644Y-9807144D01*
X24348644Y-9877856D01*
X24419356Y-9877856D01*
X24673356Y-7147356D02*
X24673356Y-7076644D01*
X24602644Y-7076644D01*
X24602644Y-7147356D01*
X24673356Y-7147356D01*
X24673356Y-7401356D02*
X24673356Y-7330644D01*
X24602644Y-7330644D01*
X24602644Y-7401356D01*
X24673356Y-7401356D01*
X24673356Y-7655356D02*
X24673356Y-7584644D01*
X24602644Y-7584644D01*
X24602644Y-7655356D01*
X24673356Y-7655356D01*
X24673356Y-7909356D02*
X24673356Y-7838644D01*
X24602644Y-7838644D01*
X24602644Y-7909356D01*
X24673356Y-7909356D01*
X24673356Y-8163356D02*
X24673356Y-8092644D01*
X24602644Y-8092644D01*
X24602644Y-8163356D01*
X24673356Y-8163356D01*
X24673356Y-8417356D02*
X24673356Y-8346644D01*
X24602644Y-8346644D01*
X24602644Y-8417356D01*
X24673356Y-8417356D01*
X24673356Y-8671356D02*
X24673356Y-8600644D01*
X24602644Y-8600644D01*
X24602644Y-8671356D01*
X24673356Y-8671356D01*
X24673356Y-8925356D02*
X24673356Y-8854644D01*
X24602644Y-8854644D01*
X24602644Y-8925356D01*
X24673356Y-8925356D01*
X26578356Y-4353356D02*
X26578356Y-4282644D01*
X26507644Y-4282644D01*
X26507644Y-4353356D01*
X26578356Y-4353356D01*
X26578356Y-4607356D02*
X26578356Y-4536644D01*
X26507644Y-4536644D01*
X26507644Y-4607356D01*
X26578356Y-4607356D01*
X26578356Y-4861356D02*
X26578356Y-4790644D01*
X26507644Y-4790644D01*
X26507644Y-4861356D01*
X26578356Y-4861356D01*
X26578356Y-5115356D02*
X26578356Y-5044644D01*
X26507644Y-5044644D01*
X26507644Y-5115356D01*
X26578356Y-5115356D01*
X26578356Y-5369356D02*
X26578356Y-5298644D01*
X26507644Y-5298644D01*
X26507644Y-5369356D01*
X26578356Y-5369356D01*
X26578356Y-5623356D02*
X26578356Y-5552644D01*
X26507644Y-5552644D01*
X26507644Y-5623356D01*
X26578356Y-5623356D01*
X26578356Y-5877356D02*
X26578356Y-5806644D01*
X26507644Y-5806644D01*
X26507644Y-5877356D01*
X26578356Y-5877356D01*
X26578356Y-6131356D02*
X26578356Y-6060644D01*
X26507644Y-6060644D01*
X26507644Y-6131356D01*
X26578356Y-6131356D01*
X26578356Y-6385356D02*
X26578356Y-6314644D01*
X26507644Y-6314644D01*
X26507644Y-6385356D01*
X26578356Y-6385356D01*
X26578356Y-6639356D02*
X26578356Y-6568644D01*
X26507644Y-6568644D01*
X26507644Y-6639356D01*
X26578356Y-6639356D01*
X23749000Y-4119000D02*
X23804000Y-4064000D01*
X23749000Y-4009000D01*
X23694000Y-4064000D01*
X23749000Y-4119000D01*
X24003000Y-4119000D02*
X24058000Y-4064000D01*
X24003000Y-4009000D01*
X23948000Y-4064000D01*
X24003000Y-4119000D01*
X24257000Y-4119000D02*
X24312000Y-4064000D01*
X24257000Y-4009000D01*
X24202000Y-4064000D01*
X24257000Y-4119000D01*
X24511000Y-4119000D02*
X24566000Y-4064000D01*
X24511000Y-4009000D01*
X24456000Y-4064000D01*
X24511000Y-4119000D01*
X24765000Y-4119000D02*
X24820000Y-4064000D01*
X24765000Y-4009000D01*
X24710000Y-4064000D01*
X24765000Y-4119000D01*
X25019000Y-4119000D02*
X25074000Y-4064000D01*
X25019000Y-4009000D01*
X24964000Y-4064000D01*
X25019000Y-4119000D01*
X25019000Y-7167000D02*
X25074000Y-7112000D01*
X25019000Y-7057000D01*
X24964000Y-7112000D01*
X25019000Y-7167000D01*
X25019000Y-7421000D02*
X25074000Y-7366000D01*
X25019000Y-7311000D01*
X24964000Y-7366000D01*
X25019000Y-7421000D01*
X25019000Y-7675000D02*
X25074000Y-7620000D01*
X25019000Y-7565000D01*
X24964000Y-7620000D01*
X25019000Y-7675000D01*
X25019000Y-7929000D02*
X25074000Y-7874000D01*
X25019000Y-7819000D01*
X24964000Y-7874000D01*
X25019000Y-7929000D01*
X25019000Y-8183000D02*
X25074000Y-8128000D01*
X25019000Y-8073000D01*
X24964000Y-8128000D01*
X25019000Y-8183000D01*
X25019000Y-8437000D02*
X25074000Y-8382000D01*
X25019000Y-8327000D01*
X24964000Y-8382000D01*
X25019000Y-8437000D01*
X25019000Y-8691000D02*
X25074000Y-8636000D01*
X25019000Y-8581000D01*
X24964000Y-8636000D01*
X25019000Y-8691000D01*
X25019000Y-8945000D02*
X25074000Y-8890000D01*
X25019000Y-8835000D01*
X24964000Y-8890000D01*
X25019000Y-8945000D01*
X25019000Y-9199000D02*
X25074000Y-9144000D01*
X25019000Y-9089000D01*
X24964000Y-9144000D01*
X25019000Y-9199000D01*
X25019000Y-9453000D02*
X25074000Y-9398000D01*
X25019000Y-9343000D01*
X24964000Y-9398000D01*
X25019000Y-9453000D01*
X25019000Y-9707000D02*
X25074000Y-9652000D01*
X25019000Y-9597000D01*
X24964000Y-9652000D01*
X25019000Y-9707000D01*
X25019000Y-9961000D02*
X25074000Y-9906000D01*
X25019000Y-9851000D01*
X24964000Y-9906000D01*
X25019000Y-9961000D01*
X25019000Y-10215000D02*
X25074000Y-10160000D01*
X25019000Y-10105000D01*
X24964000Y-10160000D01*
X25019000Y-10215000D01*
X25019000Y-10469000D02*
X25074000Y-10414000D01*
X25019000Y-10359000D01*
X24964000Y-10414000D01*
X25019000Y-10469000D01*
X25273000Y-4119000D02*
X25328000Y-4064000D01*
X25273000Y-4009000D01*
X25218000Y-4064000D01*
X25273000Y-4119000D01*
X25273000Y-7167000D02*
X25328000Y-7112000D01*
X25273000Y-7057000D01*
X25218000Y-7112000D01*
X25273000Y-7167000D01*
X25273000Y-10215000D02*
X25328000Y-10160000D01*
X25273000Y-10105000D01*
X25218000Y-10160000D01*
X25273000Y-10215000D01*
X25527000Y-4119000D02*
X25582000Y-4064000D01*
X25527000Y-4009000D01*
X25472000Y-4064000D01*
X25527000Y-4119000D01*
X25527000Y-7167000D02*
X25582000Y-7112000D01*
X25527000Y-7057000D01*
X25472000Y-7112000D01*
X25527000Y-7167000D01*
X25781000Y-4119000D02*
X25836000Y-4064000D01*
X25781000Y-4009000D01*
X25726000Y-4064000D01*
X25781000Y-4119000D01*
X25781000Y-7167000D02*
X25836000Y-7112000D01*
X25781000Y-7057000D01*
X25726000Y-7112000D01*
X25781000Y-7167000D01*
X26035000Y-7167000D02*
X26090000Y-7112000D01*
X26035000Y-7057000D01*
X25980000Y-7112000D01*
X26035000Y-7167000D01*
X26289000Y-7167000D02*
X26344000Y-7112000D01*
X26289000Y-7057000D01*
X26234000Y-7112000D01*
X26289000Y-7167000D01*
X26543000Y-7167000D02*
X26598000Y-7112000D01*
X26543000Y-7057000D01*
X26488000Y-7112000D01*
X26543000Y-7167000D01*
X26543000Y-7421000D02*
X26598000Y-7366000D01*
X26543000Y-7311000D01*
X26488000Y-7366000D01*
X26543000Y-7421000D01*
X26543000Y-7675000D02*
X26598000Y-7620000D01*
X26543000Y-7565000D01*
X26488000Y-7620000D01*
X26543000Y-7675000D01*
X26543000Y-7929000D02*
X26598000Y-7874000D01*
X26543000Y-7819000D01*
X26488000Y-7874000D01*
X26543000Y-7929000D01*
X26543000Y-8183000D02*
X26598000Y-8128000D01*
X26543000Y-8073000D01*
X26488000Y-8128000D01*
X26543000Y-8183000D01*
X26543000Y-8437000D02*
X26598000Y-8382000D01*
X26543000Y-8327000D01*
X26488000Y-8382000D01*
X26543000Y-8437000D01*
X26543000Y-8691000D02*
X26598000Y-8636000D01*
X26543000Y-8581000D01*
X26488000Y-8636000D01*
X26543000Y-8691000D01*
X26543000Y-8945000D02*
X26598000Y-8890000D01*
X26543000Y-8835000D01*
X26488000Y-8890000D01*
X26543000Y-8945000D01*
X26543000Y-9199000D02*
X26598000Y-9144000D01*
X26543000Y-9089000D01*
X26488000Y-9144000D01*
X26543000Y-9199000D01*
X26543000Y-9453000D02*
X26598000Y-9398000D01*
X26543000Y-9343000D01*
X26488000Y-9398000D01*
X26543000Y-9453000D01*
X26543000Y-9707000D02*
X26598000Y-9652000D01*
X26543000Y-9597000D01*
X26488000Y-9652000D01*
X26543000Y-9707000D01*
X26543000Y-9961000D02*
X26598000Y-9906000D01*
X26543000Y-9851000D01*
X26488000Y-9906000D01*
X26543000Y-9961000D01*
X26543000Y-10215000D02*
X26598000Y-10160000D01*
X26543000Y-10105000D01*
X26488000Y-10160000D01*
X26543000Y-10215000D01*
X26543000Y-10469000D02*
X26598000Y-10414000D01*
X26543000Y-10359000D01*
X26488000Y-10414000D01*
X26543000Y-10469000D01*
D12*
X23519928Y-11077714D02*
X23519928Y-10777714D01*
X23591357Y-10777714D01*
X23634214Y-10792000D01*
X23662786Y-10820572D01*
X23677071Y-10849143D01*
X23691357Y-10906286D01*
X23691357Y-10949143D01*
X23677071Y-11006286D01*
X23662786Y-11034857D01*
X23634214Y-11063429D01*
X23591357Y-11077714D01*
X23519928Y-11077714D01*
X23819928Y-11077714D02*
X23819928Y-10877714D01*
X23819928Y-10934857D02*
X23834214Y-10906286D01*
X23848500Y-10892000D01*
X23877071Y-10877714D01*
X23905643Y-10877714D01*
X24005643Y-11077714D02*
X24005643Y-10877714D01*
X24005643Y-10777714D02*
X23991357Y-10792000D01*
X24005643Y-10806286D01*
X24019928Y-10792000D01*
X24005643Y-10777714D01*
X24005643Y-10806286D01*
X24191357Y-11077714D02*
X24162786Y-11063429D01*
X24148500Y-11034857D01*
X24148500Y-10777714D01*
X24348500Y-11077714D02*
X24319928Y-11063429D01*
X24305643Y-11034857D01*
X24305643Y-10777714D01*
X24691357Y-11077714D02*
X24691357Y-10777714D01*
X24791357Y-10992000D01*
X24891357Y-10777714D01*
X24891357Y-11077714D01*
X25162786Y-11077714D02*
X25162786Y-10920572D01*
X25148500Y-10892000D01*
X25119928Y-10877714D01*
X25062786Y-10877714D01*
X25034214Y-10892000D01*
X25162786Y-11063429D02*
X25134214Y-11077714D01*
X25062786Y-11077714D01*
X25034214Y-11063429D01*
X25019928Y-11034857D01*
X25019928Y-11006286D01*
X25034214Y-10977714D01*
X25062786Y-10963429D01*
X25134214Y-10963429D01*
X25162786Y-10949143D01*
X25305643Y-10877714D02*
X25305643Y-11177714D01*
X25305643Y-10892000D02*
X25334214Y-10877714D01*
X25391357Y-10877714D01*
X25419928Y-10892000D01*
X25434214Y-10906286D01*
X25448500Y-10934857D01*
X25448500Y-11020572D01*
X25434214Y-11049143D01*
X25419928Y-11063429D01*
X25391357Y-11077714D01*
X25334214Y-11077714D01*
X25305643Y-11063429D01*
X25577071Y-11049143D02*
X25591357Y-11063429D01*
X25577071Y-11077714D01*
X25562786Y-11063429D01*
X25577071Y-11049143D01*
X25577071Y-11077714D01*
X25577071Y-10892000D02*
X25591357Y-10906286D01*
X25577071Y-10920572D01*
X25562786Y-10906286D01*
X25577071Y-10892000D01*
X25577071Y-10920572D01*
X23193500Y-11552000D02*
X23233500Y-11592000D01*
X23233500Y-11552000D02*
X23193500Y-11592000D01*
X23577071Y-11407714D02*
X23605643Y-11407714D01*
X23634214Y-11422000D01*
X23648500Y-11436286D01*
X23662786Y-11464857D01*
X23677071Y-11522000D01*
X23677071Y-11593429D01*
X23662786Y-11650571D01*
X23648500Y-11679143D01*
X23634214Y-11693429D01*
X23605643Y-11707714D01*
X23577071Y-11707714D01*
X23548500Y-11693429D01*
X23534214Y-11679143D01*
X23519928Y-11650571D01*
X23505643Y-11593429D01*
X23505643Y-11522000D01*
X23519928Y-11464857D01*
X23534214Y-11436286D01*
X23548500Y-11422000D01*
X23577071Y-11407714D01*
X23805643Y-11679143D02*
X23819928Y-11693429D01*
X23805643Y-11707714D01*
X23791357Y-11693429D01*
X23805643Y-11679143D01*
X23805643Y-11707714D01*
X24077071Y-11507714D02*
X24077071Y-11707714D01*
X24005643Y-11393429D02*
X23934214Y-11607714D01*
X24119928Y-11607714D01*
X24291357Y-11407714D02*
X24319928Y-11407714D01*
X24348500Y-11422000D01*
X24362786Y-11436286D01*
X24377071Y-11464857D01*
X24391357Y-11522000D01*
X24391357Y-11593429D01*
X24377071Y-11650571D01*
X24362786Y-11679143D01*
X24348500Y-11693429D01*
X24319928Y-11707714D01*
X24291357Y-11707714D01*
X24262786Y-11693429D01*
X24248500Y-11679143D01*
X24234214Y-11650571D01*
X24219928Y-11593429D01*
X24219928Y-11522000D01*
X24234214Y-11464857D01*
X24248500Y-11436286D01*
X24262786Y-11422000D01*
X24291357Y-11407714D01*
X24519928Y-11707714D02*
X24519928Y-11507714D01*
X24519928Y-11536286D02*
X24534214Y-11522000D01*
X24562786Y-11507714D01*
X24605643Y-11507714D01*
X24634214Y-11522000D01*
X24648500Y-11550571D01*
X24648500Y-11707714D01*
X24648500Y-11550571D02*
X24662786Y-11522000D01*
X24691357Y-11507714D01*
X24734214Y-11507714D01*
X24762786Y-11522000D01*
X24777071Y-11550571D01*
X24777071Y-11707714D01*
X24919928Y-11707714D02*
X24919928Y-11507714D01*
X24919928Y-11536286D02*
X24934214Y-11522000D01*
X24962786Y-11507714D01*
X25005643Y-11507714D01*
X25034214Y-11522000D01*
X25048500Y-11550571D01*
X25048500Y-11707714D01*
X25048500Y-11550571D02*
X25062786Y-11522000D01*
X25091357Y-11507714D01*
X25134214Y-11507714D01*
X25162786Y-11522000D01*
X25177071Y-11550571D01*
X25177071Y-11707714D01*
X25762786Y-11393429D02*
X25505643Y-11779143D01*
X26148500Y-11407714D02*
X26177071Y-11407714D01*
X26205643Y-11422000D01*
X26219928Y-11436286D01*
X26234214Y-11464857D01*
X26248500Y-11522000D01*
X26248500Y-11593429D01*
X26234214Y-11650571D01*
X26219928Y-11679143D01*
X26205643Y-11693429D01*
X26177071Y-11707714D01*
X26148500Y-11707714D01*
X26119928Y-11693429D01*
X26105643Y-11679143D01*
X26091357Y-11650571D01*
X26077071Y-11593429D01*
X26077071Y-11522000D01*
X26091357Y-11464857D01*
X26105643Y-11436286D01*
X26119928Y-11422000D01*
X26148500Y-11407714D01*
X26377071Y-11679143D02*
X26391357Y-11693429D01*
X26377071Y-11707714D01*
X26362786Y-11693429D01*
X26377071Y-11679143D01*
X26377071Y-11707714D01*
X26577071Y-11407714D02*
X26605643Y-11407714D01*
X26634214Y-11422000D01*
X26648500Y-11436286D01*
X26662786Y-11464857D01*
X26677071Y-11522000D01*
X26677071Y-11593429D01*
X26662786Y-11650571D01*
X26648500Y-11679143D01*
X26634214Y-11693429D01*
X26605643Y-11707714D01*
X26577071Y-11707714D01*
X26548500Y-11693429D01*
X26534214Y-11679143D01*
X26519928Y-11650571D01*
X26505643Y-11593429D01*
X26505643Y-11522000D01*
X26519928Y-11464857D01*
X26534214Y-11436286D01*
X26548500Y-11422000D01*
X26577071Y-11407714D01*
X26962786Y-11707714D02*
X26791357Y-11707714D01*
X26877071Y-11707714D02*
X26877071Y-11407714D01*
X26848500Y-11450571D01*
X26819928Y-11479143D01*
X26791357Y-11493429D01*
X27219928Y-11407714D02*
X27162786Y-11407714D01*
X27134214Y-11422000D01*
X27119928Y-11436286D01*
X27091357Y-11479143D01*
X27077071Y-11536286D01*
X27077071Y-11650571D01*
X27091357Y-11679143D01*
X27105643Y-11693429D01*
X27134214Y-11707714D01*
X27191357Y-11707714D01*
X27219928Y-11693429D01*
X27234214Y-11679143D01*
X27248500Y-11650571D01*
X27248500Y-11579143D01*
X27234214Y-11550571D01*
X27219928Y-11536286D01*
X27191357Y-11522000D01*
X27134214Y-11522000D01*
X27105643Y-11536286D01*
X27091357Y-11550571D01*
X27077071Y-11579143D01*
X27362786Y-11407714D02*
X27362786Y-11464857D01*
X27477071Y-11407714D02*
X27477071Y-11464857D01*
X27919928Y-11822000D02*
X27905643Y-11807714D01*
X27877071Y-11764857D01*
X27862786Y-11736286D01*
X27848500Y-11693429D01*
X27834214Y-11622000D01*
X27834214Y-11564857D01*
X27848500Y-11493429D01*
X27862786Y-11450571D01*
X27877071Y-11422000D01*
X27905643Y-11379143D01*
X27919928Y-11364857D01*
X28191357Y-11707714D02*
X28019928Y-11707714D01*
X28105643Y-11707714D02*
X28105643Y-11407714D01*
X28077071Y-11450571D01*
X28048500Y-11479143D01*
X28019928Y-11493429D01*
X28362786Y-11536286D02*
X28334214Y-11522000D01*
X28319928Y-11507714D01*
X28305643Y-11479143D01*
X28305643Y-11464857D01*
X28319928Y-11436286D01*
X28334214Y-11422000D01*
X28362786Y-11407714D01*
X28419928Y-11407714D01*
X28448500Y-11422000D01*
X28462786Y-11436286D01*
X28477071Y-11464857D01*
X28477071Y-11479143D01*
X28462786Y-11507714D01*
X28448500Y-11522000D01*
X28419928Y-11536286D01*
X28362786Y-11536286D01*
X28334214Y-11550571D01*
X28319928Y-11564857D01*
X28305643Y-11593429D01*
X28305643Y-11650571D01*
X28319928Y-11679143D01*
X28334214Y-11693429D01*
X28362786Y-11707714D01*
X28419928Y-11707714D01*
X28448500Y-11693429D01*
X28462786Y-11679143D01*
X28477071Y-11650571D01*
X28477071Y-11593429D01*
X28462786Y-11564857D01*
X28448500Y-11550571D01*
X28419928Y-11536286D01*
X28834214Y-11707714D02*
X28834214Y-11407714D01*
X28962786Y-11707714D02*
X28962786Y-11550571D01*
X28948500Y-11522000D01*
X28919928Y-11507714D01*
X28877071Y-11507714D01*
X28848500Y-11522000D01*
X28834214Y-11536286D01*
X29148500Y-11707714D02*
X29119928Y-11693429D01*
X29105643Y-11679143D01*
X29091357Y-11650571D01*
X29091357Y-11564857D01*
X29105643Y-11536286D01*
X29119928Y-11522000D01*
X29148500Y-11507714D01*
X29191357Y-11507714D01*
X29219928Y-11522000D01*
X29234214Y-11536286D01*
X29248500Y-11564857D01*
X29248500Y-11650571D01*
X29234214Y-11679143D01*
X29219928Y-11693429D01*
X29191357Y-11707714D01*
X29148500Y-11707714D01*
X29419928Y-11707714D02*
X29391357Y-11693429D01*
X29377071Y-11664857D01*
X29377071Y-11407714D01*
X29648500Y-11693429D02*
X29619928Y-11707714D01*
X29562786Y-11707714D01*
X29534214Y-11693429D01*
X29519928Y-11664857D01*
X29519928Y-11550571D01*
X29534214Y-11522000D01*
X29562786Y-11507714D01*
X29619928Y-11507714D01*
X29648500Y-11522000D01*
X29662786Y-11550571D01*
X29662786Y-11579143D01*
X29519928Y-11607714D01*
X29777071Y-11693429D02*
X29805643Y-11707714D01*
X29862786Y-11707714D01*
X29891357Y-11693429D01*
X29905643Y-11664857D01*
X29905643Y-11650571D01*
X29891357Y-11622000D01*
X29862786Y-11607714D01*
X29819928Y-11607714D01*
X29791357Y-11593429D01*
X29777071Y-11564857D01*
X29777071Y-11550571D01*
X29791357Y-11522000D01*
X29819928Y-11507714D01*
X29862786Y-11507714D01*
X29891357Y-11522000D01*
X30005643Y-11822000D02*
X30019928Y-11807714D01*
X30048500Y-11764857D01*
X30062786Y-11736286D01*
X30077071Y-11693429D01*
X30091357Y-11622000D01*
X30091357Y-11564857D01*
X30077071Y-11493429D01*
X30062786Y-11450571D01*
X30048500Y-11422000D01*
X30019928Y-11379143D01*
X30005643Y-11364857D01*
X23233500Y-11968000D02*
G75*
G03*
X23233500Y-11968000I-40000J0D01*
G01*
X23577071Y-11803714D02*
X23605643Y-11803714D01*
X23634214Y-11818000D01*
X23648500Y-11832286D01*
X23662786Y-11860857D01*
X23677071Y-11918000D01*
X23677071Y-11989429D01*
X23662786Y-12046571D01*
X23648500Y-12075143D01*
X23634214Y-12089429D01*
X23605643Y-12103714D01*
X23577071Y-12103714D01*
X23548500Y-12089429D01*
X23534214Y-12075143D01*
X23519928Y-12046571D01*
X23505643Y-11989429D01*
X23505643Y-11918000D01*
X23519928Y-11860857D01*
X23534214Y-11832286D01*
X23548500Y-11818000D01*
X23577071Y-11803714D01*
X23805643Y-12075143D02*
X23819928Y-12089429D01*
X23805643Y-12103714D01*
X23791357Y-12089429D01*
X23805643Y-12075143D01*
X23805643Y-12103714D01*
X23991357Y-11932286D02*
X23962786Y-11918000D01*
X23948500Y-11903714D01*
X23934214Y-11875143D01*
X23934214Y-11860857D01*
X23948500Y-11832286D01*
X23962786Y-11818000D01*
X23991357Y-11803714D01*
X24048500Y-11803714D01*
X24077071Y-11818000D01*
X24091357Y-11832286D01*
X24105643Y-11860857D01*
X24105643Y-11875143D01*
X24091357Y-11903714D01*
X24077071Y-11918000D01*
X24048500Y-11932286D01*
X23991357Y-11932286D01*
X23962786Y-11946571D01*
X23948500Y-11960857D01*
X23934214Y-11989429D01*
X23934214Y-12046571D01*
X23948500Y-12075143D01*
X23962786Y-12089429D01*
X23991357Y-12103714D01*
X24048500Y-12103714D01*
X24077071Y-12089429D01*
X24091357Y-12075143D01*
X24105643Y-12046571D01*
X24105643Y-11989429D01*
X24091357Y-11960857D01*
X24077071Y-11946571D01*
X24048500Y-11932286D01*
X24291357Y-11803714D02*
X24319928Y-11803714D01*
X24348500Y-11818000D01*
X24362786Y-11832286D01*
X24377071Y-11860857D01*
X24391357Y-11918000D01*
X24391357Y-11989429D01*
X24377071Y-12046571D01*
X24362786Y-12075143D01*
X24348500Y-12089429D01*
X24319928Y-12103714D01*
X24291357Y-12103714D01*
X24262786Y-12089429D01*
X24248500Y-12075143D01*
X24234214Y-12046571D01*
X24219928Y-11989429D01*
X24219928Y-11918000D01*
X24234214Y-11860857D01*
X24248500Y-11832286D01*
X24262786Y-11818000D01*
X24291357Y-11803714D01*
X24519928Y-12103714D02*
X24519928Y-11903714D01*
X24519928Y-11932286D02*
X24534214Y-11918000D01*
X24562786Y-11903714D01*
X24605643Y-11903714D01*
X24634214Y-11918000D01*
X24648500Y-11946571D01*
X24648500Y-12103714D01*
X24648500Y-11946571D02*
X24662786Y-11918000D01*
X24691357Y-11903714D01*
X24734214Y-11903714D01*
X24762786Y-11918000D01*
X24777071Y-11946571D01*
X24777071Y-12103714D01*
X24919928Y-12103714D02*
X24919928Y-11903714D01*
X24919928Y-11932286D02*
X24934214Y-11918000D01*
X24962786Y-11903714D01*
X25005643Y-11903714D01*
X25034214Y-11918000D01*
X25048500Y-11946571D01*
X25048500Y-12103714D01*
X25048500Y-11946571D02*
X25062786Y-11918000D01*
X25091357Y-11903714D01*
X25134214Y-11903714D01*
X25162786Y-11918000D01*
X25177071Y-11946571D01*
X25177071Y-12103714D01*
X25762786Y-11789429D02*
X25505643Y-12175143D01*
X26148500Y-11803714D02*
X26177071Y-11803714D01*
X26205643Y-11818000D01*
X26219928Y-11832286D01*
X26234214Y-11860857D01*
X26248500Y-11918000D01*
X26248500Y-11989429D01*
X26234214Y-12046571D01*
X26219928Y-12075143D01*
X26205643Y-12089429D01*
X26177071Y-12103714D01*
X26148500Y-12103714D01*
X26119928Y-12089429D01*
X26105643Y-12075143D01*
X26091357Y-12046571D01*
X26077071Y-11989429D01*
X26077071Y-11918000D01*
X26091357Y-11860857D01*
X26105643Y-11832286D01*
X26119928Y-11818000D01*
X26148500Y-11803714D01*
X26377071Y-12075143D02*
X26391357Y-12089429D01*
X26377071Y-12103714D01*
X26362786Y-12089429D01*
X26377071Y-12075143D01*
X26377071Y-12103714D01*
X26577071Y-11803714D02*
X26605643Y-11803714D01*
X26634214Y-11818000D01*
X26648500Y-11832286D01*
X26662786Y-11860857D01*
X26677071Y-11918000D01*
X26677071Y-11989429D01*
X26662786Y-12046571D01*
X26648500Y-12075143D01*
X26634214Y-12089429D01*
X26605643Y-12103714D01*
X26577071Y-12103714D01*
X26548500Y-12089429D01*
X26534214Y-12075143D01*
X26519928Y-12046571D01*
X26505643Y-11989429D01*
X26505643Y-11918000D01*
X26519928Y-11860857D01*
X26534214Y-11832286D01*
X26548500Y-11818000D01*
X26577071Y-11803714D01*
X26777071Y-11803714D02*
X26962786Y-11803714D01*
X26862786Y-11918000D01*
X26905643Y-11918000D01*
X26934214Y-11932286D01*
X26948500Y-11946571D01*
X26962786Y-11975143D01*
X26962786Y-12046571D01*
X26948500Y-12075143D01*
X26934214Y-12089429D01*
X26905643Y-12103714D01*
X26819928Y-12103714D01*
X26791357Y-12089429D01*
X26777071Y-12075143D01*
X27248500Y-12103714D02*
X27077071Y-12103714D01*
X27162786Y-12103714D02*
X27162786Y-11803714D01*
X27134214Y-11846571D01*
X27105643Y-11875143D01*
X27077071Y-11889429D01*
X27362786Y-11803714D02*
X27362786Y-11860857D01*
X27477071Y-11803714D02*
X27477071Y-11860857D01*
X27919928Y-12218000D02*
X27905643Y-12203714D01*
X27877071Y-12160857D01*
X27862786Y-12132286D01*
X27848500Y-12089429D01*
X27834214Y-12018000D01*
X27834214Y-11960857D01*
X27848500Y-11889429D01*
X27862786Y-11846571D01*
X27877071Y-11818000D01*
X27905643Y-11775143D01*
X27919928Y-11760857D01*
X28191357Y-12103714D02*
X28019928Y-12103714D01*
X28105643Y-12103714D02*
X28105643Y-11803714D01*
X28077071Y-11846571D01*
X28048500Y-11875143D01*
X28019928Y-11889429D01*
X28448500Y-11903714D02*
X28448500Y-12103714D01*
X28377071Y-11789429D02*
X28305643Y-12003714D01*
X28491357Y-12003714D01*
X28834214Y-12103714D02*
X28834214Y-11803714D01*
X28962786Y-12103714D02*
X28962786Y-11946571D01*
X28948500Y-11918000D01*
X28919928Y-11903714D01*
X28877071Y-11903714D01*
X28848500Y-11918000D01*
X28834214Y-11932286D01*
X29148500Y-12103714D02*
X29119928Y-12089429D01*
X29105643Y-12075143D01*
X29091357Y-12046571D01*
X29091357Y-11960857D01*
X29105643Y-11932286D01*
X29119928Y-11918000D01*
X29148500Y-11903714D01*
X29191357Y-11903714D01*
X29219928Y-11918000D01*
X29234214Y-11932286D01*
X29248500Y-11960857D01*
X29248500Y-12046571D01*
X29234214Y-12075143D01*
X29219928Y-12089429D01*
X29191357Y-12103714D01*
X29148500Y-12103714D01*
X29419928Y-12103714D02*
X29391357Y-12089429D01*
X29377071Y-12060857D01*
X29377071Y-11803714D01*
X29648500Y-12089429D02*
X29619928Y-12103714D01*
X29562786Y-12103714D01*
X29534214Y-12089429D01*
X29519928Y-12060857D01*
X29519928Y-11946571D01*
X29534214Y-11918000D01*
X29562786Y-11903714D01*
X29619928Y-11903714D01*
X29648500Y-11918000D01*
X29662786Y-11946571D01*
X29662786Y-11975143D01*
X29519928Y-12003714D01*
X29777071Y-12089429D02*
X29805643Y-12103714D01*
X29862786Y-12103714D01*
X29891357Y-12089429D01*
X29905643Y-12060857D01*
X29905643Y-12046571D01*
X29891357Y-12018000D01*
X29862786Y-12003714D01*
X29819928Y-12003714D01*
X29791357Y-11989429D01*
X29777071Y-11960857D01*
X29777071Y-11946571D01*
X29791357Y-11918000D01*
X29819928Y-11903714D01*
X29862786Y-11903714D01*
X29891357Y-11918000D01*
X30005643Y-12218000D02*
X30019928Y-12203714D01*
X30048500Y-12160857D01*
X30062786Y-12132286D01*
X30077071Y-12089429D01*
X30091357Y-12018000D01*
X30091357Y-11960857D01*
X30077071Y-11889429D01*
X30062786Y-11846571D01*
X30048500Y-11818000D01*
X30019928Y-11775143D01*
X30005643Y-11760857D01*
X23188500Y-12319000D02*
X23188500Y-12409000D01*
X23143500Y-12364000D02*
X23233500Y-12364000D01*
X23577071Y-12199714D02*
X23605643Y-12199714D01*
X23634214Y-12214000D01*
X23648500Y-12228286D01*
X23662786Y-12256857D01*
X23677071Y-12314000D01*
X23677071Y-12385429D01*
X23662786Y-12442571D01*
X23648500Y-12471143D01*
X23634214Y-12485429D01*
X23605643Y-12499714D01*
X23577071Y-12499714D01*
X23548500Y-12485429D01*
X23534214Y-12471143D01*
X23519928Y-12442571D01*
X23505643Y-12385429D01*
X23505643Y-12314000D01*
X23519928Y-12256857D01*
X23534214Y-12228286D01*
X23548500Y-12214000D01*
X23577071Y-12199714D01*
X23805643Y-12471143D02*
X23819928Y-12485429D01*
X23805643Y-12499714D01*
X23791357Y-12485429D01*
X23805643Y-12471143D01*
X23805643Y-12499714D01*
X23962786Y-12499714D02*
X24019928Y-12499714D01*
X24048500Y-12485429D01*
X24062786Y-12471143D01*
X24091357Y-12428286D01*
X24105643Y-12371143D01*
X24105643Y-12256857D01*
X24091357Y-12228286D01*
X24077071Y-12214000D01*
X24048500Y-12199714D01*
X23991357Y-12199714D01*
X23962786Y-12214000D01*
X23948500Y-12228286D01*
X23934214Y-12256857D01*
X23934214Y-12328286D01*
X23948500Y-12356857D01*
X23962786Y-12371143D01*
X23991357Y-12385429D01*
X24048500Y-12385429D01*
X24077071Y-12371143D01*
X24091357Y-12356857D01*
X24105643Y-12328286D01*
X24291357Y-12199714D02*
X24319928Y-12199714D01*
X24348500Y-12214000D01*
X24362786Y-12228286D01*
X24377071Y-12256857D01*
X24391357Y-12314000D01*
X24391357Y-12385429D01*
X24377071Y-12442571D01*
X24362786Y-12471143D01*
X24348500Y-12485429D01*
X24319928Y-12499714D01*
X24291357Y-12499714D01*
X24262786Y-12485429D01*
X24248500Y-12471143D01*
X24234214Y-12442571D01*
X24219928Y-12385429D01*
X24219928Y-12314000D01*
X24234214Y-12256857D01*
X24248500Y-12228286D01*
X24262786Y-12214000D01*
X24291357Y-12199714D01*
X24519928Y-12499714D02*
X24519928Y-12299714D01*
X24519928Y-12328286D02*
X24534214Y-12314000D01*
X24562786Y-12299714D01*
X24605643Y-12299714D01*
X24634214Y-12314000D01*
X24648500Y-12342571D01*
X24648500Y-12499714D01*
X24648500Y-12342571D02*
X24662786Y-12314000D01*
X24691357Y-12299714D01*
X24734214Y-12299714D01*
X24762786Y-12314000D01*
X24777071Y-12342571D01*
X24777071Y-12499714D01*
X24919928Y-12499714D02*
X24919928Y-12299714D01*
X24919928Y-12328286D02*
X24934214Y-12314000D01*
X24962786Y-12299714D01*
X25005643Y-12299714D01*
X25034214Y-12314000D01*
X25048500Y-12342571D01*
X25048500Y-12499714D01*
X25048500Y-12342571D02*
X25062786Y-12314000D01*
X25091357Y-12299714D01*
X25134214Y-12299714D01*
X25162786Y-12314000D01*
X25177071Y-12342571D01*
X25177071Y-12499714D01*
X25762786Y-12185429D02*
X25505643Y-12571143D01*
X26148500Y-12199714D02*
X26177071Y-12199714D01*
X26205643Y-12214000D01*
X26219928Y-12228286D01*
X26234214Y-12256857D01*
X26248500Y-12314000D01*
X26248500Y-12385429D01*
X26234214Y-12442571D01*
X26219928Y-12471143D01*
X26205643Y-12485429D01*
X26177071Y-12499714D01*
X26148500Y-12499714D01*
X26119928Y-12485429D01*
X26105643Y-12471143D01*
X26091357Y-12442571D01*
X26077071Y-12385429D01*
X26077071Y-12314000D01*
X26091357Y-12256857D01*
X26105643Y-12228286D01*
X26119928Y-12214000D01*
X26148500Y-12199714D01*
X26377071Y-12471143D02*
X26391357Y-12485429D01*
X26377071Y-12499714D01*
X26362786Y-12485429D01*
X26377071Y-12471143D01*
X26377071Y-12499714D01*
X26577071Y-12199714D02*
X26605643Y-12199714D01*
X26634214Y-12214000D01*
X26648500Y-12228286D01*
X26662786Y-12256857D01*
X26677071Y-12314000D01*
X26677071Y-12385429D01*
X26662786Y-12442571D01*
X26648500Y-12471143D01*
X26634214Y-12485429D01*
X26605643Y-12499714D01*
X26577071Y-12499714D01*
X26548500Y-12485429D01*
X26534214Y-12471143D01*
X26519928Y-12442571D01*
X26505643Y-12385429D01*
X26505643Y-12314000D01*
X26519928Y-12256857D01*
X26534214Y-12228286D01*
X26548500Y-12214000D01*
X26577071Y-12199714D01*
X26777071Y-12199714D02*
X26962786Y-12199714D01*
X26862786Y-12314000D01*
X26905643Y-12314000D01*
X26934214Y-12328286D01*
X26948500Y-12342571D01*
X26962786Y-12371143D01*
X26962786Y-12442571D01*
X26948500Y-12471143D01*
X26934214Y-12485429D01*
X26905643Y-12499714D01*
X26819928Y-12499714D01*
X26791357Y-12485429D01*
X26777071Y-12471143D01*
X27234214Y-12199714D02*
X27091357Y-12199714D01*
X27077071Y-12342571D01*
X27091357Y-12328286D01*
X27119928Y-12314000D01*
X27191357Y-12314000D01*
X27219928Y-12328286D01*
X27234214Y-12342571D01*
X27248500Y-12371143D01*
X27248500Y-12442571D01*
X27234214Y-12471143D01*
X27219928Y-12485429D01*
X27191357Y-12499714D01*
X27119928Y-12499714D01*
X27091357Y-12485429D01*
X27077071Y-12471143D01*
X27362786Y-12199714D02*
X27362786Y-12256857D01*
X27477071Y-12199714D02*
X27477071Y-12256857D01*
X27919928Y-12614000D02*
X27905643Y-12599714D01*
X27877071Y-12556857D01*
X27862786Y-12528286D01*
X27848500Y-12485429D01*
X27834214Y-12414000D01*
X27834214Y-12356857D01*
X27848500Y-12285429D01*
X27862786Y-12242571D01*
X27877071Y-12214000D01*
X27905643Y-12171143D01*
X27919928Y-12156857D01*
X28162786Y-12299714D02*
X28162786Y-12499714D01*
X28091357Y-12185429D02*
X28019928Y-12399714D01*
X28205643Y-12399714D01*
X28548500Y-12499714D02*
X28548500Y-12199714D01*
X28677071Y-12499714D02*
X28677071Y-12342571D01*
X28662786Y-12314000D01*
X28634214Y-12299714D01*
X28591357Y-12299714D01*
X28562786Y-12314000D01*
X28548500Y-12328286D01*
X28862786Y-12499714D02*
X28834214Y-12485429D01*
X28819928Y-12471143D01*
X28805643Y-12442571D01*
X28805643Y-12356857D01*
X28819928Y-12328286D01*
X28834214Y-12314000D01*
X28862786Y-12299714D01*
X28905643Y-12299714D01*
X28934214Y-12314000D01*
X28948500Y-12328286D01*
X28962786Y-12356857D01*
X28962786Y-12442571D01*
X28948500Y-12471143D01*
X28934214Y-12485429D01*
X28905643Y-12499714D01*
X28862786Y-12499714D01*
X29134214Y-12499714D02*
X29105643Y-12485429D01*
X29091357Y-12456857D01*
X29091357Y-12199714D01*
X29362786Y-12485429D02*
X29334214Y-12499714D01*
X29277071Y-12499714D01*
X29248500Y-12485429D01*
X29234214Y-12456857D01*
X29234214Y-12342571D01*
X29248500Y-12314000D01*
X29277071Y-12299714D01*
X29334214Y-12299714D01*
X29362786Y-12314000D01*
X29377071Y-12342571D01*
X29377071Y-12371143D01*
X29234214Y-12399714D01*
X29491357Y-12485429D02*
X29519928Y-12499714D01*
X29577071Y-12499714D01*
X29605643Y-12485429D01*
X29619928Y-12456857D01*
X29619928Y-12442571D01*
X29605643Y-12414000D01*
X29577071Y-12399714D01*
X29534214Y-12399714D01*
X29505643Y-12385429D01*
X29491357Y-12356857D01*
X29491357Y-12342571D01*
X29505643Y-12314000D01*
X29534214Y-12299714D01*
X29577071Y-12299714D01*
X29605643Y-12314000D01*
X29719928Y-12614000D02*
X29734214Y-12599714D01*
X29762786Y-12556857D01*
X29777071Y-12528286D01*
X29791357Y-12485429D01*
X29805643Y-12414000D01*
X29805643Y-12356857D01*
X29791357Y-12285429D01*
X29777071Y-12242571D01*
X29762786Y-12214000D01*
X29734214Y-12171143D01*
X29719928Y-12156857D01*
X23218856Y-12795356D02*
X23218856Y-12724644D01*
X23148144Y-12724644D01*
X23148144Y-12795356D01*
X23218856Y-12795356D01*
X23677071Y-12895714D02*
X23505643Y-12895714D01*
X23591357Y-12895714D02*
X23591357Y-12595714D01*
X23562786Y-12638571D01*
X23534214Y-12667143D01*
X23505643Y-12681429D01*
X23805643Y-12867143D02*
X23819928Y-12881429D01*
X23805643Y-12895714D01*
X23791357Y-12881429D01*
X23805643Y-12867143D01*
X23805643Y-12895714D01*
X24005643Y-12595714D02*
X24034214Y-12595714D01*
X24062786Y-12610000D01*
X24077071Y-12624286D01*
X24091357Y-12652857D01*
X24105643Y-12710000D01*
X24105643Y-12781429D01*
X24091357Y-12838571D01*
X24077071Y-12867143D01*
X24062786Y-12881429D01*
X24034214Y-12895714D01*
X24005643Y-12895714D01*
X23977071Y-12881429D01*
X23962786Y-12867143D01*
X23948500Y-12838571D01*
X23934214Y-12781429D01*
X23934214Y-12710000D01*
X23948500Y-12652857D01*
X23962786Y-12624286D01*
X23977071Y-12610000D01*
X24005643Y-12595714D01*
X24291357Y-12595714D02*
X24319928Y-12595714D01*
X24348500Y-12610000D01*
X24362786Y-12624286D01*
X24377071Y-12652857D01*
X24391357Y-12710000D01*
X24391357Y-12781429D01*
X24377071Y-12838571D01*
X24362786Y-12867143D01*
X24348500Y-12881429D01*
X24319928Y-12895714D01*
X24291357Y-12895714D01*
X24262786Y-12881429D01*
X24248500Y-12867143D01*
X24234214Y-12838571D01*
X24219928Y-12781429D01*
X24219928Y-12710000D01*
X24234214Y-12652857D01*
X24248500Y-12624286D01*
X24262786Y-12610000D01*
X24291357Y-12595714D01*
X24519928Y-12895714D02*
X24519928Y-12695714D01*
X24519928Y-12724286D02*
X24534214Y-12710000D01*
X24562786Y-12695714D01*
X24605643Y-12695714D01*
X24634214Y-12710000D01*
X24648500Y-12738571D01*
X24648500Y-12895714D01*
X24648500Y-12738571D02*
X24662786Y-12710000D01*
X24691357Y-12695714D01*
X24734214Y-12695714D01*
X24762786Y-12710000D01*
X24777071Y-12738571D01*
X24777071Y-12895714D01*
X24919928Y-12895714D02*
X24919928Y-12695714D01*
X24919928Y-12724286D02*
X24934214Y-12710000D01*
X24962786Y-12695714D01*
X25005643Y-12695714D01*
X25034214Y-12710000D01*
X25048500Y-12738571D01*
X25048500Y-12895714D01*
X25048500Y-12738571D02*
X25062786Y-12710000D01*
X25091357Y-12695714D01*
X25134214Y-12695714D01*
X25162786Y-12710000D01*
X25177071Y-12738571D01*
X25177071Y-12895714D01*
X25762786Y-12581429D02*
X25505643Y-12967143D01*
X26148500Y-12595714D02*
X26177071Y-12595714D01*
X26205643Y-12610000D01*
X26219928Y-12624286D01*
X26234214Y-12652857D01*
X26248500Y-12710000D01*
X26248500Y-12781429D01*
X26234214Y-12838571D01*
X26219928Y-12867143D01*
X26205643Y-12881429D01*
X26177071Y-12895714D01*
X26148500Y-12895714D01*
X26119928Y-12881429D01*
X26105643Y-12867143D01*
X26091357Y-12838571D01*
X26077071Y-12781429D01*
X26077071Y-12710000D01*
X26091357Y-12652857D01*
X26105643Y-12624286D01*
X26119928Y-12610000D01*
X26148500Y-12595714D01*
X26377071Y-12867143D02*
X26391357Y-12881429D01*
X26377071Y-12895714D01*
X26362786Y-12881429D01*
X26377071Y-12867143D01*
X26377071Y-12895714D01*
X26577071Y-12595714D02*
X26605643Y-12595714D01*
X26634214Y-12610000D01*
X26648500Y-12624286D01*
X26662786Y-12652857D01*
X26677071Y-12710000D01*
X26677071Y-12781429D01*
X26662786Y-12838571D01*
X26648500Y-12867143D01*
X26634214Y-12881429D01*
X26605643Y-12895714D01*
X26577071Y-12895714D01*
X26548500Y-12881429D01*
X26534214Y-12867143D01*
X26519928Y-12838571D01*
X26505643Y-12781429D01*
X26505643Y-12710000D01*
X26519928Y-12652857D01*
X26534214Y-12624286D01*
X26548500Y-12610000D01*
X26577071Y-12595714D01*
X26777071Y-12595714D02*
X26962786Y-12595714D01*
X26862786Y-12710000D01*
X26905643Y-12710000D01*
X26934214Y-12724286D01*
X26948500Y-12738571D01*
X26962786Y-12767143D01*
X26962786Y-12838571D01*
X26948500Y-12867143D01*
X26934214Y-12881429D01*
X26905643Y-12895714D01*
X26819928Y-12895714D01*
X26791357Y-12881429D01*
X26777071Y-12867143D01*
X27105643Y-12895714D02*
X27162786Y-12895714D01*
X27191357Y-12881429D01*
X27205643Y-12867143D01*
X27234214Y-12824286D01*
X27248500Y-12767143D01*
X27248500Y-12652857D01*
X27234214Y-12624286D01*
X27219928Y-12610000D01*
X27191357Y-12595714D01*
X27134214Y-12595714D01*
X27105643Y-12610000D01*
X27091357Y-12624286D01*
X27077071Y-12652857D01*
X27077071Y-12724286D01*
X27091357Y-12752857D01*
X27105643Y-12767143D01*
X27134214Y-12781429D01*
X27191357Y-12781429D01*
X27219928Y-12767143D01*
X27234214Y-12752857D01*
X27248500Y-12724286D01*
X27362786Y-12595714D02*
X27362786Y-12652857D01*
X27477071Y-12595714D02*
X27477071Y-12652857D01*
X27919928Y-13010000D02*
X27905643Y-12995714D01*
X27877071Y-12952857D01*
X27862786Y-12924286D01*
X27848500Y-12881429D01*
X27834214Y-12810000D01*
X27834214Y-12752857D01*
X27848500Y-12681429D01*
X27862786Y-12638571D01*
X27877071Y-12610000D01*
X27905643Y-12567143D01*
X27919928Y-12552857D01*
X28019928Y-12624286D02*
X28034214Y-12610000D01*
X28062786Y-12595714D01*
X28134214Y-12595714D01*
X28162786Y-12610000D01*
X28177071Y-12624286D01*
X28191357Y-12652857D01*
X28191357Y-12681429D01*
X28177071Y-12724286D01*
X28005643Y-12895714D01*
X28191357Y-12895714D01*
X28305643Y-12624286D02*
X28319928Y-12610000D01*
X28348500Y-12595714D01*
X28419928Y-12595714D01*
X28448500Y-12610000D01*
X28462786Y-12624286D01*
X28477071Y-12652857D01*
X28477071Y-12681429D01*
X28462786Y-12724286D01*
X28291357Y-12895714D01*
X28477071Y-12895714D01*
X28834214Y-12895714D02*
X28834214Y-12595714D01*
X28962786Y-12895714D02*
X28962786Y-12738571D01*
X28948500Y-12710000D01*
X28919928Y-12695714D01*
X28877071Y-12695714D01*
X28848500Y-12710000D01*
X28834214Y-12724286D01*
X29148500Y-12895714D02*
X29119928Y-12881429D01*
X29105643Y-12867143D01*
X29091357Y-12838571D01*
X29091357Y-12752857D01*
X29105643Y-12724286D01*
X29119928Y-12710000D01*
X29148500Y-12695714D01*
X29191357Y-12695714D01*
X29219928Y-12710000D01*
X29234214Y-12724286D01*
X29248500Y-12752857D01*
X29248500Y-12838571D01*
X29234214Y-12867143D01*
X29219928Y-12881429D01*
X29191357Y-12895714D01*
X29148500Y-12895714D01*
X29419928Y-12895714D02*
X29391357Y-12881429D01*
X29377071Y-12852857D01*
X29377071Y-12595714D01*
X29648500Y-12881429D02*
X29619928Y-12895714D01*
X29562786Y-12895714D01*
X29534214Y-12881429D01*
X29519928Y-12852857D01*
X29519928Y-12738571D01*
X29534214Y-12710000D01*
X29562786Y-12695714D01*
X29619928Y-12695714D01*
X29648500Y-12710000D01*
X29662786Y-12738571D01*
X29662786Y-12767143D01*
X29519928Y-12795714D01*
X29777071Y-12881429D02*
X29805643Y-12895714D01*
X29862786Y-12895714D01*
X29891357Y-12881429D01*
X29905643Y-12852857D01*
X29905643Y-12838571D01*
X29891357Y-12810000D01*
X29862786Y-12795714D01*
X29819928Y-12795714D01*
X29791357Y-12781429D01*
X29777071Y-12752857D01*
X29777071Y-12738571D01*
X29791357Y-12710000D01*
X29819928Y-12695714D01*
X29862786Y-12695714D01*
X29891357Y-12710000D01*
X30005643Y-13010000D02*
X30019928Y-12995714D01*
X30048500Y-12952857D01*
X30062786Y-12924286D01*
X30077071Y-12881429D01*
X30091357Y-12810000D01*
X30091357Y-12752857D01*
X30077071Y-12681429D01*
X30062786Y-12638571D01*
X30048500Y-12610000D01*
X30019928Y-12567143D01*
X30005643Y-12552857D01*
X23178500Y-13211000D02*
X23233500Y-13156000D01*
X23178500Y-13101000D01*
X23123500Y-13156000D01*
X23178500Y-13211000D01*
X23677071Y-13291714D02*
X23505643Y-13291714D01*
X23591357Y-13291714D02*
X23591357Y-12991714D01*
X23562786Y-13034571D01*
X23534214Y-13063143D01*
X23505643Y-13077429D01*
X23805643Y-13263143D02*
X23819928Y-13277429D01*
X23805643Y-13291714D01*
X23791357Y-13277429D01*
X23805643Y-13263143D01*
X23805643Y-13291714D01*
X24105643Y-13291714D02*
X23934214Y-13291714D01*
X24019928Y-13291714D02*
X24019928Y-12991714D01*
X23991357Y-13034571D01*
X23962786Y-13063143D01*
X23934214Y-13077429D01*
X24291357Y-12991714D02*
X24319928Y-12991714D01*
X24348500Y-13006000D01*
X24362786Y-13020286D01*
X24377071Y-13048857D01*
X24391357Y-13106000D01*
X24391357Y-13177429D01*
X24377071Y-13234571D01*
X24362786Y-13263143D01*
X24348500Y-13277429D01*
X24319928Y-13291714D01*
X24291357Y-13291714D01*
X24262786Y-13277429D01*
X24248500Y-13263143D01*
X24234214Y-13234571D01*
X24219928Y-13177429D01*
X24219928Y-13106000D01*
X24234214Y-13048857D01*
X24248500Y-13020286D01*
X24262786Y-13006000D01*
X24291357Y-12991714D01*
X24519928Y-13291714D02*
X24519928Y-13091714D01*
X24519928Y-13120286D02*
X24534214Y-13106000D01*
X24562786Y-13091714D01*
X24605643Y-13091714D01*
X24634214Y-13106000D01*
X24648500Y-13134571D01*
X24648500Y-13291714D01*
X24648500Y-13134571D02*
X24662786Y-13106000D01*
X24691357Y-13091714D01*
X24734214Y-13091714D01*
X24762786Y-13106000D01*
X24777071Y-13134571D01*
X24777071Y-13291714D01*
X24919928Y-13291714D02*
X24919928Y-13091714D01*
X24919928Y-13120286D02*
X24934214Y-13106000D01*
X24962786Y-13091714D01*
X25005643Y-13091714D01*
X25034214Y-13106000D01*
X25048500Y-13134571D01*
X25048500Y-13291714D01*
X25048500Y-13134571D02*
X25062786Y-13106000D01*
X25091357Y-13091714D01*
X25134214Y-13091714D01*
X25162786Y-13106000D01*
X25177071Y-13134571D01*
X25177071Y-13291714D01*
X25762786Y-12977429D02*
X25505643Y-13363143D01*
X26148500Y-12991714D02*
X26177071Y-12991714D01*
X26205643Y-13006000D01*
X26219928Y-13020286D01*
X26234214Y-13048857D01*
X26248500Y-13106000D01*
X26248500Y-13177429D01*
X26234214Y-13234571D01*
X26219928Y-13263143D01*
X26205643Y-13277429D01*
X26177071Y-13291714D01*
X26148500Y-13291714D01*
X26119928Y-13277429D01*
X26105643Y-13263143D01*
X26091357Y-13234571D01*
X26077071Y-13177429D01*
X26077071Y-13106000D01*
X26091357Y-13048857D01*
X26105643Y-13020286D01*
X26119928Y-13006000D01*
X26148500Y-12991714D01*
X26377071Y-13263143D02*
X26391357Y-13277429D01*
X26377071Y-13291714D01*
X26362786Y-13277429D01*
X26377071Y-13263143D01*
X26377071Y-13291714D01*
X26577071Y-12991714D02*
X26605643Y-12991714D01*
X26634214Y-13006000D01*
X26648500Y-13020286D01*
X26662786Y-13048857D01*
X26677071Y-13106000D01*
X26677071Y-13177429D01*
X26662786Y-13234571D01*
X26648500Y-13263143D01*
X26634214Y-13277429D01*
X26605643Y-13291714D01*
X26577071Y-13291714D01*
X26548500Y-13277429D01*
X26534214Y-13263143D01*
X26519928Y-13234571D01*
X26505643Y-13177429D01*
X26505643Y-13106000D01*
X26519928Y-13048857D01*
X26534214Y-13020286D01*
X26548500Y-13006000D01*
X26577071Y-12991714D01*
X26934214Y-13091714D02*
X26934214Y-13291714D01*
X26862786Y-12977429D02*
X26791357Y-13191714D01*
X26977071Y-13191714D01*
X27062786Y-12991714D02*
X27248500Y-12991714D01*
X27148500Y-13106000D01*
X27191357Y-13106000D01*
X27219928Y-13120286D01*
X27234214Y-13134571D01*
X27248500Y-13163143D01*
X27248500Y-13234571D01*
X27234214Y-13263143D01*
X27219928Y-13277429D01*
X27191357Y-13291714D01*
X27105643Y-13291714D01*
X27077071Y-13277429D01*
X27062786Y-13263143D01*
X27362786Y-12991714D02*
X27362786Y-13048857D01*
X27477071Y-12991714D02*
X27477071Y-13048857D01*
X27919928Y-13406000D02*
X27905643Y-13391714D01*
X27877071Y-13348857D01*
X27862786Y-13320286D01*
X27848500Y-13277429D01*
X27834214Y-13206000D01*
X27834214Y-13148857D01*
X27848500Y-13077429D01*
X27862786Y-13034571D01*
X27877071Y-13006000D01*
X27905643Y-12963143D01*
X27919928Y-12948857D01*
X28162786Y-13091714D02*
X28162786Y-13291714D01*
X28091357Y-12977429D02*
X28019928Y-13191714D01*
X28205643Y-13191714D01*
X28291357Y-12991714D02*
X28477071Y-12991714D01*
X28377071Y-13106000D01*
X28419928Y-13106000D01*
X28448500Y-13120286D01*
X28462786Y-13134571D01*
X28477071Y-13163143D01*
X28477071Y-13234571D01*
X28462786Y-13263143D01*
X28448500Y-13277429D01*
X28419928Y-13291714D01*
X28334214Y-13291714D01*
X28305643Y-13277429D01*
X28291357Y-13263143D01*
X28834214Y-13291714D02*
X28834214Y-12991714D01*
X28962786Y-13291714D02*
X28962786Y-13134571D01*
X28948500Y-13106000D01*
X28919928Y-13091714D01*
X28877071Y-13091714D01*
X28848500Y-13106000D01*
X28834214Y-13120286D01*
X29148500Y-13291714D02*
X29119928Y-13277429D01*
X29105643Y-13263143D01*
X29091357Y-13234571D01*
X29091357Y-13148857D01*
X29105643Y-13120286D01*
X29119928Y-13106000D01*
X29148500Y-13091714D01*
X29191357Y-13091714D01*
X29219928Y-13106000D01*
X29234214Y-13120286D01*
X29248500Y-13148857D01*
X29248500Y-13234571D01*
X29234214Y-13263143D01*
X29219928Y-13277429D01*
X29191357Y-13291714D01*
X29148500Y-13291714D01*
X29419928Y-13291714D02*
X29391357Y-13277429D01*
X29377071Y-13248857D01*
X29377071Y-12991714D01*
X29648500Y-13277429D02*
X29619928Y-13291714D01*
X29562786Y-13291714D01*
X29534214Y-13277429D01*
X29519928Y-13248857D01*
X29519928Y-13134571D01*
X29534214Y-13106000D01*
X29562786Y-13091714D01*
X29619928Y-13091714D01*
X29648500Y-13106000D01*
X29662786Y-13134571D01*
X29662786Y-13163143D01*
X29519928Y-13191714D01*
X29777071Y-13277429D02*
X29805643Y-13291714D01*
X29862786Y-13291714D01*
X29891357Y-13277429D01*
X29905643Y-13248857D01*
X29905643Y-13234571D01*
X29891357Y-13206000D01*
X29862786Y-13191714D01*
X29819928Y-13191714D01*
X29791357Y-13177429D01*
X29777071Y-13148857D01*
X29777071Y-13134571D01*
X29791357Y-13106000D01*
X29819928Y-13091714D01*
X29862786Y-13091714D01*
X29891357Y-13106000D01*
X30005643Y-13406000D02*
X30019928Y-13391714D01*
X30048500Y-13348857D01*
X30062786Y-13320286D01*
X30077071Y-13277429D01*
X30091357Y-13206000D01*
X30091357Y-13148857D01*
X30077071Y-13077429D01*
X30062786Y-13034571D01*
X30048500Y-13006000D01*
X30019928Y-12963143D01*
X30005643Y-12948857D01*
M02*
