%TF.GenerationSoftware,KiCad,Pcbnew,5.1.9*%
%TF.CreationDate,2021-04-30T01:58:32+02:00*%
%TF.ProjectId,project,70726f6a-6563-4742-9e6b-696361645f70,rev?*%
%TF.SameCoordinates,Original*%
%TF.FileFunction,Copper,L1,Top*%
%TF.FilePolarity,Positive*%
%FSLAX46Y46*%
G04 Gerber Fmt 4.6, Leading zero omitted, Abs format (unit mm)*
G04 Created by KiCad (PCBNEW 5.1.9) date 2021-04-30 01:58:32*
%MOMM*%
%LPD*%
G01*
G04 APERTURE LIST*
%TA.AperFunction,ComponentPad*%
%ADD10C,1.800000*%
%TD*%
%TA.AperFunction,ComponentPad*%
%ADD11O,1.070000X1.800000*%
%TD*%
%TA.AperFunction,ComponentPad*%
%ADD12R,1.070000X1.800000*%
%TD*%
%TA.AperFunction,ComponentPad*%
%ADD13C,2.000000*%
%TD*%
%TA.AperFunction,ComponentPad*%
%ADD14O,1.600000X1.600000*%
%TD*%
%TA.AperFunction,ComponentPad*%
%ADD15C,1.600000*%
%TD*%
%TA.AperFunction,ComponentPad*%
%ADD16R,2.000000X2.000000*%
%TD*%
%TA.AperFunction,ViaPad*%
%ADD17C,0.800000*%
%TD*%
%TA.AperFunction,Conductor*%
%ADD18C,0.250000*%
%TD*%
%TA.AperFunction,Conductor*%
%ADD19C,0.254000*%
%TD*%
%TA.AperFunction,Conductor*%
%ADD20C,0.100000*%
%TD*%
G04 APERTURE END LIST*
D10*
%TO.P,U1,17*%
%TO.N,GND*%
X257810000Y-71120000D03*
%TO.P,U1,18*%
%TO.N,Net-(U1-Pad18)*%
X255270000Y-71120000D03*
%TO.P,U1,19*%
%TO.N,Net-(U1-Pad19)*%
X252730000Y-71120000D03*
%TO.P,U1,20*%
%TO.N,/SCK*%
X250190000Y-71120000D03*
%TO.P,U1,16*%
%TO.N,Net-(U1-Pad16)*%
X260350000Y-71120000D03*
%TO.P,U1,15*%
%TO.N,Net-(U1-Pad15)*%
X262890000Y-71120000D03*
%TO.P,U1,14*%
%TO.N,/MISO*%
X265430000Y-71120000D03*
%TO.P,U1,21*%
%TO.N,Net-(U1-Pad21)*%
X250190000Y-73660000D03*
%TO.P,U1,22*%
%TO.N,/bat_read*%
X250190000Y-76200000D03*
%TO.P,U1,23*%
%TO.N,Net-(U1-Pad23)*%
X250190000Y-78740000D03*
%TO.P,U1,24*%
%TO.N,Net-(U1-Pad24)*%
X250190000Y-81280000D03*
%TO.P,U1,25*%
%TO.N,/SDA*%
X250190000Y-83820000D03*
%TO.P,U1,26*%
%TO.N,/SCL*%
X250190000Y-86360000D03*
%TO.P,U1,27*%
%TO.N,/RF-CS*%
X250190000Y-88900000D03*
%TO.P,U1,28*%
%TO.N,/RF-G0*%
X250190000Y-91440000D03*
%TO.P,U1,29*%
%TO.N,/RF-RST*%
X250190000Y-93980000D03*
%TO.P,U1,30*%
%TO.N,/BUZZ*%
X250190000Y-96520000D03*
%TO.P,U1,31*%
%TO.N,3V3*%
X250190000Y-99060000D03*
%TO.P,U1,32*%
%TO.N,GND*%
X250190000Y-101600000D03*
%TO.P,U1,33*%
%TO.N,VIN*%
X250190000Y-104140000D03*
%TO.P,U1,34*%
%TO.N,Net-(U1-Pad34)*%
X252730000Y-101600000D03*
%TO.P,U1,13*%
%TO.N,/MOSI*%
X265430000Y-73660000D03*
%TO.P,U1,12*%
%TO.N,/FLASH-CS*%
X265430000Y-76200000D03*
%TO.P,U1,11*%
%TO.N,/FLASH-WP*%
X265430000Y-78740000D03*
%TO.P,U1,10*%
%TO.N,/FLASH-HOLD*%
X265430000Y-81280000D03*
%TO.P,U1,9*%
%TO.N,/EXT-CS*%
X265430000Y-83820000D03*
%TO.P,U1,8*%
%TO.N,Net-(U1-Pad8)*%
X265430000Y-86360000D03*
%TO.P,U1,7*%
%TO.N,Net-(U1-Pad7)*%
X265430000Y-88900000D03*
%TO.P,U1,6*%
%TO.N,/LED-B*%
X265430000Y-91440000D03*
%TO.P,U1,5*%
%TO.N,/LED-G*%
X265430000Y-93980000D03*
%TO.P,U1,4*%
%TO.N,/LED-R*%
X265430000Y-96520000D03*
%TO.P,U1,3*%
%TO.N,/TX1*%
X265430000Y-99060000D03*
%TO.P,U1,2*%
%TO.N,/RX1*%
X265430000Y-101600000D03*
%TO.P,U1,1*%
%TO.N,GND*%
X265430000Y-104140000D03*
%TD*%
D11*
%TO.P,D1,3*%
%TO.N,Net-(D1-Pad3)*%
X241300000Y-48260000D03*
%TO.P,D1,2*%
%TO.N,Net-(D1-Pad2)*%
X240030000Y-48260000D03*
%TO.P,D1,4*%
%TO.N,GND*%
X238760000Y-48260000D03*
D12*
%TO.P,D1,1*%
%TO.N,Net-(D1-Pad1)*%
X237490000Y-48260000D03*
%TD*%
%TO.P,U4,8*%
%TO.N,3V3*%
%TA.AperFunction,SMDPad,CuDef*%
G36*
G01*
X259340000Y-49045000D02*
X259340000Y-48745000D01*
G75*
G02*
X259490000Y-48595000I150000J0D01*
G01*
X260790000Y-48595000D01*
G75*
G02*
X260940000Y-48745000I0J-150000D01*
G01*
X260940000Y-49045000D01*
G75*
G02*
X260790000Y-49195000I-150000J0D01*
G01*
X259490000Y-49195000D01*
G75*
G02*
X259340000Y-49045000I0J150000D01*
G01*
G37*
%TD.AperFunction*%
%TO.P,U4,7*%
%TO.N,/FLASH-HOLD*%
%TA.AperFunction,SMDPad,CuDef*%
G36*
G01*
X259340000Y-50315000D02*
X259340000Y-50015000D01*
G75*
G02*
X259490000Y-49865000I150000J0D01*
G01*
X260790000Y-49865000D01*
G75*
G02*
X260940000Y-50015000I0J-150000D01*
G01*
X260940000Y-50315000D01*
G75*
G02*
X260790000Y-50465000I-150000J0D01*
G01*
X259490000Y-50465000D01*
G75*
G02*
X259340000Y-50315000I0J150000D01*
G01*
G37*
%TD.AperFunction*%
%TO.P,U4,6*%
%TO.N,/SCK*%
%TA.AperFunction,SMDPad,CuDef*%
G36*
G01*
X259340000Y-51585000D02*
X259340000Y-51285000D01*
G75*
G02*
X259490000Y-51135000I150000J0D01*
G01*
X260790000Y-51135000D01*
G75*
G02*
X260940000Y-51285000I0J-150000D01*
G01*
X260940000Y-51585000D01*
G75*
G02*
X260790000Y-51735000I-150000J0D01*
G01*
X259490000Y-51735000D01*
G75*
G02*
X259340000Y-51585000I0J150000D01*
G01*
G37*
%TD.AperFunction*%
%TO.P,U4,5*%
%TO.N,/MOSI*%
%TA.AperFunction,SMDPad,CuDef*%
G36*
G01*
X259340000Y-52855000D02*
X259340000Y-52555000D01*
G75*
G02*
X259490000Y-52405000I150000J0D01*
G01*
X260790000Y-52405000D01*
G75*
G02*
X260940000Y-52555000I0J-150000D01*
G01*
X260940000Y-52855000D01*
G75*
G02*
X260790000Y-53005000I-150000J0D01*
G01*
X259490000Y-53005000D01*
G75*
G02*
X259340000Y-52855000I0J150000D01*
G01*
G37*
%TD.AperFunction*%
%TO.P,U4,4*%
%TO.N,GND*%
%TA.AperFunction,SMDPad,CuDef*%
G36*
G01*
X252140000Y-52855000D02*
X252140000Y-52555000D01*
G75*
G02*
X252290000Y-52405000I150000J0D01*
G01*
X253590000Y-52405000D01*
G75*
G02*
X253740000Y-52555000I0J-150000D01*
G01*
X253740000Y-52855000D01*
G75*
G02*
X253590000Y-53005000I-150000J0D01*
G01*
X252290000Y-53005000D01*
G75*
G02*
X252140000Y-52855000I0J150000D01*
G01*
G37*
%TD.AperFunction*%
%TO.P,U4,3*%
%TO.N,/FLASH-WP*%
%TA.AperFunction,SMDPad,CuDef*%
G36*
G01*
X252140000Y-51585000D02*
X252140000Y-51285000D01*
G75*
G02*
X252290000Y-51135000I150000J0D01*
G01*
X253590000Y-51135000D01*
G75*
G02*
X253740000Y-51285000I0J-150000D01*
G01*
X253740000Y-51585000D01*
G75*
G02*
X253590000Y-51735000I-150000J0D01*
G01*
X252290000Y-51735000D01*
G75*
G02*
X252140000Y-51585000I0J150000D01*
G01*
G37*
%TD.AperFunction*%
%TO.P,U4,2*%
%TO.N,/MISO*%
%TA.AperFunction,SMDPad,CuDef*%
G36*
G01*
X252140000Y-50315000D02*
X252140000Y-50015000D01*
G75*
G02*
X252290000Y-49865000I150000J0D01*
G01*
X253590000Y-49865000D01*
G75*
G02*
X253740000Y-50015000I0J-150000D01*
G01*
X253740000Y-50315000D01*
G75*
G02*
X253590000Y-50465000I-150000J0D01*
G01*
X252290000Y-50465000D01*
G75*
G02*
X252140000Y-50315000I0J150000D01*
G01*
G37*
%TD.AperFunction*%
%TO.P,U4,1*%
%TO.N,/FLASH-CS*%
%TA.AperFunction,SMDPad,CuDef*%
G36*
G01*
X252140000Y-49045000D02*
X252140000Y-48745000D01*
G75*
G02*
X252290000Y-48595000I150000J0D01*
G01*
X253590000Y-48595000D01*
G75*
G02*
X253740000Y-48745000I0J-150000D01*
G01*
X253740000Y-49045000D01*
G75*
G02*
X253590000Y-49195000I-150000J0D01*
G01*
X252290000Y-49195000D01*
G75*
G02*
X252140000Y-49045000I0J150000D01*
G01*
G37*
%TD.AperFunction*%
%TD*%
D10*
%TO.P,U3,8*%
%TO.N,Net-(U3-Pad8)*%
X246380000Y-71120000D03*
%TO.P,U3,7*%
%TO.N,Net-(U3-Pad7)*%
X246380000Y-73660000D03*
%TO.P,U3,6*%
%TO.N,Net-(U3-Pad6)*%
X246380000Y-76200000D03*
%TO.P,U3,5*%
%TO.N,/SDA*%
X246380000Y-78740000D03*
%TO.P,U3,4*%
%TO.N,/SCL*%
X246380000Y-81280000D03*
%TO.P,U3,3*%
%TO.N,GND*%
X246380000Y-83820000D03*
%TO.P,U3,2*%
%TO.N,Net-(U3-Pad2)*%
X246380000Y-86360000D03*
%TO.P,U3,1*%
%TO.N,3V3*%
X246380000Y-88900000D03*
%TD*%
D13*
%TO.P,U2,9*%
%TO.N,/RF-RST*%
X257810000Y-40640000D03*
%TO.P,U2,8*%
%TO.N,/RF-CS*%
X255270000Y-40640000D03*
%TO.P,U2,7*%
%TO.N,/MOSI*%
X252730000Y-40640000D03*
%TO.P,U2,6*%
%TO.N,/MISO*%
X250190000Y-40640000D03*
%TO.P,U2,5*%
%TO.N,/SCK*%
X247650000Y-40640000D03*
%TO.P,U2,4*%
%TO.N,/RF-G0*%
X245110000Y-40640000D03*
%TO.P,U2,3*%
%TO.N,Net-(U2-Pad3)*%
X242570000Y-40640000D03*
%TO.P,U2,2*%
%TO.N,GND*%
X240030000Y-40640000D03*
%TO.P,U2,1*%
%TO.N,3V3*%
X237490000Y-40640000D03*
%TD*%
D14*
%TO.P,R5,2*%
%TO.N,Net-(D1-Pad2)*%
X241300000Y-53340000D03*
D15*
%TO.P,R5,1*%
%TO.N,/LED-G*%
X241300000Y-58420000D03*
%TD*%
D14*
%TO.P,R4,2*%
%TO.N,Net-(D1-Pad3)*%
X246380000Y-53340000D03*
D15*
%TO.P,R4,1*%
%TO.N,/LED-B*%
X246380000Y-58420000D03*
%TD*%
D14*
%TO.P,R3,2*%
%TO.N,Net-(D1-Pad1)*%
X236220000Y-53340000D03*
D15*
%TO.P,R3,1*%
%TO.N,/LED-R*%
X236220000Y-58420000D03*
%TD*%
D14*
%TO.P,R2,2*%
%TO.N,/bat_read*%
X255270000Y-62230000D03*
D15*
%TO.P,R2,1*%
%TO.N,GND*%
X255270000Y-67310000D03*
%TD*%
D14*
%TO.P,R1,2*%
%TO.N,VIN*%
X250190000Y-62230000D03*
D15*
%TO.P,R1,1*%
%TO.N,/bat_read*%
X250190000Y-67310000D03*
%TD*%
D10*
%TO.P,J1,10*%
%TO.N,/RX1*%
X265430000Y-66040000D03*
%TO.P,J1,9*%
%TO.N,/TX1*%
X265430000Y-63500000D03*
%TO.P,J1,8*%
%TO.N,/SCK*%
X265430000Y-60960000D03*
%TO.P,J1,7*%
%TO.N,/MISO*%
X265430000Y-58420000D03*
%TO.P,J1,6*%
%TO.N,/MOSI*%
X265430000Y-55880000D03*
%TO.P,J1,5*%
%TO.N,/EXT-CS*%
X265430000Y-53340000D03*
%TO.P,J1,4*%
%TO.N,/SDA*%
X265430000Y-50800000D03*
%TO.P,J1,3*%
%TO.N,/SCL*%
X265430000Y-48260000D03*
%TO.P,J1,2*%
%TO.N,3V3*%
X265430000Y-45720000D03*
%TO.P,J1,1*%
%TO.N,GND*%
X265430000Y-43180000D03*
%TD*%
D14*
%TO.P,C2,2*%
%TO.N,3V3*%
X260350000Y-62230000D03*
D15*
%TO.P,C2,1*%
%TO.N,GND*%
X260350000Y-67310000D03*
%TD*%
D14*
%TO.P,C1,2*%
%TO.N,VIN*%
X245110000Y-62230000D03*
D15*
%TO.P,C1,1*%
%TO.N,GND*%
X245110000Y-67310000D03*
%TD*%
D13*
%TO.P,BZ1,2*%
%TO.N,GND*%
X236220000Y-98425000D03*
D16*
%TO.P,BZ1,1*%
%TO.N,/BUZZ*%
X243840000Y-98425000D03*
%TD*%
D10*
%TO.P,BAT1,2*%
%TO.N,VIN*%
X237490000Y-63500000D03*
%TO.P,BAT1,1*%
%TO.N,GND*%
X237490000Y-66040000D03*
%TD*%
D17*
%TO.N,GND*%
X259715000Y-85725000D03*
X252730000Y-44450000D03*
X238125000Y-92710000D03*
X262890000Y-40005000D03*
%TO.N,VIN*%
X238760000Y-85725000D03*
%TO.N,GND*%
X241935000Y-85725000D03*
X260350000Y-44450000D03*
X251460000Y-52705000D03*
X238125000Y-52070000D03*
%TO.N,3V3*%
X259080000Y-45720000D03*
X258535001Y-48985001D03*
%TO.N,/SCK*%
X261620000Y-51435000D03*
%TO.N,/EXT-CS*%
X256395001Y-69359999D03*
X262255000Y-53340000D03*
%TO.N,/FLASH-CS*%
X249064999Y-52560001D03*
%TO.N,/FLASH-WP*%
X250190000Y-51435000D03*
%TO.N,/FLASH-HOLD*%
X257175000Y-55245000D03*
X257810000Y-50165000D03*
%TD*%
D18*
%TO.N,VIN*%
X243840000Y-63500000D02*
X245110000Y-62230000D01*
X237490000Y-63500000D02*
X243840000Y-63500000D01*
X250190000Y-62230000D02*
X245110000Y-62230000D01*
X235585000Y-82550000D02*
X238760000Y-85725000D01*
X235585000Y-64135000D02*
X235585000Y-82550000D01*
X236220000Y-63500000D02*
X235585000Y-64135000D01*
X237490000Y-63500000D02*
X236220000Y-63500000D01*
%TO.N,GND*%
X255270000Y-67310000D02*
X256540000Y-67310000D01*
X257810000Y-68580000D02*
X257810000Y-71120000D01*
X260350000Y-67310000D02*
X259080000Y-67310000D01*
X257810000Y-68580000D02*
X259080000Y-67310000D01*
X243840000Y-66040000D02*
X245110000Y-67310000D01*
X237490000Y-66040000D02*
X243840000Y-66040000D01*
X238760000Y-41910000D02*
X240030000Y-40640000D01*
X238760000Y-48260000D02*
X238760000Y-41910000D01*
X245110000Y-82550000D02*
X246380000Y-83820000D01*
X245110000Y-67310000D02*
X245110000Y-82550000D01*
X245110000Y-82550000D02*
X242570000Y-85090000D01*
X242570000Y-85090000D02*
X241935000Y-85725000D01*
X241935000Y-85725000D02*
X241935000Y-85725000D01*
X261620000Y-43180000D02*
X260350000Y-44450000D01*
X265430000Y-43180000D02*
X261620000Y-43180000D01*
X256540000Y-67310000D02*
X257810000Y-68580000D01*
X256395001Y-66184999D02*
X255270000Y-67310000D01*
X256395001Y-60180001D02*
X256395001Y-66184999D01*
X252940000Y-56725000D02*
X256395001Y-60180001D01*
X252940000Y-52705000D02*
X252940000Y-56725000D01*
X252940000Y-52705000D02*
X251460000Y-52705000D01*
X251460000Y-52705000D02*
X251460000Y-52705000D01*
X239395000Y-101600000D02*
X250190000Y-101600000D01*
X236220000Y-98425000D02*
X239395000Y-101600000D01*
%TO.N,/BUZZ*%
X246380000Y-96520000D02*
X243840000Y-99060000D01*
X250190000Y-96520000D02*
X246380000Y-96520000D01*
%TO.N,3V3*%
X263315000Y-45720000D02*
X260140000Y-48895000D01*
X265430000Y-45720000D02*
X263315000Y-45720000D01*
X234894999Y-43235001D02*
X234894999Y-86304999D01*
X237490000Y-40640000D02*
X234894999Y-43235001D01*
X237490000Y-88900000D02*
X246380000Y-88900000D01*
X234894999Y-86304999D02*
X237490000Y-88900000D01*
X260140000Y-48895000D02*
X260140000Y-46780000D01*
X260140000Y-46780000D02*
X259080000Y-45720000D01*
X259080000Y-45720000D02*
X259080000Y-45720000D01*
X258625002Y-48895000D02*
X258535001Y-48985001D01*
X260140000Y-48895000D02*
X258625002Y-48895000D01*
X251415001Y-97834999D02*
X250190000Y-99060000D01*
X251415001Y-95931999D02*
X251415001Y-97834999D01*
X250778001Y-95294999D02*
X251415001Y-95931999D01*
X249601999Y-95294999D02*
X250778001Y-95294999D01*
X246380000Y-92073000D02*
X249601999Y-95294999D01*
X246380000Y-88900000D02*
X246380000Y-92073000D01*
%TO.N,Net-(D1-Pad2)*%
X240030000Y-52070000D02*
X240030000Y-48260000D01*
X241300000Y-53340000D02*
X240030000Y-52070000D01*
%TO.N,Net-(D1-Pad1)*%
X236220000Y-49530000D02*
X237490000Y-48260000D01*
X236220000Y-53340000D02*
X236220000Y-49530000D01*
%TO.N,/RX1*%
X264204999Y-67265001D02*
X265430000Y-66040000D01*
X264204999Y-74248001D02*
X264204999Y-67265001D01*
X264841999Y-74885001D02*
X264204999Y-74248001D01*
X265928003Y-74885001D02*
X264841999Y-74885001D01*
X267105010Y-76062008D02*
X265928003Y-74885001D01*
X267105010Y-99924990D02*
X267105010Y-76062008D01*
X265430000Y-101600000D02*
X267105010Y-99924990D01*
%TO.N,/TX1*%
X264841999Y-77425001D02*
X261620000Y-74203002D01*
X265928003Y-77425001D02*
X264841999Y-77425001D01*
X266655001Y-78151999D02*
X265928003Y-77425001D01*
X266655001Y-97834999D02*
X266655001Y-78151999D01*
X265430000Y-99060000D02*
X266655001Y-97834999D01*
X264204999Y-64725001D02*
X265430000Y-63500000D01*
X264204999Y-65756413D02*
X264204999Y-64725001D01*
X261620000Y-68341412D02*
X264204999Y-65756413D01*
X261620000Y-74203002D02*
X261620000Y-68341412D01*
%TO.N,/SCK*%
X260140000Y-51435000D02*
X261620000Y-51435000D01*
X261620000Y-51435000D02*
X261620000Y-51435000D01*
%TO.N,/MOSI*%
X263315000Y-55880000D02*
X260140000Y-52705000D01*
X265430000Y-55880000D02*
X263315000Y-55880000D01*
X267150010Y-71939990D02*
X265430000Y-73660000D01*
X267150010Y-57600010D02*
X267150010Y-71939990D01*
X265430000Y-55880000D02*
X267150010Y-57600010D01*
X267105010Y-43042008D02*
X267105010Y-54204990D01*
X266018001Y-41954999D02*
X267105010Y-43042008D01*
X267105010Y-54204990D02*
X265430000Y-55880000D01*
X264841999Y-41954999D02*
X266018001Y-41954999D01*
X264831997Y-41965001D02*
X264841999Y-41954999D01*
X254055001Y-41965001D02*
X264831997Y-41965001D01*
X252730000Y-40640000D02*
X254055001Y-41965001D01*
%TO.N,/MISO*%
X261396768Y-58420000D02*
X257810000Y-54833232D01*
X265430000Y-58420000D02*
X261396768Y-58420000D01*
X257810000Y-54833232D02*
X257810000Y-52070000D01*
X255905000Y-50165000D02*
X252940000Y-50165000D01*
X257810000Y-52070000D02*
X255905000Y-50165000D01*
X250190000Y-40640000D02*
X252730000Y-43180000D01*
X252730000Y-43180000D02*
X254635000Y-43180000D01*
X255905000Y-44450000D02*
X255905000Y-50165000D01*
X254635000Y-43180000D02*
X255905000Y-44450000D01*
X265430000Y-58420000D02*
X266700000Y-59690000D01*
X266700000Y-69850000D02*
X265430000Y-71120000D01*
X266700000Y-59690000D02*
X266700000Y-69850000D01*
%TO.N,/EXT-CS*%
X256395001Y-69359999D02*
X256395001Y-69359999D01*
X265430000Y-53340000D02*
X262255000Y-53340000D01*
X256495001Y-69459999D02*
X256395001Y-69359999D01*
X256495001Y-74885001D02*
X256495001Y-69459999D01*
X265430000Y-83820000D02*
X256495001Y-74885001D01*
%TO.N,/SCL*%
X248285000Y-83185000D02*
X246380000Y-81280000D01*
X248285000Y-84455000D02*
X248285000Y-83185000D01*
X250190000Y-86360000D02*
X248285000Y-84455000D01*
%TO.N,/SDA*%
X246380000Y-78740000D02*
X247650000Y-78740000D01*
X247650000Y-78740000D02*
X248285000Y-79375000D01*
X248285000Y-81915000D02*
X250190000Y-83820000D01*
X248285000Y-79375000D02*
X248285000Y-81915000D01*
%TO.N,/bat_read*%
X250190000Y-67310000D02*
X251460000Y-67310000D01*
X251460000Y-67310000D02*
X252730000Y-66040000D01*
X252730000Y-66040000D02*
X252730000Y-63500000D01*
X252730000Y-63500000D02*
X254000000Y-62230000D01*
X254000000Y-62230000D02*
X255270000Y-62230000D01*
X254000000Y-72390000D02*
X250045001Y-76344999D01*
X254000000Y-63500000D02*
X254000000Y-72390000D01*
X255125001Y-62374999D02*
X254000000Y-63500000D01*
%TO.N,Net-(D1-Pad3)*%
X246380000Y-53340000D02*
X241300000Y-48260000D01*
%TO.N,/RF-G0*%
X248964999Y-66869999D02*
X251315001Y-64519997D01*
X248964999Y-76788001D02*
X248964999Y-66869999D01*
X249601999Y-77425001D02*
X248964999Y-76788001D01*
X247505001Y-57879999D02*
X247505001Y-43035001D01*
X251315001Y-61689999D02*
X247505001Y-57879999D01*
X251315001Y-64519997D02*
X251315001Y-61689999D01*
X250688003Y-77425001D02*
X249601999Y-77425001D01*
X247505001Y-43035001D02*
X245110000Y-40640000D01*
X251415001Y-78151999D02*
X250688003Y-77425001D01*
X251415001Y-90214999D02*
X251415001Y-78151999D01*
X250190000Y-91440000D02*
X251415001Y-90214999D01*
%TO.N,/RF-RST*%
X234315000Y-40299018D02*
X235299019Y-39314999D01*
X256484999Y-39314999D02*
X257810000Y-40640000D01*
X235299019Y-39314999D02*
X256484999Y-39314999D01*
X250867999Y-100285001D02*
X241255001Y-100285001D01*
X241255001Y-100285001D02*
X234315000Y-93345000D01*
X251865011Y-99287989D02*
X250867999Y-100285001D01*
X251865011Y-95655011D02*
X251865011Y-99287989D01*
X250190000Y-93980000D02*
X251865011Y-95655011D01*
X234315000Y-93345000D02*
X234315000Y-40299018D01*
%TO.N,/FLASH-CS*%
X249064999Y-52560001D02*
X249064999Y-50020001D01*
X250190000Y-48895000D02*
X252940000Y-48895000D01*
X249064999Y-50020001D02*
X250190000Y-48895000D01*
%TO.N,/FLASH-WP*%
X252940000Y-51435000D02*
X250190000Y-51435000D01*
%TO.N,/FLASH-HOLD*%
X257175000Y-55245000D02*
X257175000Y-55245000D01*
X257810000Y-50165000D02*
X260140000Y-50165000D01*
X261475001Y-59545001D02*
X257175000Y-55245000D01*
X261475001Y-67850001D02*
X261475001Y-59545001D01*
X259080000Y-70245002D02*
X261475001Y-67850001D01*
X259080000Y-74930000D02*
X259080000Y-70245002D01*
X265430000Y-81280000D02*
X259080000Y-74930000D01*
%TD*%
D19*
%TO.N,GND*%
X233803998Y-39735219D02*
X233775000Y-39759017D01*
X233751202Y-39788015D01*
X233751201Y-39788016D01*
X233680026Y-39874742D01*
X233609454Y-40006772D01*
X233565998Y-40150033D01*
X233551324Y-40299018D01*
X233555001Y-40336351D01*
X233555000Y-93307678D01*
X233551324Y-93345000D01*
X233555000Y-93382322D01*
X233555000Y-93382332D01*
X233565997Y-93493985D01*
X233609454Y-93637246D01*
X233680026Y-93769276D01*
X233719871Y-93817826D01*
X233774999Y-93885001D01*
X233804003Y-93908804D01*
X236775609Y-96880410D01*
X236478892Y-96802616D01*
X236157405Y-96783282D01*
X235838325Y-96827039D01*
X235533912Y-96932205D01*
X235359956Y-97025186D01*
X235264192Y-97289587D01*
X236220000Y-98245395D01*
X236234143Y-98231253D01*
X236413748Y-98410858D01*
X236399605Y-98425000D01*
X237355413Y-99380808D01*
X237619814Y-99285044D01*
X237760704Y-98995429D01*
X237842384Y-98683892D01*
X237861718Y-98362405D01*
X237817961Y-98043325D01*
X237754326Y-97859128D01*
X240691202Y-100796004D01*
X240715000Y-100825002D01*
X240743998Y-100848800D01*
X240830725Y-100919975D01*
X240962754Y-100990547D01*
X241106015Y-101034004D01*
X241255001Y-101048678D01*
X241292334Y-101045001D01*
X248753700Y-101045001D01*
X248740842Y-101071775D01*
X248665635Y-101364642D01*
X248649009Y-101666553D01*
X248691603Y-101965907D01*
X248791778Y-102251199D01*
X248871739Y-102400792D01*
X249125920Y-102484475D01*
X250010395Y-101600000D01*
X249996253Y-101585858D01*
X250175858Y-101406253D01*
X250190000Y-101420395D01*
X250204143Y-101406253D01*
X250383748Y-101585858D01*
X250369605Y-101600000D01*
X251254080Y-102484475D01*
X251435049Y-102424895D01*
X251537688Y-102578505D01*
X251751495Y-102792312D01*
X252002905Y-102960299D01*
X252282257Y-103076011D01*
X252578816Y-103135000D01*
X252881184Y-103135000D01*
X253177743Y-103076011D01*
X253457095Y-102960299D01*
X253708505Y-102792312D01*
X253922312Y-102578505D01*
X254090299Y-102327095D01*
X254206011Y-102047743D01*
X254265000Y-101751184D01*
X254265000Y-101448816D01*
X254206011Y-101152257D01*
X254090299Y-100872905D01*
X253922312Y-100621495D01*
X253708505Y-100407688D01*
X253457095Y-100239701D01*
X253177743Y-100123989D01*
X252881184Y-100065000D01*
X252578816Y-100065000D01*
X252282257Y-100123989D01*
X252002905Y-100239701D01*
X251958289Y-100269512D01*
X252376014Y-99851788D01*
X252405012Y-99827990D01*
X252449322Y-99773998D01*
X252499985Y-99712266D01*
X252570557Y-99580236D01*
X252594679Y-99500714D01*
X252614014Y-99436975D01*
X252625011Y-99325322D01*
X252625011Y-99325312D01*
X252628687Y-99287989D01*
X252625011Y-99250666D01*
X252625011Y-95692333D01*
X252628687Y-95655010D01*
X252625011Y-95617687D01*
X252625011Y-95617678D01*
X252614014Y-95506025D01*
X252570557Y-95362764D01*
X252499985Y-95230735D01*
X252405012Y-95115010D01*
X252376015Y-95091213D01*
X251673731Y-94388930D01*
X251725000Y-94131184D01*
X251725000Y-93828816D01*
X251666011Y-93532257D01*
X251550299Y-93252905D01*
X251382312Y-93001495D01*
X251168505Y-92787688D01*
X251052237Y-92710000D01*
X251168505Y-92632312D01*
X251382312Y-92418505D01*
X251550299Y-92167095D01*
X251666011Y-91887743D01*
X251725000Y-91591184D01*
X251725000Y-91288816D01*
X251673731Y-91031070D01*
X251926005Y-90778797D01*
X251955002Y-90755000D01*
X251981333Y-90722916D01*
X252049975Y-90639276D01*
X252120547Y-90507246D01*
X252142462Y-90435000D01*
X252164004Y-90363985D01*
X252175001Y-90252332D01*
X252175001Y-90252323D01*
X252178677Y-90215000D01*
X252175001Y-90177677D01*
X252175001Y-78189321D01*
X252178677Y-78151998D01*
X252175001Y-78114675D01*
X252175001Y-78114666D01*
X252164004Y-78003013D01*
X252120547Y-77859752D01*
X252049975Y-77727723D01*
X252007536Y-77676011D01*
X251978800Y-77640995D01*
X251978796Y-77640991D01*
X251955002Y-77611998D01*
X251926009Y-77588204D01*
X251435984Y-77098180D01*
X251550299Y-76927095D01*
X251666011Y-76647743D01*
X251725000Y-76351184D01*
X251725000Y-76048816D01*
X251673731Y-75791070D01*
X254511003Y-72953799D01*
X254540001Y-72930001D01*
X254634974Y-72814276D01*
X254705546Y-72682247D01*
X254741813Y-72562690D01*
X254822257Y-72596011D01*
X255118816Y-72655000D01*
X255421184Y-72655000D01*
X255717743Y-72596011D01*
X255735001Y-72588862D01*
X255735001Y-74847678D01*
X255731325Y-74885001D01*
X255735001Y-74922323D01*
X255735001Y-74922333D01*
X255745998Y-75033986D01*
X255789455Y-75177247D01*
X255860027Y-75309277D01*
X255863087Y-75313005D01*
X255955000Y-75425002D01*
X255984004Y-75448805D01*
X263946269Y-83411070D01*
X263895000Y-83668816D01*
X263895000Y-83971184D01*
X263953989Y-84267743D01*
X264069701Y-84547095D01*
X264237688Y-84798505D01*
X264451495Y-85012312D01*
X264567763Y-85090000D01*
X264451495Y-85167688D01*
X264237688Y-85381495D01*
X264069701Y-85632905D01*
X263953989Y-85912257D01*
X263895000Y-86208816D01*
X263895000Y-86511184D01*
X263953989Y-86807743D01*
X264069701Y-87087095D01*
X264237688Y-87338505D01*
X264451495Y-87552312D01*
X264567763Y-87630000D01*
X264451495Y-87707688D01*
X264237688Y-87921495D01*
X264069701Y-88172905D01*
X263953989Y-88452257D01*
X263895000Y-88748816D01*
X263895000Y-89051184D01*
X263953989Y-89347743D01*
X264069701Y-89627095D01*
X264237688Y-89878505D01*
X264451495Y-90092312D01*
X264567763Y-90170000D01*
X264451495Y-90247688D01*
X264237688Y-90461495D01*
X264069701Y-90712905D01*
X263953989Y-90992257D01*
X263895000Y-91288816D01*
X263895000Y-91591184D01*
X263953989Y-91887743D01*
X264069701Y-92167095D01*
X264237688Y-92418505D01*
X264451495Y-92632312D01*
X264567763Y-92710000D01*
X264451495Y-92787688D01*
X264237688Y-93001495D01*
X264069701Y-93252905D01*
X263953989Y-93532257D01*
X263895000Y-93828816D01*
X263895000Y-94131184D01*
X263953989Y-94427743D01*
X264069701Y-94707095D01*
X264237688Y-94958505D01*
X264451495Y-95172312D01*
X264567763Y-95250000D01*
X264451495Y-95327688D01*
X264237688Y-95541495D01*
X264069701Y-95792905D01*
X263953989Y-96072257D01*
X263895000Y-96368816D01*
X263895000Y-96671184D01*
X263953989Y-96967743D01*
X264069701Y-97247095D01*
X264237688Y-97498505D01*
X264451495Y-97712312D01*
X264567763Y-97790000D01*
X264451495Y-97867688D01*
X264237688Y-98081495D01*
X264069701Y-98332905D01*
X263953989Y-98612257D01*
X263895000Y-98908816D01*
X263895000Y-99211184D01*
X263953989Y-99507743D01*
X264069701Y-99787095D01*
X264237688Y-100038505D01*
X264451495Y-100252312D01*
X264567763Y-100330000D01*
X264451495Y-100407688D01*
X264237688Y-100621495D01*
X264069701Y-100872905D01*
X263953989Y-101152257D01*
X263895000Y-101448816D01*
X263895000Y-101751184D01*
X263953989Y-102047743D01*
X264069701Y-102327095D01*
X264237688Y-102578505D01*
X264451495Y-102792312D01*
X264605105Y-102894951D01*
X264545525Y-103075920D01*
X265430000Y-103960395D01*
X266314475Y-103075920D01*
X266254895Y-102894951D01*
X266408505Y-102792312D01*
X266622312Y-102578505D01*
X266790299Y-102327095D01*
X266906011Y-102047743D01*
X266965000Y-101751184D01*
X266965000Y-101448816D01*
X266913731Y-101191070D01*
X267260001Y-100844801D01*
X267260001Y-104105261D01*
X267233901Y-104371449D01*
X267166684Y-104594084D01*
X267057506Y-104799417D01*
X266910522Y-104979637D01*
X266731333Y-105127876D01*
X266526761Y-105238488D01*
X266304606Y-105307257D01*
X266279643Y-105309881D01*
X266314475Y-105204080D01*
X265430000Y-104319605D01*
X264545525Y-105204080D01*
X264588627Y-105335000D01*
X251164482Y-105335000D01*
X251168505Y-105332312D01*
X251382312Y-105118505D01*
X251550299Y-104867095D01*
X251666011Y-104587743D01*
X251725000Y-104291184D01*
X251725000Y-104206553D01*
X263889009Y-104206553D01*
X263931603Y-104505907D01*
X264031778Y-104791199D01*
X264111739Y-104940792D01*
X264365920Y-105024475D01*
X265250395Y-104140000D01*
X265609605Y-104140000D01*
X266494080Y-105024475D01*
X266748261Y-104940792D01*
X266879158Y-104668225D01*
X266954365Y-104375358D01*
X266970991Y-104073447D01*
X266928397Y-103774093D01*
X266828222Y-103488801D01*
X266748261Y-103339208D01*
X266494080Y-103255525D01*
X265609605Y-104140000D01*
X265250395Y-104140000D01*
X264365920Y-103255525D01*
X264111739Y-103339208D01*
X263980842Y-103611775D01*
X263905635Y-103904642D01*
X263889009Y-104206553D01*
X251725000Y-104206553D01*
X251725000Y-103988816D01*
X251666011Y-103692257D01*
X251550299Y-103412905D01*
X251382312Y-103161495D01*
X251168505Y-102947688D01*
X251014895Y-102845049D01*
X251074475Y-102664080D01*
X250190000Y-101779605D01*
X249305525Y-102664080D01*
X249365105Y-102845049D01*
X249211495Y-102947688D01*
X248997688Y-103161495D01*
X248829701Y-103412905D01*
X248713989Y-103692257D01*
X248655000Y-103988816D01*
X248655000Y-104291184D01*
X248713989Y-104587743D01*
X248829701Y-104867095D01*
X248997688Y-105118505D01*
X249211495Y-105332312D01*
X249215518Y-105335000D01*
X234349729Y-105335000D01*
X234083551Y-105308901D01*
X233860916Y-105241684D01*
X233655583Y-105132506D01*
X233475363Y-104985522D01*
X233327124Y-104806333D01*
X233216512Y-104601761D01*
X233147743Y-104379606D01*
X233120000Y-104115655D01*
X233120000Y-99560413D01*
X235264192Y-99560413D01*
X235359956Y-99824814D01*
X235649571Y-99965704D01*
X235961108Y-100047384D01*
X236282595Y-100066718D01*
X236601675Y-100022961D01*
X236906088Y-99917795D01*
X237080044Y-99824814D01*
X237175808Y-99560413D01*
X236220000Y-98604605D01*
X235264192Y-99560413D01*
X233120000Y-99560413D01*
X233120000Y-98487595D01*
X234578282Y-98487595D01*
X234622039Y-98806675D01*
X234727205Y-99111088D01*
X234820186Y-99285044D01*
X235084587Y-99380808D01*
X236040395Y-98425000D01*
X235084587Y-97469192D01*
X234820186Y-97564956D01*
X234679296Y-97854571D01*
X234597616Y-98166108D01*
X234578282Y-98487595D01*
X233120000Y-98487595D01*
X233120000Y-40039728D01*
X233146098Y-39773554D01*
X233213315Y-39550919D01*
X233322495Y-39345581D01*
X233469479Y-39165361D01*
X233648668Y-39017123D01*
X233853240Y-38906511D01*
X234075397Y-38837742D01*
X234339344Y-38810000D01*
X234729216Y-38810000D01*
X233803998Y-39735219D01*
%TA.AperFunction,Conductor*%
D20*
G36*
X233803998Y-39735219D02*
G01*
X233775000Y-39759017D01*
X233751202Y-39788015D01*
X233751201Y-39788016D01*
X233680026Y-39874742D01*
X233609454Y-40006772D01*
X233565998Y-40150033D01*
X233551324Y-40299018D01*
X233555001Y-40336351D01*
X233555000Y-93307678D01*
X233551324Y-93345000D01*
X233555000Y-93382322D01*
X233555000Y-93382332D01*
X233565997Y-93493985D01*
X233609454Y-93637246D01*
X233680026Y-93769276D01*
X233719871Y-93817826D01*
X233774999Y-93885001D01*
X233804003Y-93908804D01*
X236775609Y-96880410D01*
X236478892Y-96802616D01*
X236157405Y-96783282D01*
X235838325Y-96827039D01*
X235533912Y-96932205D01*
X235359956Y-97025186D01*
X235264192Y-97289587D01*
X236220000Y-98245395D01*
X236234143Y-98231253D01*
X236413748Y-98410858D01*
X236399605Y-98425000D01*
X237355413Y-99380808D01*
X237619814Y-99285044D01*
X237760704Y-98995429D01*
X237842384Y-98683892D01*
X237861718Y-98362405D01*
X237817961Y-98043325D01*
X237754326Y-97859128D01*
X240691202Y-100796004D01*
X240715000Y-100825002D01*
X240743998Y-100848800D01*
X240830725Y-100919975D01*
X240962754Y-100990547D01*
X241106015Y-101034004D01*
X241255001Y-101048678D01*
X241292334Y-101045001D01*
X248753700Y-101045001D01*
X248740842Y-101071775D01*
X248665635Y-101364642D01*
X248649009Y-101666553D01*
X248691603Y-101965907D01*
X248791778Y-102251199D01*
X248871739Y-102400792D01*
X249125920Y-102484475D01*
X250010395Y-101600000D01*
X249996253Y-101585858D01*
X250175858Y-101406253D01*
X250190000Y-101420395D01*
X250204143Y-101406253D01*
X250383748Y-101585858D01*
X250369605Y-101600000D01*
X251254080Y-102484475D01*
X251435049Y-102424895D01*
X251537688Y-102578505D01*
X251751495Y-102792312D01*
X252002905Y-102960299D01*
X252282257Y-103076011D01*
X252578816Y-103135000D01*
X252881184Y-103135000D01*
X253177743Y-103076011D01*
X253457095Y-102960299D01*
X253708505Y-102792312D01*
X253922312Y-102578505D01*
X254090299Y-102327095D01*
X254206011Y-102047743D01*
X254265000Y-101751184D01*
X254265000Y-101448816D01*
X254206011Y-101152257D01*
X254090299Y-100872905D01*
X253922312Y-100621495D01*
X253708505Y-100407688D01*
X253457095Y-100239701D01*
X253177743Y-100123989D01*
X252881184Y-100065000D01*
X252578816Y-100065000D01*
X252282257Y-100123989D01*
X252002905Y-100239701D01*
X251958289Y-100269512D01*
X252376014Y-99851788D01*
X252405012Y-99827990D01*
X252449322Y-99773998D01*
X252499985Y-99712266D01*
X252570557Y-99580236D01*
X252594679Y-99500714D01*
X252614014Y-99436975D01*
X252625011Y-99325322D01*
X252625011Y-99325312D01*
X252628687Y-99287989D01*
X252625011Y-99250666D01*
X252625011Y-95692333D01*
X252628687Y-95655010D01*
X252625011Y-95617687D01*
X252625011Y-95617678D01*
X252614014Y-95506025D01*
X252570557Y-95362764D01*
X252499985Y-95230735D01*
X252405012Y-95115010D01*
X252376015Y-95091213D01*
X251673731Y-94388930D01*
X251725000Y-94131184D01*
X251725000Y-93828816D01*
X251666011Y-93532257D01*
X251550299Y-93252905D01*
X251382312Y-93001495D01*
X251168505Y-92787688D01*
X251052237Y-92710000D01*
X251168505Y-92632312D01*
X251382312Y-92418505D01*
X251550299Y-92167095D01*
X251666011Y-91887743D01*
X251725000Y-91591184D01*
X251725000Y-91288816D01*
X251673731Y-91031070D01*
X251926005Y-90778797D01*
X251955002Y-90755000D01*
X251981333Y-90722916D01*
X252049975Y-90639276D01*
X252120547Y-90507246D01*
X252142462Y-90435000D01*
X252164004Y-90363985D01*
X252175001Y-90252332D01*
X252175001Y-90252323D01*
X252178677Y-90215000D01*
X252175001Y-90177677D01*
X252175001Y-78189321D01*
X252178677Y-78151998D01*
X252175001Y-78114675D01*
X252175001Y-78114666D01*
X252164004Y-78003013D01*
X252120547Y-77859752D01*
X252049975Y-77727723D01*
X252007536Y-77676011D01*
X251978800Y-77640995D01*
X251978796Y-77640991D01*
X251955002Y-77611998D01*
X251926009Y-77588204D01*
X251435984Y-77098180D01*
X251550299Y-76927095D01*
X251666011Y-76647743D01*
X251725000Y-76351184D01*
X251725000Y-76048816D01*
X251673731Y-75791070D01*
X254511003Y-72953799D01*
X254540001Y-72930001D01*
X254634974Y-72814276D01*
X254705546Y-72682247D01*
X254741813Y-72562690D01*
X254822257Y-72596011D01*
X255118816Y-72655000D01*
X255421184Y-72655000D01*
X255717743Y-72596011D01*
X255735001Y-72588862D01*
X255735001Y-74847678D01*
X255731325Y-74885001D01*
X255735001Y-74922323D01*
X255735001Y-74922333D01*
X255745998Y-75033986D01*
X255789455Y-75177247D01*
X255860027Y-75309277D01*
X255863087Y-75313005D01*
X255955000Y-75425002D01*
X255984004Y-75448805D01*
X263946269Y-83411070D01*
X263895000Y-83668816D01*
X263895000Y-83971184D01*
X263953989Y-84267743D01*
X264069701Y-84547095D01*
X264237688Y-84798505D01*
X264451495Y-85012312D01*
X264567763Y-85090000D01*
X264451495Y-85167688D01*
X264237688Y-85381495D01*
X264069701Y-85632905D01*
X263953989Y-85912257D01*
X263895000Y-86208816D01*
X263895000Y-86511184D01*
X263953989Y-86807743D01*
X264069701Y-87087095D01*
X264237688Y-87338505D01*
X264451495Y-87552312D01*
X264567763Y-87630000D01*
X264451495Y-87707688D01*
X264237688Y-87921495D01*
X264069701Y-88172905D01*
X263953989Y-88452257D01*
X263895000Y-88748816D01*
X263895000Y-89051184D01*
X263953989Y-89347743D01*
X264069701Y-89627095D01*
X264237688Y-89878505D01*
X264451495Y-90092312D01*
X264567763Y-90170000D01*
X264451495Y-90247688D01*
X264237688Y-90461495D01*
X264069701Y-90712905D01*
X263953989Y-90992257D01*
X263895000Y-91288816D01*
X263895000Y-91591184D01*
X263953989Y-91887743D01*
X264069701Y-92167095D01*
X264237688Y-92418505D01*
X264451495Y-92632312D01*
X264567763Y-92710000D01*
X264451495Y-92787688D01*
X264237688Y-93001495D01*
X264069701Y-93252905D01*
X263953989Y-93532257D01*
X263895000Y-93828816D01*
X263895000Y-94131184D01*
X263953989Y-94427743D01*
X264069701Y-94707095D01*
X264237688Y-94958505D01*
X264451495Y-95172312D01*
X264567763Y-95250000D01*
X264451495Y-95327688D01*
X264237688Y-95541495D01*
X264069701Y-95792905D01*
X263953989Y-96072257D01*
X263895000Y-96368816D01*
X263895000Y-96671184D01*
X263953989Y-96967743D01*
X264069701Y-97247095D01*
X264237688Y-97498505D01*
X264451495Y-97712312D01*
X264567763Y-97790000D01*
X264451495Y-97867688D01*
X264237688Y-98081495D01*
X264069701Y-98332905D01*
X263953989Y-98612257D01*
X263895000Y-98908816D01*
X263895000Y-99211184D01*
X263953989Y-99507743D01*
X264069701Y-99787095D01*
X264237688Y-100038505D01*
X264451495Y-100252312D01*
X264567763Y-100330000D01*
X264451495Y-100407688D01*
X264237688Y-100621495D01*
X264069701Y-100872905D01*
X263953989Y-101152257D01*
X263895000Y-101448816D01*
X263895000Y-101751184D01*
X263953989Y-102047743D01*
X264069701Y-102327095D01*
X264237688Y-102578505D01*
X264451495Y-102792312D01*
X264605105Y-102894951D01*
X264545525Y-103075920D01*
X265430000Y-103960395D01*
X266314475Y-103075920D01*
X266254895Y-102894951D01*
X266408505Y-102792312D01*
X266622312Y-102578505D01*
X266790299Y-102327095D01*
X266906011Y-102047743D01*
X266965000Y-101751184D01*
X266965000Y-101448816D01*
X266913731Y-101191070D01*
X267260001Y-100844801D01*
X267260001Y-104105261D01*
X267233901Y-104371449D01*
X267166684Y-104594084D01*
X267057506Y-104799417D01*
X266910522Y-104979637D01*
X266731333Y-105127876D01*
X266526761Y-105238488D01*
X266304606Y-105307257D01*
X266279643Y-105309881D01*
X266314475Y-105204080D01*
X265430000Y-104319605D01*
X264545525Y-105204080D01*
X264588627Y-105335000D01*
X251164482Y-105335000D01*
X251168505Y-105332312D01*
X251382312Y-105118505D01*
X251550299Y-104867095D01*
X251666011Y-104587743D01*
X251725000Y-104291184D01*
X251725000Y-104206553D01*
X263889009Y-104206553D01*
X263931603Y-104505907D01*
X264031778Y-104791199D01*
X264111739Y-104940792D01*
X264365920Y-105024475D01*
X265250395Y-104140000D01*
X265609605Y-104140000D01*
X266494080Y-105024475D01*
X266748261Y-104940792D01*
X266879158Y-104668225D01*
X266954365Y-104375358D01*
X266970991Y-104073447D01*
X266928397Y-103774093D01*
X266828222Y-103488801D01*
X266748261Y-103339208D01*
X266494080Y-103255525D01*
X265609605Y-104140000D01*
X265250395Y-104140000D01*
X264365920Y-103255525D01*
X264111739Y-103339208D01*
X263980842Y-103611775D01*
X263905635Y-103904642D01*
X263889009Y-104206553D01*
X251725000Y-104206553D01*
X251725000Y-103988816D01*
X251666011Y-103692257D01*
X251550299Y-103412905D01*
X251382312Y-103161495D01*
X251168505Y-102947688D01*
X251014895Y-102845049D01*
X251074475Y-102664080D01*
X250190000Y-101779605D01*
X249305525Y-102664080D01*
X249365105Y-102845049D01*
X249211495Y-102947688D01*
X248997688Y-103161495D01*
X248829701Y-103412905D01*
X248713989Y-103692257D01*
X248655000Y-103988816D01*
X248655000Y-104291184D01*
X248713989Y-104587743D01*
X248829701Y-104867095D01*
X248997688Y-105118505D01*
X249211495Y-105332312D01*
X249215518Y-105335000D01*
X234349729Y-105335000D01*
X234083551Y-105308901D01*
X233860916Y-105241684D01*
X233655583Y-105132506D01*
X233475363Y-104985522D01*
X233327124Y-104806333D01*
X233216512Y-104601761D01*
X233147743Y-104379606D01*
X233120000Y-104115655D01*
X233120000Y-99560413D01*
X235264192Y-99560413D01*
X235359956Y-99824814D01*
X235649571Y-99965704D01*
X235961108Y-100047384D01*
X236282595Y-100066718D01*
X236601675Y-100022961D01*
X236906088Y-99917795D01*
X237080044Y-99824814D01*
X237175808Y-99560413D01*
X236220000Y-98604605D01*
X235264192Y-99560413D01*
X233120000Y-99560413D01*
X233120000Y-98487595D01*
X234578282Y-98487595D01*
X234622039Y-98806675D01*
X234727205Y-99111088D01*
X234820186Y-99285044D01*
X235084587Y-99380808D01*
X236040395Y-98425000D01*
X235084587Y-97469192D01*
X234820186Y-97564956D01*
X234679296Y-97854571D01*
X234597616Y-98166108D01*
X234578282Y-98487595D01*
X233120000Y-98487595D01*
X233120000Y-40039728D01*
X233146098Y-39773554D01*
X233213315Y-39550919D01*
X233322495Y-39345581D01*
X233469479Y-39165361D01*
X233648668Y-39017123D01*
X233853240Y-38906511D01*
X234075397Y-38837742D01*
X234339344Y-38810000D01*
X234729216Y-38810000D01*
X233803998Y-39735219D01*
G37*
%TD.AperFunction*%
D19*
X236926201Y-89411003D02*
X236949999Y-89440001D01*
X236978997Y-89463799D01*
X237065724Y-89534974D01*
X237197753Y-89605546D01*
X237341014Y-89649003D01*
X237490000Y-89663677D01*
X237527333Y-89660000D01*
X245041687Y-89660000D01*
X245187688Y-89878505D01*
X245401495Y-90092312D01*
X245620000Y-90238313D01*
X245620001Y-92035668D01*
X245616324Y-92073000D01*
X245630998Y-92221985D01*
X245674454Y-92365246D01*
X245745026Y-92497276D01*
X245814003Y-92581324D01*
X245840000Y-92613001D01*
X245868998Y-92636799D01*
X248907968Y-95675770D01*
X248851687Y-95760000D01*
X246417322Y-95760000D01*
X246379999Y-95756324D01*
X246342676Y-95760000D01*
X246342667Y-95760000D01*
X246231014Y-95770997D01*
X246087753Y-95814454D01*
X245955724Y-95885026D01*
X245955722Y-95885027D01*
X245955723Y-95885027D01*
X245868996Y-95956201D01*
X245868992Y-95956205D01*
X245839999Y-95979999D01*
X245816205Y-96008992D01*
X245011689Y-96813508D01*
X244964482Y-96799188D01*
X244840000Y-96786928D01*
X242840000Y-96786928D01*
X242715518Y-96799188D01*
X242595820Y-96835498D01*
X242485506Y-96894463D01*
X242388815Y-96973815D01*
X242309463Y-97070506D01*
X242250498Y-97180820D01*
X242214188Y-97300518D01*
X242201928Y-97425000D01*
X242201928Y-99425000D01*
X242211777Y-99525001D01*
X241569803Y-99525001D01*
X235075000Y-93030199D01*
X235075000Y-87559801D01*
X236926201Y-89411003D01*
%TA.AperFunction,Conductor*%
D20*
G36*
X236926201Y-89411003D02*
G01*
X236949999Y-89440001D01*
X236978997Y-89463799D01*
X237065724Y-89534974D01*
X237197753Y-89605546D01*
X237341014Y-89649003D01*
X237490000Y-89663677D01*
X237527333Y-89660000D01*
X245041687Y-89660000D01*
X245187688Y-89878505D01*
X245401495Y-90092312D01*
X245620000Y-90238313D01*
X245620001Y-92035668D01*
X245616324Y-92073000D01*
X245630998Y-92221985D01*
X245674454Y-92365246D01*
X245745026Y-92497276D01*
X245814003Y-92581324D01*
X245840000Y-92613001D01*
X245868998Y-92636799D01*
X248907968Y-95675770D01*
X248851687Y-95760000D01*
X246417322Y-95760000D01*
X246379999Y-95756324D01*
X246342676Y-95760000D01*
X246342667Y-95760000D01*
X246231014Y-95770997D01*
X246087753Y-95814454D01*
X245955724Y-95885026D01*
X245955722Y-95885027D01*
X245955723Y-95885027D01*
X245868996Y-95956201D01*
X245868992Y-95956205D01*
X245839999Y-95979999D01*
X245816205Y-96008992D01*
X245011689Y-96813508D01*
X244964482Y-96799188D01*
X244840000Y-96786928D01*
X242840000Y-96786928D01*
X242715518Y-96799188D01*
X242595820Y-96835498D01*
X242485506Y-96894463D01*
X242388815Y-96973815D01*
X242309463Y-97070506D01*
X242250498Y-97180820D01*
X242214188Y-97300518D01*
X242201928Y-97425000D01*
X242201928Y-99425000D01*
X242211777Y-99525001D01*
X241569803Y-99525001D01*
X235075000Y-93030199D01*
X235075000Y-87559801D01*
X236926201Y-89411003D01*
G37*
%TD.AperFunction*%
D19*
X249075363Y-63144759D02*
X249275241Y-63344637D01*
X249510273Y-63501680D01*
X249771426Y-63609853D01*
X250048665Y-63665000D01*
X250331335Y-63665000D01*
X250555001Y-63620509D01*
X250555001Y-64205195D01*
X248453997Y-66306200D01*
X248424999Y-66329998D01*
X248401201Y-66358996D01*
X248401200Y-66358997D01*
X248330025Y-66445723D01*
X248259453Y-66577753D01*
X248243522Y-66630273D01*
X248215997Y-66721013D01*
X248208316Y-66798998D01*
X248201323Y-66869999D01*
X248205000Y-66907331D01*
X248204999Y-76750679D01*
X248201323Y-76788001D01*
X248204999Y-76825323D01*
X248204999Y-76825333D01*
X248215996Y-76936986D01*
X248235331Y-77000725D01*
X248259453Y-77080247D01*
X248330025Y-77212277D01*
X248369870Y-77260827D01*
X248424998Y-77328002D01*
X248454001Y-77351804D01*
X248944016Y-77841820D01*
X248829701Y-78012905D01*
X248713989Y-78292257D01*
X248655000Y-78588816D01*
X248655000Y-78670198D01*
X248213803Y-78229002D01*
X248190001Y-78199999D01*
X248074276Y-78105026D01*
X247942247Y-78034454D01*
X247798986Y-77990997D01*
X247720495Y-77983266D01*
X247572312Y-77761495D01*
X247358505Y-77547688D01*
X247242237Y-77470000D01*
X247358505Y-77392312D01*
X247572312Y-77178505D01*
X247740299Y-76927095D01*
X247856011Y-76647743D01*
X247915000Y-76351184D01*
X247915000Y-76048816D01*
X247856011Y-75752257D01*
X247740299Y-75472905D01*
X247572312Y-75221495D01*
X247358505Y-75007688D01*
X247242237Y-74930000D01*
X247358505Y-74852312D01*
X247572312Y-74638505D01*
X247740299Y-74387095D01*
X247856011Y-74107743D01*
X247915000Y-73811184D01*
X247915000Y-73508816D01*
X247856011Y-73212257D01*
X247740299Y-72932905D01*
X247572312Y-72681495D01*
X247358505Y-72467688D01*
X247242237Y-72390000D01*
X247358505Y-72312312D01*
X247572312Y-72098505D01*
X247740299Y-71847095D01*
X247856011Y-71567743D01*
X247915000Y-71271184D01*
X247915000Y-70968816D01*
X247856011Y-70672257D01*
X247740299Y-70392905D01*
X247572312Y-70141495D01*
X247358505Y-69927688D01*
X247107095Y-69759701D01*
X246827743Y-69643989D01*
X246531184Y-69585000D01*
X246228816Y-69585000D01*
X245932257Y-69643989D01*
X245652905Y-69759701D01*
X245401495Y-69927688D01*
X245187688Y-70141495D01*
X245019701Y-70392905D01*
X244903989Y-70672257D01*
X244845000Y-70968816D01*
X244845000Y-71271184D01*
X244903989Y-71567743D01*
X245019701Y-71847095D01*
X245187688Y-72098505D01*
X245401495Y-72312312D01*
X245517763Y-72390000D01*
X245401495Y-72467688D01*
X245187688Y-72681495D01*
X245019701Y-72932905D01*
X244903989Y-73212257D01*
X244845000Y-73508816D01*
X244845000Y-73811184D01*
X244903989Y-74107743D01*
X245019701Y-74387095D01*
X245187688Y-74638505D01*
X245401495Y-74852312D01*
X245517763Y-74930000D01*
X245401495Y-75007688D01*
X245187688Y-75221495D01*
X245019701Y-75472905D01*
X244903989Y-75752257D01*
X244845000Y-76048816D01*
X244845000Y-76351184D01*
X244903989Y-76647743D01*
X245019701Y-76927095D01*
X245187688Y-77178505D01*
X245401495Y-77392312D01*
X245517763Y-77470000D01*
X245401495Y-77547688D01*
X245187688Y-77761495D01*
X245019701Y-78012905D01*
X244903989Y-78292257D01*
X244845000Y-78588816D01*
X244845000Y-78891184D01*
X244903989Y-79187743D01*
X245019701Y-79467095D01*
X245187688Y-79718505D01*
X245401495Y-79932312D01*
X245517763Y-80010000D01*
X245401495Y-80087688D01*
X245187688Y-80301495D01*
X245019701Y-80552905D01*
X244903989Y-80832257D01*
X244845000Y-81128816D01*
X244845000Y-81431184D01*
X244903989Y-81727743D01*
X245019701Y-82007095D01*
X245187688Y-82258505D01*
X245401495Y-82472312D01*
X245555105Y-82574951D01*
X245495525Y-82755920D01*
X246380000Y-83640395D01*
X246394143Y-83626253D01*
X246573748Y-83805858D01*
X246559605Y-83820000D01*
X247444080Y-84704475D01*
X247555366Y-84667837D01*
X247562089Y-84690000D01*
X247579454Y-84747246D01*
X247650026Y-84879276D01*
X247653969Y-84884080D01*
X247744999Y-84995001D01*
X247774003Y-85018804D01*
X248706269Y-85951070D01*
X248655000Y-86208816D01*
X248655000Y-86511184D01*
X248713989Y-86807743D01*
X248829701Y-87087095D01*
X248997688Y-87338505D01*
X249211495Y-87552312D01*
X249327763Y-87630000D01*
X249211495Y-87707688D01*
X248997688Y-87921495D01*
X248829701Y-88172905D01*
X248713989Y-88452257D01*
X248655000Y-88748816D01*
X248655000Y-89051184D01*
X248713989Y-89347743D01*
X248829701Y-89627095D01*
X248997688Y-89878505D01*
X249211495Y-90092312D01*
X249327763Y-90170000D01*
X249211495Y-90247688D01*
X248997688Y-90461495D01*
X248829701Y-90712905D01*
X248713989Y-90992257D01*
X248655000Y-91288816D01*
X248655000Y-91591184D01*
X248713989Y-91887743D01*
X248829701Y-92167095D01*
X248997688Y-92418505D01*
X249211495Y-92632312D01*
X249327763Y-92710000D01*
X249211495Y-92787688D01*
X248997688Y-93001495D01*
X248829701Y-93252905D01*
X248772588Y-93390787D01*
X247140000Y-91758199D01*
X247140000Y-90238313D01*
X247358505Y-90092312D01*
X247572312Y-89878505D01*
X247740299Y-89627095D01*
X247856011Y-89347743D01*
X247915000Y-89051184D01*
X247915000Y-88748816D01*
X247856011Y-88452257D01*
X247740299Y-88172905D01*
X247572312Y-87921495D01*
X247358505Y-87707688D01*
X247242237Y-87630000D01*
X247358505Y-87552312D01*
X247572312Y-87338505D01*
X247740299Y-87087095D01*
X247856011Y-86807743D01*
X247915000Y-86511184D01*
X247915000Y-86208816D01*
X247856011Y-85912257D01*
X247740299Y-85632905D01*
X247572312Y-85381495D01*
X247358505Y-85167688D01*
X247204895Y-85065049D01*
X247264475Y-84884080D01*
X246380000Y-83999605D01*
X245495525Y-84884080D01*
X245555105Y-85065049D01*
X245401495Y-85167688D01*
X245187688Y-85381495D01*
X245019701Y-85632905D01*
X244903989Y-85912257D01*
X244845000Y-86208816D01*
X244845000Y-86511184D01*
X244903989Y-86807743D01*
X245019701Y-87087095D01*
X245187688Y-87338505D01*
X245401495Y-87552312D01*
X245517763Y-87630000D01*
X245401495Y-87707688D01*
X245187688Y-87921495D01*
X245041687Y-88140000D01*
X237804802Y-88140000D01*
X235654999Y-85990198D01*
X235654999Y-83694800D01*
X237725000Y-85764802D01*
X237725000Y-85826939D01*
X237764774Y-86026898D01*
X237842795Y-86215256D01*
X237956063Y-86384774D01*
X238100226Y-86528937D01*
X238269744Y-86642205D01*
X238458102Y-86720226D01*
X238658061Y-86760000D01*
X238861939Y-86760000D01*
X239061898Y-86720226D01*
X239250256Y-86642205D01*
X239419774Y-86528937D01*
X239563937Y-86384774D01*
X239677205Y-86215256D01*
X239755226Y-86026898D01*
X239795000Y-85826939D01*
X239795000Y-85623061D01*
X239755226Y-85423102D01*
X239677205Y-85234744D01*
X239563937Y-85065226D01*
X239419774Y-84921063D01*
X239250256Y-84807795D01*
X239061898Y-84729774D01*
X238861939Y-84690000D01*
X238799802Y-84690000D01*
X237996355Y-83886553D01*
X244839009Y-83886553D01*
X244881603Y-84185907D01*
X244981778Y-84471199D01*
X245061739Y-84620792D01*
X245315920Y-84704475D01*
X246200395Y-83820000D01*
X245315920Y-82935525D01*
X245061739Y-83019208D01*
X244930842Y-83291775D01*
X244855635Y-83584642D01*
X244839009Y-83886553D01*
X237996355Y-83886553D01*
X236345000Y-82235199D01*
X236345000Y-68302702D01*
X244296903Y-68302702D01*
X244368486Y-68546671D01*
X244623996Y-68667571D01*
X244898184Y-68736300D01*
X245180512Y-68750217D01*
X245460130Y-68708787D01*
X245726292Y-68613603D01*
X245851514Y-68546671D01*
X245923097Y-68302702D01*
X245110000Y-67489605D01*
X244296903Y-68302702D01*
X236345000Y-68302702D01*
X236345000Y-67104080D01*
X236605525Y-67104080D01*
X236689208Y-67358261D01*
X236961775Y-67489158D01*
X237254642Y-67564365D01*
X237556553Y-67580991D01*
X237855907Y-67538397D01*
X238141199Y-67438222D01*
X238249164Y-67380512D01*
X243669783Y-67380512D01*
X243711213Y-67660130D01*
X243806397Y-67926292D01*
X243873329Y-68051514D01*
X244117298Y-68123097D01*
X244930395Y-67310000D01*
X245289605Y-67310000D01*
X246102702Y-68123097D01*
X246346671Y-68051514D01*
X246467571Y-67796004D01*
X246536300Y-67521816D01*
X246550217Y-67239488D01*
X246508787Y-66959870D01*
X246413603Y-66693708D01*
X246346671Y-66568486D01*
X246102702Y-66496903D01*
X245289605Y-67310000D01*
X244930395Y-67310000D01*
X244117298Y-66496903D01*
X243873329Y-66568486D01*
X243752429Y-66823996D01*
X243683700Y-67098184D01*
X243669783Y-67380512D01*
X238249164Y-67380512D01*
X238290792Y-67358261D01*
X238374475Y-67104080D01*
X237490000Y-66219605D01*
X236605525Y-67104080D01*
X236345000Y-67104080D01*
X236345000Y-66897834D01*
X236425920Y-66924475D01*
X237310395Y-66040000D01*
X237669605Y-66040000D01*
X238554080Y-66924475D01*
X238808261Y-66840792D01*
X238939158Y-66568225D01*
X239003594Y-66317298D01*
X244296903Y-66317298D01*
X245110000Y-67130395D01*
X245923097Y-66317298D01*
X245851514Y-66073329D01*
X245596004Y-65952429D01*
X245321816Y-65883700D01*
X245039488Y-65869783D01*
X244759870Y-65911213D01*
X244493708Y-66006397D01*
X244368486Y-66073329D01*
X244296903Y-66317298D01*
X239003594Y-66317298D01*
X239014365Y-66275358D01*
X239030991Y-65973447D01*
X238988397Y-65674093D01*
X238888222Y-65388801D01*
X238808261Y-65239208D01*
X238554080Y-65155525D01*
X237669605Y-66040000D01*
X237310395Y-66040000D01*
X236425920Y-65155525D01*
X236345000Y-65182166D01*
X236345000Y-64525817D01*
X236511495Y-64692312D01*
X236665105Y-64794951D01*
X236605525Y-64975920D01*
X237490000Y-65860395D01*
X238374475Y-64975920D01*
X238314895Y-64794951D01*
X238468505Y-64692312D01*
X238682312Y-64478505D01*
X238828313Y-64260000D01*
X243802678Y-64260000D01*
X243840000Y-64263676D01*
X243877322Y-64260000D01*
X243877333Y-64260000D01*
X243988986Y-64249003D01*
X244132247Y-64205546D01*
X244264276Y-64134974D01*
X244380001Y-64040001D01*
X244403804Y-64010997D01*
X244786114Y-63628688D01*
X244968665Y-63665000D01*
X245251335Y-63665000D01*
X245528574Y-63609853D01*
X245789727Y-63501680D01*
X246024759Y-63344637D01*
X246224637Y-63144759D01*
X246328043Y-62990000D01*
X248971957Y-62990000D01*
X249075363Y-63144759D01*
%TA.AperFunction,Conductor*%
D20*
G36*
X249075363Y-63144759D02*
G01*
X249275241Y-63344637D01*
X249510273Y-63501680D01*
X249771426Y-63609853D01*
X250048665Y-63665000D01*
X250331335Y-63665000D01*
X250555001Y-63620509D01*
X250555001Y-64205195D01*
X248453997Y-66306200D01*
X248424999Y-66329998D01*
X248401201Y-66358996D01*
X248401200Y-66358997D01*
X248330025Y-66445723D01*
X248259453Y-66577753D01*
X248243522Y-66630273D01*
X248215997Y-66721013D01*
X248208316Y-66798998D01*
X248201323Y-66869999D01*
X248205000Y-66907331D01*
X248204999Y-76750679D01*
X248201323Y-76788001D01*
X248204999Y-76825323D01*
X248204999Y-76825333D01*
X248215996Y-76936986D01*
X248235331Y-77000725D01*
X248259453Y-77080247D01*
X248330025Y-77212277D01*
X248369870Y-77260827D01*
X248424998Y-77328002D01*
X248454001Y-77351804D01*
X248944016Y-77841820D01*
X248829701Y-78012905D01*
X248713989Y-78292257D01*
X248655000Y-78588816D01*
X248655000Y-78670198D01*
X248213803Y-78229002D01*
X248190001Y-78199999D01*
X248074276Y-78105026D01*
X247942247Y-78034454D01*
X247798986Y-77990997D01*
X247720495Y-77983266D01*
X247572312Y-77761495D01*
X247358505Y-77547688D01*
X247242237Y-77470000D01*
X247358505Y-77392312D01*
X247572312Y-77178505D01*
X247740299Y-76927095D01*
X247856011Y-76647743D01*
X247915000Y-76351184D01*
X247915000Y-76048816D01*
X247856011Y-75752257D01*
X247740299Y-75472905D01*
X247572312Y-75221495D01*
X247358505Y-75007688D01*
X247242237Y-74930000D01*
X247358505Y-74852312D01*
X247572312Y-74638505D01*
X247740299Y-74387095D01*
X247856011Y-74107743D01*
X247915000Y-73811184D01*
X247915000Y-73508816D01*
X247856011Y-73212257D01*
X247740299Y-72932905D01*
X247572312Y-72681495D01*
X247358505Y-72467688D01*
X247242237Y-72390000D01*
X247358505Y-72312312D01*
X247572312Y-72098505D01*
X247740299Y-71847095D01*
X247856011Y-71567743D01*
X247915000Y-71271184D01*
X247915000Y-70968816D01*
X247856011Y-70672257D01*
X247740299Y-70392905D01*
X247572312Y-70141495D01*
X247358505Y-69927688D01*
X247107095Y-69759701D01*
X246827743Y-69643989D01*
X246531184Y-69585000D01*
X246228816Y-69585000D01*
X245932257Y-69643989D01*
X245652905Y-69759701D01*
X245401495Y-69927688D01*
X245187688Y-70141495D01*
X245019701Y-70392905D01*
X244903989Y-70672257D01*
X244845000Y-70968816D01*
X244845000Y-71271184D01*
X244903989Y-71567743D01*
X245019701Y-71847095D01*
X245187688Y-72098505D01*
X245401495Y-72312312D01*
X245517763Y-72390000D01*
X245401495Y-72467688D01*
X245187688Y-72681495D01*
X245019701Y-72932905D01*
X244903989Y-73212257D01*
X244845000Y-73508816D01*
X244845000Y-73811184D01*
X244903989Y-74107743D01*
X245019701Y-74387095D01*
X245187688Y-74638505D01*
X245401495Y-74852312D01*
X245517763Y-74930000D01*
X245401495Y-75007688D01*
X245187688Y-75221495D01*
X245019701Y-75472905D01*
X244903989Y-75752257D01*
X244845000Y-76048816D01*
X244845000Y-76351184D01*
X244903989Y-76647743D01*
X245019701Y-76927095D01*
X245187688Y-77178505D01*
X245401495Y-77392312D01*
X245517763Y-77470000D01*
X245401495Y-77547688D01*
X245187688Y-77761495D01*
X245019701Y-78012905D01*
X244903989Y-78292257D01*
X244845000Y-78588816D01*
X244845000Y-78891184D01*
X244903989Y-79187743D01*
X245019701Y-79467095D01*
X245187688Y-79718505D01*
X245401495Y-79932312D01*
X245517763Y-80010000D01*
X245401495Y-80087688D01*
X245187688Y-80301495D01*
X245019701Y-80552905D01*
X244903989Y-80832257D01*
X244845000Y-81128816D01*
X244845000Y-81431184D01*
X244903989Y-81727743D01*
X245019701Y-82007095D01*
X245187688Y-82258505D01*
X245401495Y-82472312D01*
X245555105Y-82574951D01*
X245495525Y-82755920D01*
X246380000Y-83640395D01*
X246394143Y-83626253D01*
X246573748Y-83805858D01*
X246559605Y-83820000D01*
X247444080Y-84704475D01*
X247555366Y-84667837D01*
X247562089Y-84690000D01*
X247579454Y-84747246D01*
X247650026Y-84879276D01*
X247653969Y-84884080D01*
X247744999Y-84995001D01*
X247774003Y-85018804D01*
X248706269Y-85951070D01*
X248655000Y-86208816D01*
X248655000Y-86511184D01*
X248713989Y-86807743D01*
X248829701Y-87087095D01*
X248997688Y-87338505D01*
X249211495Y-87552312D01*
X249327763Y-87630000D01*
X249211495Y-87707688D01*
X248997688Y-87921495D01*
X248829701Y-88172905D01*
X248713989Y-88452257D01*
X248655000Y-88748816D01*
X248655000Y-89051184D01*
X248713989Y-89347743D01*
X248829701Y-89627095D01*
X248997688Y-89878505D01*
X249211495Y-90092312D01*
X249327763Y-90170000D01*
X249211495Y-90247688D01*
X248997688Y-90461495D01*
X248829701Y-90712905D01*
X248713989Y-90992257D01*
X248655000Y-91288816D01*
X248655000Y-91591184D01*
X248713989Y-91887743D01*
X248829701Y-92167095D01*
X248997688Y-92418505D01*
X249211495Y-92632312D01*
X249327763Y-92710000D01*
X249211495Y-92787688D01*
X248997688Y-93001495D01*
X248829701Y-93252905D01*
X248772588Y-93390787D01*
X247140000Y-91758199D01*
X247140000Y-90238313D01*
X247358505Y-90092312D01*
X247572312Y-89878505D01*
X247740299Y-89627095D01*
X247856011Y-89347743D01*
X247915000Y-89051184D01*
X247915000Y-88748816D01*
X247856011Y-88452257D01*
X247740299Y-88172905D01*
X247572312Y-87921495D01*
X247358505Y-87707688D01*
X247242237Y-87630000D01*
X247358505Y-87552312D01*
X247572312Y-87338505D01*
X247740299Y-87087095D01*
X247856011Y-86807743D01*
X247915000Y-86511184D01*
X247915000Y-86208816D01*
X247856011Y-85912257D01*
X247740299Y-85632905D01*
X247572312Y-85381495D01*
X247358505Y-85167688D01*
X247204895Y-85065049D01*
X247264475Y-84884080D01*
X246380000Y-83999605D01*
X245495525Y-84884080D01*
X245555105Y-85065049D01*
X245401495Y-85167688D01*
X245187688Y-85381495D01*
X245019701Y-85632905D01*
X244903989Y-85912257D01*
X244845000Y-86208816D01*
X244845000Y-86511184D01*
X244903989Y-86807743D01*
X245019701Y-87087095D01*
X245187688Y-87338505D01*
X245401495Y-87552312D01*
X245517763Y-87630000D01*
X245401495Y-87707688D01*
X245187688Y-87921495D01*
X245041687Y-88140000D01*
X237804802Y-88140000D01*
X235654999Y-85990198D01*
X235654999Y-83694800D01*
X237725000Y-85764802D01*
X237725000Y-85826939D01*
X237764774Y-86026898D01*
X237842795Y-86215256D01*
X237956063Y-86384774D01*
X238100226Y-86528937D01*
X238269744Y-86642205D01*
X238458102Y-86720226D01*
X238658061Y-86760000D01*
X238861939Y-86760000D01*
X239061898Y-86720226D01*
X239250256Y-86642205D01*
X239419774Y-86528937D01*
X239563937Y-86384774D01*
X239677205Y-86215256D01*
X239755226Y-86026898D01*
X239795000Y-85826939D01*
X239795000Y-85623061D01*
X239755226Y-85423102D01*
X239677205Y-85234744D01*
X239563937Y-85065226D01*
X239419774Y-84921063D01*
X239250256Y-84807795D01*
X239061898Y-84729774D01*
X238861939Y-84690000D01*
X238799802Y-84690000D01*
X237996355Y-83886553D01*
X244839009Y-83886553D01*
X244881603Y-84185907D01*
X244981778Y-84471199D01*
X245061739Y-84620792D01*
X245315920Y-84704475D01*
X246200395Y-83820000D01*
X245315920Y-82935525D01*
X245061739Y-83019208D01*
X244930842Y-83291775D01*
X244855635Y-83584642D01*
X244839009Y-83886553D01*
X237996355Y-83886553D01*
X236345000Y-82235199D01*
X236345000Y-68302702D01*
X244296903Y-68302702D01*
X244368486Y-68546671D01*
X244623996Y-68667571D01*
X244898184Y-68736300D01*
X245180512Y-68750217D01*
X245460130Y-68708787D01*
X245726292Y-68613603D01*
X245851514Y-68546671D01*
X245923097Y-68302702D01*
X245110000Y-67489605D01*
X244296903Y-68302702D01*
X236345000Y-68302702D01*
X236345000Y-67104080D01*
X236605525Y-67104080D01*
X236689208Y-67358261D01*
X236961775Y-67489158D01*
X237254642Y-67564365D01*
X237556553Y-67580991D01*
X237855907Y-67538397D01*
X238141199Y-67438222D01*
X238249164Y-67380512D01*
X243669783Y-67380512D01*
X243711213Y-67660130D01*
X243806397Y-67926292D01*
X243873329Y-68051514D01*
X244117298Y-68123097D01*
X244930395Y-67310000D01*
X245289605Y-67310000D01*
X246102702Y-68123097D01*
X246346671Y-68051514D01*
X246467571Y-67796004D01*
X246536300Y-67521816D01*
X246550217Y-67239488D01*
X246508787Y-66959870D01*
X246413603Y-66693708D01*
X246346671Y-66568486D01*
X246102702Y-66496903D01*
X245289605Y-67310000D01*
X244930395Y-67310000D01*
X244117298Y-66496903D01*
X243873329Y-66568486D01*
X243752429Y-66823996D01*
X243683700Y-67098184D01*
X243669783Y-67380512D01*
X238249164Y-67380512D01*
X238290792Y-67358261D01*
X238374475Y-67104080D01*
X237490000Y-66219605D01*
X236605525Y-67104080D01*
X236345000Y-67104080D01*
X236345000Y-66897834D01*
X236425920Y-66924475D01*
X237310395Y-66040000D01*
X237669605Y-66040000D01*
X238554080Y-66924475D01*
X238808261Y-66840792D01*
X238939158Y-66568225D01*
X239003594Y-66317298D01*
X244296903Y-66317298D01*
X245110000Y-67130395D01*
X245923097Y-66317298D01*
X245851514Y-66073329D01*
X245596004Y-65952429D01*
X245321816Y-65883700D01*
X245039488Y-65869783D01*
X244759870Y-65911213D01*
X244493708Y-66006397D01*
X244368486Y-66073329D01*
X244296903Y-66317298D01*
X239003594Y-66317298D01*
X239014365Y-66275358D01*
X239030991Y-65973447D01*
X238988397Y-65674093D01*
X238888222Y-65388801D01*
X238808261Y-65239208D01*
X238554080Y-65155525D01*
X237669605Y-66040000D01*
X237310395Y-66040000D01*
X236425920Y-65155525D01*
X236345000Y-65182166D01*
X236345000Y-64525817D01*
X236511495Y-64692312D01*
X236665105Y-64794951D01*
X236605525Y-64975920D01*
X237490000Y-65860395D01*
X238374475Y-64975920D01*
X238314895Y-64794951D01*
X238468505Y-64692312D01*
X238682312Y-64478505D01*
X238828313Y-64260000D01*
X243802678Y-64260000D01*
X243840000Y-64263676D01*
X243877322Y-64260000D01*
X243877333Y-64260000D01*
X243988986Y-64249003D01*
X244132247Y-64205546D01*
X244264276Y-64134974D01*
X244380001Y-64040001D01*
X244403804Y-64010997D01*
X244786114Y-63628688D01*
X244968665Y-63665000D01*
X245251335Y-63665000D01*
X245528574Y-63609853D01*
X245789727Y-63501680D01*
X246024759Y-63344637D01*
X246224637Y-63144759D01*
X246328043Y-62990000D01*
X248971957Y-62990000D01*
X249075363Y-63144759D01*
G37*
%TD.AperFunction*%
D19*
X258003748Y-71105858D02*
X257989605Y-71120000D01*
X258003748Y-71134143D01*
X257824143Y-71313748D01*
X257810000Y-71299605D01*
X257795858Y-71313748D01*
X257616253Y-71134143D01*
X257630395Y-71120000D01*
X257616253Y-71105858D01*
X257795858Y-70926253D01*
X257810000Y-70940395D01*
X257824143Y-70926253D01*
X258003748Y-71105858D01*
%TA.AperFunction,Conductor*%
D20*
G36*
X258003748Y-71105858D02*
G01*
X257989605Y-71120000D01*
X258003748Y-71134143D01*
X257824143Y-71313748D01*
X257810000Y-71299605D01*
X257795858Y-71313748D01*
X257616253Y-71134143D01*
X257630395Y-71120000D01*
X257616253Y-71105858D01*
X257795858Y-70926253D01*
X257810000Y-70940395D01*
X257824143Y-70926253D01*
X258003748Y-71105858D01*
G37*
%TD.AperFunction*%
D19*
X257050001Y-52384803D02*
X257050000Y-54214587D01*
X256873102Y-54249774D01*
X256684744Y-54327795D01*
X256515226Y-54441063D01*
X256371063Y-54585226D01*
X256257795Y-54754744D01*
X256179774Y-54943102D01*
X256140000Y-55143061D01*
X256140000Y-55346939D01*
X256179774Y-55546898D01*
X256257795Y-55735256D01*
X256371063Y-55904774D01*
X256515226Y-56048937D01*
X256684744Y-56162205D01*
X256873102Y-56240226D01*
X257073061Y-56280000D01*
X257135199Y-56280000D01*
X260715002Y-59859804D01*
X260715002Y-60839491D01*
X260491335Y-60795000D01*
X260208665Y-60795000D01*
X259931426Y-60850147D01*
X259670273Y-60958320D01*
X259435241Y-61115363D01*
X259235363Y-61315241D01*
X259078320Y-61550273D01*
X258970147Y-61811426D01*
X258915000Y-62088665D01*
X258915000Y-62371335D01*
X258970147Y-62648574D01*
X259078320Y-62909727D01*
X259235363Y-63144759D01*
X259435241Y-63344637D01*
X259670273Y-63501680D01*
X259931426Y-63609853D01*
X260208665Y-63665000D01*
X260491335Y-63665000D01*
X260715002Y-63620509D01*
X260715001Y-65922098D01*
X260561816Y-65883700D01*
X260279488Y-65869783D01*
X259999870Y-65911213D01*
X259733708Y-66006397D01*
X259608486Y-66073329D01*
X259536903Y-66317298D01*
X260350000Y-67130395D01*
X260364143Y-67116253D01*
X260543748Y-67295858D01*
X260529605Y-67310000D01*
X260543748Y-67324143D01*
X260364143Y-67503748D01*
X260350000Y-67489605D01*
X259536903Y-68302702D01*
X259608486Y-68546671D01*
X259673002Y-68577198D01*
X258568998Y-69681203D01*
X258540000Y-69705001D01*
X258516202Y-69733999D01*
X258516201Y-69734000D01*
X258503066Y-69750005D01*
X258338225Y-69670842D01*
X258045358Y-69595635D01*
X257743447Y-69579009D01*
X257444093Y-69621603D01*
X257394799Y-69638912D01*
X257430001Y-69461938D01*
X257430001Y-69258060D01*
X257390227Y-69058101D01*
X257312206Y-68869743D01*
X257198938Y-68700225D01*
X257054775Y-68556062D01*
X256885257Y-68442794D01*
X256696899Y-68364773D01*
X256496940Y-68324999D01*
X256293348Y-68324999D01*
X256378977Y-68239370D01*
X256262704Y-68123097D01*
X256506671Y-68051514D01*
X256627571Y-67796004D01*
X256696300Y-67521816D01*
X256703265Y-67380512D01*
X258909783Y-67380512D01*
X258951213Y-67660130D01*
X259046397Y-67926292D01*
X259113329Y-68051514D01*
X259357298Y-68123097D01*
X260170395Y-67310000D01*
X259357298Y-66496903D01*
X259113329Y-66568486D01*
X258992429Y-66823996D01*
X258923700Y-67098184D01*
X258909783Y-67380512D01*
X256703265Y-67380512D01*
X256710217Y-67239488D01*
X256668787Y-66959870D01*
X256573603Y-66693708D01*
X256506671Y-66568486D01*
X256262702Y-66496903D01*
X255449605Y-67310000D01*
X255463748Y-67324143D01*
X255284143Y-67503748D01*
X255270000Y-67489605D01*
X255255858Y-67503748D01*
X255076253Y-67324143D01*
X255090395Y-67310000D01*
X255076253Y-67295858D01*
X255255858Y-67116253D01*
X255270000Y-67130395D01*
X256083097Y-66317298D01*
X256011514Y-66073329D01*
X255756004Y-65952429D01*
X255481816Y-65883700D01*
X255199488Y-65869783D01*
X254919870Y-65911213D01*
X254760000Y-65968385D01*
X254760000Y-63814801D01*
X254946114Y-63628688D01*
X255128665Y-63665000D01*
X255411335Y-63665000D01*
X255688574Y-63609853D01*
X255949727Y-63501680D01*
X256184759Y-63344637D01*
X256384637Y-63144759D01*
X256541680Y-62909727D01*
X256649853Y-62648574D01*
X256705000Y-62371335D01*
X256705000Y-62088665D01*
X256649853Y-61811426D01*
X256541680Y-61550273D01*
X256384637Y-61315241D01*
X256184759Y-61115363D01*
X255949727Y-60958320D01*
X255688574Y-60850147D01*
X255411335Y-60795000D01*
X255128665Y-60795000D01*
X254851426Y-60850147D01*
X254590273Y-60958320D01*
X254355241Y-61115363D01*
X254155363Y-61315241D01*
X254051957Y-61470000D01*
X254037322Y-61470000D01*
X253999999Y-61466324D01*
X253962676Y-61470000D01*
X253962667Y-61470000D01*
X253851014Y-61480997D01*
X253707753Y-61524454D01*
X253575724Y-61595026D01*
X253459999Y-61689999D01*
X253436201Y-61718997D01*
X252218998Y-62936201D01*
X252190000Y-62959999D01*
X252166202Y-62988997D01*
X252166201Y-62988998D01*
X252095026Y-63075724D01*
X252075001Y-63113188D01*
X252075001Y-61727324D01*
X252078677Y-61689999D01*
X252075001Y-61652674D01*
X252075001Y-61652666D01*
X252064004Y-61541013D01*
X252020547Y-61397752D01*
X251949975Y-61265723D01*
X251855002Y-61149998D01*
X251826004Y-61126200D01*
X248265001Y-57565198D01*
X248265001Y-53223714D01*
X248405225Y-53363938D01*
X248574743Y-53477206D01*
X248763101Y-53555227D01*
X248963060Y-53595001D01*
X249166938Y-53595001D01*
X249366897Y-53555227D01*
X249555255Y-53477206D01*
X249724773Y-53363938D01*
X249868936Y-53219775D01*
X249982204Y-53050257D01*
X250000950Y-53005000D01*
X251501928Y-53005000D01*
X251514188Y-53129482D01*
X251550498Y-53249180D01*
X251609463Y-53359494D01*
X251688815Y-53456185D01*
X251785506Y-53535537D01*
X251895820Y-53594502D01*
X252015518Y-53630812D01*
X252140000Y-53643072D01*
X252654250Y-53640000D01*
X252813000Y-53481250D01*
X252813000Y-52832000D01*
X253067000Y-52832000D01*
X253067000Y-53481250D01*
X253225750Y-53640000D01*
X253740000Y-53643072D01*
X253864482Y-53630812D01*
X253984180Y-53594502D01*
X254094494Y-53535537D01*
X254191185Y-53456185D01*
X254270537Y-53359494D01*
X254329502Y-53249180D01*
X254365812Y-53129482D01*
X254378072Y-53005000D01*
X254375000Y-52990750D01*
X254216250Y-52832000D01*
X253067000Y-52832000D01*
X252813000Y-52832000D01*
X251663750Y-52832000D01*
X251505000Y-52990750D01*
X251501928Y-53005000D01*
X250000950Y-53005000D01*
X250060225Y-52861899D01*
X250099999Y-52661940D01*
X250099999Y-52470000D01*
X250291939Y-52470000D01*
X250491898Y-52430226D01*
X250680256Y-52352205D01*
X250849774Y-52238937D01*
X250893711Y-52195000D01*
X251540130Y-52195000D01*
X251514188Y-52280518D01*
X251501928Y-52405000D01*
X251505000Y-52419250D01*
X251663750Y-52578000D01*
X252813000Y-52578000D01*
X252813000Y-52558000D01*
X253067000Y-52558000D01*
X253067000Y-52578000D01*
X254216250Y-52578000D01*
X254375000Y-52419250D01*
X254378072Y-52405000D01*
X254365812Y-52280518D01*
X254329502Y-52160820D01*
X254270537Y-52050506D01*
X254246270Y-52020936D01*
X254318084Y-51886582D01*
X254362929Y-51738745D01*
X254378072Y-51585000D01*
X254378072Y-51285000D01*
X254362929Y-51131255D01*
X254318084Y-50983418D01*
X254286859Y-50925000D01*
X255590199Y-50925000D01*
X257050001Y-52384803D01*
%TA.AperFunction,Conductor*%
D20*
G36*
X257050001Y-52384803D02*
G01*
X257050000Y-54214587D01*
X256873102Y-54249774D01*
X256684744Y-54327795D01*
X256515226Y-54441063D01*
X256371063Y-54585226D01*
X256257795Y-54754744D01*
X256179774Y-54943102D01*
X256140000Y-55143061D01*
X256140000Y-55346939D01*
X256179774Y-55546898D01*
X256257795Y-55735256D01*
X256371063Y-55904774D01*
X256515226Y-56048937D01*
X256684744Y-56162205D01*
X256873102Y-56240226D01*
X257073061Y-56280000D01*
X257135199Y-56280000D01*
X260715002Y-59859804D01*
X260715002Y-60839491D01*
X260491335Y-60795000D01*
X260208665Y-60795000D01*
X259931426Y-60850147D01*
X259670273Y-60958320D01*
X259435241Y-61115363D01*
X259235363Y-61315241D01*
X259078320Y-61550273D01*
X258970147Y-61811426D01*
X258915000Y-62088665D01*
X258915000Y-62371335D01*
X258970147Y-62648574D01*
X259078320Y-62909727D01*
X259235363Y-63144759D01*
X259435241Y-63344637D01*
X259670273Y-63501680D01*
X259931426Y-63609853D01*
X260208665Y-63665000D01*
X260491335Y-63665000D01*
X260715002Y-63620509D01*
X260715001Y-65922098D01*
X260561816Y-65883700D01*
X260279488Y-65869783D01*
X259999870Y-65911213D01*
X259733708Y-66006397D01*
X259608486Y-66073329D01*
X259536903Y-66317298D01*
X260350000Y-67130395D01*
X260364143Y-67116253D01*
X260543748Y-67295858D01*
X260529605Y-67310000D01*
X260543748Y-67324143D01*
X260364143Y-67503748D01*
X260350000Y-67489605D01*
X259536903Y-68302702D01*
X259608486Y-68546671D01*
X259673002Y-68577198D01*
X258568998Y-69681203D01*
X258540000Y-69705001D01*
X258516202Y-69733999D01*
X258516201Y-69734000D01*
X258503066Y-69750005D01*
X258338225Y-69670842D01*
X258045358Y-69595635D01*
X257743447Y-69579009D01*
X257444093Y-69621603D01*
X257394799Y-69638912D01*
X257430001Y-69461938D01*
X257430001Y-69258060D01*
X257390227Y-69058101D01*
X257312206Y-68869743D01*
X257198938Y-68700225D01*
X257054775Y-68556062D01*
X256885257Y-68442794D01*
X256696899Y-68364773D01*
X256496940Y-68324999D01*
X256293348Y-68324999D01*
X256378977Y-68239370D01*
X256262704Y-68123097D01*
X256506671Y-68051514D01*
X256627571Y-67796004D01*
X256696300Y-67521816D01*
X256703265Y-67380512D01*
X258909783Y-67380512D01*
X258951213Y-67660130D01*
X259046397Y-67926292D01*
X259113329Y-68051514D01*
X259357298Y-68123097D01*
X260170395Y-67310000D01*
X259357298Y-66496903D01*
X259113329Y-66568486D01*
X258992429Y-66823996D01*
X258923700Y-67098184D01*
X258909783Y-67380512D01*
X256703265Y-67380512D01*
X256710217Y-67239488D01*
X256668787Y-66959870D01*
X256573603Y-66693708D01*
X256506671Y-66568486D01*
X256262702Y-66496903D01*
X255449605Y-67310000D01*
X255463748Y-67324143D01*
X255284143Y-67503748D01*
X255270000Y-67489605D01*
X255255858Y-67503748D01*
X255076253Y-67324143D01*
X255090395Y-67310000D01*
X255076253Y-67295858D01*
X255255858Y-67116253D01*
X255270000Y-67130395D01*
X256083097Y-66317298D01*
X256011514Y-66073329D01*
X255756004Y-65952429D01*
X255481816Y-65883700D01*
X255199488Y-65869783D01*
X254919870Y-65911213D01*
X254760000Y-65968385D01*
X254760000Y-63814801D01*
X254946114Y-63628688D01*
X255128665Y-63665000D01*
X255411335Y-63665000D01*
X255688574Y-63609853D01*
X255949727Y-63501680D01*
X256184759Y-63344637D01*
X256384637Y-63144759D01*
X256541680Y-62909727D01*
X256649853Y-62648574D01*
X256705000Y-62371335D01*
X256705000Y-62088665D01*
X256649853Y-61811426D01*
X256541680Y-61550273D01*
X256384637Y-61315241D01*
X256184759Y-61115363D01*
X255949727Y-60958320D01*
X255688574Y-60850147D01*
X255411335Y-60795000D01*
X255128665Y-60795000D01*
X254851426Y-60850147D01*
X254590273Y-60958320D01*
X254355241Y-61115363D01*
X254155363Y-61315241D01*
X254051957Y-61470000D01*
X254037322Y-61470000D01*
X253999999Y-61466324D01*
X253962676Y-61470000D01*
X253962667Y-61470000D01*
X253851014Y-61480997D01*
X253707753Y-61524454D01*
X253575724Y-61595026D01*
X253459999Y-61689999D01*
X253436201Y-61718997D01*
X252218998Y-62936201D01*
X252190000Y-62959999D01*
X252166202Y-62988997D01*
X252166201Y-62988998D01*
X252095026Y-63075724D01*
X252075001Y-63113188D01*
X252075001Y-61727324D01*
X252078677Y-61689999D01*
X252075001Y-61652674D01*
X252075001Y-61652666D01*
X252064004Y-61541013D01*
X252020547Y-61397752D01*
X251949975Y-61265723D01*
X251855002Y-61149998D01*
X251826004Y-61126200D01*
X248265001Y-57565198D01*
X248265001Y-53223714D01*
X248405225Y-53363938D01*
X248574743Y-53477206D01*
X248763101Y-53555227D01*
X248963060Y-53595001D01*
X249166938Y-53595001D01*
X249366897Y-53555227D01*
X249555255Y-53477206D01*
X249724773Y-53363938D01*
X249868936Y-53219775D01*
X249982204Y-53050257D01*
X250000950Y-53005000D01*
X251501928Y-53005000D01*
X251514188Y-53129482D01*
X251550498Y-53249180D01*
X251609463Y-53359494D01*
X251688815Y-53456185D01*
X251785506Y-53535537D01*
X251895820Y-53594502D01*
X252015518Y-53630812D01*
X252140000Y-53643072D01*
X252654250Y-53640000D01*
X252813000Y-53481250D01*
X252813000Y-52832000D01*
X253067000Y-52832000D01*
X253067000Y-53481250D01*
X253225750Y-53640000D01*
X253740000Y-53643072D01*
X253864482Y-53630812D01*
X253984180Y-53594502D01*
X254094494Y-53535537D01*
X254191185Y-53456185D01*
X254270537Y-53359494D01*
X254329502Y-53249180D01*
X254365812Y-53129482D01*
X254378072Y-53005000D01*
X254375000Y-52990750D01*
X254216250Y-52832000D01*
X253067000Y-52832000D01*
X252813000Y-52832000D01*
X251663750Y-52832000D01*
X251505000Y-52990750D01*
X251501928Y-53005000D01*
X250000950Y-53005000D01*
X250060225Y-52861899D01*
X250099999Y-52661940D01*
X250099999Y-52470000D01*
X250291939Y-52470000D01*
X250491898Y-52430226D01*
X250680256Y-52352205D01*
X250849774Y-52238937D01*
X250893711Y-52195000D01*
X251540130Y-52195000D01*
X251514188Y-52280518D01*
X251501928Y-52405000D01*
X251505000Y-52419250D01*
X251663750Y-52578000D01*
X252813000Y-52578000D01*
X252813000Y-52558000D01*
X253067000Y-52558000D01*
X253067000Y-52578000D01*
X254216250Y-52578000D01*
X254375000Y-52419250D01*
X254378072Y-52405000D01*
X254365812Y-52280518D01*
X254329502Y-52160820D01*
X254270537Y-52050506D01*
X254246270Y-52020936D01*
X254318084Y-51886582D01*
X254362929Y-51738745D01*
X254378072Y-51585000D01*
X254378072Y-51285000D01*
X254362929Y-51131255D01*
X254318084Y-50983418D01*
X254286859Y-50925000D01*
X255590199Y-50925000D01*
X257050001Y-52384803D01*
G37*
%TD.AperFunction*%
D19*
X240223748Y-40625858D02*
X240209605Y-40640000D01*
X241165413Y-41595808D01*
X241227280Y-41573400D01*
X241300013Y-41682252D01*
X241527748Y-41909987D01*
X241795537Y-42088918D01*
X242093088Y-42212168D01*
X242408967Y-42275000D01*
X242731033Y-42275000D01*
X243046912Y-42212168D01*
X243344463Y-42088918D01*
X243612252Y-41909987D01*
X243839987Y-41682252D01*
X243840000Y-41682233D01*
X243840013Y-41682252D01*
X244067748Y-41909987D01*
X244335537Y-42088918D01*
X244633088Y-42212168D01*
X244948967Y-42275000D01*
X245271033Y-42275000D01*
X245586912Y-42212168D01*
X245601376Y-42206177D01*
X246745002Y-43349804D01*
X246745001Y-51949491D01*
X246521335Y-51905000D01*
X246238665Y-51905000D01*
X246056114Y-51941312D01*
X242470000Y-48355199D01*
X242470000Y-47837523D01*
X242453071Y-47665640D01*
X242386169Y-47445094D01*
X242277526Y-47241838D01*
X242131318Y-47063682D01*
X241953161Y-46917474D01*
X241749905Y-46808831D01*
X241529359Y-46741929D01*
X241300000Y-46719339D01*
X241070640Y-46741929D01*
X240850094Y-46808831D01*
X240665000Y-46907766D01*
X240479905Y-46808831D01*
X240259359Y-46741929D01*
X240030000Y-46719339D01*
X239800640Y-46741929D01*
X239580094Y-46808831D01*
X239392404Y-46909154D01*
X239304421Y-46851623D01*
X239067383Y-46766100D01*
X238887000Y-46891756D01*
X238887000Y-47632441D01*
X238876929Y-47665641D01*
X238860000Y-47837524D01*
X238860000Y-48682477D01*
X238876929Y-48854360D01*
X238887000Y-48887560D01*
X238887000Y-49628244D01*
X239067383Y-49753900D01*
X239270001Y-49680796D01*
X239270000Y-52032677D01*
X239266324Y-52070000D01*
X239270000Y-52107322D01*
X239270000Y-52107332D01*
X239280997Y-52218985D01*
X239324226Y-52361495D01*
X239324454Y-52362246D01*
X239395026Y-52494276D01*
X239429320Y-52536063D01*
X239489999Y-52610001D01*
X239519003Y-52633804D01*
X239901312Y-53016114D01*
X239865000Y-53198665D01*
X239865000Y-53481335D01*
X239920147Y-53758574D01*
X240028320Y-54019727D01*
X240185363Y-54254759D01*
X240385241Y-54454637D01*
X240620273Y-54611680D01*
X240881426Y-54719853D01*
X241158665Y-54775000D01*
X241441335Y-54775000D01*
X241718574Y-54719853D01*
X241979727Y-54611680D01*
X242214759Y-54454637D01*
X242414637Y-54254759D01*
X242571680Y-54019727D01*
X242679853Y-53758574D01*
X242735000Y-53481335D01*
X242735000Y-53198665D01*
X242679853Y-52921426D01*
X242571680Y-52660273D01*
X242414637Y-52425241D01*
X242214759Y-52225363D01*
X241979727Y-52068320D01*
X241718574Y-51960147D01*
X241441335Y-51905000D01*
X241158665Y-51905000D01*
X240976114Y-51941312D01*
X240790000Y-51755199D01*
X240790000Y-49679047D01*
X240850095Y-49711169D01*
X241070641Y-49778071D01*
X241300000Y-49800661D01*
X241529360Y-49778071D01*
X241693483Y-49728285D01*
X244981312Y-53016114D01*
X244945000Y-53198665D01*
X244945000Y-53481335D01*
X245000147Y-53758574D01*
X245108320Y-54019727D01*
X245265363Y-54254759D01*
X245465241Y-54454637D01*
X245700273Y-54611680D01*
X245961426Y-54719853D01*
X246238665Y-54775000D01*
X246521335Y-54775000D01*
X246745001Y-54730509D01*
X246745001Y-57029491D01*
X246521335Y-56985000D01*
X246238665Y-56985000D01*
X245961426Y-57040147D01*
X245700273Y-57148320D01*
X245465241Y-57305363D01*
X245265363Y-57505241D01*
X245108320Y-57740273D01*
X245000147Y-58001426D01*
X244945000Y-58278665D01*
X244945000Y-58561335D01*
X245000147Y-58838574D01*
X245108320Y-59099727D01*
X245265363Y-59334759D01*
X245465241Y-59534637D01*
X245700273Y-59691680D01*
X245961426Y-59799853D01*
X246238665Y-59855000D01*
X246521335Y-59855000D01*
X246798574Y-59799853D01*
X247059727Y-59691680D01*
X247294759Y-59534637D01*
X247494637Y-59334759D01*
X247650978Y-59100777D01*
X249509222Y-60959022D01*
X249275241Y-61115363D01*
X249075363Y-61315241D01*
X248971957Y-61470000D01*
X246328043Y-61470000D01*
X246224637Y-61315241D01*
X246024759Y-61115363D01*
X245789727Y-60958320D01*
X245528574Y-60850147D01*
X245251335Y-60795000D01*
X244968665Y-60795000D01*
X244691426Y-60850147D01*
X244430273Y-60958320D01*
X244195241Y-61115363D01*
X243995363Y-61315241D01*
X243838320Y-61550273D01*
X243730147Y-61811426D01*
X243675000Y-62088665D01*
X243675000Y-62371335D01*
X243711312Y-62553886D01*
X243525199Y-62740000D01*
X238828313Y-62740000D01*
X238682312Y-62521495D01*
X238468505Y-62307688D01*
X238217095Y-62139701D01*
X237937743Y-62023989D01*
X237641184Y-61965000D01*
X237338816Y-61965000D01*
X237042257Y-62023989D01*
X236762905Y-62139701D01*
X236511495Y-62307688D01*
X236297688Y-62521495D01*
X236149505Y-62743266D01*
X236071014Y-62750997D01*
X235927753Y-62794454D01*
X235795724Y-62865026D01*
X235679999Y-62959999D01*
X235656200Y-62988998D01*
X235654999Y-62990199D01*
X235654999Y-59739201D01*
X235801426Y-59799853D01*
X236078665Y-59855000D01*
X236361335Y-59855000D01*
X236638574Y-59799853D01*
X236899727Y-59691680D01*
X237134759Y-59534637D01*
X237334637Y-59334759D01*
X237491680Y-59099727D01*
X237599853Y-58838574D01*
X237655000Y-58561335D01*
X237655000Y-58278665D01*
X239865000Y-58278665D01*
X239865000Y-58561335D01*
X239920147Y-58838574D01*
X240028320Y-59099727D01*
X240185363Y-59334759D01*
X240385241Y-59534637D01*
X240620273Y-59691680D01*
X240881426Y-59799853D01*
X241158665Y-59855000D01*
X241441335Y-59855000D01*
X241718574Y-59799853D01*
X241979727Y-59691680D01*
X242214759Y-59534637D01*
X242414637Y-59334759D01*
X242571680Y-59099727D01*
X242679853Y-58838574D01*
X242735000Y-58561335D01*
X242735000Y-58278665D01*
X242679853Y-58001426D01*
X242571680Y-57740273D01*
X242414637Y-57505241D01*
X242214759Y-57305363D01*
X241979727Y-57148320D01*
X241718574Y-57040147D01*
X241441335Y-56985000D01*
X241158665Y-56985000D01*
X240881426Y-57040147D01*
X240620273Y-57148320D01*
X240385241Y-57305363D01*
X240185363Y-57505241D01*
X240028320Y-57740273D01*
X239920147Y-58001426D01*
X239865000Y-58278665D01*
X237655000Y-58278665D01*
X237599853Y-58001426D01*
X237491680Y-57740273D01*
X237334637Y-57505241D01*
X237134759Y-57305363D01*
X236899727Y-57148320D01*
X236638574Y-57040147D01*
X236361335Y-56985000D01*
X236078665Y-56985000D01*
X235801426Y-57040147D01*
X235654999Y-57100799D01*
X235654999Y-54659201D01*
X235801426Y-54719853D01*
X236078665Y-54775000D01*
X236361335Y-54775000D01*
X236638574Y-54719853D01*
X236899727Y-54611680D01*
X237134759Y-54454637D01*
X237334637Y-54254759D01*
X237491680Y-54019727D01*
X237599853Y-53758574D01*
X237655000Y-53481335D01*
X237655000Y-53198665D01*
X237599853Y-52921426D01*
X237491680Y-52660273D01*
X237334637Y-52425241D01*
X237134759Y-52225363D01*
X236980000Y-52121957D01*
X236980000Y-49844801D01*
X237026729Y-49798072D01*
X238025000Y-49798072D01*
X238149482Y-49785812D01*
X238269180Y-49749502D01*
X238338190Y-49712615D01*
X238452617Y-49753900D01*
X238633000Y-49628244D01*
X238633000Y-49343200D01*
X238650812Y-49284482D01*
X238663072Y-49160000D01*
X238663072Y-47360000D01*
X238650812Y-47235518D01*
X238633000Y-47176800D01*
X238633000Y-46891756D01*
X238452617Y-46766100D01*
X238338190Y-46807385D01*
X238269180Y-46770498D01*
X238149482Y-46734188D01*
X238025000Y-46721928D01*
X236955000Y-46721928D01*
X236830518Y-46734188D01*
X236710820Y-46770498D01*
X236600506Y-46829463D01*
X236503815Y-46908815D01*
X236424463Y-47005506D01*
X236365498Y-47115820D01*
X236329188Y-47235518D01*
X236316928Y-47360000D01*
X236316928Y-48358271D01*
X235708998Y-48966201D01*
X235680000Y-48989999D01*
X235656202Y-49018997D01*
X235656201Y-49018998D01*
X235654999Y-49020463D01*
X235654999Y-43549802D01*
X236998625Y-42206177D01*
X237013088Y-42212168D01*
X237328967Y-42275000D01*
X237651033Y-42275000D01*
X237966912Y-42212168D01*
X238264463Y-42088918D01*
X238532252Y-41909987D01*
X238666826Y-41775413D01*
X239074192Y-41775413D01*
X239169956Y-42039814D01*
X239459571Y-42180704D01*
X239771108Y-42262384D01*
X240092595Y-42281718D01*
X240411675Y-42237961D01*
X240716088Y-42132795D01*
X240890044Y-42039814D01*
X240985808Y-41775413D01*
X240030000Y-40819605D01*
X239074192Y-41775413D01*
X238666826Y-41775413D01*
X238759987Y-41682252D01*
X238832720Y-41573400D01*
X238894587Y-41595808D01*
X239850395Y-40640000D01*
X239836253Y-40625858D01*
X240015858Y-40446253D01*
X240030000Y-40460395D01*
X240044143Y-40446253D01*
X240223748Y-40625858D01*
%TA.AperFunction,Conductor*%
D20*
G36*
X240223748Y-40625858D02*
G01*
X240209605Y-40640000D01*
X241165413Y-41595808D01*
X241227280Y-41573400D01*
X241300013Y-41682252D01*
X241527748Y-41909987D01*
X241795537Y-42088918D01*
X242093088Y-42212168D01*
X242408967Y-42275000D01*
X242731033Y-42275000D01*
X243046912Y-42212168D01*
X243344463Y-42088918D01*
X243612252Y-41909987D01*
X243839987Y-41682252D01*
X243840000Y-41682233D01*
X243840013Y-41682252D01*
X244067748Y-41909987D01*
X244335537Y-42088918D01*
X244633088Y-42212168D01*
X244948967Y-42275000D01*
X245271033Y-42275000D01*
X245586912Y-42212168D01*
X245601376Y-42206177D01*
X246745002Y-43349804D01*
X246745001Y-51949491D01*
X246521335Y-51905000D01*
X246238665Y-51905000D01*
X246056114Y-51941312D01*
X242470000Y-48355199D01*
X242470000Y-47837523D01*
X242453071Y-47665640D01*
X242386169Y-47445094D01*
X242277526Y-47241838D01*
X242131318Y-47063682D01*
X241953161Y-46917474D01*
X241749905Y-46808831D01*
X241529359Y-46741929D01*
X241300000Y-46719339D01*
X241070640Y-46741929D01*
X240850094Y-46808831D01*
X240665000Y-46907766D01*
X240479905Y-46808831D01*
X240259359Y-46741929D01*
X240030000Y-46719339D01*
X239800640Y-46741929D01*
X239580094Y-46808831D01*
X239392404Y-46909154D01*
X239304421Y-46851623D01*
X239067383Y-46766100D01*
X238887000Y-46891756D01*
X238887000Y-47632441D01*
X238876929Y-47665641D01*
X238860000Y-47837524D01*
X238860000Y-48682477D01*
X238876929Y-48854360D01*
X238887000Y-48887560D01*
X238887000Y-49628244D01*
X239067383Y-49753900D01*
X239270001Y-49680796D01*
X239270000Y-52032677D01*
X239266324Y-52070000D01*
X239270000Y-52107322D01*
X239270000Y-52107332D01*
X239280997Y-52218985D01*
X239324226Y-52361495D01*
X239324454Y-52362246D01*
X239395026Y-52494276D01*
X239429320Y-52536063D01*
X239489999Y-52610001D01*
X239519003Y-52633804D01*
X239901312Y-53016114D01*
X239865000Y-53198665D01*
X239865000Y-53481335D01*
X239920147Y-53758574D01*
X240028320Y-54019727D01*
X240185363Y-54254759D01*
X240385241Y-54454637D01*
X240620273Y-54611680D01*
X240881426Y-54719853D01*
X241158665Y-54775000D01*
X241441335Y-54775000D01*
X241718574Y-54719853D01*
X241979727Y-54611680D01*
X242214759Y-54454637D01*
X242414637Y-54254759D01*
X242571680Y-54019727D01*
X242679853Y-53758574D01*
X242735000Y-53481335D01*
X242735000Y-53198665D01*
X242679853Y-52921426D01*
X242571680Y-52660273D01*
X242414637Y-52425241D01*
X242214759Y-52225363D01*
X241979727Y-52068320D01*
X241718574Y-51960147D01*
X241441335Y-51905000D01*
X241158665Y-51905000D01*
X240976114Y-51941312D01*
X240790000Y-51755199D01*
X240790000Y-49679047D01*
X240850095Y-49711169D01*
X241070641Y-49778071D01*
X241300000Y-49800661D01*
X241529360Y-49778071D01*
X241693483Y-49728285D01*
X244981312Y-53016114D01*
X244945000Y-53198665D01*
X244945000Y-53481335D01*
X245000147Y-53758574D01*
X245108320Y-54019727D01*
X245265363Y-54254759D01*
X245465241Y-54454637D01*
X245700273Y-54611680D01*
X245961426Y-54719853D01*
X246238665Y-54775000D01*
X246521335Y-54775000D01*
X246745001Y-54730509D01*
X246745001Y-57029491D01*
X246521335Y-56985000D01*
X246238665Y-56985000D01*
X245961426Y-57040147D01*
X245700273Y-57148320D01*
X245465241Y-57305363D01*
X245265363Y-57505241D01*
X245108320Y-57740273D01*
X245000147Y-58001426D01*
X244945000Y-58278665D01*
X244945000Y-58561335D01*
X245000147Y-58838574D01*
X245108320Y-59099727D01*
X245265363Y-59334759D01*
X245465241Y-59534637D01*
X245700273Y-59691680D01*
X245961426Y-59799853D01*
X246238665Y-59855000D01*
X246521335Y-59855000D01*
X246798574Y-59799853D01*
X247059727Y-59691680D01*
X247294759Y-59534637D01*
X247494637Y-59334759D01*
X247650978Y-59100777D01*
X249509222Y-60959022D01*
X249275241Y-61115363D01*
X249075363Y-61315241D01*
X248971957Y-61470000D01*
X246328043Y-61470000D01*
X246224637Y-61315241D01*
X246024759Y-61115363D01*
X245789727Y-60958320D01*
X245528574Y-60850147D01*
X245251335Y-60795000D01*
X244968665Y-60795000D01*
X244691426Y-60850147D01*
X244430273Y-60958320D01*
X244195241Y-61115363D01*
X243995363Y-61315241D01*
X243838320Y-61550273D01*
X243730147Y-61811426D01*
X243675000Y-62088665D01*
X243675000Y-62371335D01*
X243711312Y-62553886D01*
X243525199Y-62740000D01*
X238828313Y-62740000D01*
X238682312Y-62521495D01*
X238468505Y-62307688D01*
X238217095Y-62139701D01*
X237937743Y-62023989D01*
X237641184Y-61965000D01*
X237338816Y-61965000D01*
X237042257Y-62023989D01*
X236762905Y-62139701D01*
X236511495Y-62307688D01*
X236297688Y-62521495D01*
X236149505Y-62743266D01*
X236071014Y-62750997D01*
X235927753Y-62794454D01*
X235795724Y-62865026D01*
X235679999Y-62959999D01*
X235656200Y-62988998D01*
X235654999Y-62990199D01*
X235654999Y-59739201D01*
X235801426Y-59799853D01*
X236078665Y-59855000D01*
X236361335Y-59855000D01*
X236638574Y-59799853D01*
X236899727Y-59691680D01*
X237134759Y-59534637D01*
X237334637Y-59334759D01*
X237491680Y-59099727D01*
X237599853Y-58838574D01*
X237655000Y-58561335D01*
X237655000Y-58278665D01*
X239865000Y-58278665D01*
X239865000Y-58561335D01*
X239920147Y-58838574D01*
X240028320Y-59099727D01*
X240185363Y-59334759D01*
X240385241Y-59534637D01*
X240620273Y-59691680D01*
X240881426Y-59799853D01*
X241158665Y-59855000D01*
X241441335Y-59855000D01*
X241718574Y-59799853D01*
X241979727Y-59691680D01*
X242214759Y-59534637D01*
X242414637Y-59334759D01*
X242571680Y-59099727D01*
X242679853Y-58838574D01*
X242735000Y-58561335D01*
X242735000Y-58278665D01*
X242679853Y-58001426D01*
X242571680Y-57740273D01*
X242414637Y-57505241D01*
X242214759Y-57305363D01*
X241979727Y-57148320D01*
X241718574Y-57040147D01*
X241441335Y-56985000D01*
X241158665Y-56985000D01*
X240881426Y-57040147D01*
X240620273Y-57148320D01*
X240385241Y-57305363D01*
X240185363Y-57505241D01*
X240028320Y-57740273D01*
X239920147Y-58001426D01*
X239865000Y-58278665D01*
X237655000Y-58278665D01*
X237599853Y-58001426D01*
X237491680Y-57740273D01*
X237334637Y-57505241D01*
X237134759Y-57305363D01*
X236899727Y-57148320D01*
X236638574Y-57040147D01*
X236361335Y-56985000D01*
X236078665Y-56985000D01*
X235801426Y-57040147D01*
X235654999Y-57100799D01*
X235654999Y-54659201D01*
X235801426Y-54719853D01*
X236078665Y-54775000D01*
X236361335Y-54775000D01*
X236638574Y-54719853D01*
X236899727Y-54611680D01*
X237134759Y-54454637D01*
X237334637Y-54254759D01*
X237491680Y-54019727D01*
X237599853Y-53758574D01*
X237655000Y-53481335D01*
X237655000Y-53198665D01*
X237599853Y-52921426D01*
X237491680Y-52660273D01*
X237334637Y-52425241D01*
X237134759Y-52225363D01*
X236980000Y-52121957D01*
X236980000Y-49844801D01*
X237026729Y-49798072D01*
X238025000Y-49798072D01*
X238149482Y-49785812D01*
X238269180Y-49749502D01*
X238338190Y-49712615D01*
X238452617Y-49753900D01*
X238633000Y-49628244D01*
X238633000Y-49343200D01*
X238650812Y-49284482D01*
X238663072Y-49160000D01*
X238663072Y-47360000D01*
X238650812Y-47235518D01*
X238633000Y-47176800D01*
X238633000Y-46891756D01*
X238452617Y-46766100D01*
X238338190Y-46807385D01*
X238269180Y-46770498D01*
X238149482Y-46734188D01*
X238025000Y-46721928D01*
X236955000Y-46721928D01*
X236830518Y-46734188D01*
X236710820Y-46770498D01*
X236600506Y-46829463D01*
X236503815Y-46908815D01*
X236424463Y-47005506D01*
X236365498Y-47115820D01*
X236329188Y-47235518D01*
X236316928Y-47360000D01*
X236316928Y-48358271D01*
X235708998Y-48966201D01*
X235680000Y-48989999D01*
X235656202Y-49018997D01*
X235656201Y-49018998D01*
X235654999Y-49020463D01*
X235654999Y-43549802D01*
X236998625Y-42206177D01*
X237013088Y-42212168D01*
X237328967Y-42275000D01*
X237651033Y-42275000D01*
X237966912Y-42212168D01*
X238264463Y-42088918D01*
X238532252Y-41909987D01*
X238666826Y-41775413D01*
X239074192Y-41775413D01*
X239169956Y-42039814D01*
X239459571Y-42180704D01*
X239771108Y-42262384D01*
X240092595Y-42281718D01*
X240411675Y-42237961D01*
X240716088Y-42132795D01*
X240890044Y-42039814D01*
X240985808Y-41775413D01*
X240030000Y-40819605D01*
X239074192Y-41775413D01*
X238666826Y-41775413D01*
X238759987Y-41682252D01*
X238832720Y-41573400D01*
X238894587Y-41595808D01*
X239850395Y-40640000D01*
X239836253Y-40625858D01*
X240015858Y-40446253D01*
X240030000Y-40460395D01*
X240044143Y-40446253D01*
X240223748Y-40625858D01*
G37*
%TD.AperFunction*%
D19*
X248920013Y-41682252D02*
X249147748Y-41909987D01*
X249415537Y-42088918D01*
X249713088Y-42212168D01*
X250028967Y-42275000D01*
X250351033Y-42275000D01*
X250666912Y-42212168D01*
X250681375Y-42206177D01*
X252166205Y-43691008D01*
X252189999Y-43720001D01*
X252218992Y-43743795D01*
X252218996Y-43743799D01*
X252276524Y-43791010D01*
X252305724Y-43814974D01*
X252437753Y-43885546D01*
X252581014Y-43929003D01*
X252692667Y-43940000D01*
X252692676Y-43940000D01*
X252729999Y-43943676D01*
X252767322Y-43940000D01*
X254320199Y-43940000D01*
X255145000Y-44764802D01*
X255145001Y-49405000D01*
X254286859Y-49405000D01*
X254318084Y-49346582D01*
X254362929Y-49198745D01*
X254378072Y-49045000D01*
X254378072Y-48745000D01*
X254362929Y-48591255D01*
X254318084Y-48443418D01*
X254245258Y-48307171D01*
X254147251Y-48187749D01*
X254027829Y-48089742D01*
X253891582Y-48016916D01*
X253743745Y-47972071D01*
X253590000Y-47956928D01*
X252290000Y-47956928D01*
X252136255Y-47972071D01*
X251988418Y-48016916D01*
X251852171Y-48089742D01*
X251797024Y-48135000D01*
X250227325Y-48135000D01*
X250190000Y-48131324D01*
X250152675Y-48135000D01*
X250152667Y-48135000D01*
X250041014Y-48145997D01*
X249897753Y-48189454D01*
X249765724Y-48260026D01*
X249649999Y-48354999D01*
X249626201Y-48383997D01*
X248553997Y-49456202D01*
X248524999Y-49480000D01*
X248501201Y-49508998D01*
X248501200Y-49508999D01*
X248430025Y-49595725D01*
X248359453Y-49727755D01*
X248337338Y-49800661D01*
X248318398Y-49863102D01*
X248315997Y-49871016D01*
X248301323Y-50020001D01*
X248305000Y-50057333D01*
X248304999Y-51856290D01*
X248265001Y-51896288D01*
X248265001Y-43072324D01*
X248268677Y-43035001D01*
X248265001Y-42997678D01*
X248265001Y-42997668D01*
X248254004Y-42886015D01*
X248210547Y-42742754D01*
X248200522Y-42723999D01*
X248139975Y-42610724D01*
X248068800Y-42523998D01*
X248045002Y-42495000D01*
X248016004Y-42471202D01*
X247818347Y-42273545D01*
X248126912Y-42212168D01*
X248424463Y-42088918D01*
X248692252Y-41909987D01*
X248919987Y-41682252D01*
X248920000Y-41682233D01*
X248920013Y-41682252D01*
%TA.AperFunction,Conductor*%
D20*
G36*
X248920013Y-41682252D02*
G01*
X249147748Y-41909987D01*
X249415537Y-42088918D01*
X249713088Y-42212168D01*
X250028967Y-42275000D01*
X250351033Y-42275000D01*
X250666912Y-42212168D01*
X250681375Y-42206177D01*
X252166205Y-43691008D01*
X252189999Y-43720001D01*
X252218992Y-43743795D01*
X252218996Y-43743799D01*
X252276524Y-43791010D01*
X252305724Y-43814974D01*
X252437753Y-43885546D01*
X252581014Y-43929003D01*
X252692667Y-43940000D01*
X252692676Y-43940000D01*
X252729999Y-43943676D01*
X252767322Y-43940000D01*
X254320199Y-43940000D01*
X255145000Y-44764802D01*
X255145001Y-49405000D01*
X254286859Y-49405000D01*
X254318084Y-49346582D01*
X254362929Y-49198745D01*
X254378072Y-49045000D01*
X254378072Y-48745000D01*
X254362929Y-48591255D01*
X254318084Y-48443418D01*
X254245258Y-48307171D01*
X254147251Y-48187749D01*
X254027829Y-48089742D01*
X253891582Y-48016916D01*
X253743745Y-47972071D01*
X253590000Y-47956928D01*
X252290000Y-47956928D01*
X252136255Y-47972071D01*
X251988418Y-48016916D01*
X251852171Y-48089742D01*
X251797024Y-48135000D01*
X250227325Y-48135000D01*
X250190000Y-48131324D01*
X250152675Y-48135000D01*
X250152667Y-48135000D01*
X250041014Y-48145997D01*
X249897753Y-48189454D01*
X249765724Y-48260026D01*
X249649999Y-48354999D01*
X249626201Y-48383997D01*
X248553997Y-49456202D01*
X248524999Y-49480000D01*
X248501201Y-49508998D01*
X248501200Y-49508999D01*
X248430025Y-49595725D01*
X248359453Y-49727755D01*
X248337338Y-49800661D01*
X248318398Y-49863102D01*
X248315997Y-49871016D01*
X248301323Y-50020001D01*
X248305000Y-50057333D01*
X248304999Y-51856290D01*
X248265001Y-51896288D01*
X248265001Y-43072324D01*
X248268677Y-43035001D01*
X248265001Y-42997678D01*
X248265001Y-42997668D01*
X248254004Y-42886015D01*
X248210547Y-42742754D01*
X248200522Y-42723999D01*
X248139975Y-42610724D01*
X248068800Y-42523998D01*
X248045002Y-42495000D01*
X248016004Y-42471202D01*
X247818347Y-42273545D01*
X248126912Y-42212168D01*
X248424463Y-42088918D01*
X248692252Y-41909987D01*
X248919987Y-41682252D01*
X248920000Y-41682233D01*
X248920013Y-41682252D01*
G37*
%TD.AperFunction*%
D19*
X263905635Y-42944642D02*
X263889009Y-43246553D01*
X263931603Y-43545907D01*
X264031778Y-43831199D01*
X264111739Y-43980792D01*
X264365920Y-44064475D01*
X265250395Y-43180000D01*
X265236253Y-43165858D01*
X265415858Y-42986253D01*
X265430000Y-43000395D01*
X265444143Y-42986253D01*
X265623748Y-43165858D01*
X265609605Y-43180000D01*
X265623748Y-43194143D01*
X265444143Y-43373748D01*
X265430000Y-43359605D01*
X264545525Y-44244080D01*
X264605105Y-44425049D01*
X264451495Y-44527688D01*
X264237688Y-44741495D01*
X264091687Y-44960000D01*
X263352322Y-44960000D01*
X263314999Y-44956324D01*
X263277676Y-44960000D01*
X263277667Y-44960000D01*
X263166014Y-44970997D01*
X263024912Y-45013799D01*
X263022753Y-45014454D01*
X262890723Y-45085026D01*
X262807083Y-45153668D01*
X262774999Y-45179999D01*
X262751201Y-45208997D01*
X260900000Y-47060199D01*
X260900000Y-46817322D01*
X260903676Y-46779999D01*
X260900000Y-46742676D01*
X260900000Y-46742667D01*
X260889003Y-46631014D01*
X260845546Y-46487753D01*
X260774974Y-46355724D01*
X260761811Y-46339685D01*
X260703799Y-46268996D01*
X260703795Y-46268992D01*
X260680001Y-46239999D01*
X260651008Y-46216205D01*
X260115000Y-45680198D01*
X260115000Y-45618061D01*
X260075226Y-45418102D01*
X259997205Y-45229744D01*
X259883937Y-45060226D01*
X259739774Y-44916063D01*
X259570256Y-44802795D01*
X259381898Y-44724774D01*
X259181939Y-44685000D01*
X258978061Y-44685000D01*
X258778102Y-44724774D01*
X258589744Y-44802795D01*
X258420226Y-44916063D01*
X258276063Y-45060226D01*
X258162795Y-45229744D01*
X258084774Y-45418102D01*
X258045000Y-45618061D01*
X258045000Y-45821939D01*
X258084774Y-46021898D01*
X258162795Y-46210256D01*
X258276063Y-46379774D01*
X258420226Y-46523937D01*
X258589744Y-46637205D01*
X258778102Y-46715226D01*
X258978061Y-46755000D01*
X259040198Y-46755000D01*
X259380001Y-47094803D01*
X259380000Y-47967762D01*
X259336255Y-47972071D01*
X259188418Y-48016916D01*
X259055466Y-48087981D01*
X259025257Y-48067796D01*
X258836899Y-47989775D01*
X258636940Y-47950001D01*
X258433062Y-47950001D01*
X258233103Y-47989775D01*
X258044745Y-48067796D01*
X257875227Y-48181064D01*
X257731064Y-48325227D01*
X257617796Y-48494745D01*
X257539775Y-48683103D01*
X257500001Y-48883062D01*
X257500001Y-49086940D01*
X257516159Y-49168171D01*
X257508102Y-49169774D01*
X257319744Y-49247795D01*
X257150226Y-49361063D01*
X257006063Y-49505226D01*
X256892795Y-49674744D01*
X256814774Y-49863102D01*
X256792066Y-49977265D01*
X256665000Y-49850199D01*
X256665000Y-44487322D01*
X256668676Y-44449999D01*
X256665000Y-44412676D01*
X256665000Y-44412667D01*
X256654003Y-44301014D01*
X256610546Y-44157753D01*
X256539974Y-44025724D01*
X256445001Y-43909999D01*
X256416004Y-43886202D01*
X255254802Y-42725001D01*
X263962038Y-42725001D01*
X263905635Y-42944642D01*
%TA.AperFunction,Conductor*%
D20*
G36*
X263905635Y-42944642D02*
G01*
X263889009Y-43246553D01*
X263931603Y-43545907D01*
X264031778Y-43831199D01*
X264111739Y-43980792D01*
X264365920Y-44064475D01*
X265250395Y-43180000D01*
X265236253Y-43165858D01*
X265415858Y-42986253D01*
X265430000Y-43000395D01*
X265444143Y-42986253D01*
X265623748Y-43165858D01*
X265609605Y-43180000D01*
X265623748Y-43194143D01*
X265444143Y-43373748D01*
X265430000Y-43359605D01*
X264545525Y-44244080D01*
X264605105Y-44425049D01*
X264451495Y-44527688D01*
X264237688Y-44741495D01*
X264091687Y-44960000D01*
X263352322Y-44960000D01*
X263314999Y-44956324D01*
X263277676Y-44960000D01*
X263277667Y-44960000D01*
X263166014Y-44970997D01*
X263024912Y-45013799D01*
X263022753Y-45014454D01*
X262890723Y-45085026D01*
X262807083Y-45153668D01*
X262774999Y-45179999D01*
X262751201Y-45208997D01*
X260900000Y-47060199D01*
X260900000Y-46817322D01*
X260903676Y-46779999D01*
X260900000Y-46742676D01*
X260900000Y-46742667D01*
X260889003Y-46631014D01*
X260845546Y-46487753D01*
X260774974Y-46355724D01*
X260761811Y-46339685D01*
X260703799Y-46268996D01*
X260703795Y-46268992D01*
X260680001Y-46239999D01*
X260651008Y-46216205D01*
X260115000Y-45680198D01*
X260115000Y-45618061D01*
X260075226Y-45418102D01*
X259997205Y-45229744D01*
X259883937Y-45060226D01*
X259739774Y-44916063D01*
X259570256Y-44802795D01*
X259381898Y-44724774D01*
X259181939Y-44685000D01*
X258978061Y-44685000D01*
X258778102Y-44724774D01*
X258589744Y-44802795D01*
X258420226Y-44916063D01*
X258276063Y-45060226D01*
X258162795Y-45229744D01*
X258084774Y-45418102D01*
X258045000Y-45618061D01*
X258045000Y-45821939D01*
X258084774Y-46021898D01*
X258162795Y-46210256D01*
X258276063Y-46379774D01*
X258420226Y-46523937D01*
X258589744Y-46637205D01*
X258778102Y-46715226D01*
X258978061Y-46755000D01*
X259040198Y-46755000D01*
X259380001Y-47094803D01*
X259380000Y-47967762D01*
X259336255Y-47972071D01*
X259188418Y-48016916D01*
X259055466Y-48087981D01*
X259025257Y-48067796D01*
X258836899Y-47989775D01*
X258636940Y-47950001D01*
X258433062Y-47950001D01*
X258233103Y-47989775D01*
X258044745Y-48067796D01*
X257875227Y-48181064D01*
X257731064Y-48325227D01*
X257617796Y-48494745D01*
X257539775Y-48683103D01*
X257500001Y-48883062D01*
X257500001Y-49086940D01*
X257516159Y-49168171D01*
X257508102Y-49169774D01*
X257319744Y-49247795D01*
X257150226Y-49361063D01*
X257006063Y-49505226D01*
X256892795Y-49674744D01*
X256814774Y-49863102D01*
X256792066Y-49977265D01*
X256665000Y-49850199D01*
X256665000Y-44487322D01*
X256668676Y-44449999D01*
X256665000Y-44412676D01*
X256665000Y-44412667D01*
X256654003Y-44301014D01*
X256610546Y-44157753D01*
X256539974Y-44025724D01*
X256445001Y-43909999D01*
X256416004Y-43886202D01*
X255254802Y-42725001D01*
X263962038Y-42725001D01*
X263905635Y-42944642D01*
G37*
%TD.AperFunction*%
D19*
X266296446Y-38836098D02*
X266519081Y-38903315D01*
X266724419Y-39012495D01*
X266904639Y-39159479D01*
X267052877Y-39338668D01*
X267163489Y-39543240D01*
X267232258Y-39765397D01*
X267260000Y-40029344D01*
X267260000Y-42122196D01*
X266581805Y-41444001D01*
X266558002Y-41414998D01*
X266442277Y-41320025D01*
X266310248Y-41249453D01*
X266166987Y-41205996D01*
X266055334Y-41194999D01*
X266055323Y-41194999D01*
X266018001Y-41191323D01*
X265980679Y-41194999D01*
X264879322Y-41194999D01*
X264841999Y-41191323D01*
X264804677Y-41194999D01*
X264804666Y-41194999D01*
X264703115Y-41205001D01*
X259345680Y-41205001D01*
X259382168Y-41116912D01*
X259445000Y-40801033D01*
X259445000Y-40478967D01*
X259382168Y-40163088D01*
X259258918Y-39865537D01*
X259079987Y-39597748D01*
X258852252Y-39370013D01*
X258584463Y-39191082D01*
X258286912Y-39067832D01*
X257971033Y-39005000D01*
X257648967Y-39005000D01*
X257333088Y-39067832D01*
X257318624Y-39073823D01*
X257054801Y-38810000D01*
X266030272Y-38810000D01*
X266296446Y-38836098D01*
%TA.AperFunction,Conductor*%
D20*
G36*
X266296446Y-38836098D02*
G01*
X266519081Y-38903315D01*
X266724419Y-39012495D01*
X266904639Y-39159479D01*
X267052877Y-39338668D01*
X267163489Y-39543240D01*
X267232258Y-39765397D01*
X267260000Y-40029344D01*
X267260000Y-42122196D01*
X266581805Y-41444001D01*
X266558002Y-41414998D01*
X266442277Y-41320025D01*
X266310248Y-41249453D01*
X266166987Y-41205996D01*
X266055334Y-41194999D01*
X266055323Y-41194999D01*
X266018001Y-41191323D01*
X265980679Y-41194999D01*
X264879322Y-41194999D01*
X264841999Y-41191323D01*
X264804677Y-41194999D01*
X264804666Y-41194999D01*
X264703115Y-41205001D01*
X259345680Y-41205001D01*
X259382168Y-41116912D01*
X259445000Y-40801033D01*
X259445000Y-40478967D01*
X259382168Y-40163088D01*
X259258918Y-39865537D01*
X259079987Y-39597748D01*
X258852252Y-39370013D01*
X258584463Y-39191082D01*
X258286912Y-39067832D01*
X257971033Y-39005000D01*
X257648967Y-39005000D01*
X257333088Y-39067832D01*
X257318624Y-39073823D01*
X257054801Y-38810000D01*
X266030272Y-38810000D01*
X266296446Y-38836098D01*
G37*
%TD.AperFunction*%
%TD*%
M02*
