%TF.GenerationSoftware,KiCad,Pcbnew,5.1.9*%
%TF.CreationDate,2021-04-30T01:58:32+02:00*%
%TF.ProjectId,project,70726f6a-6563-4742-9e6b-696361645f70,rev?*%
%TF.SameCoordinates,Original*%
%TF.FileFunction,Paste,Top*%
%TF.FilePolarity,Positive*%
%FSLAX46Y46*%
G04 Gerber Fmt 4.6, Leading zero omitted, Abs format (unit mm)*
G04 Created by KiCad (PCBNEW 5.1.9) date 2021-04-30 01:58:32*
%MOMM*%
%LPD*%
G01*
G04 APERTURE LIST*
G04 APERTURE END LIST*
%TO.C,U4*%
G36*
G01*
X259340000Y-49045000D02*
X259340000Y-48745000D01*
G75*
G02*
X259490000Y-48595000I150000J0D01*
G01*
X260790000Y-48595000D01*
G75*
G02*
X260940000Y-48745000I0J-150000D01*
G01*
X260940000Y-49045000D01*
G75*
G02*
X260790000Y-49195000I-150000J0D01*
G01*
X259490000Y-49195000D01*
G75*
G02*
X259340000Y-49045000I0J150000D01*
G01*
G37*
G36*
G01*
X259340000Y-50315000D02*
X259340000Y-50015000D01*
G75*
G02*
X259490000Y-49865000I150000J0D01*
G01*
X260790000Y-49865000D01*
G75*
G02*
X260940000Y-50015000I0J-150000D01*
G01*
X260940000Y-50315000D01*
G75*
G02*
X260790000Y-50465000I-150000J0D01*
G01*
X259490000Y-50465000D01*
G75*
G02*
X259340000Y-50315000I0J150000D01*
G01*
G37*
G36*
G01*
X259340000Y-51585000D02*
X259340000Y-51285000D01*
G75*
G02*
X259490000Y-51135000I150000J0D01*
G01*
X260790000Y-51135000D01*
G75*
G02*
X260940000Y-51285000I0J-150000D01*
G01*
X260940000Y-51585000D01*
G75*
G02*
X260790000Y-51735000I-150000J0D01*
G01*
X259490000Y-51735000D01*
G75*
G02*
X259340000Y-51585000I0J150000D01*
G01*
G37*
G36*
G01*
X259340000Y-52855000D02*
X259340000Y-52555000D01*
G75*
G02*
X259490000Y-52405000I150000J0D01*
G01*
X260790000Y-52405000D01*
G75*
G02*
X260940000Y-52555000I0J-150000D01*
G01*
X260940000Y-52855000D01*
G75*
G02*
X260790000Y-53005000I-150000J0D01*
G01*
X259490000Y-53005000D01*
G75*
G02*
X259340000Y-52855000I0J150000D01*
G01*
G37*
G36*
G01*
X252140000Y-52855000D02*
X252140000Y-52555000D01*
G75*
G02*
X252290000Y-52405000I150000J0D01*
G01*
X253590000Y-52405000D01*
G75*
G02*
X253740000Y-52555000I0J-150000D01*
G01*
X253740000Y-52855000D01*
G75*
G02*
X253590000Y-53005000I-150000J0D01*
G01*
X252290000Y-53005000D01*
G75*
G02*
X252140000Y-52855000I0J150000D01*
G01*
G37*
G36*
G01*
X252140000Y-51585000D02*
X252140000Y-51285000D01*
G75*
G02*
X252290000Y-51135000I150000J0D01*
G01*
X253590000Y-51135000D01*
G75*
G02*
X253740000Y-51285000I0J-150000D01*
G01*
X253740000Y-51585000D01*
G75*
G02*
X253590000Y-51735000I-150000J0D01*
G01*
X252290000Y-51735000D01*
G75*
G02*
X252140000Y-51585000I0J150000D01*
G01*
G37*
G36*
G01*
X252140000Y-50315000D02*
X252140000Y-50015000D01*
G75*
G02*
X252290000Y-49865000I150000J0D01*
G01*
X253590000Y-49865000D01*
G75*
G02*
X253740000Y-50015000I0J-150000D01*
G01*
X253740000Y-50315000D01*
G75*
G02*
X253590000Y-50465000I-150000J0D01*
G01*
X252290000Y-50465000D01*
G75*
G02*
X252140000Y-50315000I0J150000D01*
G01*
G37*
G36*
G01*
X252140000Y-49045000D02*
X252140000Y-48745000D01*
G75*
G02*
X252290000Y-48595000I150000J0D01*
G01*
X253590000Y-48595000D01*
G75*
G02*
X253740000Y-48745000I0J-150000D01*
G01*
X253740000Y-49045000D01*
G75*
G02*
X253590000Y-49195000I-150000J0D01*
G01*
X252290000Y-49195000D01*
G75*
G02*
X252140000Y-49045000I0J150000D01*
G01*
G37*
%TD*%
M02*
